<svg xmlns="http://www.w3.org/2000/svg" width="30" height="30" viewBox="0 0 30 30">
    <g fill="none" fill-rule="evenodd">
        <path fill="#272F38" fill-rule="nonzero" d="M8.287 7.94v-.265c0-.787-.637-1.425-1.424-1.425H3.805c-.786 0-1.425.638-1.425 1.425v.266h-.706C.888 7.94.25 8.578.25 9.365v10.447c0 .787.638 1.425 1.424 1.425H10v-1.5H1.75V9.44h2.13V7.75h2.907v1.69h6.963v-1.5H8.287z"/>
        <path fill="#272F38" fill-rule="nonzero" d="M12.906 14.322a3.827 3.827 0 1 1-7.656 0 3.827 3.827 0 0 1 7.656 0zm-1.5 0a2.327 2.327 0 1 0-4.654 0 2.327 2.327 0 0 0 4.654 0z"/>
        <path stroke="#272F38" stroke-width="1.5" d="M18.64 7.68l9.484 2.572-9.483-2.571zm5.783 16.22l-11.277-3.055L24.423 23.9zM28.65 8.312c.265-.979-.09-1.598-.686-1.76l-9.108-2.47a1.126 1.126 0 0 0-1.378.79l-4.962 18.297a1.128 1.128 0 0 0 .79 1.378l9.109 2.47a1.127 1.127 0 0 0 1.377-.79L28.65 8.31z"/>
    </g>
</svg>
