<svg xmlns="http://www.w3.org/2000/svg" width="30" height="30"  viewBox="0 0 30 30">
    <g fill="none" fill-rule="evenodd">
        <path fill="#fff" d="M0 0h30v30H0z"/>
        <path fill="#000" fill-rule="nonzero" d="M19.998 5.941l.134.072 8.59 5.073a1.666 1.666 0 0 1 .658 2.147l-.071.134-9.512 16.124-4.249-2.51.324-.6c.019-.032.03-.052.04-.066a1.695 1.695 0 0 0-2.831-1.849l-.082.125-.006.01-.024.046-.365.594-4.262-2.517.361-.611L17.853 6.6a1.664 1.664 0 0 1 2.145-.66zm-.88 1.33l-.04.052-8.79 14.9 1.89 1.116a3.114 3.114 0 0 1 5.279 2.911l-.051.178 1.89 1.116 8.79-14.9a.245.245 0 0 0-.036-.294l-.05-.04-8.59-5.074a.242.242 0 0 0-.292.035zm-6.096 17.271l-.008.018-.007.013h.001l.01-.018.004-.013zm7.445-9.804l-.347 3.356c.628.464 1.053.918.929 1.143l-.025.023.008.007-.02.038c-.12.215-.576.128-.93.015l-.088-.022-.235 2.272-.358-.197.169-2.202a8.953 8.953 0 0 1-1.229-.584 10.169 10.169 0 0 1-1.135-.724l-1.762 1.319-.372-.206 1.778-1.398c-.312-.272-.51-.517-.543-.695-.013-.074-.013-.14.029-.183l.02-.005.154.038-.154-.046.007-.045c.128-.2.566-.118.915-.005.166.047.346.108.536.182l2.653-2.08zm-.363 3.514l-.07.686c.337.104.555.12.598.041l.02-.039-.007-.007.02-.037c.051-.093-.156-.335-.56-.644zm-1.916-1.123l-.667.498c.272.198.616.417 1.016.639.393.217.755.39 1.063.515l.063-.84c-.209-.136-.445-.279-.706-.423a11.057 11.057 0 0 0-.769-.389zm1.629-1.215l-1.5 1.12c.214.098.434.21.653.33l.04.024c.227.125.452.26.664.399l.143-1.873zM12.496 1.617a.75.75 0 0 1 1.14.713l-.492 4.886 1.661 1.409a.75.75 0 0 1-.97 1.144l-1.962-1.664a.75.75 0 0 1-.261-.648l.38-3.765-3.218 1.989a.75.75 0 0 1-.696.048l-3.46-1.524.896 3.676a.75.75 0 0 1-.17.677l-2.519 2.824 3.772.283a.75.75 0 0 1 .591.37l1.905 3.269.92-2.248a.75.75 0 0 1 1.389.569L9.904 17.28a.75.75 0 0 1-1.342.093l-2.471-4.242-4.893-.367a.75.75 0 0 1-.503-1.248l3.268-3.662L2.8 3.084a.75.75 0 0 1 1.03-.864l4.491 1.977zm4.386 15.185l-.02.037-.023-.008-.02.038c-.041.076.08.246.335.469l.533-.417c-.455-.167-.754-.21-.805-.119zm7.997-4.217l1.489.88-.72 1.217-1.488-.88.72-1.217zm-2.876-1.7l1.49.881-.719 1.218-1.489-.88.718-1.218zm-2.752-1.624l1.489.88-.719 1.216-1.49-.879.72-1.217z"/>
    </g>
</svg>
