<?xml version="1.0" encoding="UTF-8"?>
<svg width="30px" height="30px" viewBox="0 0 30 30" version="1.1" xmlns="http://www.w3.org/2000/svg" xmlns:xlink="http://www.w3.org/1999/xlink">
    <!-- Generator: Sketch 55.2 (78181) - https://sketchapp.com -->
    <title>icon / catagory / Featured02</title>
    <desc>Created with Sketch.</desc>
    <g id="icon-/-catagory-/-Featured02" stroke="none" stroke-width="1" fill="none" fill-rule="evenodd">
        <g id="icon/reward" transform="translate(2.000000, 2.000000)" fill="#272F38" fill-rule="nonzero">
            <path d="M21.9039683,8.71762401 L3.2171131,8.71762401 C2.44640894,8.71762401 1.82227183,9.34219246 1.82227183,10.1124653 L1.82227183,24.5936657 C1.82227183,25.3644765 2.44630231,25.9885069 3.2171131,25.9885069 L21.9039683,25.9885069 C22.6742411,25.9885069 23.2988095,25.3643698 23.2988095,24.5936657 L23.2988095,10.1124653 C23.2988095,9.34229933 22.6741342,8.71762401 21.9039683,8.71762401 Z M21.7988095,10.217624 L21.7988095,24.4885069 L3.32227183,24.4885069 L3.32227183,10.217624 L21.7988095,10.217624 Z" id="Stroke-1"></path>
            <path d="M24.5651217,3.51605305 C24.5462263,3.64595895 24.4893585,3.90194205 24.3795451,4.24043273 C24.1940289,4.81227124 23.9265501,5.38430395 23.5648042,5.91444883 C22.5427611,7.41227056 20.9831655,8.30034722 18.6912401,8.30034722 L18.6912401,9.80034722 C21.4977521,9.80034722 23.5117057,8.65354665 24.8038367,6.75990633 C25.5724466,5.63349522 25.9358451,4.51334937 26.0495013,3.73196282 L24.5651217,3.51605305 Z" id="Stroke-9"></path>
            <path d="M-0.152615674,3.57543084 C-0.0361418265,4.37640826 0.336745317,5.52593893 1.12536546,6.68173634 C2.4508464,8.62435403 4.51637306,9.80054067 7.39652282,9.80054067 L7.39652282,8.30054067 C5.03096945,8.30054067 3.4198127,7.38308892 2.36441877,5.83630929 C1.9910003,5.28902921 1.71495881,4.69863687 1.52350903,4.10843849 C1.4101353,3.7589317 1.35137453,3.49438058 1.33177242,3.35957908 L-0.152615674,3.57543084 Z" id="Stroke-11"></path>
            <path d="M14.4147024,9.40675099 L14.4147024,6.77450893 C14.4147024,2.94897324 11.3137248,-0.151780754 7.48776786,-0.151780754 C5.61943723,-0.151780754 4.10552579,1.36213068 4.10552579,3.22917163 C4.10552579,7.05567459 7.20682582,10.156751 11.0324603,10.156751 L13.6647024,10.156751 C14.0789159,10.156751 14.4147024,9.82096455 14.4147024,9.40675099 Z M11.0324603,8.65675099 C8.03522874,8.65675099 5.60552579,6.22722325 5.60552579,3.22981647 C5.60552579,2.19055781 6.44786436,1.34821925 7.48647817,1.34821925 C10.4853219,1.34821925 12.9147024,3.77742458 12.9147024,6.77450893 L12.9147024,8.65675099 L11.0324603,8.65675099 Z" id="Stroke-13"></path>
            <path d="M13.6450347,10.156751 C13.2308212,10.156751 12.8950347,9.82096455 12.8950347,9.40675099 L12.8950347,7.38388393 C12.8950347,4.3483906 15.356218,1.88720734 18.3917113,1.88720734 C19.9235715,1.88720734 21.1645784,3.12848763 21.1645784,4.65942956 C21.1645784,7.6957747 18.703833,10.156751 15.6679018,10.156751 L13.6450347,10.156751 Z M15.6679018,8.65675099 C17.8753744,8.65675099 19.6645784,6.86737908 19.6645784,4.6600744 C19.6645784,3.9568408 19.0950704,3.38720734 18.393001,3.38720734 C16.1846451,3.38720734 14.3950347,5.17681773 14.3950347,7.38388393 L14.3950347,8.65675099 L15.6679018,8.65675099 Z" id="Stroke-15"></path>
        </g>
        <path d="M12.4054235,16.8272483 L13.9641949,13.7302506 C14.1858307,13.2899004 14.8144923,13.2899209 15.0360993,13.7302856 L16.5946012,16.8272518 L20.0846497,17.3246125 C20.5804312,17.3952655 20.7765925,18.006334 20.4145687,18.352354 L17.8961615,20.7594318 L18.4900391,24.1557162 C18.5754733,24.6442993 18.0648816,25.0196552 17.6240369,24.7923484 L14.5001271,23.1816083 L11.3759454,24.7923575 C10.9351014,25.0196455 10.4245283,24.6442902 10.5099609,24.1557162 L11.1038385,20.7594318 L8.58543134,18.352354 C8.22340754,18.006334 8.4195688,17.3952655 8.91535029,17.3246125 L12.4054235,16.8272483 Z M13.3363708,17.6467683 C13.2480739,17.8221982 13.0795102,17.9433093 12.8850771,17.9710176 L10.3075155,18.3383414 L12.1646378,20.1133673 C12.309402,20.251732 12.3755945,20.453198 12.3411014,20.6504586 L11.9001876,23.1719689 L14.225186,21.9732585 C14.3977044,21.8843123 14.6025928,21.8843157 14.7751083,21.9732676 L17.0998038,23.1719689 L16.6588986,20.6504586 C16.6244055,20.453198 16.690598,20.251732 16.8353622,20.1133673 L18.6924845,18.3383414 L16.1149229,17.9710176 C15.9204761,17.9433074 15.7519032,17.8221813 15.6636116,17.6467333 L14.5000947,15.3346588 L13.3363708,17.6467683 Z" id="icon/whatsHot" fill="#272F38" fill-rule="nonzero"></path>
    </g>
</svg>