<svg xmlns="http://www.w3.org/2000/svg" width="30" height="30" viewBox="0 0 30 30">
    <g fill="none" fill-rule="evenodd">
        <path fill="#fff" d="M0 0h30v30H0z"/>
        <path fill="#000" fill-rule="nonzero" d="M27.564 9.179c.35 0 .655.242.734.583.355 1.534.62 3.117.724 4.639.034.506.05 1 .046 1.479-.03 2.787-1.777 5.12-4.117 5.543v5.04h3.175v1.505H20.27v-1.506h3.175v-5.034c-2.355-.41-4.116-2.75-4.147-5.549-.02-1.907.288-4.032.77-6.117a.753.753 0 0 1 .63-.576l.104-.007h6.763zM12.044 2a6.004 6.004 0 0 1 5.431 3.407l-.08.019a5.353 5.353 0 0 1 2.267-.08c1.12.199 2.136.75 2.912 1.561l.174.192-1.133.983a3.823 3.823 0 0 0-2.889-1.32c-.247-.001-.49.021-.727.065l-.048.012c.073.37.112.754.113 1.146a.75.75 0 0 1-1.5.005 4.503 4.503 0 0 0-9.006.026.75.75 0 0 1-1.5.005c-.001-.323.023-.64.072-.95l.055-.307-.07.003c-2.021.107-3.621 1.767-3.615 3.791.006 2.058 1.672 3.732 3.75 3.77a.75.75 0 0 1 .73.648l.006.1L7 22.43l7.697-.023.004 1.5-7.698.023.004 2.5 10.029-.03-.02-8.466 1.5-.004.022 9.216a.75.75 0 0 1-.646.745l-.102.007-11.53.034a.75.75 0 0 1-.744-.647l-.007-.102-.02-11.419c-2.54-.397-4.48-2.573-4.488-5.201C.991 7.643 3.37 5.27 6.307 5.26c.135 0 .27.005.405.014A6.002 6.002 0 0 1 12.044 2zm14.916 8.685h-5.555c-.347 1.62-.573 3.248-.6 4.724h6.109v1.506h-5.991c.395 1.786 1.722 3.07 3.26 3.07 1.825 0 3.354-1.809 3.38-4.12.003-.438-.012-.892-.044-1.361a27.568 27.568 0 0 0-.559-3.82zm-16.912 3.497v5.5h-1.2v-5.5h1.2zm2.5 0v5.5h-1.2v-5.5h1.2zm2.5 0v5.5h-1.2v-5.5h1.2z"/>
    </g>
</svg>
