<svg xmlns="http://www.w3.org/2000/svg" width="30" height="30" viewBox="0 0 30 30">
    <path fill="#272F38" fill-rule="nonzero" d="M20.132 6.013l8.59 5.073a1.666 1.666 0 0 1 .587 2.281l-9.512 16.124-4.249-2.51.324-.6c.019-.032.03-.052.04-.066a1.695 1.695 0 0 0-.61-2.297c-.804-.475-1.842-.207-2.303.573l.03-.063c-.01.027-.01.027-.06.119l-.365.594-4.262-2.517.361-.611L17.853 6.6a1.663 1.663 0 0 1 2.279-.588zm-2.726 20.415l1.89 1.116 8.79-14.9a.245.245 0 0 0-.087-.334l-8.59-5.074a.242.242 0 0 0-.332.087l-8.79 14.9 1.89 1.116a3.114 3.114 0 0 1 5.229 3.09zm2.615-15.07l-1.49-.88.72-1.217 1.489.88-.719 1.216zm2.753 1.626l-1.489-.88.718-1.218 1.49.88-.719 1.218zm2.875 1.698l-1.489-.88.72-1.217 1.488.88-.72 1.217zm-9.132 2.053l-.161-.048.007-.045c.128-.2.566-.118.915-.005.166.047.347.109.539.183l2.65-2.082-.348 3.356c.628.463 1.054.917.93 1.143l-.024.024.007.006-.02.038c-.12.215-.576.128-.93.015a2.836 2.836 0 0 1-.088-.02l-.235 2.27-.358-.197.168-2.202a8.957 8.957 0 0 1-1.228-.584 10.172 10.172 0 0 1-1.134-.723l-1.763 1.318-.372-.206 1.779-1.397c-.313-.273-.51-.517-.544-.696-.013-.074-.013-.14.029-.183l.02-.005.161.04zm.323.097l-.02.037c-.043.076.08.247.336.47l.532-.417c-.456-.168-.755-.21-.806-.12l-.02.037-.022-.007zm.682.796c.273.198.615.416 1.015.638.392.217.753.389 1.061.514l.064-.838c-.208-.137-.444-.28-.705-.424a11.061 11.061 0 0 0-.767-.388l-.668.498zm2.51 1.31c.338.104.557.12.6.041l.021-.038-.008-.008.02-.037c.051-.093-.157-.335-.562-.645l-.071.686zm-1.714-1.904c.214.099.433.21.652.33l.04.024c.227.125.451.26.664.398l.143-1.872-1.499 1.12zm-9.225-1.73l.92-2.248a.75.75 0 0 1 1.389.569L9.904 17.28a.75.75 0 0 1-1.342.093l-2.471-4.242-4.893-.367a.75.75 0 0 1-.503-1.248l3.268-3.662L2.8 3.084a.75.75 0 0 1 1.03-.864l4.491 1.977 4.175-2.58a.75.75 0 0 1 1.14.713l-.492 4.886 1.661 1.409a.75.75 0 0 1-.97 1.144l-1.962-1.664a.75.75 0 0 1-.261-.648l.38-3.765-3.218 1.989a.75.75 0 0 1-.696.048l-3.46-1.524.896 3.676a.75.75 0 0 1-.17.677l-2.519 2.824 3.772.283a.75.75 0 0 1 .591.37l1.905 3.269z"/>
</svg>
