<svg xmlns="http://www.w3.org/2000/svg" width="30" height="30" viewBox="0 0 30 30">
    <g fill="none" fill-rule="evenodd">
        <path fill="#fff" d="M0 0h30v30H0z"/>
        <path fill="#000" fill-rule="nonzero" d="M19.075 5.508l.102.01 3.549.603c1.147.316 2.075 1.234 2.614 2.52l.096.245 3.943 10.23a.75.75 0 0 1-.597 1.012l-.103.007h-1.037l-.079 1.602a4.487 4.487 0 0 1-3.985 4.235l-.716.079-.15.001a7.787 7.787 0 0 1-6.754-5.517l-.296-.985a3.312 3.312 0 0 1-.14-1.034l-.062.004h-1.139c.007.279-.023.564-.092.85l-.048.18-.296.985a7.787 7.787 0 0 1-6.476 5.487l-.278.03-.15-.001-.716-.08a4.487 4.487 0 0 1-3.97-4.023l-.015-.211-.08-1.603-.943.001a.75.75 0 0 1-.73-.921l.03-.099 3.94-10.218c.493-1.341 1.382-2.32 2.563-2.723l.224-.07 3.476-.586a.75.75 0 0 1 .349 1.455l-.1.024-3.4.57c-.663.183-1.248.757-1.626 1.648l-.083.21-2.903 7.53a4.244 4.244 0 0 1 3.074-1.721c.87-.073 1.743-.1 2.613-.08a.746.746 0 0 1 .648-.712l.1-.006h11.627a.75.75 0 0 1 .743.648l.004.054c.57.002 1.138.026 1.704.074l.262.022a4.248 4.248 0 0 1 3.295 2.053l-3.035-7.872c-.341-.928-.903-1.556-1.493-1.785l-.137-.046-3.475-.587a.75.75 0 0 1 .048-1.486l.1-.003zm-12.88 11.22a2.753 2.753 0 0 0-2.523 2.711l.003.17.103 2.053a2.987 2.987 0 0 0 2.472 2.793l.18.026.639.07a6.287 6.287 0 0 0 5.302-4.206l.078-.242.295-.984a1.806 1.806 0 0 0-1.467-2.306l-.143-.016-1.466-.097a23.185 23.185 0 0 0-3.472.029zm14.242-.046l-1.728.115a1.806 1.806 0 0 0-1.61 2.322l.295.985a6.287 6.287 0 0 0 5.38 4.448l.638-.071a2.987 2.987 0 0 0 2.653-2.82l.103-2.052a2.753 2.753 0 0 0-2.522-2.88l-.261-.023c-.98-.081-1.965-.09-2.948-.024zm-13.442.409a.75.75 0 0 1 .031 1.5c-.678.014-1.278.605-1.326 1.357a.75.75 0 0 1-1.497-.096c.097-1.52 1.325-2.73 2.792-2.761zm13.385 0a.75.75 0 0 1 .032 1.5c-.515.01-1.004.36-1.218.881a.75.75 0 1 1-1.388-.57c.437-1.062 1.45-1.787 2.574-1.811zm-3.51-1.156h-3.896c.403.298.732.683.965 1.122a.688.688 0 0 1 .15-.033l.08-.004h1.291c.15 0 .288.043.405.118a3.314 3.314 0 0 1 1.004-1.203z"/>
    </g>
</svg>
