<svg xmlns="http://www.w3.org/2000/svg" width="30" height="30" viewBox="0 0 30 30">
    <g fill="none" fill-rule="evenodd">
        <path fill="#fff" d="M0 0h30v30H0z"/>
        <path fill="#000" fill-rule="nonzero" d="M26.33 5.507a2.664 2.664 0 0 1 2.656 2.67v6.573H29v1.5h-.014v6.572a2.664 2.664 0 0 1-2.656 2.671H4.16a2.664 2.664 0 0 1-2.655-2.67V8.177A2.664 2.664 0 0 1 4.16 5.507h22.17zM11.184 7.006H4.16c-.637 0-1.155.524-1.155 1.172v14.644c0 .648.518 1.171 1.155 1.171h7.024v-6.98c-2.515 3.336-4.142 4.194-6.397 3.527a.75.75 0 1 1 .426-1.438c1.502.444 2.582-.097 4.668-2.85l-6.862-.002v-1.5h3.99l-.147-.038c-1.471-.488-2.49-1.915-2.602-3.562l-.01-.216c-.024-1.3.837-2.442 2.052-2.64 1.547-.252 3.047.591 3.79 2.102l.089.193 1.003 2.735V7.006zm16.302 9.244l-13.367.002c2.086 2.753 3.166 3.294 4.668 2.85a.75.75 0 1 1 .426 1.438c-2.294.678-3.938-.22-6.528-3.702l-.001 7.155H26.33c.637 0 1.156-.523 1.156-1.17V16.25zM26.33 7.007l-13.646-.001v6.679l1.152-3.137c.69-1.59 2.25-2.517 3.862-2.254 1.215.198 2.076 1.34 2.051 2.64-.033 1.737-1.076 3.269-2.66 3.792l-.095.024h10.492V8.178c0-.648-.52-1.171-1.156-1.171zm-11.102 4.098l-1.033 2.815 2.471-.632c.91-.301 1.562-1.26 1.584-2.383.01-.582-.348-1.058-.793-1.13-.911-.149-1.82.39-2.23 1.33zm-8.685-1.33c-.445.072-.804.548-.793 1.13.02 1.057.6 1.968 1.385 2.311l.15.057 2.52.647-1.017-2.774c-.425-.98-1.334-1.52-2.245-1.371z"/>
    </g>
</svg>
