<svg xmlns="http://www.w3.org/2000/svg" xmlns:xlink="http://www.w3.org/1999/xlink" width="30" height="30" viewBox="0 0 30 30">
    <defs>
        <path id="a" d="M.503.017h12.484V30H.503z"/>
    </defs>
    <g fill="none" fill-rule="evenodd">
        <path fill="#FACF00" d="M8 28.386c0 .329-.28.597-.625.597h-5.75A.612.612 0 0 1 1 28.386V19.91h7v8.476zM25.37 12.983h.747v16H21v-16h.927M22.092 13.552h3.305"/>
        <g transform="translate(17 -.017)">
            <mask id="b" fill="#fff">
                <use xlink:href="#a"/>
            </mask>
            <path fill="#272F38" d="M11.294 8.442l-1.95 3.955h-.257l.473-2.832a.586.586 0 0 0-1.156-.192l-.505 3.024h-.656V9.469a.586.586 0 0 0-1.171 0v2.928h-.486L5.08 9.373a.586.586 0 1 0-1.155.193l.472 2.83H3.98L2.137 8.403a5.034 5.034 0 0 1 1.07-5.724l.078-.076a5.012 5.012 0 0 1 6.993 0 5.014 5.014 0 0 1 1.016 5.84zm-7.096 8.85V13.57h4.919v3.724h-4.92zm4.919 10.092c0 .796-.648 1.445-1.445 1.445h-2.03a1.447 1.447 0 0 1-1.444-1.445v-8.921h2.577v3.775a.587.587 0 0 0 1.172 0v-3.775h1.17v8.92zM11.093 1.76A6.174 6.174 0 0 0 6.78.017 6.17 6.17 0 0 0 2.47 1.76l-.078.076a6.207 6.207 0 0 0-1.32 7.056l1.953 4.234v14.258A2.62 2.62 0 0 0 5.643 30h2.029a2.619 2.619 0 0 0 2.616-2.616V13.13l2.057-4.171a6.185 6.185 0 0 0-1.252-7.2z" mask="url(#b)"/>
        </g>
        <path fill="#272F38" d="M7.73 28.227a.587.587 0 0 1-.586.585H6.09v-4.45a.586.586 0 0 0-1.172 0v4.45H1.756a.587.587 0 0 1-.586-.585V19.91h6.56v8.316zM2.225 16.163h4.45v2.577h-4.45v-2.577zm.702-5.696c0-.3.2-.451.285-.502a.578.578 0 0 1 .578-.013l1.874 1.004c.19.102.31.299.31.516v3.52H2.926v-4.525zm4.92 8.279v-2.583c0-.48-.29-.891-.703-1.073v-3.618c0-.65-.355-1.242-.927-1.55L4.343 8.92a1.742 1.742 0 0 0-1.732.04 1.744 1.744 0 0 0-.855 1.508v4.623a1.172 1.172 0 0 0-.702 1.073v2.583A1.17 1.17 0 0 0 0 19.91v8.315c0 .969.788 1.757 1.756 1.757h5.388c.97 0 1.757-.788 1.757-1.757V19.91c0-.607-.463-1.107-1.054-1.165z"/>
        <path fill="#272F38" d="M5.919 21.722a.595.595 0 0 0-.414-.172.59.59 0 0 0-.586.586.59.59 0 0 0 .586.586.59.59 0 0 0 .586-.586.595.595 0 0 0-.172-.414"/>
        <path fill="#FACF00" d="M16.632 21.533c0 2.557-.673 5.066-1.946 7.278H13.19a14.581 14.581 0 0 1-1.946-7.278V15.577h5.387v5.956z"/>
        <path fill="#272F38" d="M16.632 21.533c0 2.557-.673 5.066-1.946 7.278H13.19a14.581 14.581 0 0 1-1.946-7.278v-3.38h3.529a.586.586 0 1 0 0-1.17h-3.53v-1.406h5.388v5.956zm.585-7.127h-2.693V8.667h.996a.587.587 0 0 0 0-1.172h-.996v-.702h.996a.586.586 0 0 0 0-1.171h-.996V4.92h.996a.586.586 0 0 0 0-1.171h-.996v-.703h.996a.586.586 0 0 0 0-1.17h-.996V1.17h.996a.586.586 0 0 0 0-1.17h-3.164a.584.584 0 1 0 0 1.17h.996v.703h-.996a.584.584 0 1 0 0 1.171h.996v.703h-.996a.584.584 0 1 0 0 1.171h.996v.703h-.996a.584.584 0 1 0 0 1.171h.996v.702h-.996a.585.585 0 0 0 0 1.172h.996v5.74h-2.694a.586.586 0 0 0-.586.584v6.542c0 2.88.789 5.704 2.283 8.168a.585.585 0 0 0 .5.281h2.165a.586.586 0 0 0 .5-.28 15.76 15.76 0 0 0 2.283-8.169v-6.542a.586.586 0 0 0-.586-.585zM24.775 23.857a.59.59 0 0 0-.414-.172.59.59 0 0 0-.586.586.59.59 0 0 0 1 .414.588.588 0 0 0 0-.828"/>
    </g>
</svg>
