<svg xmlns="http://www.w3.org/2000/svg" width="24" height="24" viewBox="0 0 24 24">
    <path fill="#272F38" fill-rule="evenodd" d="M8.639 22.641a1.024 1.024 0 1 0-1.023-1.023c0 .564.459 1.023 1.023 1.023zm0-3.404a2.384 2.384 0 0 1 2.38 2.381A2.384 2.384 0 0 1 8.64 24a2.384 2.384 0 0 1-2.381-2.382 2.384 2.384 0 0 1 2.38-2.381zm9.203 3.404a1.024 1.024 0 1 0-1.023-1.023c0 .564.459 1.023 1.023 1.023zm0-3.404a2.384 2.384 0 0 1 2.38 2.381A2.384 2.384 0 0 1 17.842 24a2.384 2.384 0 0 1-2.382-2.382 2.384 2.384 0 0 1 2.382-2.381zm1.989-6.674l1.595-6.362H6.112l1.749 7.381 11.97-1.019zm3.083-7.523a.72.72 0 0 1 .13.617l-1.943 7.755a.719.719 0 0 1-.637.541L7.691 15.041l-.303 1.826h12.69v1.438H6.54a.721.721 0 0 1-.709-.836l.533-3.215a.702.702 0 0 1 .114-.273L3.73 2.386 1 1.345 1.513 0l3.086 1.178a.72.72 0 0 1 .444.507l.729 3.078h16.576a.72.72 0 0 1 .566.277z"/>
</svg>
