<svg xmlns="http://www.w3.org/2000/svg" width="25" height="24" viewBox="0 0 25 24">
    <g fill="none" fill-rule="evenodd">
        <path fill="#272F38" fill-rule="nonzero" d="M4.69 11H4v1.492l-2.55-2.62a.768.768 0 0 1 .434-1.293l7.119-1.09 3.19-6.814a.767.767 0 0 1 1.39 0l3.191 6.814 7.118 1.09c.617.094.87.847.434 1.294l-5.175 5.316 1.223 7.516a.767.767 0 0 1-1.13.794L16 21.701v-1.755l2.605 1.444-1.031-6.337a.767.767 0 0 1 .208-.658l4.404-4.525-6.05-.926a.768.768 0 0 1-.578-.433l-2.67-5.701-2.67 5.7a.767.767 0 0 1-.578.434l-6.05.926L4.69 11z"/>
        <g stroke="#272F38" stroke-width="2">
            <path stroke-linejoin="bevel" d="M10 18l-9-.509"/>
            <path d="M6 22l3.937-3.836a.22.22 0 0 0 0-.308L6 14"/>
        </g>
    </g>
</svg>
