<svg xmlns="http://www.w3.org/2000/svg" xmlns:xlink="http://www.w3.org/1999/xlink" width="470" height="461" viewBox="0 0 470 461">
    <defs>
        <path id="a" d="M0 461h470V0H0z"/>
    </defs>
    <g fill="none" fill-rule="evenodd">
        <path fill="#FDE35B" d="M343.388 325.863c0 74.105-60.337 134.179-134.766 134.179-74.428 0-134.765-60.074-134.765-134.18 0-74.105 60.337-134.178 134.765-134.178 74.429 0 134.766 60.073 134.766 134.179"/>
        <path fill="#FCDE3A" d="M301.184 328.259c0 50.022-40.368 90.57-90.164 90.57-49.795 0-90.163-40.548-90.163-90.57 0-50.022 40.368-90.57 90.163-90.57 49.796 0 90.164 40.548 90.164 90.57"/>
        <path fill="#282F39" d="M167.349 407.328c-29.86-15.892-48.41-46.713-48.41-80.438 0-50.242 40.99-91.119 91.372-91.119 22.629 0 44.341 8.311 61.138 23.402l-3.082 3.411c-15.948-14.33-36.567-22.222-58.056-22.222-47.844 0-86.768 38.817-86.768 86.528 0 32.025 17.616 61.295 45.973 76.39l-2.167 4.048zM145.655 446.624A129.812 129.812 0 0 1 141 443.88l2.216-3.965c1.467.907 2.98 1.8 4.498 2.652l-2.06 4.057zM193.825 195.145l-.518-4.572c3.603-.411 7.275-.683 10.915-.806l.154 4.599c-3.519.119-7.069.38-10.55.78zm31.684.193a131.921 131.921 0 0 0-10.546-.909l.21-4.595c3.635.166 7.306.482 10.91.939l-.574 4.565zm-52.423 3.902l-1.246-4.428c3.498-.99 7.08-1.851 10.649-2.555l.883 4.515c-3.447.68-6.907 1.51-10.286 2.468zm73.119.449a130.87 130.87 0 0 0-10.26-2.597l.94-4.503c3.567.75 7.14 1.656 10.62 2.689l-1.3 4.41zm-92.922 6.952l-1.94-4.168a134.928 134.928 0 0 1 10.09-4.245l1.599 4.31a131.487 131.487 0 0 0-9.75 4.103zm112.644.699a130.9 130.9 0 0 0-9.707-4.227l1.652-4.292a135.544 135.544 0 0 1 10.047 4.376l-1.992 4.143zm-131.003 9.807l-2.583-3.801c3.007-2.06 6.13-4.019 9.282-5.821l2.27 3.997a131.376 131.376 0 0 0-8.97 5.625zm149.242.934a131.957 131.957 0 0 0-8.904-5.741l2.32-3.968a136.752 136.752 0 0 1 9.214 5.94l-2.63 3.769zM118.47 230.473l-3.154-3.337a138.11 138.11 0 0 1 8.238-7.24l2.879 3.581a133.227 133.227 0 0 0-7.963 6.996zm-14.131 15.794l-3.644-2.792a137.59 137.59 0 0 1 6.985-8.464l3.41 3.073c-2.35 2.627-4.621 5.38-6.751 8.183zm-11.436 17.86l-4.042-2.168a136.998 136.998 0 0 1 5.546-9.481l3.855 2.487a132.607 132.607 0 0 0-5.359 9.162zm-8.426 19.478l-4.338-1.485a136.923 136.923 0 0 1 3.954-10.259l4.203 1.831c-1.4 3.241-2.686 6.576-3.82 9.913zm-5.177 20.572l-4.52-.761a136.002 136.002 0 0 1 2.25-10.756l4.443 1.126c-.86 3.414-1.591 6.91-2.173 10.391zm-1.818 21.144l-4.583-.03c.023-3.657.193-7.35.504-10.974l4.567.395a133.97 133.97 0 0 0-.488 10.61zm-2.985 21.875c-.555-3.604-.97-7.279-1.235-10.922l4.571-.334c.256 3.52.657 7.07 1.193 10.553l-4.53.703zm5.078 21.361a135.788 135.788 0 0 1-2.97-10.573l4.458-1.068c.815 3.43 1.78 6.866 2.867 10.214l-4.355 1.427zm8.444 20.256a136.816 136.816 0 0 1-4.631-9.958l4.227-1.775c1.355 3.25 2.86 6.486 4.475 9.62l-4.07 2.113zm11.584 18.63a136.939 136.939 0 0 1-6.166-9.083l3.889-2.435a133.06 133.06 0 0 0 5.957 8.777l-3.68 2.741zm14.401 16.535a137.275 137.275 0 0 1-7.531-7.979l3.45-3.028c2.31 2.654 4.76 5.249 7.278 7.71l-3.197 3.297zm16.848 14.02c-2.971-2.094-5.9-4.338-8.705-6.671l2.925-3.543c2.71 2.256 5.541 4.424 8.412 6.447l-2.632 3.767zM298.304 228.104a124.913 124.913 0 0 0-3.835-3.356l2.745-3.353a129.578 129.578 0 0 1 3.97 3.474l-2.88 3.235z"/>
        <path fill="#FDF0B2" d="M49.461 300.944l-4.38-.576c.135-.768.279-1.534.429-2.3l4.368.64c-.147.744-.286 1.489-.417 2.236M211.215 163.715a159.097 159.097 0 0 0-5.46-.003l-.075-4.592c1.876-.03 3.75-.03 5.616.003l-.081 4.592zm-16.35.548l-.387-4.576c1.857-.157 3.74-.285 5.596-.38l.232 4.587c-1.805.092-3.635.216-5.441.37zm27.254.019a162.294 162.294 0 0 0-5.447-.376l.24-4.587c1.863.097 3.749.228 5.603.388l-.396 4.575zm-38.08 1.274l-.7-4.54c1.835-.282 3.705-.537 5.558-.759l.544 4.56c-1.802.216-3.62.464-5.402.739zm48.917.034a156.61 156.61 0 0 0-5.406-.746l.55-4.56c1.861.225 3.732.483 5.562.768l-.706 4.538zm-59.634 1.993l-1.005-4.481c1.821-.41 3.67-.791 5.495-1.136l.85 4.514a154.28 154.28 0 0 0-5.34 1.103zm70.355.047c-1.762-.398-3.56-.772-5.342-1.111l.858-4.511c1.834.349 3.682.733 5.495 1.143l-1.01 4.48zm-80.912 2.7l-1.303-4.404c1.79-.53 3.607-1.036 5.405-1.503l1.153 4.444c-1.746.454-3.514.947-5.255 1.463zm91.468.06c-1.73-.516-3.498-1.01-5.254-1.47l1.161-4.443c1.806.473 3.623.981 5.403 1.513l-1.31 4.4zm-101.818 3.386l-1.593-4.306a166.941 166.941 0 0 1 5.29-1.86l1.449 4.357a164.583 164.583 0 0 0-5.146 1.81zm112.16.08a162.828 162.828 0 0 0-5.14-1.82l1.458-4.354c1.777.596 3.556 1.226 5.287 1.872l-1.604 4.302zm-122.253 4.048l-1.878-4.19a167.109 167.109 0 0 1 5.154-2.209l1.734 4.252a164.638 164.638 0 0 0-5.01 2.147zm132.337.106a163.308 163.308 0 0 0-5.006-2.162l1.747-4.245c1.726.71 3.458 1.459 5.149 2.223l-1.89 4.184zM132.53 182.7l-2.156-4.054a165.695 165.695 0 0 1 4.994-2.55l2.017 4.125c-1.626.796-3.26 1.63-4.855 2.479zm151.91.133a166.497 166.497 0 0 0-4.85-2.492l2.03-4.12c1.666.822 3.343 1.685 4.985 2.564l-2.166 4.048zm-161.353 5.316l-2.426-3.899c1.575-.98 3.193-1.951 4.809-2.884l2.293 3.98a156.534 156.534 0 0 0-4.676 2.803zm170.78.153a156.627 156.627 0 0 0-4.667-2.814l2.3-3.973a165.02 165.02 0 0 1 4.803 2.893l-2.436 3.894zm-179.813 5.912l-2.684-3.725a169.256 169.256 0 0 1 4.591-3.198l2.56 3.812a163.564 163.564 0 0 0-4.467 3.11zm188.853.176a160.322 160.322 0 0 0-4.468-3.12l2.564-3.81a164.182 164.182 0 0 1 4.594 3.21l-2.69 3.72zm-197.455 6.491l-2.932-3.534a165.66 165.66 0 0 1 4.366-3.504l2.81 3.63a158.03 158.03 0 0 0-4.244 3.408zm206.058.19a158.852 158.852 0 0 0-4.243-3.413l2.812-3.63a163.632 163.632 0 0 1 4.367 3.512l-2.936 3.53zm-214.19 7.05l-3.166-3.324a163.085 163.085 0 0 1 4.12-3.796l3.05 3.431a158.946 158.946 0 0 0-4.003 3.69zm222.32.195a159.448 159.448 0 0 0-4.002-3.691l3.052-3.43a163.717 163.717 0 0 1 4.118 3.798l-3.168 3.323zm-229.944 7.584l-3.384-3.101a161.693 161.693 0 0 1 3.854-4.068l3.276 3.217a160.848 160.848 0 0 0-3.746 3.952zm237.562.192a159.177 159.177 0 0 0-3.741-3.952l3.277-3.214c1.305 1.332 2.6 2.7 3.85 4.067l-3.386 3.1zm-244.644 8.09l-3.585-2.866a169.228 169.228 0 0 1 3.569-4.32l3.488 2.984a161.949 161.949 0 0 0-3.472 4.202zm251.712.182a159.852 159.852 0 0 0-3.462-4.196l3.488-2.983a162.692 162.692 0 0 1 3.562 4.316l-3.588 2.863zm-258.22 8.561l-3.772-2.616a163.467 163.467 0 0 1 3.272-4.553l3.679 2.744a160.01 160.01 0 0 0-3.18 4.425zm264.714.181a159.278 159.278 0 0 0-3.177-4.432l3.684-2.74a167.065 167.065 0 0 1 3.269 4.559l-3.776 2.613zM70.2 242.09l-3.94-2.356c.952-1.59 1.947-3.194 2.958-4.764l3.857 2.488a162.84 162.84 0 0 0-2.876 4.632zm276.513.192a163.924 163.924 0 0 0-2.868-4.64l3.861-2.48a167.644 167.644 0 0 1 2.95 4.77l-3.943 2.35zm-281.792 9.353l-4.088-2.087a167.421 167.421 0 0 1 2.63-4.953l4.017 2.223a162.692 162.692 0 0 0-2.559 4.817zm287.047.202a162.575 162.575 0 0 0-2.546-4.823l4.021-2.213a166.319 166.319 0 0 1 2.62 4.961l-4.095 2.075zm-291.672 9.677l-4.22-1.806a166.933 166.933 0 0 1 2.293-5.12l4.157 1.948a162.644 162.644 0 0 0-2.23 4.978zm296.27.213c-.709-1.671-1.454-3.347-2.215-4.984l4.161-1.937a167.9 167.9 0 0 1 2.278 5.125l-4.223 1.796zm-300.222 9.957l-4.33-1.52c.616-1.76 1.27-3.53 1.943-5.263l4.277 1.664a161.349 161.349 0 0 0-1.89 5.12zm304.15.228l-.217-.623c-.53-1.501-1.09-3.018-1.663-4.505l4.282-1.654c.59 1.53 1.165 3.088 1.71 4.636l.22.626-4.331 1.52zM53.087 282.097l-4.424-1.223c.497-1.797 1.03-3.608 1.586-5.384l4.38 1.372c-.54 1.727-1.06 3.488-1.542 5.235zm310.65.23c-.48-1.74-.995-3.503-1.535-5.236l4.383-1.365a172.05 172.05 0 0 1 1.577 5.384l-4.425 1.218zM50.538 292.712l-4.497-.922c.373-1.825.784-3.67 1.219-5.48l4.462 1.073c-.422 1.76-.822 3.553-1.184 5.329zm315.732.231a165.4 165.4 0 0 0-1.177-5.329l4.463-1.067c.43 1.805.84 3.648 1.212 5.48l-4.498.916zm1.813 10.761c-.24-1.799-.515-3.615-.815-5.395l4.526-.763c.308 1.832.59 3.698.838 5.549l-4.549.61zm1.075 10.855a159.806 159.806 0 0 0-.445-5.436l4.567-.453c.184 1.857.338 3.738.458 5.594l-4.58.295zm4.923 10.92l-4.59-.011.001-.575c0-1.622-.026-3.265-.075-4.883l4.588-.14c.05 1.664.077 3.354.077 5.023l-.001.586zm-.423 11.217l-4.578-.33c.13-1.802.23-3.634.298-5.446l4.586.172c-.07 1.865-.173 3.75-.306 5.604zm-1.185 11.16l-4.544-.64c.251-1.79.476-3.612.668-5.414l4.563.485a165.255 165.255 0 0 1-.687 5.57zm-1.938 11.052l-4.49-.945c.373-1.776.72-3.578 1.032-5.358l4.52.794a165.94 165.94 0 0 1-1.062 5.509zm-2.681 10.897l-4.417-1.25c.492-1.74.96-3.515 1.393-5.274l4.456 1.098c-.445 1.81-.927 3.634-1.432 5.426zm-3.41 10.689l-4.323-1.544a163.427 163.427 0 0 0 1.745-5.168l4.373 1.395a169.724 169.724 0 0 1-1.795 5.317zM362.577 389.119l-3.842-1.58c.314-.75.623-1.5.925-2.254l3.87 1.516c-.31.775-.628 1.547-.953 2.318"/>
        <path fill="#FACF00" d="M312.019 453.333h-199.12a4.525 4.525 0 0 1-4.511-4.512v-134.74c0-2.48 2.03-4.511 4.512-4.511h199.119a4.525 4.525 0 0 1 4.512 4.51v134.741a4.526 4.526 0 0 1-4.512 4.512"/>
        <path fill="#272F38" d="M113.26 312.234a2.202 2.202 0 0 0-2.202 2.196v134.041c0 1.212.987 2.198 2.201 2.198h198.4a2.202 2.202 0 0 0 2.202-2.198v-134.04a2.202 2.202 0 0 0-2.202-2.197h-198.4zm198.4 143.015h-198.4c-3.745 0-6.79-3.04-6.79-6.778v-134.04c0-3.738 3.045-6.778 6.79-6.778h198.4c3.743 0 6.789 3.04 6.789 6.777v134.041c0 3.738-3.046 6.778-6.79 6.778z"/>
        <path fill="#FACF00" d="M86.327 451.416c.32 4.26 4.884 7.667 10.42 7.667h229.506c5.536 0 10.1-3.408 10.42-7.667H86.327z"/>
        <path fill="#272F38" d="M89.991 453.19c1.398 1.87 4.12 3.16 7.15 3.16h229.677c3.03 0 5.753-1.29 7.151-3.16H89.991zM326.818 461H97.14c-6.722 0-12.313-4.376-12.726-9.96a2.338 2.338 0 0 1 .61-1.756 2.298 2.298 0 0 1 1.689-.743h250.532c.64 0 1.253.27 1.69.743a2.34 2.34 0 0 1 .609 1.756c-.414 5.584-6.004 9.96-12.727 9.96z"/>
        <mask id="b" fill="#fff">
            <use xlink:href="#a"/>
        </mask>
        <path fill="#FFF" d="M124.694 439.915h175.53v-115.97h-175.53z" mask="url(#b)"/>
        <path fill="#272F38" d="M126.41 437.224h171.138V326.637H126.411v110.587zm173.436 4.608H124.114a2.3 2.3 0 0 1-2.298-2.304V324.333a2.3 2.3 0 0 1 2.298-2.304h175.732a2.3 2.3 0 0 1 2.297 2.304v115.195a2.3 2.3 0 0 1-2.297 2.304z" mask="url(#b)"/>
        <path fill="#29303A" d="M214.857 317.237a2.877 2.877 0 0 1-2.877 2.875 2.876 2.876 0 0 1 0-5.75 2.876 2.876 0 0 1 2.877 2.875" mask="url(#b)"/>
        <path fill="#FACF00" d="M142.918 332.572l-11.51 11.5" mask="url(#b)"/>
        <path fill="#272F38" d="M133.775 345.031l-3.326-3.323 11.062-11.053 3.326 3.323z" mask="url(#b)"/>
        <path fill="#FACF00" d="M155.388 336.405l-19.184 19.169" mask="url(#b)"/>
        <path fill="#272F38" d="M137.522 357.49l-3.236-3.233 18.823-18.81 3.238 3.234z" mask="url(#b)"/>
        <path fill="#282F39" d="M190.878 391.522c.12-1.991 3.383-3.17 6.154-3.75 3.735-.939 8.797-1.529 14.104-1.529h.362c10.017 0 20.624 1.998 20.624 5.28l-.124.47-3.737-1.06v-.344c0-1.527-6.746-3.175-16.638-3.175-9.892 0-16.644 1.648-16.644 3.175v.343l-3.98.943-.121-.353z" mask="url(#b)"/>
        <path fill="#282F39" d="M211.446 361.324l-20.568 49.838h3.269l17.299-39.233 17.533 39.233h3.143z" mask="url(#b)"/>
        <path fill="#282F39" d="M211.46 396.786c-9.841 0-18.115-1.645-20.063-4.122-.36-.464-.611-.94-.488-1.406l.129-.126 3.768-1.055v.478c0 1.523 6.813 3.18 16.771 3.18 9.967 0 16.775-1.657 16.775-3.18v-.478l3.77.94v.354c0 2.016-3.405 3.187-6.197 3.77-3.893 1.3-8.991 1.645-14.464 1.645" mask="url(#b)"/>
        <path fill="#272F38" d="M25.009 386.393c3.356.69 6.304 1.74 8.94 3.216l3.653-2.168a24.88 24.88 0 0 0-2.226-.672 24.67 24.67 0 0 0-10.367-.376zm13.056 6.078c2.177 1.85 4.127 4.107 5.932 6.83l5.267-3.123a24.37 24.37 0 0 0-6.742-6.35l-4.457 2.643zm-27.197 1.802l3.762 1.278c-.762 2.24-1.259 4.353-1.481 6.4l6.114-3.629-4.177-7.03 3.924-2.33 4.178 7.032 6.055-3.593c-1.905-.783-3.999-1.36-6.332-1.765l.685-3.948a24.978 24.978 0 0 0-6.919 2.817 24.718 24.718 0 0 0-5.809 4.768zm-1.005 1.196a24.8 24.8 0 0 0-4.986 11.388l3.567-2.116c-.036-2.985.442-6.037 1.42-9.272zm15.655 4.446l4.548 7.653 10.001-5.935c-1.87-2.786-3.891-4.972-6.211-6.665l-8.338 4.947zm20.805 3.31c1.522 2.888 2.567 5.684 3.145 8.485l4.432-2.628a24.483 24.483 0 0 0-2.315-8.98l-5.262 3.123zm-33.126 4c.376 2.845 1.33 5.665 2.883 8.64l10.06-5.969-4.546-7.653-8.397 4.982zm19.198 4.264l4.549 7.653 8.314-4.934c-.373-2.852-1.321-5.677-2.865-8.651l-9.998 5.932zm-27.784.83a24.335 24.335 0 0 0 2.33 8.968l5.21-3.092c-1.53-2.886-2.58-5.678-3.162-8.473L4.61 412.32zm45.398 4.375c.034 3.003-.446 6.074-1.428 9.328a24.779 24.779 0 0 0 5.052-11.479l-3.624 2.15zm-31.594 3.088c1.875 2.778 3.903 4.963 6.232 6.654l8.372-4.966-4.548-7.654-10.056 5.966zm-9.139 5.423a24.48 24.48 0 0 0 6.769 6.335l4.39-2.605c-2.184-1.848-4.14-4.103-5.95-6.82l-5.209 3.09zm19.985 3.798c1.956.807 4.11 1.396 6.514 1.807l-.655 3.835c2.34-.576 4.608-1.5 6.738-2.765a24.642 24.642 0 0 0 5.61-4.552l-3.695-1.265c.792-2.304 1.304-4.476 1.531-6.578l-6.03 3.578 4.177 7.03-3.924 2.33-4.178-7.032-6.088 3.612zm-8.289 4.918c.709.25 1.432.469 2.168.656a24.65 24.65 0 0 0 10.27.425c-3.319-.697-6.238-1.744-8.853-3.208l-3.585 2.127zm8.32 5.994c-2.425 0-4.867-.304-7.278-.919-7.578-1.929-13.95-6.69-17.943-13.409-8.214-13.824-3.603-31.768 10.276-40.003 6.727-3.992 14.593-5.139 22.147-3.236 7.566 1.908 13.93 6.656 17.92 13.37 8.24 13.868 3.654 31.85-10.224 40.083-4.584 2.72-9.703 4.113-14.898 4.114z" mask="url(#b)"/>
        <path fill="#FACF00" d="M347.224 352.22c0 5.029-4.08 9.104-9.111 9.104-5.033 0-9.113-4.075-9.113-9.105 0-5.029 4.08-9.105 9.113-9.105 5.032 0 9.111 4.076 9.111 9.105" mask="url(#b)"/>
        <path fill="#272F38" d="M337.633 344.875c-3.789 0-6.87 3.08-6.87 6.865s3.081 6.865 6.87 6.865c3.788 0 6.87-3.08 6.87-6.865s-3.082-6.865-6.87-6.865m0 18.366c-6.347 0-11.51-5.16-11.51-11.501 0-6.342 5.163-11.5 11.51-11.5 6.346 0 11.51 5.158 11.51 11.5 0 6.341-5.164 11.501-11.51 11.501" mask="url(#b)"/>
        <path fill="#FDF0B2" d="M364.49 307.565c0-14.243-11.595-25.79-25.898-25.79-14.303 0-25.898 11.547-25.898 25.79 0 9.406 5.072 17.61 12.625 22.117V352.7h26.546v-23.017c7.552-4.506 12.625-12.711 12.625-22.117" mask="url(#b)"/>
        <path fill="#272F38" d="M327.085 350.044h22.054v-20.802c0-.804.425-1.548 1.118-1.96 7.237-4.315 11.557-11.876 11.557-20.226 0-13.004-10.633-23.584-23.702-23.584-13.069 0-23.701 10.58-23.701 23.584 0 8.35 4.32 15.91 11.558 20.225a2.281 2.281 0 0 1 1.116 1.96v20.803zm24.351 4.571h-26.648a2.291 2.291 0 0 1-2.297-2.285v-21.828c-7.962-5.24-12.675-13.912-12.675-23.446 0-15.525 12.694-28.156 28.296-28.156 15.602 0 28.296 12.631 28.296 28.156 0 9.534-4.713 18.206-12.674 23.446v21.828a2.291 2.291 0 0 1-2.298 2.285z" mask="url(#b)"/>
        <path fill="#272F38" d="M329 338.322h22.061v-4.792H329zM329 345.031h22.061v-4.792H329zM342.883 314.362c-.743 0-1.44-.384-1.863-1.029l-3.719-5.681-3.318 5.59a2.255 2.255 0 0 1-1.936 1.12c-.786-.007-1.513-.443-1.918-1.15l-4.966-8.669 3.874-2.448 3.062 5.347 3.19-5.379a2.24 2.24 0 0 1 1.869-1.118c.756-.026 1.48.369 1.912 1.028l3.752 5.73 3.481-5.67 3.799 2.572-5.32 8.668a2.236 2.236 0 0 1-1.866 1.089h-.033zM335.714 259.732h4.796v-12.46h-4.796zM374.657 275.067l-3.453-3.45 9.016-9.01 3.453 3.451zM300.784 275.067l-8.233-8.226 3.278-3.276 8.232 8.227zM291.759 291.36l-10.718-4.418 1.752-4.208 10.717 4.418zM359.062 264.524l-4.164-1.85 4.467-11.568 4.166 1.85zM317.111 263.565l-4.417-10.705 4.215-1.754 4.418 10.706zM384.532 292.318l-1.818-4.116 11.61-4.51 1.819 4.116z" mask="url(#b)"/>
        <path fill="#FEF3B3" d="M445.886 123.702L388.84 86.647a2.41 2.41 0 0 0-3.33.702l-30.223 46.317a2.398 2.398 0 0 0 .704 3.322l57.045 37.055a2.41 2.41 0 0 0 3.33-.702l30.223-46.317a2.398 2.398 0 0 0-.704-3.322" mask="url(#b)"/>
        <path fill="#272F38" d="M387.637 86.033a.095.095 0 0 0-.08.044l-29.98 45.93a.096.096 0 0 0 .03.134l56.581 36.746c.037.022.108.01.133-.028l29.979-45.93a.096.096 0 0 0-.029-.134L387.69 86.049a.097.097 0 0 0-.052-.016m26.594 87.441a4.651 4.651 0 0 1-2.543-.758l-56.581-36.746a4.636 4.636 0 0 1-2.025-2.945 4.624 4.624 0 0 1 .657-3.51l29.978-45.932a4.691 4.691 0 0 1 6.472-1.363l56.582 36.746a4.633 4.633 0 0 1 2.024 2.945 4.628 4.628 0 0 1-.656 3.511l-29.979 45.93a4.643 4.643 0 0 1-2.952 2.019 4.736 4.736 0 0 1-.977.103" mask="url(#b)"/>
        <path fill="#272F38" d="M450.497 120.76c-4.5 0-9.579-1.354-15.028-5.103l2.535-4.113c16.143 11.11 28.015-2.653 28.514-3.243l3.482 3.247c-.106.127-7.854 9.213-19.503 9.213M401.3 92.008c-19.934-12.882-10.716-33.338-10.62-33.544l4.187 1.92-2.094-.96 2.097.954c-.318.694-7.6 17.1 8.946 27.794l-2.516 3.836z" mask="url(#b)"/>
        <path fill="#272F38" d="M414.467 65.88a6.98 6.98 0 0 0-5.871 3.197 19.558 19.558 0 0 0-2.73 14.734c1.073 5.118 4.064 9.508 8.419 12.363l5.86 3.84 3.816-5.9a19.56 19.56 0 0 0 2.73-14.734c-1.074-5.118-4.064-9.508-8.42-12.362a6.92 6.92 0 0 0-3.804-1.138m6.336 39.546c-.422 0-.849-.119-1.229-.368l-7.75-5.079c-11.077-7.258-14.22-22.233-7.01-33.381 3.462-5.351 10.604-6.872 15.919-3.386 5.366 3.516 9.05 8.925 10.374 15.23 1.324 6.304.129 12.75-3.365 18.152l-5.046 7.8a2.25 2.25 0 0 1-1.893 1.032" mask="url(#b)"/>
        <path fill="#272F38" d="M423.651 104.097l4.6 2.98a14.987 14.987 0 0 0 11.306 2.099 14.931 14.931 0 0 0 9.487-6.471l.218-.334a5.055 5.055 0 0 0-1.489-7.007l-.333-.215a14.999 14.999 0 0 0-11.308-2.1 14.928 14.928 0 0 0-9.486 6.472l-2.995 4.576zm12.76 9.955a19.524 19.524 0 0 1-10.653-3.165l-6.515-4.22a2.266 2.266 0 0 1-.668-3.146l4.24-6.482c2.857-4.365 7.25-7.36 12.372-8.438 5.122-1.073 10.359-.106 14.745 2.737l.334.215c4.464 2.893 5.731 8.858 2.826 13.3l-.22.333c-2.855 4.364-7.248 7.36-12.37 8.439a19.933 19.933 0 0 1-4.092.427z" mask="url(#b)"/>
        <path fill="#272F38" d="M387.515 154.306l-3.842-2.508 32.608-50.205 3.841 2.507z" mask="url(#b)"/>
        <path fill="#272F38" d="M430.08 148.555l-59.835-38.372 2.511-3.798 59.836 38.371z" mask="url(#b)"/>
        <path fill="#FEF3B3" d="M65.276 120.095l-40.533 27.078a1.707 1.707 0 0 0-.47 2.38l22.197 32.748a1.735 1.735 0 0 0 2.397.465L89.4 155.687a1.708 1.708 0 0 0 .469-2.38l-22.196-32.746a1.734 1.734 0 0 0-2.397-.466" mask="url(#b)"/>
        <path fill="#272F38" d="M23.97 147.296l21.653 31.965 39.752-26.571-21.652-31.965-39.753 26.57zm21.51 36.72a4.024 4.024 0 0 1-3.341-1.76l-22.272-32.88a3.983 3.983 0 0 1 1.09-5.541l40.672-27.187c1.839-1.228 4.342-.745 5.579 1.083L89.48 150.61a3.981 3.981 0 0 1-1.09 5.541l-40.672 27.187a4.02 4.02 0 0 1-2.239.679z" mask="url(#b)"/>
        <path fill="#272F38" d="M56.445 123.636l-2.73-3.69c11.743-7.188 6.372-17.899 6.137-18.352l4.412-1.918c2.648 5.011 4.421 16.469-7.819 23.96M20.11 144.721c-6.558 0-11.83-3.251-14.355-5.819l3.34-2.806c.355.356 8.833 8.645 20.038 1.69l2.52 3.456c-4.07 2.528-7.994 3.48-11.542 3.48" mask="url(#b)"/>
        <path fill="#272F38" d="M26.662 119.608c-2.698 0-5.333.804-7.622 2.353-2.07 1.401-2.62 4.236-1.228 6.319a13.605 13.605 0 0 0 8.74 5.832c3.591.71 7.241-.036 10.278-2.091l3.755-2.542-2.526-3.778a13.616 13.616 0 0 0-8.739-5.833 13.813 13.813 0 0 0-2.658-.26m2.557 19.363a18.4 18.4 0 0 1-3.544-.347c-4.79-.942-8.93-3.705-11.654-7.778a9.129 9.129 0 0 1-1.38-6.863 9.09 9.09 0 0 1 3.848-5.836 18.067 18.067 0 0 1 13.707-2.79c4.79.942 8.929 3.705 11.654 7.778l3.801 5.685a2.306 2.306 0 0 1-.62 3.19l-5.65 3.824c-3.05 2.065-6.565 3.137-10.162 3.137" mask="url(#b)"/>
        <path fill="#272F38" d="M48.495 109.995c-.607 0-1.2.179-1.714.525l-.245.163c-4.717 3.17-5.974 9.58-2.797 14.291l1.883 2.793 2.798-1.88c4.721-3.17 5.978-9.58 2.801-14.292l-.162-.24a3.065 3.065 0 0 0-2.564-1.36m-3.491 23.225c-.737 0-1.46-.353-1.901-1.009l-3.161-4.687c-4.587-6.8-2.773-16.056 4.042-20.632l.244-.163a7.625 7.625 0 0 1 5.743-1.16 7.609 7.609 0 0 1 4.885 3.235l.162.24c4.586 6.802 2.772 16.057-4.042 20.634l-4.697 3.153c-.393.263-.836.39-1.275.39" mask="url(#b)"/>
        <path fill="#272F38" d="M65.292 168.682l-24.047-35.796 3.77-2.54 24.046 35.795z" mask="url(#b)"/>
        <path fill="#272F38" d="M35.15 165.807l-2.538-3.794 42.544-28.793 2.538 3.795z" mask="url(#b)"/>
        <path fill="#FFF" d="M240.687 122.678c12.613-7.05 24.048-23.287 24.048-38.995 0-22.93-18.22-41.513-40.694-41.513-10.909 0-24.896 7.029-32.204 14.155" mask="url(#b)"/>
        <path fill="#272F38" d="M243.029 124.595l-2.2-4.069c11.228-6.23 23.162-21.376 23.162-37.172 0-21.736-17.46-39.42-38.92-39.42-10.637 0-24.129 6.91-31.029 13.59l-3.164-3.354c7.551-7.311 22.407-14.875 34.193-14.875 23.987 0 43.5 19.765 43.5 44.059 0 17.581-13.16 34.371-25.542 41.24" mask="url(#b)"/>
        <path fill="#272F38" d="M209.153 17.106c-3.304 0-5.988 2.7-5.988 6.022 0 9.524 7.698 17.272 17.161 17.272h5.928v-4.092c0-.499.021-.993.062-1.482v-.45c0-9.523-7.7-17.27-17.163-17.27zm21.78 23.294h4.006c6.978 0 12.654-5.712 12.654-12.734 0-2.257-1.822-4.091-4.063-4.091-6.557 0-11.962 5.037-12.596 11.466V40.4zm4.006 4.646h-14.613a21.55 21.55 0 0 1-11.461-3.287v2.156c-16.53 0-22.758-12.884-23.743-19.697l4.569-.675c.09.593 2.204 13.535 15.654 15.481a21.925 21.925 0 0 1-6.798-15.894c0-5.884 4.756-10.67 10.602-10.67 9.184 0 17.057 5.745 20.256 13.85 3.13-4.462 8.293-7.381 14.121-7.381 4.79 0 8.684 3.918 8.684 8.734 0 4.334-1.583 8.302-4.198 11.35 12.907-1.951 14.945-14.401 15.032-14.974l4.568.676c-.96 6.64-7.032 19.2-23.14 19.2v-1.762a17.093 17.093 0 0 1-9.533 2.893z" mask="url(#b)"/>
        <path fill="#282F39" d="M202.388 90.657c.107-1.66 2.99-2.644 5.44-3.125 3.298-.783 7.773-1.274 12.462-1.274h.32c8.853 0 18.227 1.665 18.227 4.4l-.11.392-3.303-.884v-.287c0-1.272-5.961-2.646-14.703-2.646-8.742 0-14.709 1.374-14.709 2.646v.287l-3.517.785-.107-.294z" mask="url(#b)"/>
        <path fill="#282F39" d="M220.563 66.131l-18.175 43.129h2.888l15.287-33.951 15.496 33.95h2.778z" mask="url(#b)"/>
        <path fill="#282F39" d="M220.098 95.842c-8.468 0-15.588-1.41-17.264-3.533-.308-.398-.525-.806-.42-1.206l.112-.107 3.241-.905v.411c0 1.305 5.863 2.725 14.432 2.725 8.576 0 14.434-1.42 14.434-2.725v-.41l3.245.805v.304c0 1.728-2.93 2.732-5.333 3.231-3.35 1.115-7.737 1.41-12.447 1.41" mask="url(#b)"/>
        <path fill="#272F38" d="M292.88 15.683l-8.002-7.997 1.937-1.935 8.002 7.996-1.938 1.936zm16.608 0l-1.937-1.936 8.002-7.996 1.937 1.935-8.002 7.997zm-22.673 22.654l-1.937-1.936 8.001-7.996 1.938 1.936-8.002 7.996zm28.738 0l-8.002-7.996 1.937-1.936 8.002 7.996-1.937 1.936zM298.854 11.98h2.74V0h-2.74v11.98zm-20.69 11.56h11.925v-2.752h-11.926v2.752zm32.196 0h11.926v-2.752H310.36v2.752zM298.854 43.13h2.74V32.347h-2.74V43.13zM151.544 126.532l-5.748-5.744 1.945-1.944 5.748 5.744-1.945 1.944zm12.484 0l-1.946-1.944 5.748-5.744 1.946 1.944-5.748 5.744zm-16.287 16.273l-1.945-1.944 5.748-5.743 1.945 1.943-5.748 5.744zm20.09 0l-5.749-5.744 1.946-1.943 5.748 5.743-1.946 1.944zM155.973 124.488h2.665v-8.52h-2.665v8.52zm-14.014 8.61h8.296v-2.736h-8.296v2.736zm22.399 0h8.295v-2.736h-8.295v2.736zm-8.385 13.54h2.665v-7.666h-2.665v7.666zM139.082 49.72a5.878 5.878 0 0 0-5.874 5.869c0 3.235 2.636 5.868 5.874 5.868a5.877 5.877 0 0 0 5.873-5.868 5.877 5.877 0 0 0-5.873-5.87m0 14.495c-4.76 0-8.633-3.87-8.633-8.625 0-4.757 3.873-8.626 8.633-8.626 4.76 0 8.632 3.869 8.632 8.626 0 4.756-3.872 8.625-8.632 8.625M293.51 72.5a2.26 2.26 0 0 0-2.258 2.257 2.26 2.26 0 0 0 2.258 2.256 2.26 2.26 0 0 0 2.258-2.256 2.26 2.26 0 0 0-2.258-2.256m0 7.048a4.8 4.8 0 0 1-4.796-4.792 4.8 4.8 0 0 1 4.796-4.792 4.8 4.8 0 0 1 4.796 4.792 4.8 4.8 0 0 1-4.796 4.792" mask="url(#b)"/>
        <path fill="#FFF" d="M258.02 89.614c0 23.021-18.68 41.69-41.723 41.69-23.044 0-41.726-18.669-41.726-41.69 0-23.028 18.682-41.693 41.726-41.693 23.042 0 41.723 18.665 41.723 41.693" mask="url(#b)"/>
        <path fill="#272F38" d="M216.297 50.596c-21.532 0-39.049 17.504-39.049 39.017 0 21.514 17.517 39.016 39.05 39.016 21.53 0 39.046-17.502 39.046-39.016 0-21.513-17.516-39.017-39.047-39.017m0 82.624c-24.066 0-43.644-19.562-43.644-43.607 0-24.046 19.578-43.609 43.644-43.609 24.064 0 43.642 19.563 43.642 43.61 0 24.044-19.578 43.606-43.642 43.606" mask="url(#b)"/>
        <path fill="#272E38" d="M198.551 93.532c.096-1.66 2.676-2.642 4.867-3.124 2.953-.783 6.956-1.275 11.151-1.275h.286c7.92 0 16.308 1.665 16.308 4.399l-.099.393-2.954-.885v-.285c0-1.272-5.334-2.646-13.156-2.646-7.821 0-13.16 1.374-13.16 2.646v.285l-3.147.786-.096-.294z" mask="url(#b)"/>
        <path fill="#272E38" d="M214.814 70.923l-16.263 39.295h2.585l13.678-30.933 13.864 30.933h2.485z" mask="url(#b)"/>
        <path fill="#272E38" d="M214.826 98.717c-7.781 0-14.323-1.174-15.864-2.943-.284-.332-.483-.672-.386-1.005l.102-.09 2.978-.754v.342c0 1.088 5.389 2.27 13.263 2.27 7.88 0 13.263-1.182 13.263-2.27v-.342l2.981.671v.254c0 1.44-2.692 2.276-4.9 2.693-3.078.928-7.11 1.174-11.437 1.174" mask="url(#b)"/>
        <path fill="#FACF00" d="M434.753 401.788l-25.706-5.935c-.502-.116-1.007.18-1.128.661l-5.036 20.065c-.12.482.188.966.69 1.082l25.707 5.936c.501.115 1.007-.181 1.127-.662l5.036-20.065c.121-.481-.187-.966-.69-1.082" mask="url(#b)"/>
        <path fill="#272F38" d="M403.9 414.948l23.99 5.738 4.62-19.061-23.992-5.738-4.619 19.061zm24.68 9.632c-.22 0-.442-.027-.66-.079l-25.794-6.168a2.778 2.778 0 0 1-1.733-1.253 2.745 2.745 0 0 1-.334-2.104l5.052-20.85a2.764 2.764 0 0 1 1.262-1.723 2.808 2.808 0 0 1 2.12-.331l25.79 6.168h-.002.001a2.786 2.786 0 0 1 2.069 3.355l-5.054 20.851a2.764 2.764 0 0 1-1.26 1.723 2.799 2.799 0 0 1-1.458.411z" mask="url(#b)"/>
        <path fill="#272F38" d="M431.894 400.62c-.978 0-2.023-.11-3.139-.356l.885-3.368c6.517 1.438 8.936-3.724 9.035-3.944l3.509 1.297c-1.06 2.425-4.442 6.37-10.29 6.37M413.526 396.786c-7.572-1.954-9.012-9.005-8.715-12.46l3.575.354-1.787-.178 1.788.166c-.051.687-.321 6.75 5.98 8.376l-.84 3.742z" mask="url(#b)"/>
        <path fill="#272F38" d="M415.373 385.052c-.338 0-.672.089-.968.26-.424.246-.721.632-.838 1.09a6.23 6.23 0 0 0 .827 4.963c.966 1.495 2.488 2.544 4.287 2.955l1.81.412.435-1.713c.894-3.519-1.4-7.07-5.114-7.917a1.965 1.965 0 0 0-.44-.05m6.522 13.65c-.147 0-.297-.015-.446-.05l-3.656-.833c-2.785-.636-5.143-2.26-6.64-4.576-1.494-2.316-1.95-5.044-1.279-7.683.355-1.392 1.26-2.57 2.55-3.319a5.887 5.887 0 0 1 4.279-.639c5.75 1.312 9.301 6.81 7.917 12.259l-.88 3.463c-.21.825-.987 1.379-1.845 1.379" mask="url(#b)"/>
        <path fill="#272F38" d="M423.357 396.283l1.188.293a4.913 4.913 0 0 0 3.821-.617 5.14 5.14 0 0 0 2.275-3.206l.038-.16a1.091 1.091 0 0 0-.784-1.313l-.15-.036c-2.718-.669-5.45 1.046-6.102 3.822l-.286 1.217zm2.388 4.337a8.706 8.706 0 0 1-2.09-.257l-3.035-.748a1.91 1.91 0 0 1-1.178-.876 1.99 1.99 0 0 1-.226-1.473l.731-3.112c1.143-4.865 5.936-7.871 10.681-6.699l.152.036c2.612.646 4.223 3.342 3.594 6.013l-.037.16c-.553 2.357-1.97 4.352-3.987 5.617a8.632 8.632 0 0 1-4.605 1.339z" mask="url(#b)"/>
        <path fill="#272F38" d="M417.8 419.788l-3.433-.847 5.201-22.155 3.432.847z" mask="url(#b)"/>
        <path fill="#272F38" d="M430.796 413.079l-26.02-6.165.837-3.42 26.02 6.165z" mask="url(#b)"/>
    </g>
</svg>
