<svg xmlns="http://www.w3.org/2000/svg" xmlns:xlink="http://www.w3.org/1999/xlink" width="24" height="24" viewBox="0 0 24 24">
    <defs>
        <path id="a" d="M.292.086h6.37V6H.291z"/>
        <path id="c" d="M.095.086h6.37V6H.094z"/>
    </defs>
    <g fill="none" fill-rule="evenodd">
        <g transform="translate(4 17)">
            <mask id="b" fill="#fff">
                <use xlink:href="#a"/>
            </mask>
            <path fill="#272F38" d="M3.477 1.353c-1.003 0-1.82.758-1.82 1.69 0 .931.817 1.69 1.82 1.69 1.003 0 1.82-.759 1.82-1.69 0-.932-.817-1.69-1.82-1.69m0 4.647C1.72 6 .292 4.674.292 3.043.292 1.412 1.721.086 3.477.086S6.66 1.412 6.66 3.043C6.661 4.673 5.233 6 3.477 6" mask="url(#b)"/>
        </g>
        <g transform="translate(15 17)">
            <mask id="d" fill="#fff">
                <use xlink:href="#c"/>
            </mask>
            <path fill="#272F38" d="M3.28 1.353c-1.004 0-1.82.758-1.82 1.69 0 .931.816 1.69 1.82 1.69 1.002 0 1.82-.759 1.82-1.69 0-.932-.818-1.69-1.82-1.69M3.28 6C1.522 6 .094 4.674.094 3.043.095 1.412 1.523.086 3.279.086c1.757 0 3.185 1.326 3.185 2.957C6.464 4.673 5.036 6 3.28 6" mask="url(#d)"/>
        </g>
        <path fill="#272F38" d="M11 20.886h4v-1h-4zM21 13h-4.3a.7.7 0 0 1-.7-.7V8h1.4v3.6H21V13zM1.452 13.617h12.096V3.37H1.452v10.248zm12.822 1.373H.726c-.401 0-.726-.307-.726-.686V2.682c0-.379.325-.686.726-.686h13.548c.401 0 .726.307.726.686v11.622c0 .379.224-.304-.177-.304l-.549.99z"/>
        <path fill="#272F38" d="M20.487 20.886V19.5h2.093v-7.988l-3.473-5.155H14V4.971h5.49c.24 0 .462.118.593.312l3.8 5.64a.681.681 0 0 1 .117.382v8.888a.702.702 0 0 1-.71.693h-2.803zM5 20.886H1.87c-.48 0-.87-.306-.87-.685V14h1.743v5.516H5v1.37z"/>
    </g>
</svg>
