<svg xmlns="http://www.w3.org/2000/svg" width="30" height="30" viewBox="0 0 30 30">
    <g fill="none" fill-rule="evenodd">
        <path fill="#FACF00" d="M28.64 22H1.36a.37.37 0 0 1-.36-.377v-4.245A.37.37 0 0 1 1.36 17h27.28a.37.37 0 0 1 .36.378v4.245a.37.37 0 0 1-.36.377"/>
        <path stroke="#272F38" stroke-width="1.5" d="M28.3 22H1.699A.698.698 0 0 1 1 21.302V4.7C1 4.313 1.312 4 1.698 4h26.603a.7.7 0 0 1 .699.699v16.603a.699.699 0 0 1-.7.698zM1 16.5h26.5M7 27.5h15M17 22l1 6M12 22l-1 6"/>
        <path stroke="#272F38" stroke-width="1.213" d="M15 19.5a.5.5 0 1 1-1 0 .5.5 0 0 1 1 0z"/>
    </g>
</svg>
