<svg xmlns="http://www.w3.org/2000/svg" width="30" height="30" viewBox="0 0 30 30">
    <g fill="none" fill-rule="evenodd">
        <path fill="#FACF00" d="M5.89 20.04l-1.972-.528L8.75 1.483A.989.989 0 0 1 9.96.784l9.99 2.677c.527.141.84.683.7 1.211l-.702 2.617-1.052-.328-.86-.184L7.29 20.451l-1.4-.41z"/>
        <path stroke="#272F38" stroke-width="1.5" d="M5.89 20.04l-1.972-.528L8.75 1.483A.989.989 0 0 1 9.96.784l9.99 2.677c.527.141.84.683.7 1.211l-.702 2.617"/>
        <path fill="#272F38" d="M11.524 5.44l-1.73-.465.378-1.416 1.732.465zM14.726 6.297l-1.73-.464.378-1.416 1.732.464z"/>
        <path stroke="#272F38" stroke-width="1.5" d="M26.949 12.575l-8.472-5.932a.989.989 0 0 0-1.377.244L6.395 22.177l3.007 2.104c.005-.006.007-.013.01-.019a2.492 2.492 0 0 1 4.082 2.857c-.005.007-.011.011-.015.018l3.007 2.105 10.706-15.289a.99.99 0 0 0-.243-1.378z"/>
        <path fill="#272F38" d="M18.355 11.553l-1.469-1.028.842-1.2 1.468 1.029zM21.07 13.454l-1.468-1.028.84-1.2 1.469 1.028zM23.906 15.44l-1.468-1.028.84-1.2 1.469 1.029z"/>
    </g>
</svg>
