<svg xmlns="http://www.w3.org/2000/svg" width="30" height="30" viewBox="0 0 30 30">
    <g fill="none" fill-rule="evenodd">
        <path fill="#FACF00" d="M25.466 9.01l-20.755.02a2.307 2.307 0 0 0-2.304 2.307l.006 6.457a4.612 4.612 0 0 0 4.616 4.608l16.143-.015a4.612 4.612 0 0 0 4.608-4.616l-.005-6.457a2.306 2.306 0 0 0-2.309-2.304"/>
        <path stroke="#272F38" stroke-width="1.5" d="M28.431 23.077l-.65-6.805v1.499a4.613 4.613 0 0 1-4.608 4.617l-16.143.014a4.612 4.612 0 0 1-4.617-4.607v-1.5l-.64 6.806a4.613 4.613 0 0 0 4.594 5.068l17.48-.017a4.61 4.61 0 0 0 4.584-5.075z"/>
        <path stroke="#272F38" stroke-width="1.5" d="M25.466 9.01l-20.755.02a2.307 2.307 0 0 0-2.304 2.307l.006 6.457a4.612 4.612 0 0 0 4.616 4.608l16.143-.015a4.612 4.612 0 0 0 4.608-4.616l-.005-6.457a2.306 2.306 0 0 0-2.309-2.304z"/>
        <path fill="#FFF" d="M12.652 14.209l2.446-2.447 2.446 2.447-2.446 2.446zM16.828 22.971a1.729 1.729 0 1 1-3.46 0v-2.883h3.46v2.883z"/>
        <path stroke="#272F38" stroke-width="1.5" d="M7.04 8.7l-.006-.031.645-1.518c1.415-3.331 4.257-5.401 7.42-5.401 3.162 0 6.004 2.07 7.419 5.4l.644 1.519-.006.03a.8.8 0 0 0-.225-.03M12.652 14.209l2.446-2.447 2.446 2.447-2.446 2.446zM16.828 22.971a1.729 1.729 0 1 1-3.46 0v-2.883h3.46v2.883z"/>
    </g>
</svg>
