<svg xmlns="http://www.w3.org/2000/svg" xmlns:xlink="http://www.w3.org/1999/xlink" width="30" height="30" viewBox="0 0 30 30">
    <defs>
        <path id="a" d="M0 .723h30V27H0z"/>
    </defs>
    <g fill="none" fill-rule="evenodd">
        <path fill="#FACF00" d="M0 28h7V11H0z"/>
        <g transform="translate(0 1)">
            <mask id="b" fill="#fff">
                <use xlink:href="#a"/>
            </mask>
            <path fill="#272F38" d="M28.66 13.149a.946.946 0 0 1-.943.946h-1.805a.672.672 0 0 0-.672.673c0 .371.3.673.672.673h1.134c.52 0 .943.423.943.946v.38a.945.945 0 0 1-.943.947h-1.94a.672.672 0 0 0 0 1.346h1.27c.52 0 .943.425.943.947v.38a.945.945 0 0 1-.943.947h-1.973a.672.672 0 0 0-.671.673c0 .372.3.673.671.673h1.304c.518 0 .942.424.942.946v.382a.946.946 0 0 1-.942.945h-11.14a5.029 5.029 0 0 1-3.298-1.234 2.091 2.091 0 0 0-1.374-.515H7.374V13.57h2.52c.506 0 .993-.182 1.375-.515l.245-.213c.119-.104.326-.266.567-.452.723-.565 1.815-1.419 2.872-2.493a9.807 9.807 0 0 0 2.484-4.361l.868-3.25a.292.292 0 0 1 .357-.207 2.403 2.403 0 0 1 1.69 2.937L19.115 9.65a1.722 1.722 0 0 0-.016.827h-.785a.672.672 0 0 0 0 1.346h9.403c.52 0 .942.423.942.946v.38zM1.34 25.654h4.693V11.12H1.341v14.533zm19.436-15.178a.37.37 0 0 1-.3-.15.372.372 0 0 1-.066-.329l1.237-4.632A3.751 3.751 0 0 0 19.01.78a1.633 1.633 0 0 0-2 1.157l-.868 3.25a8.479 8.479 0 0 1-2.141 3.764c-.998 1.012-2.048 1.833-2.744 2.376-.266.208-.476.372-.622.5l-.245.213a.756.756 0 0 1-.496.184h-2.52v-1.777a.672.672 0 0 0-.672-.672H.67c-.37 0-.67.3-.67.672v15.88c0 .372.3.673.67.673h6.032a.672.672 0 0 0 .672-.673V24.55h2.52c.183 0 .359.065.497.186a6.36 6.36 0 0 0 4.175 1.563h11.14a2.29 2.29 0 0 0 2.284-2.291v-.382c0-.481-.15-.928-.401-1.296a2.296 2.296 0 0 0 1.07-1.942v-.381c0-.481-.149-.928-.401-1.297a2.293 2.293 0 0 0 1.072-1.942v-.381c0-.481-.148-.928-.4-1.296A2.296 2.296 0 0 0 30 13.149v-.381a2.29 2.29 0 0 0-2.283-2.292h-6.94z" mask="url(#b)"/>
        </g>
    </g>
</svg>
