<svg xmlns="http://www.w3.org/2000/svg" width="30" height="30" viewBox="0 0 30 30">
    <g fill="none" fill-rule="evenodd">
        <path fill="#FACF00" d="M4 21h21v-5H4z"/>
        <g stroke="#272F38">
            <path stroke-width="1.677" d="M4.13 20.82h21.136v-4.808H4.13z"/>
            <path stroke-width="1.5" d="M24.565 12.688H4.727a.7.7 0 0 0-.702.7V26.58a.7.7 0 0 0 .702.7h19.838a.7.7 0 0 0 .701-.7V13.387a.7.7 0 0 0-.7-.699zM28.267 6.31s-.846 5.804-7.106 5.804M1.717 6.142s.871 5.972 7.311 5.972M15.57 12.228V9.481c0-3.563-2.9-6.45-6.477-6.45a2.754 2.754 0 0 0-2.759 2.747c0 3.562 2.9 6.45 6.477 6.45h2.758z"/>
            <path stroke-width="1.5" d="M15.57 12.228v-2.28c0-2.804 2.282-5.078 5.098-5.078h.118c1.2 0 2.172.969 2.172 2.164v.117c0 2.804-2.283 5.077-5.098 5.077h-2.29z"/>
        </g>
    </g>
</svg>
