<svg xmlns="http://www.w3.org/2000/svg" xmlns:xlink="http://www.w3.org/1999/xlink" width="30" height="30" viewBox="0 0 30 30">
    <defs>
        <path id="a" d="M0 .061h11.074V8.59H0z"/>
        <path id="c" d="M0 29h30V2.061H0z"/>
    </defs>
    <g fill="none" fill-rule="evenodd">
        <path fill="#FACF00" d="M3.598 3L1 10h10L8.402 3z"/>
        <g transform="translate(0 2)">
            <mask id="b" fill="#fff">
                <use xlink:href="#a"/>
            </mask>
            <path fill="#000" d="M3.573 1.237H7.5l2.16 6.176H1.414l2.16-6.176zm3.722 7.352h3.193a.59.59 0 0 0 .552-.783L8.47.454A.588.588 0 0 0 7.915.06H3.158a.59.59 0 0 0-.553.394L.033 7.806a.589.589 0 0 0 .552.783h6.71z" mask="url(#b)"/>
        </g>
        <path fill="#000" d="M29 16.755a1.29 1.29 0 0 1-1.283 1.293.629.629 0 0 0-.627.632c0 .347.281.63.627.63h.03v1.274c0 2.435-1.964 4.416-4.381 4.416h-8.732c-2.416 0-4.382-1.981-4.382-4.416V19.31l.031.001a.628.628 0 0 0 .627-.63c0-.35-.28-.632-.627-.632A1.29 1.29 0 0 1 9 16.755v-.057c0-.764.619-1.388 1.377-1.388.76 0 1.378.624 1.378 1.388v3.635c0 1.738 1.404 3.154 3.13 3.154h1.144a.629.629 0 0 0 .625-.63c0-.35-.28-.632-.625-.632h-1.144a1.888 1.888 0 0 1-1.879-1.892v-3.635a2.66 2.66 0 0 0-.39-1.39v-.305c0-2.208 1.78-4.003 3.97-4.003h4.828c2.19 0 3.971 1.795 3.971 4.003v.306c-.248.404-.391.88-.391 1.389v3.635a1.888 1.888 0 0 1-1.878 1.892h-2.003a.628.628 0 0 0-.626.631c0 .348.28.63.626.63h2.003c1.725 0 3.13-1.415 3.13-3.153v-3.635c0-.764.618-1.388 1.377-1.388.76 0 1.377.624 1.377 1.388v.057zM24 28h-1.246L22 27.019h1.13c.147 0 .29-.007.434-.019L24 28zm-8.755 0H14l.436-1c.143.012.288.019.433.019H16l-.755.981zM27.43 14.298c-.36 0-.704.078-1.016.217C26.065 11.967 23.934 10 21.36 10h-4.72c-2.572 0-4.706 1.967-5.055 4.515a2.486 2.486 0 0 0-1.016-.217C9.153 14.298 8 15.485 8 16.941v.058c0 .934.493 1.752 1.223 2.196v1.622c0 2.502 1.586 4.629 3.778 5.376l-.773 1.938a.645.645 0 0 0 .057.59.61.61 0 0 0 .509.279h2.692c.197 0 .38-.097.495-.26l1.594-2.26h2.85l1.593 2.26c.115.163.299.26.496.26h2.692a.605.605 0 0 0 .508-.279.645.645 0 0 0 .058-.59l-.774-1.938c2.192-.747 3.778-2.874 3.778-5.376v-1.622A2.561 2.561 0 0 0 30 16.999v-.058c0-1.456-1.154-2.643-2.57-2.643z"/>
        <mask id="d" fill="#fff">
            <use xlink:href="#c"/>
        </mask>
        <path fill="#000" d="M4.951 27.823h1.172V10.59H4.951z" mask="url(#d)"/>
        <path stroke="#272F38" stroke-width="1.5" d="M8.276 28.022H2.069" mask="url(#d)"/>
    </g>
</svg>
