<svg xmlns="http://www.w3.org/2000/svg" width="24" height="24" viewBox="0 0 24 24">
    <g fill="none" fill-rule="evenodd" stroke="#272F38" stroke-width="1.5">
        <path d="M4.397 19.716a10.797 10.797 0 0 1-3.042-7.525c0-5.982 4.851-10.832 10.835-10.832 5.983 0 10.833 4.85 10.833 10.832 0 5.981-4.85 10.83-10.833 10.83-3.06 0-5.823-1.267-7.793-3.305"/>
        <path d="M19.923 19.773a10.802 10.802 0 0 0-7.733-3.25c-3.03 0-5.769 1.247-7.734 3.25M4.456 4.609a10.802 10.802 0 0 0 7.734 3.248 10.8 10.8 0 0 0 7.733-3.248"/>
        <path d="M17.606 12.19c0 5.983-2.425 10.832-5.417 10.832s-5.417-4.85-5.417-10.831c0-5.983 2.425-10.832 5.417-10.832s5.417 4.85 5.417 10.832zM1.355 12.19h21.668M12.19 1.36v21.662"/>
    </g>
</svg>
