<?xml version="1.0" encoding="UTF-8"?>
<svg width="134px" height="162px" viewBox="0 0 134 162" version="1.1" xmlns="http://www.w3.org/2000/svg" xmlns:xlink="http://www.w3.org/1999/xlink">
    <title>logo</title>
    <desc>Created with Sketch.</desc>
    <defs></defs>
    <g id="Page-1" stroke="none" stroke-width="1" fill="none" fill-rule="evenodd">
        <g id="logo" fill-rule="nonzero">
            <path d="M0.6,94.18 C0.99,87.81 11.8,83.72 20.74,81.42 C33,78.26 49.2,76.53 66.36,76.53 L67.29,76.53 C100.03,76.53 133.89,83.15 133.89,94.24 L133.5,95.55 L121.59,92.14 L121.59,91.35 C121.59,86.35 99.29,80.88 67.28,80.88 C35.27,80.88 13,86.38 13,91.33 L13,92.12 L1.16,95.4 L0.6,94.18 Z" id="Shape" fill="#FFD700"></path>
            <polygon id="Shape" fill="#333E48" points="67.24 0 0.58 161.93 10.78 161.93 67.24 34.32 123.69 161.93 133.89 161.93"></polygon>
            <path d="M67.28,112 C35.73,112 9.02,106.51 2.34,98.66 C1.19937404,97.470011 0.574132463,95.8781603 0.6,94.23 L0.95,93.5 L12.95,90.09 L12.95,91.4 C12.95,96.4 35.26,101.87 67.27,101.87 C99.28,101.87 121.58,96.35 121.58,91.4 L121.58,90.05 L133.66,93.26 L133.88,94.26 C133.88,100.65 123.03,104.74 113.88,107.06 C101.41,110.23 84.88,111.97 67.23,111.97 L67.28,112 Z" id="Shape" fill="#FFD700"></path>
        </g>
    </g>
</svg>