<?xml version="1.0" encoding="UTF-8"?>
<svg width="15px" height="18px" viewBox="0 0 15 18" version="1.1" xmlns="http://www.w3.org/2000/svg" xmlns:xlink="http://www.w3.org/1999/xlink">
    <!-- Generator: sketchtool 52.3 (67297) - http://www.bohemiancoding.com/sketch -->
    <title>77E783DA-DBC1-427F-A386-BD74A48BB337</title>
    <desc>Created with sketchtool.</desc>
    <g id="Symbols" stroke="none" stroke-width="1" fill="none" fill-rule="evenodd">
        <g id="header-/-desktop" transform="translate(-1444.000000, -50.000000)">
            <g id="top_right" transform="translate(1412.000000, 20.000000)">
                <g id="Asia-Miles-/-normal" transform="translate(32.000000, 30.000000)">
                    <g id="Group-18">
                        <path d="M0.0663108548,10.5091653 C0.109854983,9.80549662 1.30400296,9.35259349 2.29170314,9.09840188 C3.64654443,8.7497173 5.43704803,8.55752634 7.33342796,8.55752634 L7.43620978,8.55774737 C11.05413,8.55774737 14.7968252,9.28970869 14.7970462,10.5145807 L14.7538336,10.6593594 L13.4377842,10.2821612 L13.4377842,10.1944098 C13.4377842,9.64723472 10.9728992,9.03739589 7.43587823,9.03739589 C3.89819412,9.03739589 1.43297757,9.64723472 1.43297757,10.1944098 L1.43297757,10.2821612 L0.124774925,10.6451026 L0.0663108548,10.5091653" id="Fill-14" fill="#F9D420"></path>
                        <polyline id="Fill-15" fill="#2F373C" points="7.43068388 0.100350427 0.0643215292 17.996545 1.19171658 17.996545 7.43068388 3.89322081 13.6697617 17.996545 14.7970462 17.996545 7.43068388 0.100350427"></polyline>
                        <path d="M7.43565719,12.474398 C3.94870089,12.474398 0.997315257,11.8680958 0.258391298,10.9998656 C0.125548552,10.8438141 0.0561431904,10.6789211 0.066531891,10.5099389 L0.104771151,10.4295923 L1.43297757,10.0527256 L1.43297757,10.1973938 C1.43308809,10.7446794 3.89830464,11.3542972 7.43587823,11.3542972 C10.9727887,11.3542972 13.4377842,10.7446794 13.4377842,10.1975043 L13.4377842,10.0527256 L14.7725112,10.4078202 L14.7971567,10.5175647 C14.7972673,11.2234437 13.5979249,11.6760153 12.5919893,11.9317542 C11.2141602,12.2816545 9.38298596,12.474398 7.43598874,12.474398 L7.43565719,12.474398" id="Fill-17" fill="#F9D420"></path>
                    </g>
                </g>
            </g>
        </g>
    </g>
</svg>