<svg xmlns="http://www.w3.org/2000/svg" xmlns:xlink="http://www.w3.org/1999/xlink" width="182" height="145" viewBox="0 0 182 145">
    <defs>
        <path id="a" d="M0 148h202V0H0z"/>
    </defs>
    <g fill="none" fill-rule="evenodd" transform="translate(-11 -2)">
        <mask id="b" fill="#fff">
            <use xlink:href="#a"/>
        </mask>
        <path fill="#272F38" fill-rule="nonzero" d="M183.588 8.478l2.828 2.828-6.165 6.165-2.828-2.828zM159.954 11.306l2.828-2.828 6.166 6.165-2.828 2.828zM166.12 25.946l2.828 2.828-6.166 6.166-2.828-2.828zM177.422 28.774l2.83-2.828 6.164 6.166-2.829 2.828zM193 19.709v4h-10.632v-4zM164.97 19.709v4h-11.6v-4zM171.185 2.377h4v9.666h-4zM171.185 31.375h4v9.666h-4z" mask="url(#b)"/>
        <g mask="url(#b)">
            <path fill="#FACF00" d="M135.4 60.253H60.09a2.595 2.595 0 0 0-2.595 2.596v58.06a2.595 2.595 0 0 0 2.594 2.595H135.4a2.596 2.596 0 0 0 2.596-2.596V62.85a2.596 2.596 0 0 0-2.596-2.596"/>
            <path fill="#272F38" fill-rule="nonzero" d="M135.4 58.253a4.596 4.596 0 0 1 4.596 4.596v58.06a4.596 4.596 0 0 1-4.596 4.595H60.09a4.595 4.595 0 0 1-4.595-4.596V62.85a4.595 4.595 0 0 1 4.594-4.596H135.4zm0 4H60.09a.595.595 0 0 0-.595.596v58.06c0 .329.267.595.594.595H135.4c.33 0 .596-.266.596-.596V62.85a.596.596 0 0 0-.596-.596z"/>
            <path fill="#282F39" d="M79.767 93.776c.105-1.778 2.936-2.833 5.347-3.347 3.243-.838 7.641-1.362 12.253-1.362h.313c8.698 0 17.912 1.78 17.912 4.709l-.107.416-3.247-.943v-.308c0-1.36-5.86-2.83-14.452-2.83-8.593 0-14.454 1.47-14.454 2.83v.308l-3.46.84-.105-.313z"/>
            <path fill="#282F39" d="M97.578 68.54l-17.81 43.35h2.831l14.979-34.127 15.181 34.126h2.726z"/>
            <path fill="#282F39" d="M97.578 98.376c-8.481 0-15.606-1.463-17.285-3.663-.312-.413-.525-.834-.419-1.251l.107-.108 3.247-.939v.424c0 1.353 5.869 2.823 14.451 2.823 8.585 0 14.453-1.47 14.453-2.823v-.424l3.246.834v.314c0 1.791-2.936 2.834-5.339 3.35-3.355 1.157-7.747 1.463-12.461 1.463"/>
            <path fill="#272F38" fill-rule="nonzero" d="M129.248 55.86c6.236-1.31 10.835-4.629 14.108-9.424a26.679 26.679 0 0 0 2.236-3.98l-16.344 13.405zm21.32-15.189a31.415 31.415 0 0 1-3.908 8.02c-5.018 7.353-12.817 11.794-23.766 11.794-1.878 0-2.72-2.355-1.268-3.546l26.635-21.844c1.412-1.159 3.51.027 3.247 1.834-.114.788-.404 2.092-.94 3.742zM48.041 36.3c-.263-1.808 1.835-2.993 3.247-1.834L78.69 56.939c1.453 1.19.61 3.546-1.268 3.546-11.245 0-19.25-4.559-24.403-12.11-1.793-2.627-3.104-5.43-4.014-8.235-.55-1.695-.847-3.033-.964-3.841zm5.876 5.495a27.563 27.563 0 0 0 2.406 4.327c3.415 5.005 8.232 8.45 14.78 9.768L53.917 41.794zm50.74 18.127a2 2 0 0 1-2 2H92.06c-14.837 0-26.864-12.028-26.864-26.867v-.002c0-6.955 5.638-12.593 12.591-12.593h.005c14.838 0 26.866 12.029 26.866 26.867v10.595zm-4-10.595c0-12.63-10.237-22.867-22.866-22.867h-.005a8.592 8.592 0 0 0-8.59 8.593c0 12.632 10.235 22.87 22.863 22.87h8.598v-8.596zm10.063 8.595c9.451 0 17.11-7.659 17.11-17.109a6.138 6.138 0 0 0-6.138-6.142c-9.454 0-17.114 7.659-17.114 17.11v6.141h6.142zm-10.142 2V51.78c0-11.66 9.45-21.109 21.11-21.109 5.604 0 10.142 4.539 10.142 10.137 0 11.664-9.45 21.114-21.11 21.114h-8.142a2 2 0 0 1-2-2zM34.047 109.468l2.828 2.829-5.119 5.119-2.828-2.829zM19.543 123.972l2.828 2.828-5.119 5.12-2.828-2.829zM14.423 112.297l2.829-2.829 5.119 5.12-2.829 2.828zM28.927 126.8l2.829-2.828 5.119 5.119-2.829 2.828zM39.941 119.205v4h-8.677v-4zM19.014 119.205v4h-7.657v-4zM23.393 107.168h4v6.635h-4zM23.393 127.075h4v7.146h-4zM164.058 136.544a5.558 5.558 0 1 0-11.116 0 5.558 5.558 0 0 0 11.116 0zm4 0c0 5.279-4.279 9.557-9.558 9.557-5.277 0-9.556-4.279-9.556-9.557a9.558 9.558 0 0 1 19.114 0zM34 58.552a1.995 1.995 0 1 0-3.989 0 1.995 1.995 0 0 0 3.99 0zm4 0a5.995 5.995 0 1 1-11.99 0 5.995 5.995 0 0 1 11.99 0z"/>
        </g>
    </g>
</svg>
