<svg xmlns="http://www.w3.org/2000/svg" xmlns:xlink="http://www.w3.org/1999/xlink" width="174" height="93" viewBox="0 0 174 93">
    <defs>
        <path id="a" d="M0 148h202V0H0z"/>
    </defs>
    <g fill="none" fill-rule="evenodd" transform="translate(-15 -34)">
        <path fill="#272F38" fill-rule="nonzero" d="M113.084 110.939c0-6.534-5.296-11.83-11.83-11.83s-11.83 5.296-11.83 11.83c0 6.533 5.296 11.829 11.83 11.829 6.533 0 11.83-5.296 11.83-11.829zm4 0c0 8.742-7.087 15.829-15.83 15.829s-15.83-7.087-15.83-15.829c0-8.743 7.087-15.83 15.83-15.83s15.83 7.087 15.83 15.83zM168.54 110.939c0-6.534-5.296-11.83-11.83-11.83-6.535 0-11.83 5.296-11.83 11.83s5.296 11.829 11.83 11.829 11.83-5.296 11.83-11.829zm4 0c0 8.742-7.087 15.829-15.83 15.829s-15.83-7.086-15.83-15.829c0-8.744 7.086-15.83 15.83-15.83 8.743 0 15.83 7.087 15.83 15.83z"/>
        <path fill="#272F38" fill-rule="nonzero" d="M133.775 111.434v4h-20.092v-4zM175.112 83.026v4H151.95a2 2 0 0 1-2-2V61.864h4v21.162h21.162z"/>
        <mask id="b" fill="#fff">
            <use xlink:href="#a"/>
        </mask>
        <path fill="#FACF00" d="M62 83.419h75.614V36.003H62z" mask="url(#b)"/>
        <path fill="#272F38" fill-rule="nonzero" d="M62 85.419a2 2 0 0 1-2-2V36.003a2 2 0 0 1 2-2h75.614a2 2 0 0 1 2 2v47.416a2 2 0 0 1-2 2H62zm73.614-4V38.003H64v43.416h71.614z" mask="url(#b)"/>
        <path fill="#272F38" d="M108.498 65.152c1.693-.432 3.71-1.193 3.71-2.383v-.005c0-1.36-2.75-2.362-6.37-2.883L99.81 45.234l-6.024 14.633c-.952.139-1.836.309-2.63.514-1.665.429-3.673 1.19-3.742 2.375v.002c-.02.287.097.563.322.824.575.676 1.942 1.256 3.825 1.687L87.406 75.36h1.903l4.296-9.716c1.833.269 3.954.42 6.21.42 2.214 0 4.338-.147 6.198-.426l4.298 9.722h1.897l-4.156-10.104c.15-.034.299-.067.446-.105zm1.423-2.928v.006c0 .443-.95.904-2.593 1.269l-1.141-2.761c2.332.384 3.73.95 3.734 1.486zM99.81 51.617l3.532 7.992a44.465 44.465 0 0 0-3.526-.138h-.172c-1.153 0-2.285.043-3.362.125l3.528-7.98zM89.71 62.23v-.006c0-.531 1.394-1.095 3.717-1.481l-1.14 2.756c-1.634-.365-2.577-.83-2.577-1.27zm10.106 1.949c-2.055 0-3.894-.121-5.423-.32l1.51-3.42a45.056 45.056 0 0 1 3.913-.16c1.413 0 2.718.056 3.893.155l1.516 3.428c-1.526.196-3.362.317-5.41.317z" mask="url(#b)"/>
        <path fill="#272F38" fill-rule="nonzero" d="M137.616 52.214v-4h29.185a2 2 0 0 1 1.671.901l20.199 30.707a2 2 0 0 1 .33 1.1v32.512a2 2 0 0 1-2 2h-14.904v-4H185V81.52l-19.277-29.306h-28.107zM86.278 111.434v4H72.73a2 2 0 0 1-2-2V84.166h4v27.268h11.548z" mask="url(#b)"/>
        <path fill="#28303A" fill-rule="nonzero" d="M30.5 97.5v-4h24v4zM15.5 111.5v-4H47v4zM20 83.5v-4h24v4zM49 83.5v-4h5v4zM59 97.5v-4h5v4zM51 111.5v-4h5v4z" mask="url(#b)"/>
    </g>
</svg>
