<svg xmlns="http://www.w3.org/2000/svg" xmlns:xlink="http://www.w3.org/1999/xlink" width="187" height="115" viewBox="0 0 187 115">
    <defs>
        <path id="a" d="M0 148h202V0H0z"/>
    </defs>
    <g fill="none" fill-rule="evenodd" transform="translate(-8 -19)">
        <path fill="#272F38" fill-rule="nonzero" d="M18.802 79.32l-4-.033.05-6.159C14.94 62.08 24.043 53.121 35.09 53.21c11.048.09 20.006 9.192 19.918 20.24l-.05 6.16-4-.032.05-6.16c.07-8.84-7.11-16.137-15.95-16.208-8.839-.071-16.136 7.11-16.207 15.95l-.05 6.16zM12 84.999v41.172c-.013 1.582 1.19 2.816 2.692 2.828h40.224c1.596.014 3.072-1.354 3.084-2.844v-4.886h4v4.902c-.03 3.77-3.364 6.861-7.101 6.828H14.676c-3.736-.03-6.706-3.077-6.676-6.844V80.999h54v13.404h-4v-9.404H12z"/>
        <path fill="#272F38" fill-rule="nonzero" d="M24.465 103.274c.04-5.098 4.207-9.198 9.306-9.157l-.032 4a5.233 5.233 0 0 0-5.274 5.19 5.196 5.196 0 0 0 1.713 3.902l.654.595V115.378c-.012 1.513 1.336 2.83 2.938 2.843l-.031 4c-3.777-.03-6.937-3.116-6.907-6.86v-5.851a9.18 9.18 0 0 1-2.367-6.236z"/>
        <mask id="b" fill="#fff">
            <use xlink:href="#a"/>
        </mask>
        <path fill="#FACF00" d="M38.204 117.003H84.14v-16.874H38.204z" mask="url(#b)"/>
        <path fill="#272F38" fill-rule="nonzero" d="M36.204 119.003V98.129H86.14v20.874H36.204zm45.936-4v-12.874H40.204v12.874H82.14z" mask="url(#b)"/>
        <path fill="#272F38" d="M50.614 50.117c.451-.771.93-1.521 1.436-2.254l-2.762-1.906c-.552.8-1.076 1.62-1.569 2.462l2.895 1.698zM53.745 45.6a36.29 36.29 0 0 1 3.197-3.459l-2.309-2.432a39.487 39.487 0 0 0-3.493 3.777l2.605 2.115V45.6zm5.323-5.325a35.93 35.93 0 0 1 3.842-2.723l-1.76-2.857a39.668 39.668 0 0 0-4.197 2.974l2.115 2.606zm6.303-4.109a35.93 35.93 0 0 1 4.323-1.863l-1.125-3.16a39.706 39.706 0 0 0-4.725 2.036l1.527 2.987zm7.019-2.705a36.187 36.187 0 0 1 4.618-.928l-.447-3.325a40.095 40.095 0 0 0-5.044 1.014l.873 3.24zM79.852 32.263a35.96 35.96 0 0 1 2.674-.05l.06-3.355a37.926 37.926 0 0 0-2.92.057l.187 3.348z" mask="url(#b)"/>
        <path fill="#F7CE0F" d="M191.419 46.593l-6.425-6.424-37.543 37.543-19.043-19.042-6.427 6.427 25.47 25.465z" mask="url(#b)"/>
        <path fill="#272F38" fill-rule="nonzero" d="M184.994 37.341l9.253 9.252-46.796 46.798-28.299-28.294 9.256-9.255 19.043 19.042 37.543-37.543zm0 5.657L147.45 80.54l-19.043-19.042-3.599 3.598 22.642 22.637 41.14-41.14-3.597-3.596z" mask="url(#b)"/>
        <path fill="#FACF00" d="M106.527 129.019c-5.57.994-10.688-1.477-9.645-7.518l1.045-6.04 21.676-.144 40.047-.268s5.416 12.348-1.672 13.97c-7.088 1.622-25.508 1.622-25.508 1.622l-25.943-1.622z" mask="url(#b)"/>
        <path fill="#272F38" fill-rule="nonzero" d="M158.879 93.4h4v29.024c0 5.892-4.582 10.754-10.25 10.754h-47.49c-5.67 0-10.25-4.86-10.25-10.754v-92.67c0-5.894 4.58-10.754 10.25-10.754h47.49c2.44 0 4.757.491 6.677 1.662 2.865 1.747 4.424 4.78 4.292 8.936l-.148 19.715-4-.03.149-19.764c.089-2.795-.769-4.462-2.375-5.442-1.202-.733-2.826-1.077-4.595-1.077h-47.49c-3.407 0-6.25 3.017-6.25 6.754v92.67c0 3.736 2.843 6.754 6.25 6.754h47.49c3.404 0 6.25-3.02 6.25-6.754V93.4z" mask="url(#b)"/>
        <path fill="#272F38" fill-rule="nonzero" d="M98.901 115.734v-4h63.048v4zM105.444 44.91v-4h56.06v4z" mask="url(#b)"/>
        <path fill="#272F38" d="M51 109a3 3 0 1 1-6 0 3 3 0 0 1 6 0M61 109a3 3 0 1 1-6 0 3 3 0 0 1 6 0M71 109a3 3 0 1 1-6 0 3 3 0 0 1 6 0" mask="url(#b)"/>
    </g>
</svg>
