<svg xmlns="http://www.w3.org/2000/svg" width="30" height="30" viewBox="0 0 30 30">
    <g fill="none" fill-rule="evenodd">
        <path fill="#FACF00" d="M26.838 2.943a4.1 4.1 0 0 0-5.783 0l-.654.654-.655-.654a4.099 4.099 0 0 0-5.782 0 4.1 4.1 0 0 0 0 5.782l1.003 1.003c2.284-1.363 5.297-1.083 7.26.879a5.896 5.896 0 0 1 1.116 1.613l3.495-3.495a4.1 4.1 0 0 0 0-5.782"/>
        <path stroke="#272F38" stroke-width="1.5" d="M26.838 2.943a4.1 4.1 0 0 0-5.783 0l-.654.654-.655-.654a4.099 4.099 0 0 0-5.782 0 4.1 4.1 0 0 0 0 5.782l1.003 1.003c2.284-1.363 5.297-1.083 7.26.879a5.896 5.896 0 0 1 1.116 1.613l3.495-3.495a4.1 4.1 0 0 0 0-5.782z"/>
        <path stroke="#272F38" stroke-width="1.5" d="M22.226 10.607c-2.315-2.314-6.103-2.314-8.418 0l-.952.952-.952-.952c-2.316-2.314-6.103-2.314-8.418 0-2.315 2.314-2.315 6.103 0 8.417l9.361 9.36.009-.006.009.007 9.361-9.361c2.314-2.314 2.314-6.103 0-8.417z"/>
    </g>
</svg>
