<svg xmlns="http://www.w3.org/2000/svg" width="30" height="30" viewBox="0 0 30 30">
    <g fill="none" fill-rule="evenodd">
        <path fill="#FACF00" d="M21.441 28H9.559C7.601 28 6 26.35 6 24.333V9.667C6 7.65 7.601 6 9.559 6h11.882C23.399 6 25 7.65 25 9.667v14.666C25 26.35 23.399 28 21.441 28"/>
        <path stroke="#272F38" stroke-width="1.5" d="M21.441 28H9.559C7.601 28 6 26.35 6 24.333V9.667C6 7.65 7.601 6 9.559 6h11.882C23.399 6 25 7.65 25 9.667v14.666C25 26.35 23.399 28 21.441 28z"/>
        <path stroke="#272F38" stroke-width="1.5" d="M21.441 28H9.559C7.601 28 6 26.35 6 24.333V9.667C6 7.65 7.601 6 9.559 6h11.882C23.399 6 25 7.65 25 9.667v14.666C25 26.35 23.399 28 21.441 28zM20 6V2.092C20 1.492 19.524 1 18.941 1H12.06C11.476 1 11 1.492 11 2.092v1.724M8.5 30v-2M21.5 30v-2M10 13.5h10M10 20.5h10"/>
    </g>
</svg>
