<svg xmlns="http://www.w3.org/2000/svg" width="30" height="30" viewBox="0 0 30 30">
    <g fill="none" fill-rule="evenodd">
        <path fill="#FACF00" d="M2 11c.5 3.385 3.414 6 7 6s6.5-2.615 7-6H2z"/>
        <path stroke="#272F38" stroke-width="1.5" d="M19 18.5h6"/>
        <path fill="#FACF00" d="M17 19l4 4 4-4z"/>
        <path stroke="#272F38" stroke-linejoin="round" stroke-width="1.5" d="M14 15h14l-7 9z"/>
        <path stroke="#272F38" stroke-width="1.5" d="M18 28.5h6M21 24v5M27.732 13a1.999 1.999 0 1 1-3.463-1.998A1.999 1.999 0 0 1 27.732 13zM28 8l-1 2M14.727 2H3.272c-.554 2.092-1.31 5.56-1.27 8.794C2.05 14.77 5.135 18 8.998 18c3.866 0 6.95-3.23 7-7.206.007-.697-.021-1.401-.076-2.101-.2-2.56-.761-5.05-1.196-6.693z"/>
        <path stroke="#272F38" stroke-width="1.284" d="M2 11h12m-4.938 6.626V29"/>
        <path stroke="#272F38" stroke-width="1.5" d="M3 28.5h11"/>
    </g>
</svg>
