<svg xmlns="http://www.w3.org/2000/svg" width="24" height="24" viewBox="0 0 24 24">
    <path fill="#272F38" fill-rule="nonzero" d="M11.888 2.81l-2.67 5.7a.767.767 0 0 1-.578.434l-6.05.926 4.404 4.525c.17.174.247.418.208.658l-1.03 6.337 5.345-2.962a.768.768 0 0 1 .744 0l5.344 2.962-1.031-6.337a.767.767 0 0 1 .208-.658l4.404-4.525-6.05-.926a.768.768 0 0 1-.578-.433l-2.67-5.701zM8.003 7.489l3.19-6.814a.767.767 0 0 1 1.39 0l3.191 6.814 7.118 1.09c.617.094.87.847.434 1.294l-5.175 5.316 1.223 7.516a.767.767 0 0 1-1.13.794l-6.355-3.522-6.357 3.522a.768.768 0 0 1-1.13-.794l1.223-7.516L.45 9.873a.768.768 0 0 1 .434-1.294l7.119-1.09z"/>
</svg>
