<svg xmlns="http://www.w3.org/2000/svg" width="49" height="38" viewBox="0 0 49 38">
    <g fill="none" fill-rule="evenodd">
        <g>
            <path fill="#FFF" stroke="#272F38" stroke-linejoin="round" stroke-width="2" d="M32.368 23H1.632C.73 23 0 22.265 0 21.357V1.643C0 .735.73 0 1.632 0h30.736C33.27 0 34 .735 34 1.643v19.714c0 .908-.73 1.643-1.632 1.643z" transform="translate(1 1) translate(12 12)"/>
            <path stroke="#272F38" stroke-linejoin="round" stroke-width="2" d="M4 7L34 7" transform="translate(1 1) translate(12 12)"/>
            <path fill="#272F38" d="M28.953 15.95c.478-.128 1.047-.356 1.047-.711v-.002c0-.406-.776-.706-1.798-.861L26.5 10l-1.7 4.371c-.268.041-.517.093-.742.154-.47.128-1.036.355-1.056.71-.006.085.027.168.09.246.163.202.55.375 1.08.504L23 19h.537l1.213-2.903c.517.08 1.115.126 1.753.126.624 0 1.223-.045 1.748-.127L29.465 19H30l-1.173-3.018c.043-.01.084-.02.126-.032zm.401-.874v.001c0 .133-.268.27-.732.38l-.322-.826c.659.115 1.053.285 1.054.445zm-2.854-3.17l.998 2.388c-.325-.027-.66-.041-.995-.041h-.049c-.326 0-.645.013-.95.037l.996-2.383zm-2.85 3.171v-.001c0-.16.394-.328 1.049-.443l-.321.823c-.461-.109-.728-.248-.728-.379zm2.853.582c-.58 0-1.1-.036-1.531-.095l.426-1.022c.334-.031.706-.048 1.105-.048.398 0 .766.017 1.098.047l.428 1.023c-.43.06-.948.095-1.526.095z" transform="translate(1 1) translate(12 12)"/>
        </g>
        <g fill-rule="nonzero">
            <path fill="#FACF00" d="M12.908 1.415c4.88 0 8.838 3.967 8.838 8.861 0 4.895-3.958 8.862-8.838 8.862-4.881 0-8.838-3.967-8.838-8.862 0-4.894 3.957-8.861 8.838-8.861z" transform="translate(1 1)"/>
            <path fill="#272F38" d="M12.88.104c2.844 0 5.57 1.133 7.58 3.148s3.138 4.747 3.137 7.595c0 3.785-2.619 7.887-5.997 9.877l-.269.153-.904-1.646c2.932-1.611 5.292-5.22 5.292-8.384 0-2.351-.93-4.606-2.589-6.269-1.657-1.662-3.905-2.595-6.25-2.595-2.113 0-5.103 1.309-6.876 2.883l-.215.199-1.298-1.358C6.559 1.73 10.165.104 12.88.104z" transform="translate(1 1)"/>
            <path fill="#272F38" d="M10.82 1.623C4.903 1.623.105 6.433.105 12.363c0 5.931 4.798 10.74 10.717 10.74 5.919 0 10.716-4.809 10.716-10.74 0-5.93-4.797-10.74-10.716-10.74zm0 1.879c4.881 0 8.839 3.967 8.839 8.861 0 4.895-3.958 8.862-8.838 8.862-4.881 0-8.838-3.967-8.838-8.862 0-4.894 3.957-8.861 8.838-8.861z" transform="translate(1 1)"/>
            <path fill="#FACF00" d="M10.82 3.502c4.881 0 8.839 3.967 8.839 8.861 0 4.895-3.958 8.862-8.838 8.862-4.881 0-8.838-3.967-8.838-8.862 0-4.894 3.957-8.861 8.838-8.861z" transform="translate(1 1)"/>
            <g fill="#272F38">
                <path d="M.122 5.784c.024-.382.634-.597 1.155-.717.868-.204 1.758-.305 2.65-.298h.068c1.882 0 3.87.382 3.87 1.009l-.023.09-.697-.198v-.065c0-.299-1.268-.597-3.126-.597-1.858 0-3.126.316-3.126.597v.065l-.747.18-.024-.066z" transform="translate(1 1) translate(6.655 7.52)"/>
                <path d="M4.016 0.257L0.205 9.55 0.81 9.55 4.016 2.232 7.261 9.55 7.845 9.55z" transform="translate(1 1) translate(6.655 7.52)"/>
                <path d="M3.948 6.688C2.14 6.688.625 6.39.265 5.906c-.069-.071-.102-.17-.09-.269L.2 5.614l.691-.2v.083c0 .299 1.268.612 3.126.612 1.858 0 3.13-.316 3.13-.612v-.086l.595.179v.08c0 .382-.625.597-1.138.717-.864.238-1.76.338-2.655.298v.003z" transform="translate(1 1) translate(6.655 7.52)"/>
            </g>
        </g>
    </g>
</svg>
