<?xml version="1.0" encoding="UTF-8"?>
<svg width="22px" height="16px" viewBox="0 0 22 16" version="1.1" xmlns="http://www.w3.org/2000/svg" xmlns:xlink="http://www.w3.org/1999/xlink">
    <title>MPO-logo Copy</title>
    <g id="PDP+Cart" stroke="none" stroke-width="1" fill="none" fill-rule="evenodd">
        <g id="Offers_Day1" transform="translate(-185.000000, -938.000000)" fill="#272F38">
            <g id="logo/co-brand" transform="translate(184.000000, 934.000000)">
                <path d="M19.6019242,14.824373 C19.9101219,14.7442542 20.2763768,14.6029422 20.2763768,14.3821422 L20.2763768,14.3808805 C20.2763768,14.1285376 19.7767137,13.9424347 19.1189372,13.8452827 L18.0226429,11.1250267 L16.927584,13.8427593 C16.7546474,13.8679936 16.5940635,13.9001673 16.4495379,13.9386496 C16.1475166,14.0181376 15.7824969,14.1588187 15.7695267,14.3789879 L15.7695267,14.3796187 C15.7658209,14.4326107 15.787438,14.484341 15.8282016,14.532917 C15.9331988,14.6584576 16.1814863,14.7657033 16.5236536,14.846453 L15.7682914,16.7200987 L16.1141646,16.7200987 L16.8954672,14.9158473 C17.2283701,14.965685 17.6137715,14.9940736 18.0238782,14.9940736 C18.4259557,14.9940736 18.8125924,14.9663159 19.1504363,14.9152165 L19.9317389,16.7200987 L20.2763768,16.7200987 L19.5210146,14.8439296 C19.548808,14.837621 19.5753661,14.8313125 19.6019242,14.824373 L19.6019242,14.824373 Z M19.8600938,14.2805742 L19.8600938,14.2818359 C19.8600938,14.3644782 19.6877749,14.4496439 19.3894593,14.5171456 L19.1819355,14.0042587 C19.60563,14.0755456 19.8600938,14.1815296 19.8600938,14.2805742 L19.8600938,14.2805742 Z M18.0226429,12.3110382 L18.6649787,13.7948142 C18.4562196,13.777781 18.2400489,13.768949 18.0238782,13.768949 L17.9929967,13.768949 C17.7830023,13.768949 17.5773313,13.7771502 17.3815424,13.7922907 L18.0226429,12.3110382 Z M16.187045,14.2818359 L16.187045,14.2805742 C16.187045,14.1815296 16.4402735,14.0768073 16.8621151,14.0055205 L16.6558265,14.5171456 C16.3587462,14.4496439 16.187045,14.3632165 16.187045,14.2818359 L16.187045,14.2818359 Z M21.385703,4 C22.2757086,4 23.0001893,4.73936457 23.0001893,5.64906057 L23.0001893,17.8656091 C23.0001893,18.7746743 22.2757086,19.5140389 21.385703,19.5140389 L2.61405787,19.5140389 C1.72405226,19.5140389 1.00018926,18.7746743 1.00018926,17.8656091 L1.00018926,5.64906057 C1.00018926,4.73936457 1.72405226,4 2.61405787,4 L21.385703,4 Z M21.385703,5.26171429 L2.61405787,5.26171429 C2.40529875,5.26171429 2.23545035,5.4352 2.23545035,5.64906057 L2.23545035,17.8656091 C2.23545035,18.0788389 2.40529875,18.2523246 2.61405787,18.2523246 L21.385703,18.2523246 C21.5944621,18.2523246 21.7649282,18.0788389 21.7649282,17.8656091 L21.7641893,9.681 L3.60455197,9.68168869 L3.60455197,8.4199744 L21.7641893,8.419 L21.7649282,5.64906057 C21.7649282,5.4352 21.5944621,5.26171429 21.385703,5.26171429 Z M18.0238782,13.919093 C18.2808125,13.919093 18.5179826,13.9298176 18.7316828,13.9481125 L19.007146,14.5846473 C18.7292123,14.621237 18.3963094,14.643317 18.0238782,14.643317 C17.6502117,14.643317 17.3160736,14.621237 17.0381398,14.5846473 L17.3123678,13.9487433 C17.5279209,13.9298176 17.7669439,13.919093 18.0238782,13.919093 Z" id="Fill-6"></path>
            </g>
        </g>
    </g>
</svg>