<svg xmlns="http://www.w3.org/2000/svg" width="49" height="38" viewBox="0 0 49 38">
    <g fill="none" fill-rule="evenodd">
        <path fill="#FFF" stroke="#272F38" stroke-linejoin="round" stroke-width="2" d="M45.368 36H14.632C13.73 36 13 35.265 13 34.357V14.643c0-.908.73-1.643 1.632-1.643h30.736c.902 0 1.632.735 1.632 1.643v19.714c0 .908-.73 1.643-1.632 1.643z"/>
        <path stroke="#272F38" stroke-linejoin="round" stroke-width="2" d="M17 20L47 20"/>
        <path fill="#272F38" d="M41.953 28.95c.478-.128 1.047-.356 1.047-.711v-.002c0-.406-.776-.706-1.798-.861L39.5 23l-1.7 4.371c-.268.041-.517.093-.742.154-.47.128-1.036.355-1.056.71-.006.085.027.168.09.246.163.202.55.375 1.08.504L36 32h.537l1.213-2.903c.517.08 1.115.126 1.753.126.624 0 1.223-.045 1.748-.127L42.465 32H43l-1.173-3.018c.043-.01.084-.02.126-.032zm.401-.874v.001c0 .133-.268.27-.732.38l-.322-.826c.659.115 1.053.285 1.054.445zm-2.854-3.17l.998 2.388c-.325-.027-.66-.041-.995-.041h-.049c-.326 0-.645.013-.95.037l.996-2.383zm-2.85 3.171v-.001c0-.16.394-.328 1.049-.443l-.321.823c-.461-.109-.728-.248-.728-.379zm2.853.582c-.58 0-1.1-.036-1.531-.095l.426-1.022c.334-.031.706-.048 1.105-.048.398 0 .766.017 1.098.047l.428 1.023c-.43.06-.948.095-1.526.095z"/>
        <g fill-rule="nonzero">
            <path fill="#FACF00" d="M11.235 1.836c.08 0 .259.138.616.538l.381.443c.584.682.954 1.017 1.503 1.198.501.165.913.154 1.647.001l.857-.192c.522-.11.737-.118.786-.082.058.043.12.259.177.803l.078.84c.082.787.192 1.177.505 1.612.31.43.647.658 1.35.973l.785.34c.488.22.67.347.694.42.021.067-.072.31-.418.9l-.187.316c-.465.786-.672 1.272-.672 1.872 0 .54.167.987.54 1.645l.4.683c.28.49.356.698.337.76-.024.073-.207.2-.694.42l-.785.34c-.704.316-1.04.543-1.35.973-.313.435-.423.825-.506 1.616l-.077.839c-.058.542-.12.758-.177.8-.055.04-.309.027-.952-.117l-.21-.049c-1.054-.248-1.527-.304-2.129-.106-.493.162-.843.45-1.333 1.003l-.314.365c-.518.611-.757.81-.852.81-.079 0-.258-.138-.616-.538l-.382-.444c-.582-.681-.953-1.016-1.501-1.196-.552-.182-.995-.15-1.877.048l-.276.064c-.781.184-1.078.204-1.138.16-.057-.042-.119-.258-.177-.8l-.077-.842c-.082-.787-.193-1.178-.506-1.613-.31-.43-.646-.657-1.35-.973l-.454-.196c-.739-.311-.996-.476-1.025-.565-.02-.06.058-.27.337-.759l.268-.456c.466-.786.673-1.272.673-1.872 0-.54-.168-.987-.54-1.645l-.401-.683c-.28-.49-.356-.698-.337-.76.027-.08.245-.225.85-.489l.208-.088c1.002-.423 1.405-.648 1.771-1.156.313-.435.423-.825.506-1.612l.077-.842c.058-.542.12-.759.177-.801.05-.037.264-.029.786.081l.858.193c.733.152 1.145.164 1.647-.001.493-.163.843-.45 1.333-1.003l.314-.366c.518-.61.757-.81.852-.81z" transform="translate(2 1)"/>
            <path fill="#272F38" d="M11.235 0c-.82 0-1.283.341-2.077 1.254l-.316.37c-.36.423-.568.61-.68.647-.132.043-.386.019-.939-.105l-.219-.05c-1.383-.327-1.951-.365-2.648.148-.65.48-.815 1.004-.93 2.241l-.055.618c-.05.48-.1.697-.176.801-.07.097-.254.21-.676.4l-.35.15C.878 7.019.375 7.34.108 8.169c-.246.763-.081 1.26.55 2.336l.222.377.173.303c.172.318.244.513.244.634 0 .122-.072.316-.244.634l-.264.457c-.738 1.235-.943 1.746-.681 2.56.233.725.647 1.061 1.611 1.498l.799.346c.422.189.606.302.676.4.083.115.138.37.193.974l.017.192c.116 1.42.257 1.982.951 2.494.61.448 1.121.475 2.166.256l.875-.196c.434-.091.648-.106.765-.067.1.032.274.184.565.513l.256.298c.904 1.068 1.374 1.46 2.252 1.46.82 0 1.283-.342 2.077-1.255l.316-.37c.361-.423.568-.61.68-.647.132-.043.387-.019.939.105l.22.05c1.382.327 1.95.365 2.647-.148.651-.48.815-1.004.93-2.237l.055-.622c.05-.48.101-.697.176-.801.07-.097.254-.21.676-.4l.35-.15c1.291-.544 1.793-.865 2.06-1.694.246-.763.081-1.26-.549-2.336l-.223-.377c-.299-.504-.417-.781-.417-.937 0-.139.094-.373.324-.777l.184-.313c.739-1.236.944-1.746.682-2.56-.234-.725-.648-1.062-1.612-1.499l-.48-.208c-.653-.275-.91-.418-.995-.537-.075-.104-.126-.32-.176-.8l-.033-.366c-.117-1.42-.257-1.982-.952-2.494-.653-.48-1.193-.477-2.398-.206l-.273.063c-.69.163-.988.198-1.134.15-.088-.029-.232-.148-.463-.399l-.358-.413C12.583.392 12.113 0 11.235 0zm0 1.836c.08 0 .259.138.616.538l.381.443c.584.682.954 1.017 1.503 1.198.501.165.913.154 1.647.001l.857-.192c.522-.11.737-.118.786-.082.058.043.12.259.177.803l.078.84c.082.787.192 1.177.505 1.612.31.43.647.658 1.35.973l.785.34c.488.22.67.347.694.42.021.067-.072.31-.418.9l-.187.316c-.465.786-.672 1.272-.672 1.872 0 .54.167.987.54 1.645l.4.683c.28.49.356.698.337.76-.024.073-.207.2-.694.42l-.785.34c-.704.316-1.04.543-1.35.973-.313.435-.423.825-.506 1.616l-.077.839c-.058.542-.12.758-.177.8-.055.04-.309.027-.952-.117l-.21-.049c-1.054-.248-1.527-.304-2.129-.106-.493.162-.843.45-1.333 1.003l-.314.365c-.518.611-.757.81-.852.81-.079 0-.258-.138-.616-.538l-.382-.444c-.582-.681-.953-1.016-1.501-1.196-.552-.182-.995-.15-1.877.048l-.276.064c-.781.184-1.078.204-1.138.16-.057-.042-.119-.258-.177-.8l-.077-.842c-.082-.787-.193-1.178-.506-1.613-.31-.43-.646-.657-1.35-.973l-.454-.196c-.739-.311-.996-.476-1.025-.565-.02-.06.058-.27.337-.759l.268-.456c.466-.786.673-1.272.673-1.872 0-.54-.168-.987-.54-1.645l-.401-.683c-.28-.49-.356-.698-.337-.76.027-.08.245-.225.85-.489l.208-.088c1.002-.423 1.405-.648 1.771-1.156.313-.435.423-.825.506-1.612l.077-.842c.058-.542.12-.759.177-.801.05-.037.264-.029.786.081l.858.193c.733.152 1.145.164 1.647-.001.493-.163.843-.45 1.333-1.003l.314-.366c.518-.61.757-.81.852-.81z" transform="translate(2 1)"/>
            <path fill="#272F38" d="M14.704 12.383c1.27 0 2.3 1.03 2.3 2.299 0 1.27-1.03 2.3-2.3 2.3-1.27 0-2.3-1.03-2.3-2.3 0-1.27 1.03-2.3 2.3-2.3zm-.04-5.463l.944.806-7.84 9.182-.944-.806 7.84-9.182zm.04 6.704c-.584 0-1.058.474-1.058 1.058 0 .585.474 1.058 1.058 1.058.585 0 1.059-.473 1.059-1.058 0-.584-.474-1.058-1.059-1.058zM7.83 6.654c1.27 0 2.3 1.03 2.3 2.3 0 1.27-1.03 2.3-2.3 2.3-1.27 0-2.3-1.03-2.3-2.3 0-1.27 1.03-2.3 2.3-2.3zm0 1.242c-.585 0-1.059.474-1.059 1.058 0 .585.474 1.059 1.059 1.059.584 0 1.058-.474 1.058-1.059 0-.584-.474-1.058-1.058-1.058z" transform="translate(2 1)"/>
        </g>
    </g>
</svg>
