<svg xmlns="http://www.w3.org/2000/svg" width="36" height="36" viewBox="0 0 36 36">
    <g fill="none" fill-rule="evenodd">
        <path fill="#FACF00" stroke="#272F38" stroke-width="2" d="M30.16 11.055c-.476-1.48-3.452-1.685-4.34-2.919-.898-1.245-.18-4.168-1.41-5.075-1.221-.899-3.745.688-5.209.205C17.786 2.8 16.677 0 15.111 0c-1.566 0-2.676 2.8-4.09 3.266-1.465.482-3.988-1.104-5.208-.205-1.232.907-.513 3.83-1.41 5.075C3.514 9.37.538 9.574.062 11.056c-.46 1.43 1.81 3.36 1.81 4.944s-2.27 3.514-1.81 4.945c.476 1.48 3.452 1.685 4.341 2.92.897 1.245.178 4.167 1.41 5.075 1.22.899 3.744-.688 5.208-.205C12.435 29.2 13.544 32 15.111 32c1.566 0 2.675-2.8 4.09-3.266 1.464-.482 3.988 1.104 5.208.205 1.231-.907.513-3.83 1.41-5.075.889-1.234 3.864-1.439 4.341-2.92.46-1.43-1.81-3.36-1.81-4.944s2.271-3.514 1.81-4.945z" transform="translate(3 2)"/>
        <path fill="#272F38" fill-rule="nonzero" d="M19.94 17.205c1.82 0 3.294 1.475 3.294 3.294 0 1.82-1.475 3.294-3.294 3.294-1.82 0-3.294-1.475-3.294-3.294 0-1.82 1.475-3.294 3.294-3.294zm-.057-7.825l1.352 1.154-11.229 13.153-1.352-1.154L19.883 9.38zm.057 9.603c-.837 0-1.516.679-1.516 1.516s.679 1.516 1.516 1.516 1.516-.679 1.516-1.516-.679-1.516-1.516-1.516zM10.094 9c1.819 0 3.294 1.475 3.294 3.294s-1.475 3.294-3.294 3.294c-1.82 0-3.294-1.475-3.294-3.294C6.8 10.474 8.275 9 10.094 9zm0 1.778c-.837 0-1.516.679-1.516 1.516s.679 1.516 1.516 1.516 1.516-.679 1.516-1.516-.679-1.516-1.516-1.516z" transform="translate(3 2)"/>
    </g>
</svg>
