<?xml version="1.0" encoding="UTF-8"?>
<svg width="22px" height="16px" viewBox="0 0 22 16" version="1.1" xmlns="http://www.w3.org/2000/svg" xmlns:xlink="http://www.w3.org/1999/xlink">
    <title>logo/co-brand copy 2</title>
    <g id="PDP+Cart" stroke="none" stroke-width="1" fill="none" fill-rule="evenodd">
        <g id="Offers_Day1" transform="translate(-159.000000, -938.000000)">
            <g id="logo/discount" transform="translate(158.000000, 934.000000)">
                <path d="M2.61405787,5.26171429 C2.40529875,5.26171429 2.23545035,5.4352 2.23545035,5.64906057 L2.23545035,17.8656091 C2.23545035,18.0788389 2.40529875,18.2523246 2.61405787,18.2523246 L21.385703,18.2523246 C21.5944621,18.2523246 21.7649282,18.0788389 21.7649282,17.8656091 L21.7649282,5.64906057 C21.7649282,5.4352 21.5944621,5.26171429 21.385703,5.26171429 L2.61405787,5.26171429 Z M21.385703,19.5140389 L2.61405787,19.5140389 C1.72405226,19.5140389 1.00018926,18.7746743 1.00018926,17.8656091 L1.00018926,5.64906057 C1.00018926,4.73936457 1.72405226,4 2.61405787,4 L21.385703,4 C22.2757086,4 23.0001893,4.73936457 23.0001893,5.64906057 L23.0001893,17.8656091 C23.0001893,18.7746743 22.2757086,19.5140389 21.385703,19.5140389 L21.385703,19.5140389 Z" id="Fill-6" fill="#272F38" fill-rule="evenodd"></path>
                <path d="M8.5,12.5 C9.6045695,12.5 10.5,11.6045695 10.5,10.5 C10.5,9.3954305 9.6045695,8.5 8.5,8.5 C7.3954305,8.5 6.5,9.3954305 6.5,10.5 C6.5,11.6045695 7.3954305,12.5 8.5,12.5 Z M8.5,11.5 C7.94771525,11.5 7.5,11.0522847 7.5,10.5 C7.5,9.94771525 7.94771525,9.5 8.5,9.5 C9.05228475,9.5 9.5,9.94771525 9.5,10.5 C9.5,11.0522847 9.05228475,11.5 8.5,11.5 Z" id="Oval" fill="#272F38" fill-rule="nonzero"></path>
                <path d="M14.5,15.5 C15.6045695,15.5 16.5,14.6045695 16.5,13.5 C16.5,12.3954305 15.6045695,11.5 14.5,11.5 C13.3954305,11.5 12.5,12.3954305 12.5,13.5 C12.5,14.6045695 13.3954305,15.5 14.5,15.5 Z M14.5,14.5 C13.9477153,14.5 13.5,14.0522847 13.5,13.5 C13.5,12.9477153 13.9477153,12.5 14.5,12.5 C15.0522847,12.5 15.5,12.9477153 15.5,13.5 C15.5,14.0522847 15.0522847,14.5 14.5,14.5 Z" id="Oval-Copy" fill="#272F38" fill-rule="nonzero"></path>
                <polygon id="Rectangle" fill="#333D47" fill-rule="evenodd" points="14.2702906 8 15.7 8 9.12970938 15.5 7.7 15.5"></polygon>
            </g>
        </g>
    </g>
</svg>