<svg xmlns="http://www.w3.org/2000/svg" width="49" height="38" viewBox="0 0 49 38">
    <g fill="none" fill-rule="evenodd">
        <g>
            <path fill="#FFF" stroke="#272F38" stroke-linejoin="round" stroke-width="2" d="M32.368 23H1.632C.73 23 0 22.265 0 21.357V1.643C0 .735.73 0 1.632 0h30.736C33.27 0 34 .735 34 1.643v19.714c0 .908-.73 1.643-1.632 1.643z" transform="translate(13 13)"/>
            <path fill="#272F38" d="M15.842 11.297c-.044.007-.094-.06-.115-.092-.006-.01-.03-.063-.024-.071.009-.008.06.01.073.021.033.028.06.066.075.131.002.008-.005.011-.009.011m-.885-.55c-.024.01-.084-.065-.1-.092-.03-.051-.06-.107-.094-.156-.03-.045-.062-.076-.07-.153-.001-.01-.006-.033 0-.032.032.003.063.066.08.09.011.018.025.036.036.055.016.027.023.06.04.084.02.031.045.06.067.091.011.017.027.032.034.054.004.012.014.055.007.059m-.215.003c-.025-.002-.035-.015-.05-.026-.04-.026-.072-.07-.074-.132 0-.007.002-.008.007-.008.047 0 .096.066.114.097.005.01.017.034.016.052-.001.012-.006.017-.013.017m-.846.169c-.001.004-.004.01-.01.01-.039-.001-.05-.066-.068-.095-.013-.024-.025-.05-.04-.075-.01-.017-.023-.035-.032-.054-.01-.025-.015-.051-.028-.073-.007-.012-.018-.022-.025-.033-.021-.031-.04-.065-.054-.104l-.01-.043c-.008-.024-.018-.05-.025-.075-.004-.013-.006-.039-.004-.048.002-.004.003-.006.006-.006.03.006.058.085.073.114.016.031.041.057.055.09.013.028.017.065.03.094.012.021.03.039.043.06.016.027.027.062.04.092.013.034.034.06.045.093.006.014.008.038.004.053m-.151-1.228c-.008-.015-.016-.033-.021-.048-.006-.019-.007-.035-.014-.052l-.072-.174c-.01-.023-.022-.067-.013-.096.001-.004.009-.001.012.002l.02.021c.005.008.006.017.011.025.011.02.026.039.035.06.02.045.024.096.043.14.012.03.033.055.046.086.007.015.01.032.015.05.004.012.003.03.004.04 0 .015-.001.025-.007.025-.035-.002-.046-.05-.06-.08m7.753 3.793c-.046-.184-.533-.105-.933-.145-.364-.037-.831-.11-1.393-.325-.526-.2-1.034-.432-1.478-.696l-.198-.116-.102-.068c-.022-.014-.055-.036-.08-.048-.03-.014-.051-.032-.078-.05-.027-.02-.065-.039-.092-.058-.041-.027-.067-.05-.105-.08-.024-.019-.036-.024-.068-.046-.018-.013-.053-.033-.07-.046-.036-.026-.059-.047-.094-.075l-.064-.045c-.026-.017-.05-.04-.073-.058-.012-.01-.03-.022-.042-.035-.026-.028-.052-.053-.08-.077-.025-.02-.048-.046-.073-.066l-.057-.05-.106-.088c-.025-.021-.047-.049-.072-.07-.03-.023-.056-.05-.085-.074-.02-.015-.041-.033-.056-.05l-.057-.067c-.014-.019-.043-.038-.06-.056-.024-.035-.059-.072-.092-.099-.019-.02-.025-.03-.032-.04-.006-.009-.013-.019-.03-.037l-.027-.03-.037-.04c-.007-.007-.018-.025-.03-.041l-.025-.038-.047-.054-.033-.039-.02-.03c-.006-.01-.012-.02-.02-.029-.01-.014-.02-.01-.022-.007-.007.005-.01.02-.002.038.01.021.025.045.034.06l.005.007c.004.006.008.013.01.02l.018.03c.015.023.031.041.047.06l.015.017c.01.012.019.025.027.038.009.014.018.028.03.042.005.006.01.013.013.02.006.007.01.015.017.021l.026.03c.015.017.03.034.045.048.011.01.023.024.034.036.03.04.063.078.09.116.015.021.042.037.06.051.019.016.034.044.049.065.012.015.037.04.05.056.029.042.05.065.088.097.024.02.043.037.06.063.011.015.046.051.058.068.033.046.047.088.043.09-.023.006-.076-.047-.108-.07-.026-.019-.03-.027-.055-.047-.006-.005-.045-.036-.059-.054-.01-.011-.04-.046-.049-.059-.045-.062-.06-.066-.111-.122-.037-.04-.084-.076-.12-.112l-.032-.039c-.013-.013-.028-.025-.038-.038-.017-.024-.04-.07-.06-.087-.022-.018-.038-.035-.059-.053-.008-.005-.015-.016-.022-.023-.01-.008-.023-.018-.03-.03-.026-.034-.05-.07-.076-.105-.011-.017-.028-.031-.04-.049-.024-.037-.044-.076-.069-.112-.034-.05-.084-.085-.117-.135-.034-.052-.055-.112-.087-.166-.014-.023-.036-.04-.05-.062-.01-.013-.015-.028-.023-.042-.017-.03-.037-.057-.055-.086-.023-.036-.038-.077-.061-.115-.004-.006-.012-.032-.026-.051-.014-.02-.025-.042-.041-.07-.016-.026-.024-.045-.035-.064-.011-.018-.018-.036-.026-.05l-.03-.047c-.02-.036-.026-.053-.048-.086-.014-.02-.028-.036-.04-.031-.01.007-.006.02-.004.028.01.03.01.025.02.045.017.035.023.052.042.084.009.015.024.05.036.069l.032.058c.009.017.022.061.035.08.01.013.022.04.031.06.018.04.041.07.06.102l.037.077c.024.04.054.08.078.121l.045.09c.015.023.035.044.05.069.017.03.026.062.044.09.014.023.032.045.045.068.024.039.045.077.07.114.014.02.032.038.045.058.02.028.034.061.054.085.023.024.03.038.048.062.027.036.095.142.083.142-.04.006-.116-.09-.148-.124-.025-.028-.053-.047-.07-.073-.026-.038-.044-.08-.07-.118-.01-.013-.023-.024-.032-.037-.018-.025-.034-.051-.055-.073l-.025-.027c-.031-.044-.057-.092-.088-.137-.013-.02-.03-.036-.042-.055-.01-.014-.015-.03-.024-.046-.012-.02-.028-.041-.04-.062-.01-.015-.015-.03-.024-.046-.017-.028-.038-.051-.055-.08-.013-.022-.017-.052-.03-.074l-.105-.174c-.008-.015-.012-.032-.02-.046-.027-.047-.053-.099-.08-.145-.01-.017-.014-.037-.024-.054-.012-.021-.031-.037-.044-.058-.009-.016-.013-.034-.02-.052-.01-.024-.024-.049-.035-.072-.008-.014-.011-.028-.02-.042-.032-.056-.058-.116-.085-.177-.014-.033-.034-.063-.048-.095l-.045-.108-.023-.071c-.016-.038-.04-.07-.056-.108-.01-.027-.016-.051-.026-.073-.006-.014-.018-.025-.026-.019-.009.006-.01.018-.005.038.01.04.03.085.04.107.018.045.027.091.046.137.01.025.025.05.035.074l.053.127c.01.024.018.047.03.07.006.011.015.024.02.038.012.028.015.059.027.086.012.029.033.053.045.081.061.145.124.284.199.413.02.036.031.08.052.116.022.037.051.066.073.102.018.03.022.072.038.104.024.05.056.09.082.136.008.012.01.027.017.04.01.018.023.035.033.052.014.024.02.051.036.073.015.024.038.044.054.068.02.03.033.065.053.095.015.02.037.035.05.056l.125.18c.035.048.096.12.126.184.008.02.04.067.033.076-.017.013-.094-.081-.108-.095-.032-.035-.06-.082-.089-.122l-.087-.098c-.008-.01-.016-.022-.022-.033-.02-.034-.034-.076-.056-.108-.01-.013-.023-.024-.032-.037-.018-.025-.03-.054-.046-.08-.027-.04-.061-.075-.088-.115-.029-.044-.05-.095-.079-.139-.014-.022-.033-.04-.047-.064l-.015-.03c-.01-.019-.025-.039-.033-.059-.008-.018-.013-.035-.022-.052l-.093-.162c-.013-.024-.021-.05-.035-.073-.023-.04-.052-.075-.075-.114-.027-.047-.042-.103-.069-.15-.018-.031-.039-.06-.057-.091-.02-.034-.03-.073-.047-.108-.015-.031-.036-.06-.05-.091-.014-.034-.024-.067-.04-.102-.007-.019-.02-.037-.027-.056-.01-.024-.012-.048-.021-.071-.027-.065-.068-.127-.095-.191-.02-.046-.037-.094-.053-.143-.01-.027-.013-.052-.024-.077-.024-.06-.055-.122-.079-.181l-.03-.095-.006-.027c-.011-.027-.026-.055-.036-.082l-.028-.097c-.038-.104-.072-.222-.107-.33-.005-.02-.006-.045-.013-.067l-.055-.167c-.01-.028-.035-.019-.03.01.008.039.013.048.018.078l.009.046c.004.019.012.038.017.056.01.033.01.066.02.098.015.046.03.089.043.135l.013.07.02.063c.022.057.042.112.06.168l.022.096c.008.018.019.036.026.054.007.015.008.03.014.046.013.036.025.073.04.11.012.03.027.06.038.092.005.016.005.03.01.045.031.095.066.195.103.285.009.023.012.046.021.07l.026.057.012.037c.011.027.03.049.042.075.032.074.06.145.1.208.038.059.054.137.082.207.013.033.031.061.048.09.008.016.014.032.02.048.019.037.029.069.05.1.018.027.016.033.031.07.004.012.02.081.018.081-.006.004-.037-.016-.048-.03-.014-.017-.036-.04-.052-.078-.007-.019-.023-.052-.03-.07-.02-.046-.054-.085-.078-.127-.014-.025-.022-.052-.034-.08l-.065-.148-.033-.06c-.012-.019-.017-.04-.029-.06-.024-.042-.052-.09-.072-.136-.014-.034-.022-.07-.036-.103-.004-.01-.013-.02-.018-.03-.01-.018-.014-.037-.023-.056-.011-.026-.028-.05-.039-.078-.021-.052-.035-.107-.057-.16-.01-.024-.028-.045-.039-.069-.016-.037-.017-.084-.033-.123-.042-.103-.09-.21-.125-.318-.006-.018-.007-.039-.012-.058-.016-.047-.036-.09-.052-.137-.006-.02-.008-.04-.015-.062l-.035-.096-.007-.032c-.013-.03-.02-.066-.033-.097-.007-.016-.017-.033-.023-.05-.01-.03-.007-.07-.017-.1l-.046-.135c-.008-.025-.01-.05-.018-.075l-.029-.09c-.01-.03-.01-.063-.019-.095-.006-.024-.015-.049-.023-.07-.013-.043-.019-.088-.033-.128l-.007-.022c-.004-.01-.01-.021-.02-.018-.012.003-.011.02-.01.03.001.03.012.06.02.085.009.026.013.055.02.08.004.017.003.035.007.053.005.024.013.048.02.073.005.024.002.048.007.067.014.053.03.113.047.164.007.026.008.056.014.079.01.026.018.053.027.08.008.023.01.045.018.066.009.022.02.046.027.071.01.033.008.066.018.096.017.05.038.098.054.147.005.017.006.036.012.054.014.042.023.087.037.129.02.06.045.118.064.177.02.058.022.129.044.183.012.027.035.043.046.07.007.016.005.036.01.055.007.023.017.045.024.066l.014.056c.006.022.02.044.03.065.014.035.021.072.04.102.013.024.03.046.042.072.012.03.016.06.028.09.018.045.04.087.055.133.014.042.019.087.037.124.018.036.04.069.059.106l.034.08c.01.023.027.042.038.064.014.028.028.057.04.085.008.022.012.042.023.06.016.029.028.052.045.08.014.026.031.058.041.088.008.023.017.046.028.065.013.02.03.037.04.058.011.021.026.09.02.093-.013.006-.05-.035-.061-.049-.03-.04-.045-.094-.073-.137-.028-.046-.047-.072-.07-.124-.013-.03-.036-.086-.052-.113-.015-.026-.035-.048-.047-.077-.01-.024-.015-.052-.024-.075-.014-.034-.044-.056-.058-.091-.017-.04-.025-.08-.042-.116l-.028-.056c-.01-.023-.015-.046-.025-.07-.02-.046-.05-.087-.07-.134-.02-.049-.033-.101-.054-.15-.01-.027-.03-.05-.042-.076-.015-.035-.023-.072-.038-.108-.01-.021-.023-.042-.032-.063-.013-.031-.018-.065-.03-.097l-.09-.22c-.01-.027-.013-.056-.025-.084-.01-.025-.022-.049-.033-.073-.026-.064-.035-.139-.06-.203-.014-.032-.03-.063-.042-.098-.018-.055-.025-.111-.043-.167-.028-.086-.05-.175-.078-.26-.009-.026-.01-.051-.018-.077l-.025-.075c-.006-.02-.01-.05-.015-.076l-.062-.217c-.005-.018-.006-.049-.011-.071-.003-.013-.01-.028-.013-.039-.006-.017-.006-.03-.01-.048-.016-.053-.03-.115-.044-.167-.005-.017-.006-.041-.01-.06-.022-.076-.033-.168-.06-.238-.005-.014-.013-.028-.025-.025-.012.003-.01.019-.008.031.003.035.015.065.02.093.002.013.002.03.003.046.002.013.003.029.007.042l.039.143c.004.021 0 .054.006.079.017.071.03.157.054.221.021.059.025.129.04.192.006.028.007.056.01.083.004.027.017.045.025.068.005.016.005.03.01.048.013.045.022.09.038.136.01.032.025.062.036.093.004.014.002.027.006.042.007.032.012.063.02.094l.06.193c.011.035.015.069.026.102l.135.403.022.088c.01.03.026.056.037.083.014.035.019.071.031.108.014.043.032.076.047.122.007.02.014.044.023.065.007.016.02.03.026.046.012.027.014.06.025.087.012.027.033.049.047.073.012.024.014.053.024.08.017.04.039.078.055.12.006.02.01.035.017.053.008.02.022.039.03.06l.001.002c.001.002.003.006.003.01l.007.027c.004.012.016.033.02.04l.019.025.01.012c.015.028.017.068.03.099.013.03.036.054.05.085.01.023.016.082.002.084-.055 0-.058-.085-.077-.13-.014-.034-.037-.063-.053-.096-.004-.006-.01-.02-.013-.033-.003-.012-.008-.024-.012-.034l-.012-.026-.025-.042V9.91c-.022-.037-.036-.09-.05-.115l-.028-.043c-.014-.024-.021-.052-.032-.079-.01-.024-.027-.048-.037-.073-.013-.03-.013-.068-.026-.098-.007-.017-.019-.033-.026-.049-.015-.034-.024-.071-.04-.106-.007-.016-.02-.031-.027-.048-.013-.029-.02-.06-.033-.087-.029-.057-.06-.12-.084-.18-.014-.036-.019-.072-.033-.107-.012-.03-.028-.06-.04-.088-.009-.02-.011-.039-.018-.06-.011-.034-.025-.069-.037-.102-.006-.023-.012-.074-.018-.095-.008-.025-.02-.052-.03-.077-.015-.037-.02-.076-.035-.113-.012-.029-.025-.06-.034-.089-.008-.025-.01-.048-.02-.071l-.022-.056c-.008-.022-.013-.058-.019-.087-.01-.032-.022-.063-.03-.094-.006-.023-.007-.078-.012-.092-.03-.099-.058-.203-.086-.3-.013-.046-.02-.091-.03-.136-.005-.017-.005-.04-.01-.057-.007-.029-.018-.058-.027-.087l-.01-.06c-.004-.02-.014-.04-.021-.061-.017-.06-.027-.122-.042-.18-.006-.023-.006-.054-.011-.076-.02-.071-.025-.154-.045-.23-.004-.02-.007-.043-.012-.063-.033-.14-.048-.296-.084-.43-.008-.026.002-.06-.005-.087-.007-.031-.015-.059-.023-.087-.004-.014-.004-.025-.007-.038-.006-.023-.015-.04-.027-.038-.013.005-.01.018-.01.037.002.031.004.058.01.083.005.021.002.039.007.058.012.043.016.105.022.144.003.017 0 .038.004.058.003.02.017.046.021.067.004.03.004.067.008.098.005.027.012.052.018.077.006.021.002.042.007.062.006.02.016.04.02.063.003.025 0 .061.004.083.029.123.037.269.07.386.004.017.004.036.008.053.027.103.048.213.076.315.004.016.003.033.007.05.009.036.017.075.024.112.004.016.003.032.007.048.01.038.022.074.033.112l.009.053c.003.015.01.031.014.045.005.021.004.042.01.061.004.012.012.025.015.037.004.022.007.044.013.065.007.026.02.052.03.078.007.02.007.043.014.063l.04.117c.01.032.012.064.022.097l.023.063.012.05c.005.016.02.04.03.06.008.023.004.053.011.077.007.025.02.045.027.068.007.023.007.047.012.07.006.019.018.036.024.053l.02.06c.005.012.015.026.02.038.01.023.018.048.027.071.012.034.013.075.022.114.003.01.003.037-.003.04-.014.003-.03-.021-.04-.037-.016-.025-.032-.054-.044-.084l-.01-.035c-.01-.026-.016-.055-.027-.081-.006-.016-.016-.033-.02-.05-.008-.025-.005-.054-.014-.075-.007-.018-.02-.032-.027-.05-.006-.017-.008-.034-.015-.05-.008-.02-.019-.038-.029-.056-.007-.018-.006-.037-.012-.058-.006-.025-.013-.05-.023-.073l-.032-.072-.01-.04-.02-.056c-.004-.013-.007-.028-.012-.04-.008-.02-.018-.042-.025-.064-.006-.018-.007-.037-.012-.054l-.03-.096c-.005-.024-.008-.048-.014-.071-.008-.028-.019-.055-.028-.083-.007-.023-.009-.047-.015-.07-.01-.03-.023-.057-.032-.088-.005-.025-.006-.05-.011-.073-.016-.058-.032-.122-.05-.181-.018-.066-.02-.141-.037-.208-.012-.048-.028-.094-.041-.14-.005-.025-.006-.048-.011-.072-.012-.052-.03-.122-.045-.177-.009-.03-.006-.059-.014-.09s-.008-.069-.017-.102c-.006-.02-.013-.036-.017-.062-.005-.026-.005-.057-.008-.077-.004-.02-.035-.136-.038-.158-.004-.021-.004-.06-.006-.075-.001-.01-.018-.06-.02-.073-.002-.013-.002-.028-.006-.054-.005-.025-.019-.083-.021-.1-.002-.016-.002-.05-.006-.067-.003-.017-.013-.055-.02-.083-.008-.033-.001-.068-.01-.1l-.02-.068c-.006-.02-.012-.045-.013-.057l-.003-.068c0-.019-.008-.05-.01-.078-.002-.037-.009-.077-.014-.1-.003-.014-.002-.03-.005-.042-.008-.037-.016-.071-.033-.069-.013.003-.017.013-.012.038l.015.079c.004.015.004.052.005.065 0 .02.002.025.004.044 0 .008.004.026.006.034.003.014.007.032.006.042v.045c0 .01 0 .013.004.03.003.016.005.019.006.033v.033c0 .013.002.025.005.037.007.024.021.058.015.094-.006.038.005.075.012.108.004.021 0 .045.004.065l.02.089c.006.024.002.046.008.069.008.032.028.076.03.09.003.015.002.054.006.08.004.024.01.053.011.068.002.016 0 .023.001.035.002.012.016.068.018.083.003.014.002.022.005.037l.017.096.005.05c.005.03.016.055.022.084.004.022.002.035.005.052.005.027.013.052.018.077l.007.06c.009.043.014.088.025.13.007.026.02.05.027.074.006.023.007.047.012.07.006.019.018.036.023.057.003.018.002.036.005.054.004.02.012.04.016.061.003.016.002.032.005.048.005.019.013.035.017.052.004.023.004.045.01.068.005.026.015.05.023.075.006.022.003.047.009.071.013.053.029.11.045.16.007.027.006.054.015.083.006.019.014.032.02.048.006.017 0 .036.005.056.008.031.013.074.023.105.011.036.03.065.041.099.011.036.012.072.023.11.01.031.025.06.036.09.01.026.006.06.015.087.01.03.029.052.039.082.011.035.02.07.029.104l.008.045c.012.045.034.082.048.125l.012.056c.01.03.021.063.034.092.011.027.027.053.038.08.01.024.012.049.021.075.01.024.02.05.029.077.005.015.005.03.011.044.028.068.062.137.09.204.016.037.023.077.039.114.012.029.027.057.04.089.007.02.009.039.016.057.016.037.038.074.053.11.004.01.015.049.01.064 0 .002 0 .004-.003.006-.01.003-.03-.017-.042-.03-.04-.042-.046-.123-.074-.179-.008-.016-.017-.033-.024-.05l-.012-.035c-.017-.035-.038-.068-.054-.106-.01-.027-.012-.058-.023-.085-.045-.107-.097-.21-.14-.318-.02-.049-.025-.104-.042-.158-.01-.031-.028-.057-.04-.086-.009-.024-.011-.048-.02-.072-.013-.03-.031-.06-.042-.092-.007-.022-.01-.044-.017-.065-.008-.024-.023-.043-.032-.066-.014-.034-.016-.067-.026-.106l-.02-.062c-.004-.018-.006-.036-.012-.054-.013-.04-.035-.076-.049-.117-.009-.028-.007-.064-.018-.09-.009-.023-.025-.041-.033-.064-.01-.025-.001-.054-.008-.083-.007-.028-.017-.053-.025-.079-.005-.016-.006-.032-.01-.048l-.033-.1c-.006-.017-.006-.033-.012-.048-.008-.02-.022-.039-.028-.06-.008-.033-.01-.067-.017-.098-.012-.043-.026-.077-.037-.118-.003-.013-.003-.026-.006-.04-.01-.036-.014-.077-.023-.114-.004-.017-.003-.032-.007-.05l-.03-.102c-.004-.02-.005-.043-.01-.063-.015-.054-.029-.117-.044-.17-.003-.015-.002-.028-.006-.046-.012-.04-.027-.09-.036-.133-.004-.024-.004-.048-.009-.07-.005-.03-.015-.057-.02-.086-.002-.013 0-.023-.001-.034l-.007-.056c-.017-.074-.043-.166-.058-.24-.004-.027-.005-.054-.008-.081-.002-.019-.003-.04-.008-.06-.006-.02-.014-.04-.016-.06-.004-.032-.004-.063-.009-.094v-.007c-.007-.038-.024-.116-.028-.147l-.013-.11c0-.025-.004-.05-.007-.075-.005-.038-.013-.072-.017-.112-.003-.026-.002-.05-.004-.072-.002-.015-.003-.039-.019-.039s-.014.02-.015.037c-.002.04.005.092.008.117.005.046.001.09.006.137.002.026.01.052.012.077l.015.13v.003l.007.058.001.006v.003l.001.003.006.025c.004.017.002.031.007.049.012.05.01.106.022.155.018.074.028.156.047.23.005.02 0 .042.006.065l.016.069c.005.028 0 .056.008.084l.02.078c.006.03.007.061.015.094.008.032.018.068.024.102l.016.121c.005.033.022.073.03.11 0 .012 0 .024.002.036.004.026.011.052.016.077.003.012.002.022.005.035.011.048.025.108.038.155.004.014.005.027.008.041.009.034.018.059.021.077.003.016.005.035.01.052.005.026.013.049.017.071l.01.052c.006.022.014.041.022.062.013.043.014.089.028.13.008.026.02.05.027.076.006.025.007.054.014.08l.041.132c.016.049.026.103.041.15.006.019.005.037.01.058l.042.146c.007.025.008.05.016.073.015.04.036.073.05.114.01.035.013.07.025.102.016.043.034.087.05.133.01.031.013.063.025.092.01.026.023.052.034.077l.02.068c.006.017.023.046.034.07.013.03.015.064.026.098.017.05.039.102.059.15.007.018.009.036.015.056.012.034.032.059.045.09.012.03.015.062.027.09.018.043.03.065.03.126 0 .005-.001.01-.007.012-.01.004-.021-.015-.028-.022-.03-.032-.034-.062-.052-.106-.028-.067-.064-.13-.092-.195-.014-.034-.02-.07-.034-.106l-.03-.063c-.013-.031-.02-.063-.034-.09-.02-.041-.037-.089-.053-.134-.006-.017-.007-.034-.014-.05-.007-.017-.018-.034-.026-.05-.01-.028-.017-.062-.027-.09-.022-.055-.047-.112-.066-.169-.017-.052-.026-.102-.043-.155-.007-.022-.017-.046-.023-.068-.006-.02-.007-.037-.012-.056-.016-.048-.037-.098-.055-.144-.01-.023-.012-.045-.02-.07l-.03-.09c-.013-.038-.014-.083-.027-.123-.028-.086-.065-.177-.089-.268-.004-.02-.003-.042-.008-.064-.014-.045-.027-.095-.04-.144-.014-.054-.012-.11-.028-.163l-.06-.207c-.006-.02-.003-.041-.01-.063-.012-.052-.028-.113-.044-.162-.008-.024-.008-.05-.016-.073-.01-.027-.035-.017-.033.014.002.028.01.064.013.079.003.019.003.038.007.059.008.036.018.067.028.1.01.034.01.067.018.102l.016.054c.01.035.01.073.02.106.009.024.015.055.023.082.004.018.003.033.008.05l.028.097c.004.018.002.035.006.052l.018.075c.006.023.006.055.013.078l.04.133c.016.047.018.096.033.143.027.083.053.18.08.264.007.021.005.044.01.067.01.036.017.072.028.108.006.017.016.034.023.05.008.02.01.043.02.064.006.017.016.034.022.052.008.026.005.06.015.084l.024.064c.008.023.008.048.016.07.008.018.02.037.028.055.008.018.01.036.016.056l.024.06c.009.021.01.045.018.067.008.02.02.038.027.058.006.022.007.045.014.067.011.033.03.062.042.093.01.023.01.05.02.073.011.028.026.054.038.081.014.036.026.074.04.108.024.06.032.127.058.187.018.044.043.086.06.13.01.023.014.049.024.072.012.027.031.049.042.075.009.027.016.054.026.08.014.033.034.063.048.096.008.019.011.037.019.056.015.036.04.066.055.102l.023.071c.017.039.043.071.06.11.012.029.02.06.036.085l.062.11c.015.026.034.066.047.095.012.028.032.052.044.08.012.029.027.059.04.085.016.03.032.052.048.08.028.046.045.095.072.141.02.032.04.065.061.096.055.084.134.233.168.283.028.04.05.088.076.131.02.033.045.065.066.096.018.026.032.053.05.08l.013.02c.704.987 1.427 1.641 2.04 2.07.322.223.496.288.496.288.041.019.013.052-.008.066l-3.631 2.564c-.012.009-.04.031-.029.057.01.02.046.008.056.005 2.914-1.13 5.029-2.059 6.321-2.736 1.311-.687 1.752-1.08 1.704-1.275" transform="translate(13 13)"/>
        </g>
        <g fill-rule="nonzero">
            <path fill="#FACF00" d="M11.235 1.836c.08 0 .259.138.616.538l.381.443c.584.682.954 1.017 1.503 1.198.501.165.913.154 1.647.001l.857-.192c.522-.11.737-.118.786-.082.058.043.12.259.177.803l.078.84c.082.787.192 1.177.505 1.612.31.43.647.658 1.35.973l.785.34c.488.22.67.347.694.42.021.067-.072.31-.418.9l-.187.316c-.465.786-.672 1.272-.672 1.872 0 .54.167.987.54 1.645l.4.683c.28.49.356.698.337.76-.024.073-.207.2-.694.42l-.785.34c-.704.316-1.04.543-1.35.973-.313.435-.423.825-.506 1.616l-.077.839c-.058.542-.12.758-.177.8-.055.04-.309.027-.952-.117l-.21-.049c-1.054-.248-1.527-.304-2.129-.106-.493.162-.843.45-1.333 1.003l-.314.365c-.518.611-.757.81-.852.81-.079 0-.258-.138-.616-.538l-.382-.444c-.582-.681-.953-1.016-1.501-1.196-.552-.182-.995-.15-1.877.048l-.276.064c-.781.184-1.078.204-1.138.16-.057-.042-.119-.258-.177-.8l-.077-.842c-.082-.787-.193-1.178-.506-1.613-.31-.43-.646-.657-1.35-.973l-.454-.196c-.739-.311-.996-.476-1.025-.565-.02-.06.058-.27.337-.759l.268-.456c.466-.786.673-1.272.673-1.872 0-.54-.168-.987-.54-1.645l-.401-.683c-.28-.49-.356-.698-.337-.76.027-.08.245-.225.85-.489l.208-.088c1.002-.423 1.405-.648 1.771-1.156.313-.435.423-.825.506-1.612l.077-.842c.058-.542.12-.759.177-.801.05-.037.264-.029.786.081l.858.193c.733.152 1.145.164 1.647-.001.493-.163.843-.45 1.333-1.003l.314-.366c.518-.61.757-.81.852-.81z" transform="translate(2 1)"/>
            <path fill="#272F38" d="M11.235 0c-.82 0-1.283.341-2.077 1.254l-.316.37c-.36.423-.568.61-.68.647-.132.043-.386.019-.939-.105l-.219-.05c-1.383-.327-1.951-.365-2.648.148-.65.48-.815 1.004-.93 2.241l-.055.618c-.05.48-.1.697-.176.801-.07.097-.254.21-.676.4l-.35.15C.878 7.019.375 7.34.108 8.169c-.246.763-.081 1.26.55 2.336l.222.377.173.303c.172.318.244.513.244.634 0 .122-.072.316-.244.634l-.264.457c-.738 1.235-.943 1.746-.681 2.56.233.725.647 1.061 1.611 1.498l.799.346c.422.189.606.302.676.4.083.115.138.37.193.974l.017.192c.116 1.42.257 1.982.951 2.494.61.448 1.121.475 2.166.256l.875-.196c.434-.091.648-.106.765-.067.1.032.274.184.565.513l.256.298c.904 1.068 1.374 1.46 2.252 1.46.82 0 1.283-.342 2.077-1.255l.316-.37c.361-.423.568-.61.68-.647.132-.043.387-.019.939.105l.22.05c1.382.327 1.95.365 2.647-.148.651-.48.815-1.004.93-2.237l.055-.622c.05-.48.101-.697.176-.801.07-.097.254-.21.676-.4l.35-.15c1.291-.544 1.793-.865 2.06-1.694.246-.763.081-1.26-.549-2.336l-.223-.377c-.299-.504-.417-.781-.417-.937 0-.139.094-.373.324-.777l.184-.313c.739-1.236.944-1.746.682-2.56-.234-.725-.648-1.062-1.612-1.499l-.48-.208c-.653-.275-.91-.418-.995-.537-.075-.104-.126-.32-.176-.8l-.033-.366c-.117-1.42-.257-1.982-.952-2.494-.653-.48-1.193-.477-2.398-.206l-.273.063c-.69.163-.988.198-1.134.15-.088-.029-.232-.148-.463-.399l-.358-.413C12.583.392 12.113 0 11.235 0zm0 1.836c.08 0 .259.138.616.538l.381.443c.584.682.954 1.017 1.503 1.198.501.165.913.154 1.647.001l.857-.192c.522-.11.737-.118.786-.082.058.043.12.259.177.803l.078.84c.082.787.192 1.177.505 1.612.31.43.647.658 1.35.973l.785.34c.488.22.67.347.694.42.021.067-.072.31-.418.9l-.187.316c-.465.786-.672 1.272-.672 1.872 0 .54.167.987.54 1.645l.4.683c.28.49.356.698.337.76-.024.073-.207.2-.694.42l-.785.34c-.704.316-1.04.543-1.35.973-.313.435-.423.825-.506 1.616l-.077.839c-.058.542-.12.758-.177.8-.055.04-.309.027-.952-.117l-.21-.049c-1.054-.248-1.527-.304-2.129-.106-.493.162-.843.45-1.333 1.003l-.314.365c-.518.611-.757.81-.852.81-.079 0-.258-.138-.616-.538l-.382-.444c-.582-.681-.953-1.016-1.501-1.196-.552-.182-.995-.15-1.877.048l-.276.064c-.781.184-1.078.204-1.138.16-.057-.042-.119-.258-.177-.8l-.077-.842c-.082-.787-.193-1.178-.506-1.613-.31-.43-.646-.657-1.35-.973l-.454-.196c-.739-.311-.996-.476-1.025-.565-.02-.06.058-.27.337-.759l.268-.456c.466-.786.673-1.272.673-1.872 0-.54-.168-.987-.54-1.645l-.401-.683c-.28-.49-.356-.698-.337-.76.027-.08.245-.225.85-.489l.208-.088c1.002-.423 1.405-.648 1.771-1.156.313-.435.423-.825.506-1.612l.077-.842c.058-.542.12-.759.177-.801.05-.037.264-.029.786.081l.858.193c.733.152 1.145.164 1.647-.001.493-.163.843-.45 1.333-1.003l.314-.366c.518-.61.757-.81.852-.81z" transform="translate(2 1)"/>
            <path fill="#272F38" d="M14.704 12.383c1.27 0 2.3 1.03 2.3 2.299 0 1.27-1.03 2.3-2.3 2.3-1.27 0-2.3-1.03-2.3-2.3 0-1.27 1.03-2.3 2.3-2.3zm-.04-5.463l.944.806-7.84 9.182-.944-.806 7.84-9.182zm.04 6.704c-.584 0-1.058.474-1.058 1.058 0 .585.474 1.058 1.058 1.058.585 0 1.059-.473 1.059-1.058 0-.584-.474-1.058-1.059-1.058zM7.83 6.654c1.27 0 2.3 1.03 2.3 2.3 0 1.27-1.03 2.3-2.3 2.3-1.27 0-2.3-1.03-2.3-2.3 0-1.27 1.03-2.3 2.3-2.3zm0 1.242c-.585 0-1.059.474-1.059 1.058 0 .585.474 1.059 1.059 1.059.584 0 1.058-.474 1.058-1.059 0-.584-.474-1.058-1.058-1.058z" transform="translate(2 1)"/>
        </g>
    </g>
</svg>
