<svg xmlns="http://www.w3.org/2000/svg" width="34" height="33" viewBox="0 0 34 33">
    <g fill="none" fill-rule="evenodd">
        <path fill="#FACF00" stroke="#272F38" stroke-linejoin="round" stroke-width="2" d="M23.23 27.333c4.318-2.366 8.233-7.815 8.233-13.085 0-7.694-6.238-13.93-13.931-13.93-3.734 0-8.523 2.358-11.024 4.75" transform="translate(1 1)"/>
        <path fill="#FACF00" stroke="#272F38" stroke-linejoin="round" stroke-width="2" d="M28.179 16.63c0 7.691-6.238 13.93-13.931 13.93-7.693 0-13.93-6.239-13.93-13.93 0-7.695 6.237-13.932 13.93-13.932s13.93 6.237 13.93 13.931z" transform="translate(1 1)"/>
        <g fill="#272F38">
            <path d="M.287 7.774c.032-.52.914-.855 1.644-1.043 1-.257 2.323-.4 3.724-.4l.076.001c2.672 0 5.437.54 5.437 1.445l-.032.108-.972-.279v-.065c0-.404-1.82-.854-4.433-.854-2.614 0-4.435.45-4.435.854v.065l-.966.268-.043-.1z" transform="translate(1 1) translate(8.254 9.841)"/>
            <path d="M5.727 0.085L0.285 13.304 1.118 13.304 5.727 2.886 10.336 13.304 11.168 13.304z" transform="translate(1 1) translate(8.254 9.841)"/>
            <path d="M5.73 9.225c-2.575 0-4.755-.447-5.302-1.089C.33 8.021.28 7.9.287 7.774l.028-.06.981-.278v.107c0 .404 1.822.855 4.434.855 2.613 0 4.434-.45 4.434-.854v-.108l.986.263.018.08c0 .522-.886.857-1.629 1.045-1.017.259-2.37.401-3.809.401z" transform="translate(1 1) translate(8.254 9.841)"/>
        </g>
    </g>
</svg>
