<?xml version="1.0" encoding="UTF-8"?>
<svg width="22px" height="22px" viewBox="0 0 22 22" version="1.1" xmlns="http://www.w3.org/2000/svg" xmlns:xlink="http://www.w3.org/1999/xlink">
    <!-- Generator: sketchtool 61.2 (101010) - https://sketch.com -->
    <title>995A3B09-D150-4CE1-941C-4455076F873B</title>
    <desc>Created with sketchtool.</desc>
    <g id="PDP+Cart" stroke="none" stroke-width="1" fill="none" fill-rule="evenodd">
        <g id="PDP---Default" transform="translate(-923.000000, -373.000000)" fill="#272F38">
            <g id="Group-28">
                <g id="Iconography/EarnMiles" transform="translate(923.000000, 373.000000)">
                    <g id="icon/earn" transform="translate(0.116443, 0.087942)">
                        <path d="M15.702813,19.1122302 L15.102047,17.9807038 C17.7769798,16.4673863 19.9227673,13.0877828 19.9227673,10.1045827 C19.9227673,5.49692027 16.3044527,1.76203279 11.8409221,1.76203279 C9.82097537,1.76203279 6.96236013,3.08875046 5.38305526,4.64812021 L4.51902695,3.71567911 C6.3192153,1.93821403 9.47902109,0.471710208 11.8409221,0.471710208 C16.9947976,0.471710208 21.1727673,4.78428342 21.1727673,10.1045827 C21.1727673,13.5831713 18.7606049,17.3823137 15.702813,19.1122302 Z" id="Stroke-397" fill-rule="nonzero"></path>
                        <path d="M17.8701637,11.640681 C17.8701637,7.03301858 14.2518491,3.2981311 9.78831847,3.2981311 C5.32521271,3.2981311 1.70696926,7.03309207 1.70696926,11.640681 C1.70696926,16.2472814 5.32574313,19.9832309 9.78831847,19.9832309 C14.2513186,19.9832309 17.8701637,16.2473549 17.8701637,11.640681 Z M19.1201637,11.640681 C19.1201637,16.9599577 14.9416966,21.2735535 9.78831847,21.2735535 C4.63535415,21.2735535 0.456969264,16.9598728 0.456969264,11.640681 C0.456969264,6.32046659 4.63485677,2.00780852 9.78831847,2.00780852 C14.942194,2.00780852 19.1201637,6.32038173 19.1201637,11.640681 Z" id="Stroke-409" fill-rule="nonzero"></path>
                        <g id="z-currency.mono.grey" transform="translate(6.042287, 7.261265)">
                            <path d="M0.179136905,5.0152509 C0.199126984,4.67976703 0.75046627,4.46409882 1.20669147,4.34261905 C1.8321875,4.17654122 2.65887401,4.08501536 3.53424603,4.08501536 L3.58164187,4.08534818 C5.25210317,4.08534818 6.97995536,4.43381208 6.98027778,5.01758065 L6.9602877,5.08680748 L6.3525248,4.90708397 L6.3525248,4.86514849 C6.3525248,4.60454941 5.21470238,4.31399642 3.58164187,4.31399642 C1.94825893,4.31399642 0.810114087,4.60454941 0.810114087,4.86514849 L0.810114087,4.90708397 L0.206220238,5.07981823 L0.179136905,5.0152509 Z" id="Fill-21"></path>
                            <polygon id="Fill-22" points="3.57922371 0.0546159754 0.178330853 8.58349462 0.698717758 8.58349462 3.57922371 1.86216846 6.45972966 8.58349462 6.98011657 8.58349462"></polygon>
                            <path d="M3.5815129,5.95181004 C1.97166667,5.95181004 0.609117063,5.66292115 0.267673611,5.24922427 C0.20641369,5.1746723 0.174494048,5.09612647 0.179330357,5.01558372 L0.197063492,4.97730927 L0.809985119,4.79758577 L0.809985119,4.86647977 C0.81030754,5.12741167 1.94845238,5.41796467 3.5815129,5.41796467 C5.21457341,5.41796467 6.35271825,5.12741167 6.35271825,4.8668126 L6.35271825,4.79758577 L6.96886409,4.96699181 L6.98014881,5.01924475 C6.98014881,5.35539427 6.42655258,5.57139529 5.96194444,5.69320789 C5.32613095,5.85995136 4.48074405,5.95181004 3.5815129,5.95181004 Z" id="Fill-23"></path>
                        </g>
                    </g>
                </g>
            </g>
        </g>
    </g>
</svg>