<svg xmlns="http://www.w3.org/2000/svg" xmlns:xlink="http://www.w3.org/1999/xlink" width="140" height="122" viewBox="0 0 140 122">
    <defs>
        <path id="a" d="M0 102.558h140V0H0z"/>
    </defs>
    <g fill="none" fill-rule="evenodd" transform="translate(0 10)">
        <path fill="#272F38" fill-rule="nonzero" d="M78.375 76.876a8.198 8.198 0 0 0-8.2-8.197 8.198 8.198 0 1 0 0 16.394 8.198 8.198 0 0 0 8.2-8.197zm2.772 0c0 6.058-4.912 10.97-10.971 10.97-6.06 0-10.971-4.912-10.971-10.97 0-6.058 4.911-10.97 10.97-10.97 6.06 0 10.972 4.912 10.972 10.97zM116.81 76.876a8.198 8.198 0 0 0-8.2-8.197 8.198 8.198 0 1 0 0 16.394 8.198 8.198 0 0 0 8.2-8.197zm2.772 0c0 6.058-4.912 10.97-10.971 10.97-6.06 0-10.971-4.911-10.971-10.97 0-6.059 4.91-10.97 10.97-10.97 6.06 0 10.972 4.912 10.972 10.97z"/>
        <path fill="#272F38" fill-rule="nonzero" d="M92.715 77.22v2.771H78.79V77.22zM121.365 57.534v2.772h-16.053c-.766 0-1.386-.621-1.386-1.386V42.87h2.772v14.664h14.667z"/>
        <mask id="b" fill="#fff">
            <use xlink:href="#a"/>
        </mask>
        <path fill="#FACF00" d="M42.97 57.806h52.406V24.95H42.97z" mask="url(#b)"/>
        <path fill="#272F38" fill-rule="nonzero" d="M42.97 59.192c-.765 0-1.386-.62-1.386-1.386V24.95c0-.766.62-1.386 1.386-1.386h52.406c.766 0 1.386.62 1.386 1.386v32.857c0 .765-.62 1.386-1.386 1.386H42.97zm51.02-2.772V26.335H44.356V56.42H93.99z" mask="url(#b)"/>
        <path fill="#272F38" d="M75.197 45.148c1.173-.3 2.57-.827 2.57-1.652v-.003c0-.942-1.904-1.637-4.414-1.998l-4.178-10.15L65 41.485c-.66.097-1.272.215-1.823.357-1.154.297-2.545.824-2.593 1.645v.002c-.014.199.067.39.223.57.399.47 1.346.871 2.651 1.17l-2.88 6.993h1.32l2.977-6.733c1.27.187 2.74.292 4.304.292 1.534 0 3.006-.103 4.295-.296l2.98 6.737h1.314l-2.88-7.002c.104-.023.207-.046.309-.072zm.986-2.03v.005c0 .307-.659.626-1.797.88l-.791-1.914c1.616.266 2.585.659 2.588 1.03zm-7.008-7.35l2.448 5.539a30.822 30.822 0 0 0-2.444-.096h-.119c-.799 0-1.584.03-2.33.087l2.445-5.53zm-7 7.355v-.004c0-.368.966-.76 2.576-1.027l-.79 1.91c-1.132-.253-1.786-.574-1.786-.88zm7.004 1.35c-1.424 0-2.698-.083-3.758-.22l1.046-2.371c.821-.072 1.732-.111 2.712-.111.98 0 1.884.039 2.698.107l1.051 2.376c-1.057.136-2.33.22-3.749.22z" mask="url(#b)"/>
        <path fill="#272F38" fill-rule="nonzero" d="M95.377 36.183V33.41h20.228c.466 0 .901.234 1.158.624l14 21.279c.148.226.227.49.227.761v22.53c0 .766-.62 1.386-1.386 1.386h-10.329V77.22h8.943V56.49l-13.36-20.307h-19.48zM59.797 77.22v2.771h-9.39c-.765 0-1.386-.62-1.386-1.386V58.324h2.772v18.895h8.004z" mask="url(#b)"/>
        <path fill="#28303A" fill-rule="nonzero" d="M21.138 67.563v-2.772h16.634v2.772zM10.742 77.265v-2.772h21.832v2.772zM13.861 57.862V55.09h16.634v2.772zM33.96 57.862V55.09h3.466v2.772zM40.891 67.563v-2.772h3.465v2.772zM35.346 77.265v-2.772h3.466v2.772z" mask="url(#b)"/>
    </g>
</svg>
