<svg xmlns="http://www.w3.org/2000/svg"><defs> <linearGradient id="icon-header-beauty-a" x1="50%" x2="50%" y1="0%" y2="100%"> <stop offset="0%" stop-color="#EEEFEF"/> <stop offset="100%" stop-color="#CED0D1"/> </linearGradient> <linearGradient id="icon-header-beauty-b" x1="50%" x2="50%" y1="0%" y2="100%"> <stop offset="0%" stop-color="#EEEFEF"/> <stop offset="100%" stop-color="#CED0D1"/> </linearGradient> <path id="icon-header-beauty-c" d="M.503.017h12.484V30H.503z"/> <linearGradient id="icon-header-beauty-e" x1="50%" x2="50%" y1="0%" y2="100%"> <stop offset="0%" stop-color="#EEEFEF"/> <stop offset="100%" stop-color="#CED0D1"/> </linearGradient>  <path d="M7.639 22.641a1.024 1.024 0 1 0-1.023-1.023c0 .564.459 1.023 1.023 1.023zm0-3.404a2.384 2.384 0 0 1 2.38 2.381A2.384 2.384 0 0 1 7.64 24a2.384 2.384 0 0 1-2.381-2.382 2.384 2.384 0 0 1 2.38-2.381zm9.203 3.404a1.024 1.024 0 1 0-1.023-1.023c0 .564.459 1.023 1.023 1.023zm0-3.404a2.384 2.384 0 0 1 2.38 2.381A2.384 2.384 0 0 1 16.842 24a2.384 2.384 0 0 1-2.382-2.382 2.384 2.384 0 0 1 2.382-2.381zm1.989-6.674l1.595-6.362H5.112l1.749 7.381 11.97-1.019zm3.083-7.523a.72.72 0 0 1 .13.617l-1.943 7.755a.719.719 0 0 1-.637.541L6.691 15.041l-.303 1.826h12.69v1.438H5.54a.721.721 0 0 1-.709-.836l.533-3.215a.702.702 0 0 1 .114-.273L2.73 2.386 0 1.345.513 0l3.086 1.178a.72.72 0 0 1 .444.507l.729 3.078h16.576a.72.72 0 0 1 .566.277z"/>  <linearGradient id="icon-header-electronics-a" x1="50%" x2="50%" y1="0%" y2="100%"> <stop offset="0%" stop-color="#EEEFEF"/> <stop offset="100%" stop-color="#CED0D1"/> </linearGradient>  <linearGradient id="icon-header-events-a" x1="50%" x2="50%" y1="0%" y2="100%"> <stop offset="0%" stop-color="#EEEFEF"/> <stop offset="100%" stop-color="#CED0D1"/> </linearGradient>  <linearGradient id="icon-header-fashion-a" x1="50%" x2="50%" y1="0%" y2="100%"> <stop offset="0%" stop-color="#EEEFEF"/> <stop offset="100%" stop-color="#CED0D1"/> </linearGradient>  <linearGradient id="icon-header-giftCard-a" x1="50%" x2="50%" y1="0%" y2="100%"> <stop offset="0%" stop-color="#EEEFEF"/> <stop offset="100%" stop-color="#CED0D1"/> </linearGradient>  <linearGradient id="icon-header-home-a" x1="50%" x2="50%" y1="0%" y2="100%"> <stop offset="0%" stop-color="#EEEFEF"/> <stop offset="100%" stop-color="#CED0D1"/> </linearGradient> <path id="icon-header-home-b" d="M0 .061h11.074V8.59H0z"/>  <linearGradient id="icon-header-sports-a" x1="50%" x2="50%" y1="0%" y2="100%"> <stop offset="0%" stop-color="#EEEFEF"/> <stop offset="100%" stop-color="#CED0D1"/> </linearGradient>  <linearGradient id="icon-header-travel-a" x1="50%" x2="50%" y1="0%" y2="100%"> <stop offset="0%" stop-color="#EEEFEF"/> <stop offset="100%" stop-color="#CED0D1"/> </linearGradient>  <linearGradient id="icon-header-wine-a" x1="50%" x2="50%" y1="0%" y2="100%"> <stop offset="0%" stop-color="#EEEFEF"/> <stop offset="100%" stop-color="#CED0D1"/> </linearGradient> <linearGradient id="icon-header-wine-b" x1="50%" x2="50%" y1="0%" y2="100%"> <stop offset="0%" stop-color="#EEEFEF"/> <stop offset="100%" stop-color="#CED0D1"/> </linearGradient>  <path id="icon-heart-header-a" d="M0 2h23.761v21.41H0z"/> <path id="icon-heart-header-c" d="M22.198 7.847a5.825 5.825 0 0 0-.108-1.19c-.42-2.067-2.266-3.678-4.375-3.8-1.489-.087-2.771.387-3.831 1.446-.492.492-.986.98-1.473 1.479-.093.096-.14.086-.228-.005-.487-.495-.978-.989-1.474-1.476-1.186-1.166-2.607-1.633-4.25-1.389-2.19.328-3.907 2.19-4.048 4.393-.095 1.487.371 2.777 1.43 3.837 2.78 2.784 5.564 5.565 8.344 8.35.093.093.137.088.226-.002 2.783-2.79 5.572-5.574 8.357-8.36.946-.95 1.407-2.103 1.43-3.283M.421 7.722C.428 4.398 2.748 1.57 5.963.995c2.372-.425 4.438.237 6.164 1.93.17.169.17.17.339.002.623-.621 1.323-1.13 2.134-1.48 3.958-1.71 8.483.527 9.402 4.757.522 2.4-.087 4.54-1.817 6.291-3.213 3.254-6.462 6.472-9.695 9.706a.271.271 0 0 1-.38.005c-3.24-3.241-6.484-6.477-9.72-9.724C1.279 11.364.646 10.004.467 8.435.438 8.183.436 7.93.42 7.722"/>  <path id="icon-location-header-a" d="M9.568 23.622a.923.923 0 0 1-1.531-.03l-.295-.458a373.642 373.642 0 0 1-3.124-4.958l-.244-.394c-1.352-2.199-2.343-3.891-2.853-4.905C.868 11.58.394 9.902.422 8.487.516 3.714 4.462-.079 9.23.016h.073a8.644 8.644 0 0 1 8.47 8.814c-.027 1.415-.567 3.074-1.271 4.343-.549.991-1.604 2.64-3.038 4.778l-.252.373a339.133 339.133 0 0 1-3.644 5.298zm-.379-2.686c.85-1.226 1.7-2.466 2.492-3.643l.25-.37c1.405-2.096 2.44-3.714 2.956-4.645.57-1.028 1.02-2.409 1.041-3.484a6.797 6.797 0 0 0-6.656-6.931l-.073-.001a6.797 6.797 0 0 0-6.931 6.662c-.021 1.075.373 2.473.902 3.523.479.952 1.452 2.614 2.777 4.768l.241.391a337.72 337.72 0 0 0 2.657 4.226l.344-.496zM11 8.538a1.968 1.968 0 1 0-3.936 0 1.968 1.968 0 0 0 3.936 0zm1.846 0a3.815 3.815 0 1 1-7.63 0 3.815 3.815 0 0 1 7.63 0z"/>  <path d="M0 10h24v2H0v-2zm0 10h24v2H0v-2zM0 0h24v2H0V0z"/>  <path id="icon-search-header-a" d="M17.67 16.99l5.172 5.172-1.414 1.415-5.172-5.172c-3.91 3.2-9.688 2.977-13.337-.672-3.887-3.888-3.887-10.191 0-14.08 3.888-3.887 10.191-3.887 14.08 0 3.648 3.65 3.872 9.427.671 13.338zM15.584 5.069a7.955 7.955 0 1 0-11.25 11.25 7.955 7.955 0 0 0 11.25-11.25z"/> </defs><symbol viewBox="0 0 24 25" id="icon-cart-header"> <g fill-rule="evenodd" transform="translate(1 .3)"> <path stroke="#272F38" stroke-width=".5" d="M7.639 22.17c.563 0 1.022-.45 1.022-1.002s-.459-1.001-1.022-1.001c-.564 0-1.023.449-1.023 1 0 .553.459 1.002 1.023 1.002zm0-3.334c1.312 0 2.38 1.046 2.38 2.332 0 1.286-1.068 2.332-2.38 2.332-1.313 0-2.381-1.046-2.381-2.332 0-1.286 1.068-2.332 2.38-2.332zm9.203 3.333c.563 0 1.022-.449 1.022-1.001 0-.552-.459-1.001-1.022-1.001-.564 0-1.023.449-1.023 1 0 .553.459 1.002 1.023 1.002zm0-3.333c1.312 0 2.38 1.046 2.38 2.332 0 1.286-1.068 2.332-2.38 2.332-1.313 0-2.382-1.046-2.382-2.332 0-1.286 1.069-2.332 2.382-2.332zm1.989-6.534l1.595-6.23H5.112L6.861 13.3l11.97-.998zm3.083-7.367a.693.693 0 0 1 .13.604l-1.943 7.593a.715.715 0 0 1-.637.53L6.691 14.727l-.303 1.789h12.69v1.408H5.54a.727.727 0 0 1-.548-.249.692.692 0 0 1-.16-.57l.532-3.148a.68.68 0 0 1 .114-.267L2.73 2.337 0 1.317.513 0l3.086 1.154a.71.71 0 0 1 .444.495l.729 3.015h16.576c.22 0 .43.1.566.271z"/> </g> </symbol><symbol viewBox="0 0 17 20" id="icon-header-asiaMiles"> <g fill="none" fill-rule="evenodd"> <path fill="#F9D420" d="M.075 11.677c.05-.782 1.403-1.285 2.522-1.568 1.536-.387 3.565-.6 5.714-.6h.117c4.1 0 8.342.813 8.342 2.174l-.049.16-1.492-.418v-.098c0-.608-2.793-1.285-6.802-1.285-4.009 0-6.803.677-6.803 1.285v.098l-1.483.403-.066-.151"/> <path fill="#2F373C" d="M8.421.112L.073 19.996H1.35l7.07-15.67 7.071 15.67h1.278L8.421.112"/> <path fill="#F9D420" d="M8.427 13.86c-3.952 0-7.297-.673-8.134-1.638-.15-.173-.23-.357-.218-.544l.044-.09 1.505-.418v.16c0 .609 2.794 1.286 6.803 1.286s6.802-.677 6.802-1.285v-.161l1.513.394.028.122c0 .784-1.359 1.287-2.5 1.572-1.56.388-3.636.602-5.843.602"/> </g> </symbol><symbol viewBox="0 0 30 30" id="icon-header-beauty">  <g fill="none" fill-rule="evenodd"> <path fill="url(#icon-header-beauty-a)" d="M8 29.386c0 .329-.28.597-.625.597h-5.75A.612.612 0 0 1 1 29.386V20.91h7v8.476z" transform="translate(0 -1)"/> <path fill="url(#icon-header-beauty-b)" d="M25.37 13.983h.747v16H21v-16h.927" transform="translate(0 -1)"/> <path fill="#FACF00" d="M22.092 13.552h3.305"/> <g transform="translate(17 -.017)"> <mask id="icon-header-beauty-d" fill="#fff"> <path id="icon-header-beauty-c" d="M.503.017h12.484V30H.503z"/> </mask> <path fill="#272F38" d="M11.294 8.442l-1.95 3.955h-.257l.473-2.832a.586.586 0 0 0-1.156-.192l-.505 3.024h-.656V9.469a.586.586 0 0 0-1.171 0v2.928h-.486L5.08 9.373a.586.586 0 1 0-1.155.193l.472 2.83H3.98L2.137 8.403a5.034 5.034 0 0 1 1.07-5.724l.078-.076a5.012 5.012 0 0 1 6.993 0 5.014 5.014 0 0 1 1.016 5.84zm-7.096 8.85V13.57h4.919v3.724h-4.92zm4.919 10.092c0 .796-.648 1.445-1.445 1.445h-2.03a1.447 1.447 0 0 1-1.444-1.445v-8.921h2.577v3.775a.587.587 0 0 0 1.172 0v-3.775h1.17v8.92zM11.093 1.76A6.174 6.174 0 0 0 6.78.017 6.17 6.17 0 0 0 2.47 1.76l-.078.076a6.207 6.207 0 0 0-1.32 7.056l1.953 4.234v14.258A2.62 2.62 0 0 0 5.643 30h2.029a2.619 2.619 0 0 0 2.616-2.616V13.13l2.057-4.171a6.185 6.185 0 0 0-1.252-7.2z" mask="url(#icon-header-beauty-d)"/> </g> <path fill="#272F38" d="M7.73 28.227a.587.587 0 0 1-.586.585H6.09v-4.45a.586.586 0 0 0-1.172 0v4.45H1.756a.587.587 0 0 1-.586-.585V19.91h6.56v8.316zM2.225 16.163h4.45v2.577h-4.45v-2.577zm.702-5.696c0-.3.2-.451.285-.502a.578.578 0 0 1 .578-.013l1.874 1.004c.19.102.31.299.31.516v3.52H2.926v-4.525zm4.92 8.279v-2.583c0-.48-.29-.891-.703-1.073v-3.618c0-.65-.355-1.242-.927-1.55L4.343 8.92a1.742 1.742 0 0 0-1.732.04 1.744 1.744 0 0 0-.855 1.508v4.623a1.172 1.172 0 0 0-.702 1.073v2.583A1.17 1.17 0 0 0 0 19.91v8.315c0 .969.788 1.757 1.756 1.757h5.388c.97 0 1.757-.788 1.757-1.757V19.91c0-.607-.463-1.107-1.054-1.165z"/> <path fill="#272F38" d="M5.919 21.722a.595.595 0 0 0-.414-.172.59.59 0 0 0-.586.586.59.59 0 0 0 .586.586.59.59 0 0 0 .586-.586.595.595 0 0 0-.172-.414"/> <path fill="url(#icon-header-beauty-e)" d="M16.632 22.533c0 2.557-.673 5.066-1.946 7.278H13.19a14.581 14.581 0 0 1-1.946-7.278V16.577h5.387v5.956z" transform="translate(0 -1)"/> <path fill="#272F38" d="M16.632 21.533c0 2.557-.673 5.066-1.946 7.278H13.19a14.581 14.581 0 0 1-1.946-7.278v-3.38h3.529a.586.586 0 1 0 0-1.17h-3.53v-1.406h5.388v5.956zm.585-7.127h-2.693V8.667h.996a.587.587 0 0 0 0-1.172h-.996v-.702h.996a.586.586 0 0 0 0-1.171h-.996V4.92h.996a.586.586 0 0 0 0-1.171h-.996v-.703h.996a.586.586 0 0 0 0-1.17h-.996V1.17h.996a.586.586 0 0 0 0-1.17h-3.164a.584.584 0 1 0 0 1.17h.996v.703h-.996a.584.584 0 1 0 0 1.171h.996v.703h-.996a.584.584 0 1 0 0 1.171h.996v.703h-.996a.584.584 0 1 0 0 1.171h.996v.702h-.996a.585.585 0 0 0 0 1.172h.996v5.74h-2.694a.586.586 0 0 0-.586.584v6.542c0 2.88.789 5.704 2.283 8.168a.585.585 0 0 0 .5.281h2.165a.586.586 0 0 0 .5-.28 15.76 15.76 0 0 0 2.283-8.169v-6.542a.586.586 0 0 0-.586-.585zM24.775 23.857a.59.59 0 0 0-.414-.172.59.59 0 0 0-.586.586.59.59 0 0 0 1 .414.588.588 0 0 0 0-.828"/> </g> </symbol><symbol viewBox="0 0 23 24" id="icon-header-cart">  <g fill-rule="evenodd"> <mask fill="#fff"> <path d="M7.639 22.641a1.024 1.024 0 1 0-1.023-1.023c0 .564.459 1.023 1.023 1.023zm0-3.404a2.384 2.384 0 0 1 2.38 2.381A2.384 2.384 0 0 1 7.64 24a2.384 2.384 0 0 1-2.381-2.382 2.384 2.384 0 0 1 2.38-2.381zm9.203 3.404a1.024 1.024 0 1 0-1.023-1.023c0 .564.459 1.023 1.023 1.023zm0-3.404a2.384 2.384 0 0 1 2.38 2.381A2.384 2.384 0 0 1 16.842 24a2.384 2.384 0 0 1-2.382-2.382 2.384 2.384 0 0 1 2.382-2.381zm1.989-6.674l1.595-6.362H5.112l1.749 7.381 11.97-1.019zm3.083-7.523a.72.72 0 0 1 .13.617l-1.943 7.755a.719.719 0 0 1-.637.541L6.691 15.041l-.303 1.826h12.69v1.438H5.54a.721.721 0 0 1-.709-.836l.533-3.215a.702.702 0 0 1 .114-.273L2.73 2.386 0 1.345.513 0l3.086 1.178a.72.72 0 0 1 .444.507l.729 3.078h16.576a.72.72 0 0 1 .566.277z"/> </mask> <path d="M7.639 22.641a1.024 1.024 0 1 0-1.023-1.023c0 .564.459 1.023 1.023 1.023zm0-3.404a2.384 2.384 0 0 1 2.38 2.381A2.384 2.384 0 0 1 7.64 24a2.384 2.384 0 0 1-2.381-2.382 2.384 2.384 0 0 1 2.38-2.381zm9.203 3.404a1.024 1.024 0 1 0-1.023-1.023c0 .564.459 1.023 1.023 1.023zm0-3.404a2.384 2.384 0 0 1 2.38 2.381A2.384 2.384 0 0 1 16.842 24a2.384 2.384 0 0 1-2.382-2.382 2.384 2.384 0 0 1 2.382-2.381zm1.989-6.674l1.595-6.362H5.112l1.749 7.381 11.97-1.019zm3.083-7.523a.72.72 0 0 1 .13.617l-1.943 7.755a.719.719 0 0 1-.637.541L6.691 15.041l-.303 1.826h12.69v1.438H5.54a.721.721 0 0 1-.709-.836l.533-3.215a.702.702 0 0 1 .114-.273L2.73 2.386 0 1.345.513 0l3.086 1.178a.72.72 0 0 1 .444.507l.729 3.078h16.576a.72.72 0 0 1 .566.277z"/> </g> </symbol><symbol viewBox="0 0 30 30" id="icon-header-electronics">  <g fill="none" fill-rule="evenodd"> <path fill="url(#icon-header-electronics-a)" d="M27.64 18H.36a.37.37 0 0 1-.36-.377v-4.245A.37.37 0 0 1 .36 13h27.28a.37.37 0 0 1 .36.378v4.245a.37.37 0 0 1-.36.377" transform="translate(1 4)"/> <path stroke="#272F38" stroke-width="1.5" d="M28.3 22H1.699A.698.698 0 0 1 1 21.302V4.7C1 4.313 1.312 4 1.698 4h26.603a.7.7 0 0 1 .699.699v16.603a.699.699 0 0 1-.7.698zM1 16.5h26.5M7 27.5h15M17 22l1 6M12 22l-1 6"/> <path stroke="#272F38" stroke-width="1.213" d="M15 19.5a.5.5 0 1 1-1 0 .5.5 0 0 1 1 0z"/> </g> </symbol><symbol viewBox="0 0 30 30" id="icon-header-events">  <g fill="none" fill-rule="evenodd"> <path fill="url(#icon-header-events-a)" d="M2.89 20.04l-1.972-.528L5.75 1.483A.989.989 0 0 1 6.96.784l9.99 2.677c.527.141.84.683.7 1.211l-.702 2.617-1.052-.328-.86-.184L4.29 20.451l-1.4-.41z" transform="translate(3)"/> <path stroke="#272F38" stroke-width="1.5" d="M5.89 20.04l-1.972-.528L8.75 1.483A.989.989 0 0 1 9.96.784l9.99 2.677c.527.141.84.683.7 1.211l-.702 2.617"/> <path fill="#272F38" d="M11.524 5.44l-1.73-.465.378-1.416 1.732.465zM14.726 6.297l-1.73-.464.378-1.416 1.732.464z"/> <path stroke="#272F38" stroke-width="1.5" d="M26.949 12.575l-8.472-5.932a.989.989 0 0 0-1.377.244L6.395 22.177l3.007 2.104c.005-.006.007-.013.01-.019a2.492 2.492 0 0 1 4.082 2.857c-.005.007-.011.011-.015.018l3.007 2.105 10.706-15.289a.99.99 0 0 0-.243-1.378z"/> <path fill="#272F38" d="M18.355 11.553l-1.469-1.028.842-1.2 1.468 1.029zM21.07 13.454l-1.468-1.028.84-1.2 1.469 1.028zM23.906 15.44l-1.468-1.028.84-1.2 1.469 1.029z"/> </g> </symbol><symbol viewBox="0 0 30 30" id="icon-header-fashion">  <g fill="none" fill-rule="evenodd"> <path fill="url(#icon-header-fashion-a)" d="M24.466 8.01l-20.755.02a2.307 2.307 0 0 0-2.304 2.307l.006 6.457a4.612 4.612 0 0 0 4.616 4.608l16.143-.015a4.612 4.612 0 0 0 4.608-4.616l-.005-6.457a2.306 2.306 0 0 0-2.309-2.304" transform="translate(1 1)"/> <path stroke="#272F38" stroke-width="1.5" d="M28.431 23.077l-.65-6.805v1.499a4.613 4.613 0 0 1-4.608 4.617l-16.143.014a4.612 4.612 0 0 1-4.617-4.607v-1.5l-.64 6.806a4.613 4.613 0 0 0 4.594 5.068l17.48-.017a4.61 4.61 0 0 0 4.584-5.075z"/> <path stroke="#272F38" stroke-width="1.5" d="M25.466 9.01l-20.755.02a2.307 2.307 0 0 0-2.304 2.307l.006 6.457a4.612 4.612 0 0 0 4.616 4.608l16.143-.015a4.612 4.612 0 0 0 4.608-4.616l-.005-6.457a2.306 2.306 0 0 0-2.309-2.304z"/> <path fill="#FFF" d="M12.652 14.209l2.446-2.447 2.446 2.447-2.446 2.446zM16.828 22.971a1.729 1.729 0 1 1-3.46 0v-2.883h3.46v2.883z"/> <path stroke="#272F38" stroke-width="1.5" d="M7.04 8.7l-.006-.031.645-1.518c1.415-3.331 4.257-5.401 7.42-5.401 3.162 0 6.004 2.07 7.419 5.4l.644 1.519-.006.03a.8.8 0 0 0-.225-.03M12.652 14.209l2.446-2.447 2.446 2.447-2.446 2.446zM16.828 22.971a1.729 1.729 0 1 1-3.46 0v-2.883h3.46v2.883z"/> </g> </symbol><symbol viewBox="0 0 30 30" id="icon-header-giftCard">  <g fill="none" fill-rule="evenodd"> <path fill="url(#icon-header-giftCard-a)" d="M3 18h22v-5H3z" transform="translate(1 3)"/> <g stroke="#272F38"> <path stroke-width="1.677" d="M4.13 20.82h21.8v-4.808H4.13z"/> <path stroke-width="1.5" d="M25.3 12.688H4.751a.713.713 0 0 0-.727.7V26.58c0 .386.325.7.727.7H25.3a.713.713 0 0 0 .726-.7V13.387a.713.713 0 0 0-.726-.699zM28.267 6.31s-.846 5.804-7.106 5.804M1.717 6.142s.871 5.972 7.311 5.972M15.57 12.228V9.481c0-3.563-2.9-6.45-6.477-6.45a2.754 2.754 0 0 0-2.759 2.747c0 3.562 2.9 6.45 6.477 6.45h2.758z"/> <path stroke-width="1.5" d="M15.57 12.228v-2.28c0-2.804 2.282-5.078 5.098-5.078h.118c1.2 0 2.172.969 2.172 2.164v.117c0 2.804-2.283 5.077-5.098 5.077h-2.29z"/> </g> </g> </symbol><symbol viewBox="0 0 24 24" id="icon-header-heart"> <path fill="none" fill-rule="evenodd" stroke="#272F38" stroke-width="1.5" d="M21.71 3.536c-2.373-2.372-6.255-2.372-8.628 0l-.976.975-.975-.975c-2.374-2.372-6.256-2.372-8.628 0C.13 5.907.13 9.79 2.503 12.162l9.594 9.595.01-.007.008.007 9.595-9.595c2.372-2.371 2.372-6.255 0-8.626z"/> </symbol><symbol viewBox="0 0 30 30" id="icon-header-home">  <g fill="none" fill-rule="evenodd"> <path fill="url(#icon-header-home-a)" d="M3.598 1L1 8h10L8.402 1z" transform="translate(0 2)"/> <g transform="translate(0 2)"> <mask id="icon-header-home-c" fill="#fff"> <path id="icon-header-home-b" d="M0 .061h11.074V8.59H0z"/> </mask> <path fill="#272F38" d="M3.573 1.237H7.5l2.16 6.176H1.414l2.16-6.176zm3.722 7.352h3.193a.59.59 0 0 0 .552-.783L8.47.454A.588.588 0 0 0 7.915.06H3.158a.59.59 0 0 0-.553.394L.033 7.806a.589.589 0 0 0 .552.783h6.71z" mask="url(#icon-header-home-c)"/> </g> <path fill="#272F38" d="M29 16.755a1.29 1.29 0 0 1-1.283 1.293.629.629 0 0 0-.627.632c0 .347.281.63.627.63h.03v1.274c0 2.435-1.964 4.863-4.381 4.863h-8.732c-2.416 0-4.382-2.428-4.382-4.863V19.31l.031.001a.628.628 0 0 0 .627-.63c0-.35-.28-.632-.627-.632A1.29 1.29 0 0 1 9 16.755v-.057c0-.764.619-1.388 1.377-1.388.76 0 1.378.624 1.378 1.388v3.635c0 1.738 1.404 3.154 3.13 3.154h1.144a.629.629 0 0 0 .625-.63c0-.35-.28-.632-.625-.632h-1.144a1.888 1.888 0 0 1-1.879-1.892v-3.635a2.66 2.66 0 0 0-.39-1.39v-.305c0-2.208 1.78-4.003 3.97-4.003h4.828c2.19 0 3.971 1.795 3.971 4.003v.306c-.248.404-.391.88-.391 1.389v3.635a1.888 1.888 0 0 1-1.878 1.892h-2.003a.628.628 0 0 0-.626.631c0 .348.28.63.626.63h2.003c1.725 0 3.13-1.415 3.13-3.153v-3.635c0-.764.618-1.388 1.377-1.388.76 0 1.377.624 1.377 1.388v.057zM24.725 28h-1.97l-1.078-1.5c1.468.008 2.25.008 2.346 0l.702 1.5zm-9.447 0h-1.855l.677-1.49c.143.012.754 0 .9 0h1.117l-.84 1.49zm11.136-13.485c-.467-2.97-2.152-4.474-5.054-4.515h-4.72c-2.572 0-4.706 1.967-5.055 4.515a2.486 2.486 0 0 0-1.016-.217C9.153 14.298 8 15.485 8 16.941v.058c0 .934.493 1.752 1.223 2.196v1.622c0 2.502 1.586 4.629 3.778 5.376l-.773 1.938a.645.645 0 0 0 .057.59.61.61 0 0 0 .509.279h2.692c.197 0 .38-.097.495-.26l1.594-2.26h2.85l1.593 2.26c.115.163.299.26.496.26h2.692a.605.605 0 0 0 .508-.279.645.645 0 0 0 .058-.59l-.774-1.938c2.192-.747 3.778-2.874 3.778-5.376v-1.622A2.561 2.561 0 0 0 30 16.999v-.058c0-1.456-1.154-2.643-2.57-2.643-.24 0-.579.073-1.016.217zM4.951 27.823h1.172V10.59H4.951z"/> <path stroke="#272F38" stroke-width="1.5" d="M8.526 28.022H2.68"/> </g> </symbol><symbol viewBox="0 0 24 24" id="icon-header-language"> <g fill="none" fill-rule="evenodd"> <circle cx="12" cy="12" r="12" fill="#E9EAEB"/> <text fill="#272F38" font-family="OpenSans-SemiBold, Open Sans" font-size="12" font-weight="500" letter-spacing="0"> <tspan x="3" y="15">EN</tspan> </text> </g> </symbol><symbol viewBox="0 0 24 24" id="icon-header-location"> <path fill="#000" fill-opacity=".85" fill-rule="nonzero" d="M12.146 23.608a.923.923 0 0 1-1.53-.03l-.295-.458a373.655 373.655 0 0 1-3.124-4.958l-.244-.394C5.601 15.569 4.61 13.877 4.1 12.863 3.447 11.566 2.973 9.888 3 8.473 3.095 3.7 7.041-.093 11.81.002h.073a8.644 8.644 0 0 1 8.47 8.814c-.027 1.415-.567 3.074-1.271 4.343-.55.991-1.604 2.64-3.038 4.777l-.252.374a339.13 339.13 0 0 1-3.645 5.298zm-.378-2.686c.85-1.226 1.7-2.467 2.492-3.643l.25-.371c1.405-2.095 2.44-3.713 2.956-4.644.57-1.028 1.02-2.409 1.041-3.484a6.797 6.797 0 0 0-6.657-6.931l-.073-.001a6.797 6.797 0 0 0-6.93 6.662c-.021 1.075.373 2.473.902 3.523.478.952 1.452 2.614 2.777 4.767l.241.392a337.718 337.718 0 0 0 2.657 4.226l.344-.496zm1.81-12.398a1.968 1.968 0 1 0-3.935 0 1.968 1.968 0 0 0 3.936 0zm1.847 0a3.815 3.815 0 1 1-7.63 0 3.815 3.815 0 0 1 7.63 0z"/> </symbol><symbol viewBox="0 0 40 48" id="icon-header-num"> <g fill="none" fill-rule="evenodd"> <path fill="#FACF00" d="M0 27.592c.114-1.735 3.193-2.755 5.816-3.265C9.35 23.51 14.14 23 19.158 23h.342c9.465 0 19.5 1.735 19.5 4.592l-.114.408-3.535-.918v-.306c0-1.327-6.386-2.756-15.737-2.756-9.35 0-15.737 1.429-15.737 2.756v.306l-3.763.816L0 27.592z"/> <path fill="#333D47" d="M19.443 1L0 47h3.088l16.355-36.222L36.026 47H39z"/> <path fill="#FACF00" d="M19.457 33C10.146 33 2.33 31.526.49 29.316c-.345-.421-.575-.842-.46-1.263l.115-.106L3.708 27v.421c0 1.368 6.438 2.842 15.864 2.842 9.427 0 15.864-1.474 15.864-2.842V27l3.564.842v.316c0 1.79-3.219 2.842-5.863 3.368C29.46 32.684 24.63 33 19.457 33z"/> </g> </symbol><symbol viewBox="0 0 24 24" id="icon-header-profile"> <g fill="#272F38" fill-rule="nonzero"> <path d="M17.393 11.7c2.98 0 5.357 2.419 5.357 5.371v4.644c0 .859-.772 1.485-1.656 1.485H2.906c-.884 0-1.656-.626-1.656-1.485V17.07c0-2.985 2.808-5.371 6.203-5.371h9.94zm0 1.5h-9.94c-2.615 0-4.703 1.774-4.703 3.871v4.644c0-.047.04-.015.156-.015h18.188c.117 0 .156-.032.156.015V17.07a3.86 3.86 0 0 0-3.857-3.871zm-.306-7.672a5.277 5.277 0 1 1-10.555-.001 5.277 5.277 0 0 1 10.555 0zm-1.5 0a3.777 3.777 0 1 0-7.555 0 3.777 3.777 0 0 0 7.555 0z"/> <path d="M7.25 23.2h-1.5v-4.818h1.5V23.2zm11 0h-1.5v-4.818h1.5V23.2z"/> </g> </symbol><symbol viewBox="0 0 30 30" id="icon-header-sports">  <g fill="none" fill-rule="evenodd"> <path fill="url(#icon-header-sports-a)" d="M4.87.951h6.398l1.2 4.97H3.67zM3.674 24.235l1.199 4.97h6.4l1.198-4.97z" transform="translate(7)"/> <path fill="#272F38" d="M18.527 16.13a.348.348 0 0 1 0 .494l-3.248 3.249a.353.353 0 0 1-.495 0l-3.252-3.242a.352.352 0 0 1 .495-.501l3.003 3.003 3-3.003a.349.349 0 0 1 .495-.002c.001 0 .002 0 .002.002"/> <path stroke="#272F38" stroke-width=".5" d="M18.527 16.13a.348.348 0 0 1 0 .494l-3.248 3.249a.353.353 0 0 1-.495 0l-3.252-3.242a.352.352 0 0 1 .495-.501l3.003 3.003 3-3.003a.349.349 0 0 1 .495-.002c.001 0 .002 0 .002.002z"/> <path fill="#272F38" d="M10.085 13.49a3.04 3.04 0 0 1 4.945-2.634 3.043 3.043 0 0 1 4.949 2.614.35.35 0 0 1-.351.322h-.031a.35.35 0 0 1-.32-.38v-.002a2.336 2.336 0 0 0-3.984-1.836.35.35 0 0 1-.487 0 2.34 2.34 0 0 0-3.999 1.854.35.35 0 0 1-.316.382h-.055a.351.351 0 0 1-.351-.32"/> <path stroke="#272F38" stroke-width=".5" d="M10.085 13.49a3.04 3.04 0 0 1 4.945-2.634 3.043 3.043 0 0 1 4.949 2.614.35.35 0 0 1-.351.322h-.031a.35.35 0 0 1-.32-.38v-.002a2.336 2.336 0 0 0-3.984-1.836.35.35 0 0 1-.487 0 2.34 2.34 0 0 0-3.999 1.854.35.35 0 0 1-.316.382h-.055a.351.351 0 0 1-.351-.32z"/> <path fill="#272F38" d="M20.441 14.938a.35.35 0 0 1-.35.35h-3.02l-.773 1.252a.348.348 0 0 1-.294.165.35.35 0 0 1-.294-.162l-1.52-2.351-.534.939a.35.35 0 0 1-.305.179h-3.298a.35.35 0 0 1 0-.701h3.088l.701-1.262a.35.35 0 0 1 .294-.18.38.38 0 0 1 .305.163l1.535 2.372.585-.946a.352.352 0 0 1 .298-.165h3.218a.351.351 0 0 1 .364.336v.01z"/> <path stroke="#272F38" stroke-width=".5" d="M20.441 14.938a.35.35 0 0 1-.35.35h-3.02l-.773 1.252a.348.348 0 0 1-.294.165.35.35 0 0 1-.294-.162l-1.52-2.351-.534.939a.35.35 0 0 1-.305.179h-3.298a.35.35 0 0 1 0-.701h3.088l.701-1.262a.35.35 0 0 1 .294-.18.38.38 0 0 1 .305.163l1.535 2.372.585-.946a.352.352 0 0 1 .298-.165h3.218a.351.351 0 0 1 .364.336v.01z"/> <path fill="#272F38" d="M22.193 21.102a2.433 2.433 0 0 1-2.432 2.433H10.38a2.433 2.433 0 0 1-2.432-2.433V9.053a2.431 2.431 0 0 1 2.278-2.42.375.375 0 0 0 .067 0h9.662a2.431 2.431 0 0 1 2.24 2.42v12.05zM11.11 26.07l-.443-1.834.443 1.834zm-.443-1.834h8.803l-1.202 4.97H11.87l-.759-3.136-.443-1.834zM11.87.951h6.4l1.197 4.97H10.67l1.2-4.97zm-1.468 25.157l.851 3.528a.35.35 0 0 0 .35.266h6.943a.35.35 0 0 0 .35-.266L20.2 24.19a3.133 3.133 0 0 0 2.695-3.098V9.053A3.132 3.132 0 0 0 20.2 5.966L18.885.52a.351.351 0 0 0-.35-.269h-6.94a.35.35 0 0 0-.35.27L9.941 5.965a3.132 3.132 0 0 0-2.69 3.098v12.038a3.133 3.133 0 0 0 2.687 3.088l.463 1.918zm-.463-1.918l.463 1.918-.463-1.918z"/> <path stroke="#272F38" stroke-width=".5" d="M22.193 21.102a2.433 2.433 0 0 1-2.432 2.433H10.38a2.433 2.433 0 0 1-2.432-2.433V9.053a2.431 2.431 0 0 1 2.278-2.42.375.375 0 0 0 .067 0h9.662a2.431 2.431 0 0 1 2.24 2.42v12.05zM11.11 26.07l-.443-1.834.443 1.834zm-.443-1.834h8.803l-1.202 4.97H11.87l-.759-3.136-.443-1.834zM11.87.951h6.4l1.197 4.97H10.67l1.2-4.97zm-1.468 25.157l.851 3.528a.35.35 0 0 0 .35.266h6.943a.35.35 0 0 0 .35-.266L20.2 24.19a3.133 3.133 0 0 0 2.695-3.098V9.053A3.132 3.132 0 0 0 20.2 5.966L18.885.52a.351.351 0 0 0-.35-.269h-6.94a.35.35 0 0 0-.35.27L9.941 5.965a3.132 3.132 0 0 0-2.69 3.098v12.038a3.133 3.133 0 0 0 2.687 3.088l.463 1.918zm-.463-1.918l.463 1.918-.463-1.918z"/> </g> </symbol><symbol viewBox="0 0 30 30" id="icon-header-travel">  <g fill="none" fill-rule="evenodd"> <path fill="url(#icon-header-travel-a)" d="M15.441 27H3.559C1.601 27 0 25.35 0 23.333V8.667C0 6.65 1.601 5 3.559 5h11.882C17.399 5 19 6.65 19 8.667v14.666C19 25.35 17.399 27 15.441 27" transform="translate(6 1)"/> <path stroke="#272F38" stroke-width="1.5" d="M21.441 28H9.559C7.601 28 6 26.35 6 24.333V9.667C6 7.65 7.601 6 9.559 6h11.882C23.399 6 25 7.65 25 9.667v14.666C25 26.35 23.399 28 21.441 28z"/> <path stroke="#272F38" stroke-width="1.5" d="M21.441 28H9.559C7.601 28 6 26.35 6 24.333V9.667C6 7.65 7.601 6 9.559 6h11.882C23.399 6 25 7.65 25 9.667v14.666C25 26.35 23.399 28 21.441 28zM20 6V2.092C20 1.492 19.524 1 18.941 1H12.06C11.476 1 11 1.492 11 2.092v1.724M8.5 30v-2M21.5 30v-2M10 13.5h10M10 20.5h10"/> </g> </symbol><symbol viewBox="0 0 30 30" id="icon-header-wine">  <g fill="none" fill-rule="evenodd"> <path fill="url(#icon-header-wine-a)" d="M0 9c.5 3.385 3.414 6 7 6s6.5-2.615 7-6H0z" transform="translate(2 2)"/> <path stroke="#272F38" stroke-width="1.5" d="M19 18.5h6"/> <path fill="url(#icon-header-wine-b)" d="M15 17l4 4 4-4z" transform="translate(2 2)"/> <path stroke="#272F38" stroke-linejoin="round" stroke-width="1.5" d="M14 15h14l-7 9z"/> <path stroke="#272F38" stroke-width="1.5" d="M18 28.5h6M21 24v5M27.732 13a1.999 1.999 0 1 1-3.463-1.998A1.999 1.999 0 0 1 27.732 13zM28 8l-1 2M14.727 2H3.272c-.554 2.092-1.31 5.56-1.27 8.794C2.05 14.77 5.135 18 8.998 18c3.866 0 6.95-3.23 7-7.206.007-.697-.021-1.401-.076-2.101-.2-2.56-.761-5.05-1.196-6.693z"/> <path stroke="#272F38" stroke-width="1.284" d="M2 11h12m-4.938 6.626V29"/> <path stroke="#272F38" stroke-width="1.5" d="M3 28.5h11"/> </g> </symbol><symbol viewBox="0 0 24 24" id="icon-heart-header">  <g fill="none" fill-rule="evenodd"> <mask id="icon-heart-header-b" fill="#fff"> <path id="icon-heart-header-a" d="M0 2h23.761v21.41H0z"/> </mask> <g mask="url(#icon-heart-header-b)"> <g transform="translate(-.421 1.13)"> <mask id="icon-heart-header-d" fill="#fff"> <path id="icon-heart-header-c" d="M22.198 7.847a5.825 5.825 0 0 0-.108-1.19c-.42-2.067-2.266-3.678-4.375-3.8-1.489-.087-2.771.387-3.831 1.446-.492.492-.986.98-1.473 1.479-.093.096-.14.086-.228-.005-.487-.495-.978-.989-1.474-1.476-1.186-1.166-2.607-1.633-4.25-1.389-2.19.328-3.907 2.19-4.048 4.393-.095 1.487.371 2.777 1.43 3.837 2.78 2.784 5.564 5.565 8.344 8.35.093.093.137.088.226-.002 2.783-2.79 5.572-5.574 8.357-8.36.946-.95 1.407-2.103 1.43-3.283M.421 7.722C.428 4.398 2.748 1.57 5.963.995c2.372-.425 4.438.237 6.164 1.93.17.169.17.17.339.002.623-.621 1.323-1.13 2.134-1.48 3.958-1.71 8.483.527 9.402 4.757.522 2.4-.087 4.54-1.817 6.291-3.213 3.254-6.462 6.472-9.695 9.706a.271.271 0 0 1-.38.005c-3.24-3.241-6.484-6.477-9.72-9.724C1.279 11.364.646 10.004.467 8.435.438 8.183.436 7.93.42 7.722"/> </mask> <path fill="#273039" d="M22.198 7.847a5.825 5.825 0 0 0-.108-1.19c-.42-2.067-2.266-3.678-4.375-3.8-1.489-.087-2.771.387-3.831 1.446-.492.492-.986.98-1.473 1.479-.093.096-.14.086-.228-.005-.487-.495-.978-.989-1.474-1.476-1.186-1.166-2.607-1.633-4.25-1.389-2.19.328-3.907 2.19-4.048 4.393-.095 1.487.371 2.777 1.43 3.837 2.78 2.784 5.564 5.565 8.344 8.35.093.093.137.088.226-.002 2.783-2.79 5.572-5.574 8.357-8.36.946-.95 1.407-2.103 1.43-3.283M.421 7.722C.428 4.398 2.748 1.57 5.963.995c2.372-.425 4.438.237 6.164 1.93.17.169.17.17.339.002.623-.621 1.323-1.13 2.134-1.48 3.958-1.71 8.483.527 9.402 4.757.522 2.4-.087 4.54-1.817 6.291-3.213 3.254-6.462 6.472-9.695 9.706a.271.271 0 0 1-.38.005c-3.24-3.241-6.484-6.477-9.72-9.724C1.279 11.364.646 10.004.467 8.435.438 8.183.436 7.93.42 7.722"/> </g> </g> </g> </symbol><symbol viewBox="0 0 24 24" id="icon-location-header">  <g fill="none" fill-rule="evenodd" transform="translate(2.579 -.014)"> <mask id="icon-location-header-b" fill="#fff"> <path id="icon-location-header-a" d="M9.568 23.622a.923.923 0 0 1-1.531-.03l-.295-.458a373.642 373.642 0 0 1-3.124-4.958l-.244-.394c-1.352-2.199-2.343-3.891-2.853-4.905C.868 11.58.394 9.902.422 8.487.516 3.714 4.462-.079 9.23.016h.073a8.644 8.644 0 0 1 8.47 8.814c-.027 1.415-.567 3.074-1.271 4.343-.549.991-1.604 2.64-3.038 4.778l-.252.373a339.133 339.133 0 0 1-3.644 5.298zm-.379-2.686c.85-1.226 1.7-2.466 2.492-3.643l.25-.37c1.405-2.096 2.44-3.714 2.956-4.645.57-1.028 1.02-2.409 1.041-3.484a6.797 6.797 0 0 0-6.656-6.931l-.073-.001a6.797 6.797 0 0 0-6.931 6.662c-.021 1.075.373 2.473.902 3.523.479.952 1.452 2.614 2.777 4.768l.241.391a337.72 337.72 0 0 0 2.657 4.226l.344-.496zM11 8.538a1.968 1.968 0 1 0-3.936 0 1.968 1.968 0 0 0 3.936 0zm1.846 0a3.815 3.815 0 1 1-7.63 0 3.815 3.815 0 0 1 7.63 0z"/> </mask> <path fill="#000" fill-opacity=".85" fill-rule="nonzero" id="icon-location-header-a" d="M9.568 23.622a.923.923 0 0 1-1.531-.03l-.295-.458a373.642 373.642 0 0 1-3.124-4.958l-.244-.394c-1.352-2.199-2.343-3.891-2.853-4.905C.868 11.58.394 9.902.422 8.487.516 3.714 4.462-.079 9.23.016h.073a8.644 8.644 0 0 1 8.47 8.814c-.027 1.415-.567 3.074-1.271 4.343-.549.991-1.604 2.64-3.038 4.778l-.252.373a339.133 339.133 0 0 1-3.644 5.298zm-.379-2.686c.85-1.226 1.7-2.466 2.492-3.643l.25-.37c1.405-2.096 2.44-3.714 2.956-4.645.57-1.028 1.02-2.409 1.041-3.484a6.797 6.797 0 0 0-6.656-6.931l-.073-.001a6.797 6.797 0 0 0-6.931 6.662c-.021 1.075.373 2.473.902 3.523.479.952 1.452 2.614 2.777 4.768l.241.391a337.72 337.72 0 0 0 2.657 4.226l.344-.496zM11 8.538a1.968 1.968 0 1 0-3.936 0 1.968 1.968 0 0 0 3.936 0zm1.846 0a3.815 3.815 0 1 1-7.63 0 3.815 3.815 0 0 1 7.63 0z"/> </g> </symbol><symbol viewBox="0 0 24 24" id="icon-menu-header">  <g fill-rule="evenodd" transform="translate(0 1)"> <mask fill="#fff"> <path id="icon-menu-header-a" d="M0 10h24v2H0v-2zm0 10h24v2H0v-2zM0 0h24v2H0V0z"/> </mask> <path d="M0 10h24v2H0v-2zm0 10h24v2H0v-2zM0 0h24v2H0V0z"/> </g> </symbol><symbol viewBox="0 0 24 24" id="icon-mini-drop-down"> <path fill="none" fill-rule="evenodd" stroke="#000" stroke-opacity=".85" stroke-width="2" d="M8 10.129L11.607 14l3.726-4"/> </symbol><symbol viewBox="0 0 24 24" id="icon-search-header">  <g fill="none" fill-rule="evenodd" transform="translate(.996 .262)"> <mask id="icon-search-header-b" fill="#fff"> <path id="icon-search-header-a" d="M17.67 16.99l5.172 5.172-1.414 1.415-5.172-5.172c-3.91 3.2-9.688 2.977-13.337-.672-3.887-3.888-3.887-10.191 0-14.08 3.888-3.887 10.191-3.887 14.08 0 3.648 3.65 3.872 9.427.671 13.338zM15.584 5.069a7.955 7.955 0 1 0-11.25 11.25 7.955 7.955 0 0 0 11.25-11.25z"/> </mask> <path fill="#272F38" fill-rule="nonzero" d="M17.67 16.99l5.172 5.172-1.414 1.415-5.172-5.172c-3.91 3.2-9.688 2.977-13.337-.672-3.887-3.888-3.887-10.191 0-14.08 3.888-3.887 10.191-3.887 14.08 0 3.648 3.65 3.872 9.427.671 13.338zM15.584 5.069a7.955 7.955 0 1 0-11.25 11.25 7.955 7.955 0 0 0 11.25-11.25z"/> </g> </symbol><symbol viewBox="0 0 24 24" id="icon-user-header"> <g fill-rule="nonzero"> <path d="M14.57 4.892a2.972 2.972 0 1 0-5.943 0 2.972 2.972 0 0 0 5.944 0zm1.92 0a4.892 4.892 0 1 1-9.783 0 4.892 4.892 0 0 1 9.784 0zm3.787 11.852c0-2.309-1.398-4.118-2.963-4.118H6.78c-2.109 0-3.859 1.844-3.859 4.118v5.107h17.357v-5.107zm-2.963-6.038c2.75 0 4.883 2.761 4.883 6.038v6.067c0 .53-.43.96-.96.96H1.96a.96.96 0 0 1-.96-.96v-6.067c0-3.312 2.587-6.038 5.78-6.038h10.534z"/> <path d="M6.81 22.912H4.89v-4.708h1.92v4.708zm-1.92 0v-4.708h1.92v4.708H4.89zM18.465 22.912h-1.92v-4.708h1.92v4.708zm-1.92 0v-4.708h1.92v4.708h-1.92z"/> </g> </symbol></svg>