<svg xmlns="http://www.w3.org/2000/svg" width="28" height="22" viewBox="0 0 28 22">
    <g fill="none" fill-rule="evenodd">
        <path fill="#FACF00" stroke="#272F38" stroke-width="1.5" d="M19 .75c.621 0 1.184.252 1.591.659.407.407.659.97.659 1.591h0v5.464L26.323 11l-5.073 2.536V19c0 .621-.252 1.184-.659 1.591-.407.407-.97.659-1.591.659h0H3c-.621 0-1.184-.252-1.591-.659C1.002 20.184.75 19.621.75 19h0V3c0-.621.252-1.184.659-1.591C1.816 1.002 2.379.75 3 .75h0z"/>
        <path fill="#272F38" d="M11.72 12.158h-1.429l-.299-5.724h2.028l-.3 5.724zM9.97 14.162c0-.328.088-.576.263-.744.176-.168.432-.252.768-.252.324 0 .575.086.753.258.178.172.267.418.267.738 0 .309-.09.552-.27.73-.18.177-.43.266-.75.266-.328 0-.582-.087-.762-.26-.18-.174-.27-.42-.27-.736z"/>
    </g>
</svg>
