<svg xmlns="http://www.w3.org/2000/svg" width="30" height="30" style="background:#4a4a4a" viewBox="0 0 30 30">
    <g fill="none" fill-rule="evenodd">
        <path fill="#FFF" fill-rule="nonzero" d="M8.287 7.94v-.265c0-.787-.637-1.425-1.424-1.425H3.805c-.786 0-1.425.638-1.425 1.425v.266h-.706C.888 7.94.25 8.578.25 9.365v10.447c0 .787.638 1.425 1.424 1.425H10v-1.5H1.75V9.44h2.13V7.75h2.907v1.69h6.963v-1.5H8.287z"/>
        <path fill="#FFF" fill-rule="nonzero" d="M12.906 14.322a3.827 3.827 0 1 1-7.656 0 3.827 3.827 0 0 1 7.656 0zm-1.5 0a2.327 2.327 0 1 0-4.654 0 2.327 2.327 0 0 0 4.654 0zM18.903 3.323l.15.034 9.107 2.47c1.034.28 1.518 1.293 1.256 2.506l-.042.174-4.858 17.914a1.877 1.877 0 0 1-2.148 1.352l-.15-.034-9.108-2.47a1.879 1.879 0 0 1-1.352-2.148l.034-.15 4.962-18.297a1.876 1.876 0 0 1 2.149-1.35zm-.674 1.674l-.027.07-4.962 18.296a.379.379 0 0 0 .193.432l.07.027 9.107 2.47a.378.378 0 0 0 .432-.194l.026-.07 4.858-17.913c.137-.505.062-.743-.11-.822l-.048-.018-9.109-2.47a.377.377 0 0 0-.43.192z"/>
    </g>
</svg>
