<svg xmlns="http://www.w3.org/2000/svg" width="19" height="19" viewBox="0 0 19 19">
    <path fill="#FEFEFE" fill-rule="evenodd" d="M14.087 3.18a1.102 1.102 0 1 0 0 2.204 1.102 1.102 0 0 0 0-2.204m-4.903 9.066a3.061 3.061 0 1 1 0-6.122 3.061 3.061 0 0 1 0 6.122m0-7.777a4.716 4.716 0 1 0 0 9.432 4.716 4.716 0 0 0 0-9.432m7.477 8.427c-.041.895-.191 1.382-.317 1.706a2.833 2.833 0 0 1-.687 1.056c-.321.321-.627.52-1.055.687-.324.126-.811.275-1.706.316-.969.044-1.259.053-3.712.053-2.452 0-2.743-.009-3.711-.053-.895-.041-1.382-.19-1.706-.316a2.846 2.846 0 0 1-1.055-.687 2.833 2.833 0 0 1-.687-1.056c-.126-.324-.275-.811-.317-1.706-.044-.968-.054-1.259-.054-3.711s.01-2.743.054-3.712c.042-.895.191-1.381.317-1.705a2.84 2.84 0 0 1 .687-1.056c.321-.322.626-.52 1.055-.687.324-.126.811-.275 1.706-.316.968-.044 1.259-.054 3.711-.054s2.743.01 3.712.054c.895.041 1.382.19 1.706.316.428.167.734.365 1.055.687.322.322.521.628.687 1.056.126.324.276.81.317 1.705.044.969.053 1.26.053 3.712s-.009 2.743-.053 3.711m1.653-7.498c-.045-.977-.2-1.645-.427-2.229a4.508 4.508 0 0 0-1.059-1.627A4.533 4.533 0 0 0 15.201.483C14.616.256 13.949.1 12.971.055 11.991.011 11.678 0 9.184 0 6.691 0 6.378.011 5.398.055 4.42.1 3.753.256 3.168.483a4.513 4.513 0 0 0-1.626 1.059 4.498 4.498 0 0 0-1.06 1.627C.254 3.753.1 4.421.055 5.398.01 6.378 0 6.691 0 9.185c0 2.494.01 2.807.055 3.787.045.978.199 1.646.427 2.229a4.486 4.486 0 0 0 1.06 1.626 4.49 4.49 0 0 0 1.626 1.06c.585.228 1.252.383 2.23.427.98.045 1.293.055 3.786.055 2.494 0 2.807-.01 3.787-.055.978-.044 1.645-.199 2.23-.427a4.51 4.51 0 0 0 1.627-1.06 4.496 4.496 0 0 0 1.059-1.626c.227-.583.382-1.251.427-2.229.044-.98.056-1.293.056-3.787 0-2.494-.012-2.807-.056-3.787" opacity=".8"/>
</svg>
