<svg xmlns="http://www.w3.org/2000/svg" xmlns:xlink="http://www.w3.org/1999/xlink" width="140" height="122" viewBox="0 0 140 122">
    <defs>
        <path id="a" d="M35.246 38.523V24.779c0-1.2-.797-2.119-1.837-2.119s-1.837.918-1.837 2.119v2.401c0 .775-.612 1.48-1.286 1.48-.673 0-1.284-.634-1.284-1.48v-4.59c0-1.13-.857-2.117-1.837-2.117s-1.836.918-1.836 2.116v2.401c0 .777-.551 1.483-1.286 1.483-.674 0-1.285-.636-1.285-1.483v-4.588c0-1.13-.857-2.118-1.837-2.118s-1.836.917-1.836 2.118V22.8c0 .777-.613 1.484-1.286 1.484-.674 0-1.285-.636-1.285-1.484V5.083c0-.564-.184-1.06-.55-1.482a1.577 1.577 0 0 0-1.287-.636c-.98 0-1.836.918-1.836 2.117v25.839c0 .988-.551 1.835-1.286 2.187-.735.354-1.591.213-2.204-.494l-3.489-3.953c-.612-.777-1.653-.847-2.388-.282a2.14 2.14 0 0 0-.795 1.482c-.061.635.06 1.2.43 1.695l4.773 6.564c.043.063.08.13.113.197l.977 1.404-2.157 1.58-.85-1.142a1.505 1.505 0 0 1-.103-.132l-4.836-6.565A6.027 6.027 0 0 1 0 30.192v-.155c.003-.22.018-.444.046-.67.185-1.483.919-2.753 1.96-3.6 1.775-1.342 4.163-1.13 5.693.634l2.51 2.966V5.153C10.209 2.33 12.229 0 14.677 0c1.164 0 2.265.495 3.122 1.482a5.977 5.977 0 0 1 1.286 3.671v10.59c.55-.352 1.163-.495 1.836-.495 1.774 0 3.306 1.2 4.04 2.894.673-.423 1.408-.706 2.265-.706 1.776 0 3.305 1.2 4.04 2.896.674-.424 1.408-.707 2.266-.707 2.448 0 4.468 2.33 4.468 5.154l-.178 13.79v2.761h-2.576v-2.807z"/>
    </defs>
    <g fill="none" fill-rule="evenodd">
        <path fill="#333D47" d="M75 67h50v3H75zM15 67h31v3H15z"/>
        <path stroke="#272F38" stroke-linejoin="bevel" stroke-width="1.8" d="M36 80.264h8.567"/>
        <path stroke="#272F38" stroke-width="1.8" d="M39.767 83.65l-3.622-3.188a.17.17 0 0 1 0-.256L39.767 77"/>
        <path stroke="#272F38" stroke-linejoin="bevel" stroke-width="1.8" d="M45.991 80.264h1.903M49.06 80.264h1.297M85.583 80.264h-8.567"/>
        <path stroke="#272F38" stroke-width="1.8" d="M81.816 83.65l3.622-3.188a.17.17 0 0 0 0-.256L81.816 77"/>
        <path stroke="#272F38" stroke-linejoin="bevel" stroke-width="1.8" d="M75.592 80.264h-1.903M72.524 80.264h-1.298"/>
        <circle cx="60.238" cy="68.402" r="7.856" fill="#FACF00" fill-rule="nonzero" transform="rotate(-36.54 60.238 68.402)"/>
        <circle cx="60.403" cy="68.238" r="7.856" stroke="#272F38" stroke-width="3" transform="rotate(-36.54 60.403 68.238)"/>
        <g transform="translate(46 69)">
            <rect width="5" height="7" x="12" y="1.7" fill="#FFF" rx="1"/>
            <use fill="#272F38" xlink:href="#a"/>
        </g>
        <path fill="#FACF00" stroke="#272F38" stroke-width="3" d="M42 25.5a2.5 2.5 0 0 0-2.5 2.5v21a2.5 2.5 0 0 0 2.5 2.5h78a2.5 2.5 0 0 0 2.5-2.5V28a2.5 2.5 0 0 0-2.5-2.5H42z"/>
        <path fill="#FFF" stroke="#272F38" stroke-width="3" d="M92.987 25.5l-8.889 26H121a2.5 2.5 0 0 0 2.5-2.5V28a2.5 2.5 0 0 0-2.5-2.5H92.987z"/>
        <path fill="#FACF00" stroke="#272F38" stroke-linejoin="round" stroke-width="3" d="M54.786 51l5.376 5 4.624-5"/>
        <path fill="#FACF00" d="M60.024 54.476l-6.024-7h11.425z"/>
        <g fill="#272F38">
            <path d="M59 39.048c.034-.506.958-.804 1.745-.953 1.06-.238 2.497-.387 4.002-.387h.103c2.84 0 5.85.506 5.85 1.34l-.034.119-1.06-.268v-.09c0-.386-1.917-.803-4.722-.803-2.805 0-4.72.417-4.72.804v.089l-1.13.238-.034-.09z"/>
            <path d="M64.833 31.292L59 44.708h.926l4.907-10.564 4.975 10.564h.892z"/>
            <path d="M64.837 40.625c-2.793 0-5.138-.43-5.69-1.075-.104-.122-.173-.245-.138-.368l.034-.03 1.07-.277v.123c0 .399 1.93.829 4.759.829 2.828 0 4.759-.43 4.759-.83v-.122l1.069.246v.092c0 .522-.966.829-1.759.982-1.103.338-2.552.43-4.104.43z"/>
        </g>
        <path fill="#272F38" fill-rule="nonzero" d="M110 40.547c0 .701-.263 1.28-.789 1.736-.526.457-1.26.744-2.204.863v1.794h-.998v-1.725c-.578 0-1.137-.045-1.679-.135-.541-.09-.985-.215-1.33-.375v-1.207c.428.191.922.347 1.481.468.56.121 1.069.182 1.528.182v-3.403c-1.057-.335-1.799-.725-2.224-1.168-.425-.444-.638-1.016-.638-1.717 0-.676.262-1.23.785-1.663.523-.433 1.216-.696 2.077-.79V32h.998v1.392a7.85 7.85 0 0 1 2.745.573l-.402 1.013a7.855 7.855 0 0 0-2.343-.542v3.357c.81.258 1.415.51 1.817.755.403.244.699.525.89.843.19.317.286.702.286 1.156zm-1.315.1c0-.37-.115-.671-.344-.9-.23-.23-.674-.458-1.334-.685v3.009c1.119-.155 1.678-.63 1.678-1.423zm-4.23-4.803c0 .392.115.707.347.944.232.237.634.461 1.207.673v-2.994c-.51.083-.897.244-1.16.484a1.16 1.16 0 0 0-.395.893z"/>
    </g>
</svg>
