<?xml version="1.0" encoding="UTF-8"?>
<svg width="22px" height="16px" viewBox="0 0 22 16" version="1.1" xmlns="http://www.w3.org/2000/svg" xmlns:xlink="http://www.w3.org/1999/xlink">
    <title>MPO-logo</title>
    <g id="PDP+Cart" stroke="none" stroke-width="1" fill="none" fill-rule="evenodd">
        <g id="Offers_Day1" transform="translate(-211.000000, -938.000000)" fill="#272F38">
            <g id="logo/MPO-v1" transform="translate(210.000000, 934.000000)">
                <path d="M2.61405787,5.26171429 C2.40529875,5.26171429 2.23545035,5.4352 2.23545035,5.64906057 L2.23545035,17.8656091 C2.23545035,18.0788389 2.40529875,18.2523246 2.61405787,18.2523246 L21.385703,18.2523246 C21.5944621,18.2523246 21.7649282,18.0788389 21.7649282,17.8656091 L21.7649282,5.64906057 C21.7649282,5.4352 21.5944621,5.26171429 21.385703,5.26171429 L2.61405787,5.26171429 Z M21.385703,19.5140389 L2.61405787,19.5140389 C1.72405226,19.5140389 1.00018926,18.7746743 1.00018926,17.8656091 L1.00018926,5.64906057 C1.00018926,4.73936457 1.72405226,4 2.61405787,4 L21.385703,4 C22.2757086,4 23.0001893,4.73936457 23.0001893,5.64906057 L23.0001893,17.8656091 C23.0001893,18.7746743 22.2757086,19.5140389 21.385703,19.5140389 L21.385703,19.5140389 Z" id="Fill-6"></path>
                <path d="M11.5995781,11.0690286 C11.5651018,11.0733145 11.526413,11.026065 11.5098954,11.0041128 C11.5049069,10.9974226 11.4859504,10.9597902 11.490939,10.9540408 C11.4980338,10.9483959 11.5373877,10.9610446 11.5480299,10.9690937 C11.5736377,10.9884326 11.5945895,11.0151934 11.6066729,11.0612931 C11.6075597,11.0664153 11.6025712,11.068715 11.5995781,11.0690286 M10.9111265,10.6825166 C10.8922856,10.6893917 10.8459353,10.6372112 10.8331977,10.6180842 C10.8093149,10.58221 10.7858744,10.5428983 10.7604878,10.5083463 C10.7373126,10.4769674 10.7115723,10.4549317 10.7055573,10.4009001 C10.7048497,10.3945538 10.7010461,10.3783355 10.7050266,10.3786 C10.7305901,10.3806273 10.7549152,10.4251394 10.7675642,10.4423273 C10.7766751,10.4547554 10.7873781,10.4671836 10.7958698,10.4802287 C10.808165,10.4991794 10.8134723,10.5221847 10.8264752,10.5398133 C10.8423086,10.5615846 10.8618571,10.5818574 10.8788405,10.6036287 C10.8879513,10.6154399 10.9002466,10.6257526 10.9059077,10.6415302 C10.9085613,10.6496393 10.9164338,10.6799605 10.9111265,10.6825166 M10.7434183,10.6847733 C10.724635,10.683621 10.7167017,10.6739228 10.705035,10.6668173 C10.673885,10.6479971 10.6485683,10.6178463 10.647635,10.5739645 C10.6471683,10.5692595 10.6492683,10.5681072 10.6526517,10.5681072 C10.6894017,10.5679152 10.7272017,10.6145816 10.7413183,10.6361864 C10.7454017,10.6429079 10.754735,10.6602878 10.7535683,10.6727706 C10.752985,10.6809324 10.7490183,10.6845812 10.7434183,10.6847733 M10.0858423,10.8031842 C10.0849577,10.8060929 10.0823925,10.8099712 10.0778813,10.8102356 C10.0478067,10.8096186 10.0386958,10.7643132 10.0253391,10.743864 C10.0146361,10.7269406 10.0053483,10.7083425 9.99393762,10.6911546 C9.98597668,10.6792553 9.97598127,10.666739 9.96934716,10.653165 C9.96129776,10.6356246 9.95767111,10.6172909 9.94741034,10.6017777 C9.94210304,10.5935804 9.93343446,10.5864409 9.92759644,10.5787724 C9.91149765,10.5567367 9.89610649,10.5333789 9.88575727,10.5055257 C9.88336899,10.4956537 9.88053843,10.4857817 9.87815015,10.4758216 C9.87195831,10.4589863 9.86435118,10.4410051 9.85860162,10.4231121 C9.85585951,10.4141215 9.85417887,10.395876 9.85585951,10.3896178 C9.85692097,10.3867091 9.85815934,10.3849463 9.8601938,10.385387 C9.88336899,10.3890008 9.90565962,10.4450597 9.91707031,10.4653326 C9.92927708,10.487192 9.94900253,10.5049969 9.95988248,10.5276496 C9.96952406,10.5480106 9.97261999,10.5739246 9.98367685,10.593933 C9.99234543,10.6091817 10.006852,10.6215217 10.0162283,10.6360653 C10.0287889,10.6551042 10.0372805,10.6798723 10.047099,10.7009385 C10.057979,10.7246489 10.0737239,10.7429826 10.0830117,10.7658997 C10.0869922,10.7757718 10.0887613,10.792607 10.0858423,10.8031842 M9.96802033,9.94132319 C9.96244767,9.93109861 9.95590201,9.91867047 9.95174463,9.90747632 C9.94705652,9.89478375 9.94643733,9.88297261 9.94104159,9.87098518 C9.92326215,9.83149717 9.9033598,9.78795459 9.88540345,9.74917173 C9.87779633,9.7328653 9.86780093,9.70236786 9.87487732,9.68165429 C9.87593878,9.67865743 9.88195371,9.680861 9.8845189,9.683329 C9.89062229,9.68870572 9.89477967,9.69214329 9.89991006,9.69804886 C9.90371362,9.70369001 9.90477508,9.70986001 9.90857864,9.71558929 C9.91733567,9.72907515 9.92874635,9.74256101 9.93564584,9.75763344 C9.95050626,9.78945302 9.95430982,9.82532717 9.96899334,9.85635346 C9.97872338,9.87697889 9.99473371,9.89478375 10.0049945,9.91593804 C10.0101249,9.9269559 10.0133977,9.93903147 10.0168474,9.95110705 C10.0193242,9.96000948 10.0187934,9.97234948 10.0193242,9.97940091 C10.0198549,9.98997805 10.0186165,9.99676505 10.0144592,9.99694134 C9.98668432,9.99544291 9.97854647,9.96141976 9.96802033,9.94132319 M15.9972835,12.6027972 C15.96199,12.4740205 15.5834915,12.529286 15.2720418,12.5009922 C14.9886322,12.4752545 14.6253479,12.4245723 14.1882923,12.2734073 C13.7798075,12.1321143 13.3840603,11.9701958 13.0393515,11.7844788 C13.0393515,11.7844788 12.8997697,11.7113202 12.8850862,11.7030348 C12.8564268,11.6856706 12.8339592,11.6731543 12.8056537,11.6556139 C12.7888472,11.6455656 12.7631068,11.6303169 12.7440006,11.6220315 C12.7199409,11.6119832 12.7036652,11.5990262 12.6827898,11.5861573 C12.6615606,11.5732003 12.6325474,11.5593619 12.6111413,11.5462286 C12.5792976,11.526749 12.5594837,11.5115003 12.5297628,11.4899934 C12.5110988,11.4766839 12.5018995,11.4727174 12.4770437,11.457645 C12.4623602,11.4487426 12.4352045,11.434199 12.4219363,11.4253847 C12.3942499,11.4072273 12.3766474,11.3919786 12.3490494,11.3728516 C12.3318892,11.3610404 12.3195055,11.3536364 12.2990724,11.3412083 C12.2790816,11.3288683 12.2602407,11.3131788 12.2426382,11.3003981 C12.2329082,11.2931704 12.2185785,11.284885 12.2095561,11.2758944 C12.1893883,11.2564148 12.1693091,11.2387863 12.1482568,11.2216865 C12.1285314,11.2073193 12.1103981,11.1895144 12.0911149,11.1752352 C12.0789966,11.1663328 12.0582982,11.1487042 12.0461799,11.1400662 C12.0150437,11.1176779 11.9954067,11.1009308 11.9644475,11.0784544 C11.9443683,11.0637345 11.9276503,11.0442549 11.9077479,11.0296232 C11.8852804,11.0129642 11.8649358,10.9941016 11.8417606,10.9777952 C11.8269001,10.9672181 11.8098283,10.9539966 11.7985946,10.9423618 C11.7835572,10.9247332 11.7694045,10.9127458 11.7541902,10.8950291 C11.7429564,10.8823365 11.7204889,10.8688506 11.7081052,10.8557173 C11.6889105,10.8313899 11.6617548,10.8057403 11.6361914,10.7865252 C11.6213309,10.7725105 11.6164659,10.766076 11.6108048,10.758672 C11.6061167,10.7522376 11.6008094,10.7451862 11.5883373,10.7324055 C11.5758651,10.719801 11.5719731,10.716099 11.5664005,10.7110749 C11.5610047,10.706227 11.554459,10.700057 11.537918,10.6837506 C11.5323453,10.6782857 11.5235883,10.666122 11.5149197,10.6543109 C11.5071357,10.6435574 11.4998824,10.6335092 11.4948404,10.6280443 C11.47998,10.6119142 11.4696308,10.6010726 11.4589277,10.5897903 C11.4511437,10.5817693 11.4431828,10.5733076 11.4331874,10.5626423 C11.4273493,10.5563841 11.4223074,10.5488039 11.4174424,10.541488 C11.4128427,10.5345247 11.4079777,10.527297 11.4024051,10.5212151 C11.3932942,10.511255 11.3865716,10.5146926 11.3846256,10.5160147 C11.3791414,10.5197167 11.3770185,10.5302939 11.3834757,10.5431627 C11.3910828,10.5579707 11.4027589,10.5747179 11.4098353,10.5847661 C11.4114275,10.5867934 11.4126658,10.5886444 11.4136388,10.5899666 C11.4166463,10.59455 11.4193884,10.5993979 11.4219536,10.6041576 C11.426111,10.6112972 11.4302684,10.6187893 11.4354872,10.6257526 C11.4469863,10.6412657 11.4594585,10.6540464 11.4715768,10.6665627 C11.4755573,10.6705292 11.4797146,10.6746719 11.4835182,10.6789027 C11.4917445,10.6875407 11.4980248,10.6965313 11.5045705,10.7061389 C11.511293,10.7157465 11.5181925,10.7257947 11.5272149,10.7353142 C11.5313723,10.7394569 11.534999,10.7443047 11.5382718,10.7489763 C11.5422523,10.754353 11.5461443,10.7597297 11.5508324,10.7643132 C11.5577319,10.7709239 11.5646314,10.7781516 11.5716193,10.7851149 C11.5829415,10.796926 11.5948829,10.8090898 11.6062936,10.8186973 C11.6149622,10.8260132 11.624073,10.8353563 11.6330954,10.8442588 C11.6564475,10.8715831 11.6814803,10.8990836 11.7021787,10.9252621 C11.7141201,10.9404226 11.7357031,10.9514405 11.7491483,10.9615769 C11.7640087,10.9725948 11.7757732,10.9920744 11.7875377,11.0069705 C11.7965601,11.0173714 11.8161971,11.0352644 11.8257502,11.0462822 C11.8490139,11.0759864 11.8649358,11.0919402 11.8951873,11.1143285 C11.9136744,11.1279025 11.9280041,11.1403307 11.9421569,11.1582237 C11.9504716,11.1689771 11.9770966,11.1945385 11.9867382,11.206526 C12.0119478,11.2384337 12.0233585,11.2681378 12.0197318,11.2689311 C12.0024831,11.2735145 11.960644,11.236759 11.9361419,11.2208051 C11.915532,11.207143 11.912436,11.2016781 11.8932413,11.1874871 C11.888907,11.1837851 11.8583901,11.1621901 11.847687,11.1490568 C11.8393723,11.1415647 11.816374,11.1169728 11.8094745,11.1082467 C11.7747117,11.0641752 11.7628588,11.0614428 11.7229656,11.0226599 C11.693864,10.9943661 11.6579513,10.9689809 11.6294688,10.9436839 C11.621154,10.9346933 11.6126624,10.9257028 11.6044361,10.9165359 C11.5948829,10.9072809 11.5831184,10.8985548 11.575069,10.8893879 C11.5617123,10.8727289 11.5439329,10.840116 11.5281879,10.828393 C11.51147,10.8159649 11.4993516,10.8042419 11.4826337,10.7917256 C11.4767072,10.787671 11.471223,10.7799145 11.4652965,10.775331 C11.4572471,10.7694255 11.447694,10.7625503 11.4415021,10.7548819 C11.4221305,10.7302019 11.4029358,10.7052575 11.3834757,10.680313 C11.3742764,10.6685019 11.3615389,10.6586299 11.3525165,10.646378 C11.3333218,10.6201996 11.3177537,10.5929634 11.2984705,10.5677546 C11.2716687,10.53285 11.2331024,10.5079937 11.2071851,10.4726484 C11.1806486,10.4365098 11.1647267,10.3941131 11.1395171,10.3562117 C11.1286371,10.3398171 11.1116538,10.3281822 11.1001547,10.3126691 C11.0929898,10.303326 11.0893632,10.2929251 11.0828175,10.282965 C11.0695493,10.2626921 11.0538043,10.2429481 11.0401822,10.2232922 C11.0224028,10.1973782 11.0102845,10.1690844 10.9926819,10.1419364 C10.9896745,10.1380581 10.9834826,10.1197244 10.9726027,10.1061504 C10.9618996,10.0925764 10.9526119,10.0772395 10.9404935,10.0579362 C10.9281983,10.0387211 10.9221834,10.0259403 10.9135148,10.0127189 C10.9047578,9.99940934 10.8990082,9.98689305 10.8929933,9.97754991 C10.8872437,9.96820676 10.8745062,9.95084262 10.869995,9.94396747 C10.8537193,9.9189349 10.8494735,9.90730004 10.8321363,9.88429475 C10.8217871,9.87019189 10.8107302,9.85855703 10.8014424,9.86208275 C10.7940122,9.86719503 10.7965774,9.87592118 10.7982581,9.88217932 C10.8058652,9.90271661 10.8058652,9.89910275 10.8138261,9.91373447 C10.8271828,9.93823819 10.8319594,9.94996119 10.846466,9.97208505 C10.8531886,9.98292662 10.8647762,10.0073422 10.8743293,10.0207399 C10.883617,10.0344021 10.8929933,10.0500915 10.899362,10.0613738 C10.9060846,10.0732731 10.9162569,10.1044756 10.9265177,10.1174326 C10.933771,10.1268639 10.9439433,10.1460791 10.9508428,10.1596531 C10.9648186,10.1873299 10.9825981,10.2091012 10.9970162,10.2310488 C11.0068347,10.24903 11.0162994,10.2671874 11.0260294,10.2851685 C11.0451357,10.3139912 11.0679571,10.3412274 11.0871518,10.370579 C11.0989163,10.3912925 11.110327,10.4120943 11.1219146,10.432896 C11.1331483,10.4499076 11.1488048,10.4642748 11.1600386,10.4818153 C11.1735722,10.5025288 11.1812678,10.5251816 11.1948014,10.5454544 C11.2055044,10.5614964 11.2194803,10.5767451 11.2301834,10.5927872 C11.2484935,10.6201996 11.265123,10.6466424 11.2844062,10.6728209 C11.2950208,10.6870119 11.3091736,10.6992637 11.3196997,10.7135429 C11.3343832,10.7331987 11.3459708,10.7565566 11.3611851,10.7731275 C11.3793183,10.7899628 11.3844487,10.800011 11.398513,10.8165819 C11.4197422,10.8418789 11.4722844,10.9160952 11.4634389,10.9165359 C11.4324797,10.9205905 11.3732149,10.8534256 11.3480053,10.8290982 C11.3285452,10.8099712 11.3070507,10.7961328 11.2934286,10.7780635 C11.2737032,10.751268 11.2591966,10.7214757 11.2392058,10.6953855 C11.2321294,10.6860423 11.2212494,10.6785502 11.2139961,10.6695596 C11.2002856,10.651931 11.1875481,10.6333329 11.1716262,10.617996 C11.1650805,10.6116497 11.1580042,10.6060967 11.1519008,10.5990453 C11.1277526,10.5679309 11.107408,10.5348773 11.083702,10.5027051 C11.0738835,10.4894837 11.0608807,10.4778488 11.0512391,10.4646274 C11.043632,10.4544028 11.0394746,10.4431206 11.0325751,10.4321908 C11.023022,10.4175591 11.0108152,10.4031918 11.0012621,10.3888245 C10.9940088,10.377983 10.9896745,10.3672295 10.9824212,10.3562998 C10.9696837,10.3369965 10.9526119,10.3201612 10.9399628,10.3005935 C10.9296136,10.2847278 10.9268715,10.2637498 10.9164338,10.2480604 C10.8901627,10.2076028 10.8609726,10.1664401 10.8350553,10.1260706 C10.8283327,10.1156698 10.8257675,10.1039468 10.8192219,10.0935459 C10.7980812,10.0607568 10.7782673,10.0245301 10.7573919,9.9919172 C10.7496079,9.97975348 10.746335,9.96600319 10.738551,9.9541039 C10.728821,9.9392959 10.7141374,9.92792547 10.7044959,9.91329375 C10.6972426,9.90201147 10.6943235,9.88967146 10.6883971,9.87680261 C10.6804361,9.85979103 10.66991,9.84277946 10.6609761,9.82664931 C10.6554034,9.81668917 10.6524844,9.80646459 10.6464694,9.79685702 C10.6211713,9.75780973 10.6004729,9.71576558 10.5797744,9.67239929 C10.5690714,9.64983471 10.5529726,9.62859228 10.5422696,9.60585142 C10.5301512,9.5807307 10.5185637,9.55490484 10.507153,9.53022483 C10.501138,9.51347769 10.4951231,9.49690683 10.4891966,9.48024783 C10.4768129,9.45389311 10.458149,9.43150482 10.4460306,9.40435681 C10.4377159,9.38593495 10.4333816,9.36857081 10.4257745,9.35314581 C10.4211748,9.34371452 10.4119755,9.3358698 10.4052529,9.34010066 C10.3987073,9.34415523 10.3976458,9.35261695 10.4018032,9.36698424 C10.409941,9.3946611 10.4253322,9.42621625 10.4324086,9.44199382 C10.4467383,9.47337268 10.4538147,9.50598554 10.4683213,9.53798141 C10.4761053,9.55560998 10.4876929,9.57253341 10.4956538,9.58954499 C10.5098066,9.61933728 10.5230749,9.65018728 10.5366969,9.67874557 C10.5446579,9.69558086 10.5509382,9.71171101 10.560049,9.72748858 C10.564914,9.73586215 10.5718135,9.7452053 10.5759709,9.7544603 C10.5849048,9.77473316 10.5878238,9.79615188 10.5968462,9.81536702 C10.6064878,9.83555174 10.6220559,9.85247517 10.6314321,9.87221918 C10.6794631,9.97411234 10.7281133,10.0715102 10.7862282,10.1620329 C10.8024154,10.1871537 10.8107302,10.2180918 10.8270059,10.2432125 C10.8437239,10.2691265 10.8668991,10.2893994 10.883617,10.3151371 C10.8975045,10.3362033 10.9007773,10.3654667 10.9133379,10.3881194 C10.9320019,10.422407 10.9568577,10.4512297 10.9774677,10.4830493 C10.9831288,10.4919517 10.984721,10.5022644 10.990559,10.5114313 C10.9983431,10.5237713 11.0081615,10.5358469 11.0162994,10.5480106 C11.0268255,10.5646696 11.0322213,10.5839729 11.0438089,10.5993979 C11.0560157,10.616145 11.0737066,10.6300716 11.0859134,10.646995 C11.1013046,10.667973 11.1116538,10.6923005 11.1275757,10.7133666 C11.1386325,10.7280865 11.1557043,10.7381347 11.1667612,10.7527665 C11.184806,10.7761243 11.2455745,10.8560699 11.2633539,10.8787226 C11.2905096,10.9129221 11.3383637,10.9633398 11.3610082,11.0084689 C11.3679076,11.0224836 11.3920558,11.0553609 11.3869254,11.0618835 C11.3739226,11.0706097 11.3135079,11.0046788 11.3032471,10.9948068 C11.2778606,10.9704794 11.2559237,10.9374258 11.2339869,10.9096608 C11.2288565,10.9035789 11.1705648,10.8466386 11.1657882,10.8403805 C11.1600386,10.8329765 11.1538468,10.8248673 11.1488048,10.8173752 C11.1327945,10.7934003 11.1228876,10.7644013 11.1054619,10.7414842 C11.0983856,10.7322292 11.0873287,10.7250896 11.0802523,10.7157465 C11.0668072,10.6982942 11.0574309,10.6779332 11.0445165,10.6600402 C11.0237296,10.6319226 10.9972816,10.6068019 10.9765831,10.5787724 C10.9539387,10.5479224 10.9380168,10.5117839 10.915107,10.4811983 C10.9036963,10.4661258 10.8891897,10.4525518 10.8783098,10.4364217 C10.8736216,10.4291058 10.8715872,10.4220544 10.8668991,10.4146504 C10.8585843,10.4021341 10.8475274,10.3879431 10.8409818,10.3741047 C10.8348784,10.361324 10.8309864,10.3491603 10.8235562,10.3375254 C10.7996733,10.3003291 10.7757021,10.2608411 10.7518192,10.2237329 C10.7411162,10.2070739 10.7351013,10.1889165 10.7243098,10.1722575 C10.7065303,10.1447569 10.6840628,10.1200769 10.6661064,10.0922238 C10.6448773,10.0595228 10.6334666,10.0197703 10.6124143,9.98680491 C10.5984384,9.96520991 10.5821627,9.94467262 10.5683638,9.92298947 C10.5529726,9.89945532 10.5453655,9.87195475 10.5317434,9.84727474 C10.5199789,9.8255916 10.5033494,9.80549502 10.4930002,9.78354745 C10.4815895,9.7600133 10.4736286,9.73639101 10.4621294,9.71197544 C10.4558491,9.69893029 10.4463845,9.68606143 10.4403695,9.67257557 C10.4330278,9.65582843 10.4311702,9.63881685 10.42374,9.62268671 C10.4028646,9.57720498 10.3715516,9.53392683 10.3501455,9.4886214 C10.3347544,9.45618482 10.3213092,9.42269053 10.3086602,9.3884911 C10.3017607,9.36962852 10.2986648,9.35199995 10.29035,9.33437137 C10.2713322,9.29276794 10.2478916,9.2486965 10.2292277,9.20726935 C10.2214436,9.18514549 10.2134827,9.16302163 10.2053448,9.14089777 C10.2038411,9.13472777 10.2031335,9.12846963 10.2007452,9.12194705 C10.1920766,9.10246748 10.180489,9.08325233 10.1728819,9.0638609 C10.1658055,9.04120818 10.1587291,9.01881989 10.1514758,8.99634346 C10.1219319,8.92292045 10.0954838,8.84015429 10.067709,8.76382257 C10.0639054,8.74980785 10.0631978,8.73261999 10.057979,8.71772384 C10.0436493,8.67867655 10.0291427,8.63936483 10.014813,8.60014125 C10.006852,8.58030911 9.98765732,8.58709611 9.99199161,8.60719268 C9.99791809,8.63442883 10.0015447,8.64086326 10.0059675,8.66201755 C10.0082673,8.67294727 10.0103018,8.6837007 10.0126016,8.69445413 C10.0155206,8.70741113 10.0222432,8.72124956 10.0260467,8.7336777 C10.033477,8.75703557 10.0340077,8.78021714 10.0421455,8.80260543 C10.0533793,8.83433686 10.0647015,8.86465801 10.0751392,8.89727087 C10.0782351,8.91340102 10.0816849,8.92970745 10.0849577,8.94592574 C10.0896458,8.96099817 10.0956608,8.97659946 10.1012334,8.99043789 C10.1175976,9.03036661 10.1329887,9.0687969 10.1473184,9.10819677 C10.1529795,9.1306732 10.158906,9.15323777 10.1645671,9.17571421 C10.1703167,9.18831864 10.1790737,9.20127564 10.1848233,9.2135275 C10.1897768,9.22436907 10.1908382,9.23459364 10.1955263,9.24605222 C10.2056987,9.27143736 10.2150749,9.29743951 10.2264856,9.32300094 C10.2361271,9.34424338 10.2475378,9.36548581 10.2560295,9.38805038 C10.2598331,9.3989801 10.2598331,9.40841139 10.2637251,9.41907667 C10.2883155,9.4861534 10.3151174,9.55649141 10.3439537,9.61933728 C10.3510301,9.63529114 10.3530645,9.65177385 10.3603178,9.667904 C10.3664212,9.68130172 10.3746475,9.69558086 10.3807509,9.70853786 C10.3836699,9.71708772 10.3867658,9.72572572 10.3896849,9.73418744 C10.3987073,9.75305001 10.4139215,9.76856316 10.4226785,9.78707316 C10.4476228,9.83925374 10.4697365,9.88861375 10.5007842,9.93330219 C10.5296205,9.97446491 10.5420927,10.0289372 10.5640295,10.0780328 C10.5743787,10.1012144 10.5883546,10.1213109 10.6015344,10.1416719 C10.6079031,10.1525135 10.6122374,10.1642365 10.6175447,10.1755188 C10.6317859,10.2010802 10.6394815,10.2235567 10.6562879,10.2460331 C10.6697331,10.2646312 10.6685832,10.268774 10.6799939,10.2948642 C10.6832667,10.3026208 10.6960042,10.3513638 10.6936159,10.3513638 C10.6891047,10.3544488 10.6649565,10.3398171 10.6568187,10.3308265 C10.6457618,10.3185747 10.6283362,10.3021801 10.6165717,10.275561 C10.6106452,10.2624277 10.5984384,10.2394224 10.5921581,10.2265535 C10.5769439,10.1940288 10.5512035,10.1666164 10.5322742,10.1371766 C10.5212173,10.1198125 10.5151139,10.1006855 10.5060031,10.0816466 C10.4899043,10.0476235 10.471771,10.0127189 10.455053,9.97737362 C10.4480651,9.96283005 10.437539,9.94846276 10.4293127,9.93541761 C10.4204672,9.92184361 10.4163098,9.90712375 10.4072874,9.89337346 C10.3881811,9.86349303 10.3666866,9.82973431 10.3513839,9.79729773 C10.3399732,9.77341102 10.3342236,9.74899544 10.3229899,9.72563758 C10.3195401,9.71814544 10.3131714,9.71074144 10.3086602,9.70395443 C10.3008761,9.69179072 10.2977802,9.67821672 10.2912346,9.66473086 C10.282566,9.64648528 10.2696516,9.62929742 10.260983,9.61052299 C10.2440881,9.57359113 10.2339158,9.53507269 10.2164017,9.49831711 C10.2082639,9.4812174 10.1944649,9.46667382 10.186327,9.44948596 C10.1739433,9.42330753 10.172705,9.39069467 10.1603213,9.36301781 C10.1281237,9.29065251 10.0909726,9.21590735 10.0631978,9.13984006 C10.0588635,9.12723563 10.0576251,9.11286834 10.0536447,9.09929434 C10.0417917,9.06641704 10.025516,9.03565518 10.0137515,9.00321861 C10.0084442,8.9884106 10.006852,8.9748366 10.0015447,8.95994046 C9.99340689,8.93790474 9.98305767,8.91472316 9.9747429,8.89242302 C9.97261999,8.88484273 9.97182389,8.87699801 9.96872797,8.86950587 C9.95917484,8.84861601 9.95315991,8.82375972 9.94325296,8.80181214 C9.93812257,8.79052986 9.93016163,8.77880685 9.92565043,8.76664314 C9.9178664,8.74495999 9.92016623,8.71745942 9.9123822,8.69648141 C9.90132533,8.66545512 9.88796864,8.63240155 9.87673487,8.60181597 C9.87018921,8.58427554 9.86903929,8.56691139 9.862759,8.54910653 C9.85550569,8.52856924 9.84754475,8.50591652 9.84011454,8.48555552 C9.83233051,8.4641368 9.83268433,8.44183666 9.82560794,8.41936022 C9.82047755,8.40252494 9.81340116,8.38498451 9.80765159,8.36938322 C9.79694855,8.33967907 9.79279117,8.30803578 9.78155739,8.28018263 C9.77969984,8.27515849 9.77793074,8.26978177 9.77607319,8.26484577 C9.77315418,8.25726548 9.76811225,8.24986148 9.76032822,8.25197691 C9.75165964,8.25435677 9.75183655,8.26555091 9.75236728,8.27277863 C9.75395946,8.2947262 9.76209731,8.31499907 9.76846607,8.33262764 C9.77536555,8.35131393 9.77881529,8.3714105 9.78403413,8.38939165 C9.78695314,8.40067394 9.78642241,8.4135428 9.78934143,8.4258828 C9.7933219,8.44324694 9.79969065,8.46008223 9.80473258,8.47727009 C9.80871305,8.49445795 9.80659013,8.51102881 9.81039369,8.52442653 C9.82162747,8.56162282 9.83409961,8.60357883 9.84674866,8.63936483 C9.85205595,8.65769855 9.8529405,8.6787647 9.8582478,8.69471856 C9.86523573,8.71358113 9.87213522,8.73253185 9.8790347,8.75148256 C9.88487272,8.76734828 9.88646491,8.782597 9.89301057,8.79749314 C9.89991006,8.81318257 9.90804791,8.82984158 9.91370902,8.84755829 C9.92096232,8.87065173 9.92034314,8.89339259 9.92821562,8.91489945 C9.94104159,8.9501566 9.95731729,8.98373903 9.96970097,9.01785032 C9.97368145,9.03001404 9.97491981,9.04305918 9.9792541,9.05557547 C9.98978024,9.08519148 9.99721045,9.11674662 10.0079135,9.14618634 C10.0233046,9.18814235 10.0431185,9.22904064 10.0581559,9.27055593 C10.0731932,9.31154237 10.0751392,9.36072609 10.0923879,9.3989801 C10.1012334,9.41793082 10.1195436,9.42930125 10.1279468,9.44772311 C10.1335195,9.45953425 10.1319273,9.4731964 10.1360846,9.48694668 C10.1409497,9.50263612 10.1485568,9.51814926 10.154041,9.53278098 C10.1574907,9.54600241 10.1611174,9.55904755 10.1649209,9.5720927 C10.1701398,9.58769399 10.1811967,9.60311899 10.1880961,9.61810328 C10.1993299,9.64251885 10.204991,9.66816843 10.2190553,9.68976343 C10.2295815,9.70606986 10.2432035,9.72158301 10.2518721,9.74000487 C10.2615137,9.76045401 10.2649634,9.7822253 10.2743397,9.80355588 C10.2883155,9.83449403 10.3050335,9.8644626 10.316798,9.89681104 C10.327678,9.92607447 10.3314815,9.95762962 10.3456343,9.98336734 C10.3596102,10.0089288 10.3773012,10.0319341 10.391454,10.0577599 C10.400211,10.0767106 10.4090565,10.0956614 10.417902,10.1146121 C10.4253322,10.1301252 10.4391312,10.1436992 10.4477997,10.1593887 C10.4586797,10.1786919 10.4693827,10.1993174 10.4781398,10.2188851 C10.4850392,10.2338694 10.4876929,10.2480604 10.4960961,10.2608411 C10.5089221,10.2809377 10.5182098,10.2970678 10.5312127,10.3170762 C10.5426234,10.3349693 10.5555378,10.3574457 10.5636757,10.3786881 C10.5696906,10.394642 10.5763247,10.4113891 10.5854356,10.4246987 C10.5951656,10.438449 10.6082569,10.4503483 10.6167486,10.4653326 C10.6249749,10.4801406 10.6365625,10.5282666 10.6320513,10.5306464 C10.6217021,10.5343484 10.5921581,10.5061427 10.5841087,10.4961826 C10.5607566,10.468065 10.5491691,10.4302517 10.5279399,10.4000187 C10.5054723,10.3678465 10.4907888,10.349601 10.4733632,10.3124928 C10.4631024,10.2910741 10.445323,10.2525557 10.4327624,10.2334287 C10.4209979,10.2154475 10.4052529,10.1994937 10.3957882,10.1792208 C10.3885349,10.1626499 10.3847314,10.1429059 10.377655,10.1265114 C10.3664212,10.1026246 10.3435999,10.0871996 10.3321892,10.0627841 C10.3190094,10.0353716 10.3131714,10.0070778 10.2995493,9.98151634 C10.2930036,9.96917633 10.2838043,9.95516162 10.2779663,9.9423809 C10.2700054,9.92598633 10.2663787,9.91003247 10.2585947,9.89363789 C10.2430266,9.86049617 10.2193207,9.83202603 10.2038411,9.79888431 C10.1877423,9.76468487 10.1787199,9.7279293 10.1621788,9.69337729 C10.1535103,9.67495543 10.1382076,9.659266 10.1293621,9.64049157 C10.1174207,9.61572342 10.1114057,9.58989756 10.0996412,9.56486498 C10.0925648,9.54970441 10.0820387,9.53489641 10.0749623,9.52017655 C10.0647015,9.49840526 10.0610749,9.4750474 10.0510795,9.45248282 C10.0282581,9.40188881 10.0046407,9.34891495 9.98199621,9.29832094 C9.97350454,9.27892951 9.97129316,9.25839222 9.96244767,9.2388245 C9.95369064,9.22163664 9.94502206,9.20453692 9.93635348,9.18734906 C9.91636267,9.14266063 9.90946319,9.09048005 9.88938392,9.04543904 C9.87921161,9.02269818 9.86638565,9.00101503 9.85727479,8.97651132 C9.84312201,8.93790474 9.83754935,8.89832859 9.82339656,8.85892873 C9.80181357,8.79872714 9.78438795,8.73614571 9.7627165,8.67647298 C9.75634775,8.65831555 9.7554632,8.64086326 9.74891753,8.62235326 C9.74237187,8.60481283 9.73582621,8.5872724 9.729369,8.56973196 C9.72494625,8.55571725 9.7221157,8.53535624 9.71813523,8.51693438 C9.70212489,8.46625223 9.68567228,8.41565822 9.66948503,8.36418279 C9.66603529,8.35210721 9.66515074,8.33015964 9.66099336,8.31429392 C9.65842817,8.30556778 9.65356315,8.29525506 9.65064414,8.28723406 C9.64630985,8.2755992 9.64648675,8.26563906 9.64268319,8.25347534 C9.63074178,8.21627905 9.62056947,8.17308904 9.60880497,8.13598089 C9.60535522,8.12408161 9.60429377,8.1074226 9.6004902,8.09402489 C9.58377223,8.04105102 9.57563438,7.97626601 9.5544052,7.92681786 C9.55042473,7.91747471 9.5444098,7.90733828 9.53503358,7.90954186 C9.5255689,7.91192171 9.52760336,7.92276329 9.52866482,7.93166572 C9.53140692,7.95599315 9.54042932,7.97670672 9.5444098,7.99662701 C9.54609044,8.00561759 9.54591353,8.01813387 9.54679808,8.0288873 C9.54803645,8.03796602 9.54900945,8.04916016 9.55201692,8.05867959 C9.56183541,8.09005846 9.57324609,8.12734289 9.58253386,8.15863361 C9.58562978,8.1736179 9.58306459,8.19671133 9.58704506,8.21389919 C9.60066711,8.26431691 9.61075097,8.32416592 9.62906114,8.36938322 C9.64577912,8.41054594 9.64887504,8.45972966 9.66081645,8.50432995 C9.66462001,8.52345696 9.66585838,8.54311282 9.66824666,8.56232796 C9.67116567,8.58110239 9.68169181,8.5940594 9.68744138,8.60983697 C9.69177567,8.62138369 9.69142185,8.63143197 9.69557923,8.64350755 C9.70557463,8.67559155 9.71282793,8.70723484 9.72459244,8.73949513 C9.73255338,8.76161899 9.74458324,8.78268514 9.75254419,8.80445643 C9.75599393,8.81432843 9.7546671,8.82314272 9.75758611,8.83416058 C9.76289341,8.8561963 9.76687388,8.87849644 9.77333109,8.90026773 C9.78898761,8.94407474 9.80420185,8.99176003 9.81994682,9.0354789 C9.82870386,9.05980633 9.83153441,9.0836049 9.84011454,9.10713905 C9.87487732,9.20154007 9.91008237,9.29602922 9.94466824,9.38963695 C9.95032935,9.41043867 9.95607892,9.43115225 9.96174003,9.45177768 C9.96934716,9.4731964 9.98199621,9.49100126 9.9908417,9.51004012 C10.001987,9.53436755 10.0056137,9.56001712 10.0149899,9.58575484 C10.0260467,9.61598785 10.0401995,9.63934571 10.0517871,9.670989 C10.0572713,9.68597329 10.0626671,9.70236786 10.0695666,9.71691144 C10.0749623,9.7279293 10.084427,9.73833015 10.0898227,9.74943616 C10.0987567,9.76812244 10.1007027,9.79156845 10.1092828,9.81034288 C10.1184821,9.82902917 10.134404,9.84436603 10.145284,9.86173017 C10.1552794,9.87803661 10.1563408,9.89883832 10.1645671,9.91726018 C10.17757,9.9460829 10.1944649,9.97217319 10.206937,10.0024943 C10.2120674,10.0152751 10.2145441,10.0266455 10.2202053,10.0388973 C10.2267509,10.0530002 10.2373655,10.0663979 10.2439112,10.0805889 C10.2440881,10.0805889 10.2444419,10.0809415 10.2447957,10.0823518 C10.2455918,10.0842909 10.2464764,10.0869352 10.2470071,10.0900202 C10.2485993,10.0960139 10.2504568,10.1033298 10.2524028,10.1086184 C10.2553219,10.1166394 10.2644327,10.1317118 10.2682363,10.1369122 C10.2705361,10.1399091 10.2770818,10.1472249 10.282566,10.1540119 C10.2850427,10.1565681 10.287431,10.1594768 10.2896424,10.1629144 C10.3021145,10.1823939 10.3035298,10.2101589 10.3137021,10.2318421 C10.3238744,10.2529964 10.3420077,10.2696554 10.35218,10.2914267 C10.3603178,10.3080857 10.3646521,10.3492484 10.3544798,10.350835 C10.3115792,10.3507468 10.3086602,10.2911622 10.2945074,10.2598715 C10.2830967,10.2356322 10.2654942,10.2154475 10.2526682,10.1921778 C10.250103,10.1875062 10.2459456,10.1783394 10.2432035,10.1686437 C10.2404614,10.1605345 10.2370117,10.1517202 10.2337389,10.1449332 C10.2281662,10.1332984 10.2281662,10.1352375 10.2243626,10.1271284 C10.2203822,10.1191074 10.2086177,10.1040349 10.2046372,10.0969835 C10.2045487,10.0963665 10.2043718,10.0960139 10.2041949,10.0954851 C10.1879192,10.0693066 10.1768624,10.0318459 10.1652748,10.0143055 C10.1587291,10.0044335 10.1502374,9.99447334 10.1438687,9.98442505 C10.1329887,9.96776605 10.1277699,9.94749319 10.1190129,9.92898318 C10.110875,9.91205975 10.098049,9.89522447 10.0901766,9.87741961 C10.0806234,9.85652974 10.0800927,9.82999874 10.0700973,9.80866817 C10.0650554,9.79720959 10.0554138,9.78557473 10.050018,9.77473316 C10.0379882,9.75040573 10.0310887,9.72431544 10.0189704,9.70034058 C10.0133977,9.68897015 10.0032254,9.67812857 9.99756427,9.66649371 C9.98801114,9.64622085 9.98305767,9.62444956 9.97244308,9.60558699 C9.94988708,9.56557013 9.92582734,9.52088169 9.90698645,9.47839683 C9.89610649,9.45345239 9.89247984,9.42824353 9.88159989,9.40400424 C9.87213522,9.38276181 9.85913234,9.36196009 9.84966767,9.34177538 C9.84329892,9.32820137 9.84152982,9.31480366 9.83604561,9.29990751 C9.82737703,9.27628522 9.81649708,9.2517815 9.80765159,9.22824736 C9.80252121,9.21194093 9.79836383,9.17624306 9.7933219,9.16205206 C9.78677623,9.1442472 9.77740001,9.12503205 9.76970444,9.10784419 C9.75811684,9.08157762 9.75431328,9.05425333 9.74254878,9.02816304 C9.73370329,9.00806646 9.72370789,8.98673589 9.71610076,8.96602231 C9.70973201,8.94839374 9.70796291,8.93226359 9.70070961,8.91595716 C9.69540232,8.90361716 9.6879721,8.88942616 9.683284,8.87664544 C9.67771134,8.86130858 9.67381932,8.83618786 9.6689543,8.815915 C9.66134718,8.79335043 9.65179405,8.77184357 9.64489457,8.74963156 C9.6409141,8.73332513 9.64029491,8.69507113 9.63613753,8.68484655 C9.61278544,8.61600697 9.59084862,8.54284839 9.56908871,8.47409695 C9.55909331,8.44227737 9.5544052,8.41054594 9.5453828,8.3794315 C9.54228688,8.36717965 9.54193306,8.35140207 9.53866023,8.33888578 C9.53246838,8.31905364 9.52397671,8.29860449 9.51760796,8.27815534 C9.51415822,8.2644932 9.5120353,8.25021405 9.5092932,8.23619934 C9.50602037,8.22200834 9.49841325,8.20737662 9.49310595,8.19300933 C9.47974926,8.15167032 9.47249596,8.10768703 9.46020073,8.06740574 C9.45595489,8.05065859 9.4561318,8.02879916 9.4516206,8.01337416 C9.43587563,7.96339715 9.43207207,7.90522286 9.41721164,7.8526897 C9.4137619,7.83744099 9.41137362,7.82210413 9.40792388,7.80817755 C9.38200659,7.71007454 9.37059591,7.59998409 9.34193652,7.50558308 C9.33636386,7.48760193 9.34344025,7.46442036 9.33848678,7.44494078 C9.33273721,7.42299321 9.32672228,7.40360177 9.32008816,7.38403406 C9.31752297,7.37407391 9.31734606,7.36614105 9.31513468,7.35706234 C9.31026966,7.34110848 9.30319327,7.32859219 9.29434778,7.33035505 C9.28399856,7.33379262 9.28629839,7.34322391 9.2866522,7.35688605 C9.2874483,7.3785692 9.28957122,7.39690292 9.29408242,7.41479592 C9.29788598,7.42960392 9.29540924,7.44203207 9.29956662,7.45534164 C9.30876593,7.48601536 9.31150803,7.52902908 9.31663842,7.5566178 C9.31858443,7.56816452 9.31716915,7.58358952 9.31946897,7.59707538 C9.32221108,7.61100195 9.33309103,7.62933567 9.33601004,7.6444081 C9.33910596,7.66485725 9.33875214,7.69138825 9.34220188,7.71324768 C9.34618236,7.73184583 9.3515781,7.74956254 9.35644312,7.76719112 C9.3606005,7.78217541 9.35741613,7.79663084 9.36192733,7.81046927 C9.36661544,7.82501284 9.37422256,7.83902756 9.37714157,7.85506956 C9.37952985,7.87234556 9.37696466,7.89781885 9.3804144,7.91297943 C9.40270504,7.9992713 9.4092507,8.10160517 9.43463726,8.18437133 C9.43782164,8.19618247 9.43826391,8.20896319 9.44127138,8.22095062 C9.46232364,8.29340406 9.47842244,8.37088165 9.50035925,8.44245366 C9.50292445,8.45382409 9.50257063,8.4653708 9.50548964,8.47762266 C9.51256603,8.50300781 9.51911169,8.53015581 9.52450744,8.55589353 C9.52707263,8.56726396 9.52689572,8.57828182 9.52990319,8.58965225 C9.53751031,8.61618326 9.54697499,8.64192098 9.55546666,8.66801127 C9.55873949,8.68070384 9.56006631,8.69330827 9.56236614,8.70582456 C9.5644006,8.71587284 9.56997326,8.72733142 9.57289227,8.73693899 C9.57740347,8.75192328 9.5759882,8.76637871 9.58103013,8.78021714 C9.58412605,8.78823814 9.5904948,8.79722872 9.59279463,8.80586672 C9.59606746,8.82120358 9.59810192,8.83671672 9.60243621,8.85178915 C9.60845115,8.87003473 9.6183581,8.88783959 9.62596522,8.90590888 C9.63144942,8.92089316 9.63127251,8.93614188 9.63702208,8.95050917 C9.6473713,8.97598246 9.65842817,9.00603918 9.66824666,9.03292275 C9.67656142,9.0552229 9.67753443,9.07778747 9.68549537,9.10052834 C9.69089112,9.11533634 9.69796751,9.13084948 9.70336326,9.14512863 C9.70645918,9.15685163 9.70849364,9.16822206 9.71265102,9.18029763 C9.71627767,9.19113921 9.72804218,9.20823892 9.73582621,9.22234178 C9.74219496,9.23794307 9.73927595,9.25936179 9.74440633,9.27619708 C9.74962517,9.29364937 9.75926676,9.30757594 9.76519324,9.3235298 C9.77067744,9.33965995 9.77050053,9.35684781 9.77483482,9.37350681 C9.77952293,9.38611124 9.78827997,9.39853938 9.79367572,9.41017424 C9.79871765,9.42410082 9.80367112,9.43802739 9.80888996,9.45195396 C9.81287043,9.46094454 9.82047755,9.47019954 9.82463493,9.47910197 C9.83233051,9.49523211 9.8384339,9.51259626 9.84533338,9.52907898 C9.85479805,9.55270127 9.8556826,9.58178841 9.86293591,9.60884828 C9.86488191,9.61642856 9.864705,9.63502671 9.85983998,9.63714214 C9.84896003,9.63908128 9.8366648,9.62198156 9.82923459,9.61122813 C9.81649708,9.59333513 9.80420185,9.5733267 9.79473717,9.55164355 C9.79164125,9.54326998 9.78951833,9.53542526 9.78695314,9.52731612 C9.77969984,9.50933497 9.77430409,9.48897397 9.76598933,9.47055211 C9.76121277,9.45953425 9.75395946,9.44728239 9.74997899,9.4353831 C9.74405251,9.4181071 9.74688307,9.39783424 9.73998359,9.38276181 C9.73423402,9.37015738 9.72406171,9.36019724 9.71831214,9.34750466 C9.7140663,9.33604609 9.71212029,9.32388237 9.70707836,9.31251194 C9.70088652,9.29858537 9.69239485,9.28615722 9.68469927,9.27311208 C9.6789497,9.2604195 9.67965734,9.24755065 9.67514614,9.23247821 C9.67019267,9.21484964 9.66479692,9.19739735 9.6571898,9.18117906 C9.64958268,9.16487263 9.63994109,9.14803734 9.63268779,9.13111391 C9.62923805,9.12177077 9.62746895,9.11216319 9.62472685,9.10273191 C9.62021565,9.09003933 9.61366999,9.0762009 9.60845115,9.06350833 C9.60553213,9.05416519 9.60332076,9.0441169 9.59934029,9.03521447 C9.59305999,9.02128789 9.58580669,9.00577475 9.58014558,8.99043789 C9.57581129,8.9779216 9.57510365,8.96478831 9.57076936,8.9526246 C9.56307378,8.93094145 9.55546666,8.90643773 9.54821336,8.88510716 C9.54334834,8.8685363 9.54157924,8.85178915 9.53697958,8.83504201 C9.53069929,8.81565058 9.52194225,8.79643543 9.51468895,8.77686771 C9.5092932,8.76117828 9.50805483,8.74434299 9.50345517,8.72838913 C9.49602496,8.70749927 9.48549883,8.68810784 9.47842244,8.66607212 C9.47426506,8.64888426 9.47355742,8.63143197 9.46975386,8.61477297 C9.45745862,8.57413911 9.44454421,8.52927439 9.43154134,8.48775909 C9.41685782,8.4413078 9.41570791,8.38886279 9.4019974,8.34197078 C9.39253273,8.30847649 9.38059131,8.27612806 9.37024209,8.24325077 C9.36643853,8.22615105 9.3659078,8.21010905 9.36157351,8.19327376 C9.35246265,8.1563419 9.33857523,8.10759889 9.32636846,8.06899231 C9.3199997,8.04854316 9.32185726,8.02774145 9.31601923,8.00561759 C9.30991584,7.98375815 9.30956202,7.95740344 9.30248563,7.93404557 C9.29797443,7.919502 9.29249023,7.90910114 9.28904049,7.89076742 C9.28541384,7.87234556 9.28576766,7.85057428 9.28302555,7.83673584 C9.280195,7.8230737 9.25622372,7.74110083 9.25348162,7.72594025 C9.25065106,7.71077968 9.25082797,7.68319096 9.24897042,7.6734071 C9.24773205,7.6666201 9.23525991,7.63127481 9.23375617,7.6221961 C9.23198707,7.61285295 9.23198707,7.60236395 9.22836042,7.58429466 C9.22455686,7.56613723 9.21403073,7.52567965 9.21235009,7.51404479 C9.21040408,7.50232179 9.21040408,7.47861136 9.20801579,7.46680021 C9.20562751,7.45507721 9.19766657,7.42810549 9.19227082,7.4088022 C9.18607898,7.38553249 9.19103245,7.36049991 9.18448679,7.33855233 C9.17971023,7.32233405 9.17396066,7.3062039 9.16812263,7.2907789 C9.16431907,7.27711675 9.15963096,7.25887118 9.15874641,7.25058575 C9.15777341,7.23833389 9.15688886,7.21233174 9.15635813,7.2029886 C9.15600431,7.18950274 9.1503432,7.16746702 9.14892792,7.14825188 C9.14733573,7.1219853 9.14167462,7.09386772 9.13751724,7.07791386 C9.13512895,7.06830629 9.13592505,7.05684772 9.13389059,7.04820972 C9.12734492,7.02211943 9.12097617,6.99840899 9.10779639,7.00008371 C9.09833171,7.00175842 9.09488197,7.00916242 9.0989509,7.02635028 C9.10363901,7.04635872 9.10576193,7.06204815 9.1107154,7.08179215 C9.11336905,7.09245744 9.11381132,7.11881216 9.11416514,7.1275383 C9.11487278,7.1417293 9.11558042,7.14499059 9.11734952,7.15847645 C9.11814561,7.16394131 9.12044544,7.17698645 9.12212608,7.1826276 C9.12442591,7.19205888 9.12734492,7.20492774 9.1269911,7.21171474 C9.12663728,7.22079346 9.12646037,7.23048917 9.12646037,7.24353432 C9.12646037,7.25023318 9.1269911,7.25252489 9.12955629,7.26407161 C9.13212149,7.27561832 9.13353677,7.2778219 9.13442131,7.28760576 C9.13495204,7.29562676 9.13389059,7.30355961 9.13459822,7.31078733 C9.13477513,7.3197779 9.13574814,7.32859219 9.13840179,7.33678948 C9.14370908,7.35388919 9.15494285,7.37751148 9.1503432,7.40289663 C9.14530127,7.42978021 9.15361603,7.4552535 9.15963096,7.47861136 C9.16254997,7.49359565 9.15945405,7.51016651 9.16237306,7.52444565 C9.16794572,7.54445408 9.17272229,7.56578466 9.17829495,7.58658638 C9.18262924,7.60359795 9.17953332,7.61893481 9.18395606,7.6351531 C9.19041327,7.65789396 9.20589288,7.68847953 9.20801579,7.69870411 C9.20969644,7.70892868 9.20943107,7.73634111 9.212527,7.75405783 C9.21562292,7.77151012 9.2197803,7.79143041 9.22093021,7.80253641 C9.22234549,7.81364241 9.22048794,7.81866656 9.22163785,7.82686384 C9.22305313,7.83506113 9.2342869,7.87472542 9.23596754,7.88495 C9.23791355,7.89517457 9.23738282,7.90046314 9.2395942,7.91121657 C9.24171711,7.92197 9.25065106,7.96436672 9.25259707,7.97811701 C9.25480844,7.99177916 9.2541008,7.9998883 9.25657754,8.0134623 C9.26073492,8.03461659 9.26913813,8.05242145 9.27364933,8.07269431 C9.27656835,8.08759046 9.27559534,8.0969336 9.27745289,8.10909732 C9.28178719,8.12804803 9.28815594,8.14514775 9.29160568,8.1631289 C9.29434778,8.17687919 9.29452469,8.19098204 9.29735525,8.2050849 C9.303724,8.23558234 9.3082352,8.26652049 9.31646151,8.29684163 C9.32168035,8.31473464 9.33220648,8.33112921 9.33742532,8.34822893 C9.34193652,8.36418279 9.34308643,8.3812825 9.34724381,8.39688379 C9.35140119,8.41054594 9.36104278,8.42288594 9.36466943,8.43734137 C9.36696926,8.4499458 9.36661544,8.46255023 9.3686499,8.47515466 C9.37192273,8.48943381 9.37837994,8.5038011 9.38112204,8.51843281 C9.38333342,8.52962696 9.38236041,8.54055667 9.38510251,8.55210339 C9.38925989,8.56488411 9.39545174,8.57625454 9.39854766,8.58859454 C9.40164358,8.60428397 9.40146667,8.62006154 9.40544714,8.63583912 C9.41013525,8.65399655 9.41774237,8.67171327 9.4235804,8.68854855 C9.42879924,8.70432613 9.42605713,8.72142585 9.4308337,8.73852556 C9.44109447,8.77545743 9.45330124,8.81626758 9.46577339,8.8506433 C9.47116913,8.86950587 9.47028459,8.88854473 9.47718407,8.90881759 C9.48204909,8.92230345 9.48806402,8.93138217 9.49328286,8.94257631 C9.49770561,8.95474003 9.49372514,8.96796146 9.49735179,8.98171175 C9.50327827,9.00392375 9.50690492,9.03406861 9.51486586,9.05601619 C9.52362289,9.08078433 9.5381295,9.10105719 9.54697499,9.12503205 C9.55564357,9.1504172 9.55608584,9.17571421 9.56457751,9.20198078 C9.57271536,9.22428093 9.58412605,9.2449945 9.59261772,9.26553179 C9.59987102,9.28360108 9.59721737,9.30739966 9.60411686,9.32635037 C9.61172398,9.34724023 9.6265844,9.36319409 9.63454534,9.38452467 C9.64356774,9.40902839 9.64958268,9.43300325 9.6571898,9.45750697 C9.65957808,9.46790782 9.661701,9.47822054 9.66373546,9.4886214 C9.67275786,9.52026469 9.68982966,9.54635498 9.70070961,9.57658798 C9.7050439,9.59077899 9.70628227,9.60259013 9.71026274,9.61572342 C9.71804677,9.63731842 9.72680381,9.65970671 9.73679921,9.68068472 C9.74546779,9.69901843 9.7574092,9.71735215 9.76590088,9.73612658 C9.77359645,9.75331444 9.77518864,9.77094302 9.78261885,9.78892416 C9.78951833,9.80602388 9.79801001,9.82488645 9.80473258,9.84295574 C9.80871305,9.8539736 9.80924378,9.86366932 9.81393189,9.87398203 C9.83533798,9.9220199 9.86178599,9.97049848 9.88398817,10.0174786 C9.89592958,10.0433045 9.90150224,10.0711576 9.91370902,10.0974242 C9.92343906,10.1176971 9.93520356,10.1375292 9.94431442,10.1595649 C9.95006399,10.1734915 9.95174463,10.1868892 9.95775956,10.2001107 C9.96987788,10.2258484 9.98668432,10.2518505 9.99836036,10.2773238 C10.0015447,10.2837582 10.0104787,10.3110825 10.006852,10.3215715 C10.0064982,10.3229818 10.0059675,10.3250091 10.0042868,10.3258024 C9.99614899,10.328006 9.9800502,10.3143438 9.97111625,10.3053532 C9.94033395,10.2753847 9.93555738,10.2186207 9.91388593,10.1794852 C9.90769409,10.1684674 9.90044078,10.1561274 9.89495658,10.1444044 C9.89194911,10.1362071 9.89009156,10.1282742 9.88611109,10.1199888 C9.87284285,10.0948681 9.85621333,10.0720391 9.84427192,10.0455962 C9.83569179,10.0262929 9.83463034,10.0043453 9.82596176,9.98601162 C9.79093361,9.91073761 9.75050972,9.83810788 9.7168084,9.76274573 C9.70124034,9.72828187 9.69796751,9.68923457 9.68452236,9.65195014 C9.67638451,9.62982628 9.66302782,9.61149256 9.65391697,9.59095527 C9.64630985,9.57473698 9.64454075,9.55754912 9.63728744,9.54097826 C9.62746895,9.5194714 9.61366999,9.49928669 9.60517831,9.47601697 C9.60004793,9.46094454 9.59792501,9.44543139 9.5922639,9.4304471 C9.58536442,9.41396439 9.57413064,9.40030224 9.56687734,9.3841721 C9.55626275,9.36037352 9.55458211,9.33692752 9.54679808,9.30977951 C9.54246379,9.2951478 9.53644885,9.27981094 9.53158383,9.26650136 C9.52778027,9.25380879 9.52627654,9.24093993 9.52211916,9.22868807 C9.51168148,9.20039421 9.49460968,9.17536163 9.48390664,9.14618634 C9.47700716,9.1263542 9.47824553,9.10167419 9.46975386,9.08263533 C9.46285437,9.0669459 9.45020532,9.05425333 9.44383657,9.0379469 C9.43693709,9.02093532 9.44330584,9.00022175 9.43782164,8.97994889 C9.4326028,8.9606456 9.42464186,8.94248817 9.4182731,8.92459516 C9.41464645,8.91304845 9.41358499,8.90176616 9.41031216,8.8907483 C9.40182049,8.86721415 9.39341727,8.84394444 9.38474869,8.82041029 C9.38059131,8.808511 9.3804144,8.79749314 9.37554938,8.78665157 C9.36918063,8.77281314 9.35883141,8.75976799 9.35378948,8.74469556 C9.34795145,8.72186656 9.34600545,8.69806798 9.34052124,8.67594412 C9.33132193,8.64615183 9.32026507,8.62191254 9.31150803,8.59317797 C9.30938512,8.58409925 9.30938512,8.57519682 9.30699683,8.56506039 C9.29992044,8.5395871 9.29629379,8.51076438 9.2892174,8.48537924 C9.28647529,8.47295109 9.28709448,8.46237395 9.28399856,8.45029837 C9.27692217,8.42614723 9.2686074,8.40164351 9.26117719,8.37855008 C9.25737363,8.36383022 9.25657754,8.34849336 9.25295089,8.33403793 C9.24100947,8.29631278 9.23030643,8.25188877 9.21889575,8.21522133 C9.21615365,8.20437976 9.21694974,8.19494847 9.21367691,8.18278476 C9.20474296,8.15405018 9.19280155,8.1191456 9.18625589,8.08944146 C9.18298306,8.0722536 9.18280615,8.05568274 9.1791795,8.03964073 C9.1746683,8.01936787 9.1675919,8.00015273 9.16343452,7.9801443 C9.16201924,7.97080115 9.16343452,7.96374972 9.16254997,7.95590501 C9.16086933,7.94277172 9.15963096,7.92972657 9.15724268,7.91676957 C9.14423981,7.86458899 9.12371827,7.80033284 9.11213068,7.74788783 C9.10885785,7.72902526 9.10815021,7.71007454 9.10611575,7.69121196 C9.10399283,7.67825496 9.10310828,7.66282996 9.09930472,7.6493441 C9.09523579,7.63568195 9.08895549,7.62149095 9.08692103,7.60738809 C9.08400202,7.58473537 9.08382511,7.56287594 9.08046382,7.5411928 C9.08037537,7.53960622 9.07984464,7.53784337 9.07949082,7.53616865 C9.07480271,7.50937322 9.06135756,7.4546365 9.05826164,7.43321778 C9.05472345,7.40703935 9.05145061,7.38068463 9.04835469,7.35521134 C9.04782396,7.33855233 9.04490495,7.32110005 9.04251667,7.30329519 C9.03889002,7.27632347 9.03252127,7.25261304 9.02933689,7.22484803 C9.02730243,7.20616174 9.02836388,7.18950274 9.02606406,7.17390145 C9.02473723,7.16376502 9.0242065,7.1466653 9.01191127,7.1466653 C8.99943913,7.1466653 9.00103132,7.16112073 9.00032368,7.17275559 C8.99864304,7.20087317 9.00395033,7.23736432 9.00607325,7.25472846 C9.01005372,7.28690061 9.00704625,7.31819133 9.0106729,7.35098048 C9.01261891,7.36913791 9.01845694,7.38755977 9.02057985,7.40501206 C9.02491414,7.43586206 9.02801006,7.46732907 9.03199054,7.49685693 C9.03216745,7.49738579 9.03216745,7.4978265 9.03234436,7.49835536 C9.03331736,7.51245822 9.03508646,7.52612037 9.03747474,7.53916551 C9.03765165,7.54048765 9.03800547,7.5418098 9.03818238,7.5430438 C9.03835929,7.54374894 9.0385362,7.54445408 9.03871311,7.54507108 C9.03889002,7.54577623 9.03889002,7.54648137 9.03906693,7.54718651 L9.03924384,7.54745094 C9.04039375,7.55344466 9.04180903,7.55943837 9.04357813,7.56534394 C9.04702787,7.57724323 9.04543568,7.5868508 9.04870851,7.59910266 C9.0583501,7.63480053 9.05631563,7.67367153 9.06613413,7.70831168 C9.08046382,7.76022783 9.08807094,7.81760884 9.10275446,7.86908428 C9.10691184,7.88406857 9.10293137,7.89887657 9.10708875,7.91500671 C9.11124613,7.93148943 9.11558042,7.94726701 9.11956089,7.96357344 C9.12354136,7.9832293 9.12044544,8.0029733 9.12575273,8.02289359 C9.13044084,8.04087473 9.13592505,8.05964917 9.14114389,8.07710145 C9.14653964,8.09807946 9.14698191,8.12020332 9.15290839,8.14312047 C9.15963096,8.16612576 9.16741499,8.19133462 9.17157237,8.21478062 C9.17634894,8.24131162 9.17900259,8.27198534 9.18395606,8.29983849 C9.18846726,8.32319635 9.20129322,8.35131393 9.20695434,8.37678722 C9.20836961,8.38542522 9.20766198,8.39379879 9.20925416,8.40252494 C9.212527,8.42085865 9.2180112,8.43901609 9.22199167,8.45655652 C9.22393768,8.46466566 9.22323004,8.47180523 9.22561832,8.48079581 C9.23446381,8.51446638 9.24481304,8.55677496 9.25533917,8.59000482 C9.25790436,8.59934797 9.25914273,8.60895554 9.2613541,8.61847497 C9.26816513,8.64227355 9.27541843,8.65981398 9.27798362,8.67268284 C9.280195,8.68387698 9.28161028,8.69701027 9.2847062,8.70935027 C9.28957122,8.72759585 9.29523233,8.74328528 9.29868207,8.75915099 C9.30151263,8.77157914 9.30337018,8.78286143 9.30681992,8.79537771 C9.3109773,8.81045015 9.31716915,8.82437672 9.32327254,8.83883215 C9.33344485,8.86924144 9.33468322,8.9012373 9.34538626,8.93067702 C9.35175501,8.94812931 9.36024669,8.9649646 9.36608471,8.98365089 C9.37077282,9.00075061 9.37192273,9.02128789 9.37749539,9.04015047 C9.38731389,9.06932576 9.39854766,9.10255562 9.4092507,9.13199534 C9.42172284,9.16663549 9.42950687,9.20480135 9.44127138,9.23750236 C9.44604794,9.25072379 9.44525185,9.26350451 9.44949768,9.27804808 C9.45940463,9.31074908 9.47081532,9.34750466 9.48134145,9.38073452 C9.48717947,9.39845124 9.48735638,9.41528653 9.49407896,9.43212182 C9.50531273,9.45988682 9.52176534,9.48333283 9.53211456,9.51189112 C9.54096005,9.53648298 9.54281761,9.56081041 9.55219383,9.58337499 C9.5644006,9.61387242 9.5787303,9.64481057 9.5904948,9.67680643 C9.59863265,9.698754 9.60102093,9.72087787 9.61039715,9.74167958 C9.6183581,9.75966073 9.62870732,9.7779063 9.63666826,9.79579931 C9.64215246,9.81157688 9.64772512,9.82726631 9.65303242,9.84313203 C9.65754362,9.8552076 9.67028112,9.87565675 9.67912661,9.89187504 C9.68894511,9.91355818 9.69071421,9.93726861 9.69920588,9.96080276 C9.71212029,9.99650062 9.72954591,10.0329036 9.74476015,10.0662216 C9.75068663,10.0791786 9.75183655,10.0915186 9.75705539,10.1054452 C9.76590088,10.1293319 9.78155739,10.1471368 9.79164125,10.1690844 C9.80110593,10.1900624 9.80367112,10.2122744 9.81287043,10.2326354 C9.82649248,10.2624277 9.83684171,10.2777645 9.8366648,10.3204257 C9.83631098,10.324304 9.83533798,10.3272127 9.83100369,10.328623 C9.82321965,10.3317961 9.81402034,10.3183984 9.80888996,10.3135505 C9.78606859,10.2913385 9.78261885,10.2698317 9.76846607,10.2389817 C9.74652925,10.1921778 9.71866596,10.1481064 9.69725987,10.1023602 C9.6860261,10.0784735 9.6815149,10.0527358 9.67028112,10.0279676 C9.66373546,10.0130715 9.65391697,9.99791091 9.64719439,9.98327919 C9.63702208,9.96186048 9.63180324,9.93956033 9.62074638,9.91981633 C9.6048245,9.89161061 9.5922639,9.85820446 9.57961485,9.82629674 C9.57457292,9.81439745 9.57413064,9.80276259 9.5689118,9.79130402 C9.56325069,9.77905216 9.55422829,9.76776987 9.54865563,9.75604687 C9.54060623,9.73639101 9.5353874,9.71250429 9.52742645,9.69249586 C9.51017775,9.65459443 9.49062921,9.61475385 9.4759457,9.57473698 C9.46250055,9.53815769 9.45595489,9.5028124 9.44242129,9.46535168 C9.437114,9.45010296 9.42968378,9.43326768 9.42446495,9.41793082 C9.41977684,9.40409239 9.41959993,9.39201681 9.41500027,9.37888352 C9.40270504,9.3451248 9.38660625,9.30969137 9.37227655,9.27743108 C9.36520016,9.26147722 9.36334261,9.24569965 9.35706231,9.22877621 C9.3496321,9.20823892 9.34069815,9.18558621 9.33326794,9.1652252 C9.32327254,9.13842977 9.32291872,9.10705091 9.31256949,9.07875705 C9.29054422,9.01820289 9.26241556,8.95491631 9.24375158,8.89083644 C9.24030183,8.87629287 9.24118638,8.86104415 9.23685209,8.84623615 C9.22667978,8.81441657 9.21615365,8.778895 9.2062467,8.74487185 C9.19518983,8.70705856 9.1964282,8.66704169 9.1846637,8.63010983 C9.16962637,8.58233639 9.15273148,8.53244753 9.13769415,8.48546738 C9.13318295,8.47101195 9.13512895,8.45638023 9.13061775,8.44104337 C9.12044544,8.40428779 9.1079733,8.36145036 9.09567807,8.32751535 C9.08948622,8.31059192 9.08948622,8.29199378 9.08311747,8.27612806 C9.07551035,8.25691291 9.0557849,8.26396434 9.057554,8.28555935 C9.05888083,8.30530335 9.06569185,8.33077664 9.06772632,8.34091307 C9.06993769,8.35457521 9.06993769,8.36823736 9.07312207,8.38260465 C9.07896009,8.40825422 9.08745176,8.42949666 9.09452815,8.45276637 C9.10213527,8.47691752 9.10213527,8.49957024 9.10921167,8.52442653 C9.11283832,8.53667839 9.11761488,8.5506931 9.12141844,8.56223982 C9.12920248,8.58709611 9.12920248,8.6138034 9.13734033,8.63645612 C9.14388599,8.65382026 9.14875101,8.67550341 9.15441212,8.69454227 C9.15803877,8.70723484 9.15724268,8.71745942 9.16122315,8.72979942 C9.16812263,8.75227585 9.17537594,8.77484043 9.18245233,8.79731686 C9.18590207,8.810362 9.18448679,8.82173243 9.18758271,8.83380801 C9.19244773,8.85152472 9.19660511,8.87003473 9.20182395,8.8864293 C9.2062467,8.9024713 9.20589288,8.92494774 9.21164245,8.94169488 C9.22146094,8.97280932 9.23287162,9.00577475 9.24339776,9.03503818 C9.25516226,9.06765104 9.25657754,9.10185048 9.26843049,9.1349922 C9.28957122,9.19351907 9.30920821,9.26086022 9.33052584,9.32018037 C9.33601004,9.33542909 9.33415249,9.35094223 9.33892905,9.36751309 C9.34600545,9.39289824 9.35140119,9.41793082 9.36042359,9.44313968 C9.36484634,9.45521525 9.37263037,9.46729082 9.37784921,9.47830868 C9.38457178,9.49267597 9.38634088,9.50818912 9.39306345,9.52290898 C9.39819384,9.53480826 9.40597787,9.54688384 9.41048907,9.55948827 C9.41721164,9.5782627 9.41482336,9.60126799 9.42207666,9.61889656 C9.42773778,9.63317571 9.43587563,9.64868885 9.44109447,9.663585 C9.4471094,9.67980329 9.44693249,9.69707929 9.45365506,9.71215172 C9.45958154,9.72563758 9.46922313,9.7384183 9.47541497,9.75146344 C9.48116454,9.76397973 9.48249136,9.77684859 9.48753329,9.79059888 C9.49275213,9.80487802 9.50062462,9.8194216 9.5065511,9.83264303 C9.51327367,9.84753917 9.51362749,9.86463889 9.52052697,9.87988761 C9.52645345,9.89319718 9.53556431,9.90615418 9.54096005,9.92052147 C9.54591353,9.9355939 9.54662117,9.95207662 9.55184001,9.96776605 C9.56095086,9.99059505 9.57528056,10.0108679 9.58518751,10.0326392 C9.59261772,10.0491219 9.5932369,10.0673675 9.60066711,10.0841146 C9.60898188,10.1033298 9.62092329,10.1221042 9.62968032,10.1408786 C9.64126792,10.1659112 9.6499365,10.1927948 9.66063954,10.2166815 C9.67983425,10.2592545 9.68620301,10.3060584 9.70592845,10.34775 C9.72043505,10.3788644 9.73980668,10.408216 9.75360564,10.4385371 C9.76138968,10.4554606 9.76377796,10.4735298 9.7717389,10.4898363 C9.78058439,10.5083463 9.79571018,10.5239476 9.80455567,10.5426339 C9.81110133,10.5611439 9.81649708,10.5800946 9.82428111,10.5980757 C9.83516107,10.6218743 9.85081758,10.6428523 9.86160908,10.6657694 C9.86780093,10.6789027 9.87036612,10.692036 9.87655796,10.704993 C9.88849937,10.7303782 9.907871,10.7517087 9.9196355,10.7769176 C9.92582734,10.7934885 9.93175382,10.8101475 9.93759184,10.8268946 C9.95032935,10.8537782 9.97058552,10.8766072 9.98385376,10.9040196 C9.99322998,10.9241162 9.99959873,10.9453586 10.0115401,10.9636042 C10.0300272,10.9923388 10.0419686,11.0112895 10.0597481,11.0402004 C10.0715126,11.0590629 10.0866384,11.0867398 10.0963684,11.1071889 C10.1056562,11.1272855 10.1212242,11.1441208 10.1307774,11.1640411 C10.1400651,11.1835207 10.1521834,11.2045868 10.1625327,11.2230968 C10.1744741,11.2440748 10.1866809,11.259588 10.1996837,11.2792438 C10.2210898,11.311416 10.234535,11.3457917 10.2554988,11.3783164 C10.2701823,11.4009691 10.2869003,11.4238863 10.3029991,11.4457457 C10.3456343,11.5042726 10.4068451,11.60881 10.4332047,11.6440672 C10.4548761,11.6725373 10.4728325,11.706296 10.4928233,11.7361765 C10.5082144,11.7592699 10.5275861,11.7820989 10.5441271,11.8036939 C10.5580145,11.8214988 10.5690714,11.8407139 10.5825166,11.8592239 L10.5930427,11.8733268 C11.1404016,12.5666586 11.7028864,13.0257067 12.179216,13.3267146 L12.1790391,13.3268027 C12.4298972,13.4831682 12.5651448,13.5289143 12.5651448,13.5289143 C12.5972539,13.5420476 12.5753171,13.5650529 12.5591298,13.5751012 L9.73494166,15.3748024 C9.72591926,15.3806198 9.70415935,15.3966618 9.71282793,15.4144666 C9.71955051,15.4281288 9.7483868,15.4203722 9.75599393,15.4178161 C12.0224739,14.6249709 13.6672044,13.9731544 14.6726713,13.4977118 C15.6920256,13.0157465 16.0346115,12.7399475 15.9972835,12.6027972" id="Brush-wing"></path>
            </g>
        </g>
    </g>
</svg>