<svg xmlns="http://www.w3.org/2000/svg" width="24" height="19" viewBox="0 0 24 19">
    <path fill="#FEFEFE" fill-rule="evenodd" d="M18.79.149c-1.365-.314-2.77-.044-3.163.03-.029.003-.06.03-.088.038-.01.002-.02.016-.02.016a.912.912 0 0 0-.672.874c0 .494.41.9.922.9 0 0 .494-.065.831-.193.335-.131 3.161-.1 4.564 2.21.765 1.684.337 2.81.284 2.993 0 0-.182.437-.182.868 0 .496.41.81.916.81.426 0 .78-.056.886-.758h.005C24.583 3.017 21.23.706 18.79.149m.46 7.244a.62.62 0 0 0 .627-.585c.473-4.15-3.475-3.434-3.475-3.434a.627.627 0 0 0-.632.624c0 .339.283.618.632.618 2.835-.611 2.207 2.162 2.207 2.162a.63.63 0 0 0 .64.615m-9.52 5.49c-.246.179-.544.156-.673-.06-.134-.208-.083-.546.165-.721.283-.21.585-.148.713.06.126.216.034.537-.206.72m-2.277 1.9c-.72.083-1.302-.324-1.302-.912 0-.588.518-1.204 1.241-1.277.827-.077 1.363.389 1.363.982 0 .583-.582 1.126-1.302 1.208m.973-4.971c-3.862.442-3.415 3.983-3.415 3.983s-.04 1.12 1.034 1.692c2.26 1.197 4.588.474 5.762-1.011 1.18-1.487.49-5.102-3.38-4.664m.767 7.26c-3.84.177-6.946-1.708-6.946-4.216 0-2.51 3.106-4.524 6.946-4.697 3.842-.174 6.954 1.377 6.954 3.88-.002 2.509-3.112 4.862-6.954 5.034m8.176-8.148c-.912-.173-.469-.654-.469-.654s.894-1.44-.176-2.486c-1.329-1.297-4.547.164-4.547.164-1.23.374-.902-.171-.729-1.096 0-1.091-.384-2.936-3.659-1.845-3.27 1.098-6.08 4.935-6.08 4.935C-.246 10.496.011 12.467.011 12.467c.488 4.353 5.214 5.549 8.892 5.832 3.87.298 9.087-1.303 10.672-4.595 1.586-3.295-1.293-4.6-2.207-4.78" opacity=".8"/>
</svg>
