<svg xmlns="http://www.w3.org/2000/svg" xmlns:xlink="http://www.w3.org/1999/xlink" width="140" height="122" viewBox="0 0 140 122">
    <defs>
        <path id="a" d="M0 102.558h140V0H0z"/>
    </defs>
    <g fill="none" fill-rule="evenodd">
        <g transform="translate(0 10)">
            <mask id="b" fill="#fff">
                <use xlink:href="#a"/>
            </mask>
            <path fill="#272F38" fill-rule="nonzero" d="M127.239 5.875l1.96 1.96-4.273 4.272-1.96-1.96zM110.86 7.835l1.96-1.96 4.273 4.272-1.96 1.96zM115.133 17.98l1.96 1.96-4.274 4.272-1.96-1.96zM122.966 19.94l1.96-1.96 4.273 4.272-1.96 1.96zM133.762 13.657v2.772h-7.368v-2.772zM114.335 13.657v2.772h-8.039v-2.772zM118.643 1.647h2.773v6.699h-2.773zM118.643 21.741h2.773v6.698h-2.773z" mask="url(#b)"/>
            <g mask="url(#b)">
                <path fill="#FACF00" d="M93.842 41.753H41.646c-.992 0-1.798.805-1.798 1.8v40.232c0 .993.806 1.799 1.798 1.799h52.196c.994 0 1.799-.806 1.799-1.8V43.553c0-.994-.805-1.799-1.8-1.799"/>
                <path fill="#272F38" fill-rule="nonzero" d="M93.842 40.367a3.185 3.185 0 0 1 3.185 3.185v40.233a3.185 3.185 0 0 1-3.185 3.185H41.646a3.185 3.185 0 0 1-3.184-3.185V43.552a3.185 3.185 0 0 1 3.184-3.185h52.196zm0 2.772H41.646a.413.413 0 0 0-.412.413v40.233c0 .228.185.413.412.413h52.196a.413.413 0 0 0 .413-.413V43.552a.413.413 0 0 0-.413-.413z"/>
                <path fill="#282F39" d="M55.284 64.983c.073-1.232 2.035-1.963 3.706-2.32 2.248-.58 5.296-.943 8.492-.943h.217c6.029 0 12.415 1.234 12.415 3.263l-.075.288-2.25-.653v-.214c0-.942-4.061-1.96-10.016-1.96-5.956 0-10.018 1.018-10.018 1.96v.214l-2.398.582-.073-.217z"/>
                <path fill="#282F39" d="M67.628 47.496L55.285 77.535h1.962l10.381-23.648L78.15 77.535h1.89z"/>
                <path fill="#282F39" d="M67.628 68.17c-5.878 0-10.816-1.013-11.98-2.537-.216-.287-.363-.579-.29-.868l.074-.074 2.25-.65v.293c0 .937 4.068 1.956 10.016 1.956 5.95 0 10.017-1.019 10.017-1.956v-.294l2.25.578v.217c0 1.242-2.035 1.964-3.7 2.322-2.326.801-5.37 1.013-8.637 1.013"/>
                <path fill="#272F38" fill-rule="nonzero" d="M72.535 41.523c0 .765-.621 1.386-1.387 1.386h-7.345c-10.283 0-18.618-8.335-18.618-18.618v-.001a8.726 8.726 0 0 1 8.726-8.727h.004c10.283 0 18.62 8.336 18.62 18.618v7.342zm-2.773-7.342c0-8.752-7.095-15.846-15.847-15.846h-.004a5.954 5.954 0 0 0-5.954 5.955c0 8.753 7.094 15.847 15.846 15.847h5.96v-5.956zm6.975 5.956c6.55 0 11.858-5.307 11.858-11.856a4.254 4.254 0 0 0-4.254-4.256c-6.553 0-11.861 5.307-11.861 11.856v4.256h4.257zm-7.03 1.386V35.88c0-8.08 6.55-14.628 14.63-14.628a7.026 7.026 0 0 1 7.03 7.025c0 8.082-6.55 14.63-14.63 14.63h-5.643c-.766 0-1.386-.62-1.386-1.385zM23.597 75.857l1.96 1.96-3.548 3.547-1.96-1.96zM13.544 85.908l1.96 1.96-3.547 3.547-1.96-1.96zM9.996 77.817l1.96-1.96 3.549 3.547-1.96 1.96zM20.049 87.868l1.96-1.96 3.548 3.547-1.96 1.96zM27.682 82.604v2.772h-6.014v-2.772zM13.178 82.604v2.772H7.87v-2.772zM16.213 74.263h2.773v4.598h-2.773zM16.213 88.058h2.773v4.952h-2.773zM113.704 94.62a3.852 3.852 0 1 0-7.704 0 3.852 3.852 0 0 0 7.704 0zm2.772 0a6.623 6.623 0 1 1-13.247-.002 6.623 6.623 0 0 1 13.247.002zM23.565 40.574a1.382 1.382 0 1 0-2.765 0 1.382 1.382 0 0 0 2.765 0zm2.772 0a4.155 4.155 0 1 1-8.31 0 4.155 4.155 0 0 1 8.31 0z"/>
            </g>
        </g>
        <path stroke="#272F38" stroke-linejoin="round" stroke-width="3" d="M100 36s1.536 14.574-17.84 14.574M40.029 36s-1.536 14.574 17.84 14.574"/>
    </g>
</svg>
