<svg xmlns="http://www.w3.org/2000/svg" width="372" height="243" viewBox="0 0 372 243">
    <g fill="none" fill-rule="nonzero">
        <path fill="#FDF1AE" d="M111.516 134.388a15.95 15.95 0 0 0-5.242-1.695v-.108L126 130.97c-2.83-3-7.709-4.696-12.86-4.27-1.485.128-2.95.433-4.363.907a15.338 15.338 0 0 0-6.23 3.834c.692-2.524.72-5.184.081-7.723a18.74 18.74 0 0 0-1.55-4.179c-2.359-4.595-6.35-7.85-10.412-8.675l10.602 20.668a15.305 15.305 0 0 0-6.947-2.656 18.756 18.756 0 0 0-4.453 0 17.972 17.972 0 0 0-8.072 2.892 22.494 22.494 0 0 0-7.736-1.532 18.01 18.01 0 0 0-9.55 2.402l25.54-15.02c-4.944-1.886-11.528-1.115-17.233 2.248a24.05 24.05 0 0 0-4.534 3.453 19.615 19.615 0 0 0-5.106 8.059L58.234 102c-3.528 3.943-5.16 10.361-4.054 16.897a24.03 24.03 0 0 0 1.605 5.439 19.2 19.2 0 0 0 6.639 8.33 19.699 19.699 0 0 0-9.278.843 24.057 24.057 0 0 0-5.17 2.439c-5.623 3.508-9.341 8.992-9.976 14.24l22.093-13.869a20.17 20.17 0 0 0-4.662 6.282 24.031 24.031 0 0 0-1.814 5.439c-1.378 6.481 0 12.963 3.329 17.05l5.442-25.67c4.035 4.142 19.861 21.972 17.694 44.58l10.584-3.508s-7.718-27.639-25.694-46.375l-.136-.417 25.04 6.544c-2.258 3.472-3.11 7.47-2.375 10.76l14.066-17.576.118.344-.263-.1c-2.72 20.224 5.496 41.4 5.496 41.4l8.253-2.72c-12.506-13.797-10.103-33.54-9.631-36.676l.154-.055 15.345 13.498c.19-4.116-1.977-8.802-5.868-12.21a18.756 18.756 0 0 0-3.655-2.52zm-17.64 1.505a17.518 17.518 0 0 0-2.902 2.847 17.644 17.644 0 0 0-4.154-4.26l14.566-1.57h-.1a13.934 13.934 0 0 0-7.4 2.983h-.01z"/>
        <path fill="#FDF1AE" stroke="#272E38" stroke-linejoin="round" stroke-width="3" d="M0 243h372c-28.599-47.371-101.084-81-186-81S28.58 195.62 0 243z"/>
        <path fill="#FFF" stroke="#272F38" stroke-linejoin="round" stroke-width="3" d="M203 194h-6.718L151 37.91l6.718-1.91z"/>
        <path fill="#FFF" stroke="#272F38" stroke-linejoin="round" stroke-width="3" d="M145.298 3.707C104.44 15.515 76.484 53.3 77.008 96c7.7-6.588 16.814-12.349 26.888-15.252 10.074-2.903 16.307-2.11 25.692.064 7.701-6.588 22.848-14.087 32.932-16.999 10.083-2.912 27.468-5.342 36.89-3.167 7.7-6.588 11.65-10.856 21.742-13.768 10.093-2.912 21.435-3.64 30.848-1.42-22.144-36.471-65.833-53.566-106.702-41.75z"/>
        <path fill="#FEF3B3" stroke="#272F38" stroke-linejoin="round" stroke-width="3" d="M128.66 81l1.105-.318c7.56-6.254 22.479-13.39 32.212-16.18 9.732-2.791 26.806-5.264 36.11-3.382l.913-.264C184.455 23.541 158.534.47 144.629 4.443 130.723 8.415 121.082 41.685 128.66 81z"/>
        <path fill="#282F39" d="M165 39.03c-.327-.957-1.98-1.1-3.334-1.005a26.949 26.949 0 0 0-6.678 1.206l-.209.067c-4.597 1.397-9.194 3.827-8.75 5.482l.119.22 1.572-1.043-.046-.172c-.209-.756 2.662-2.516 7.205-3.885 4.543-1.368 7.859-1.492 8.068-.736l.045.172 1.953-.086.055-.22z"/>
        <path fill="#282F39" d="M151.9 28L168 48.498l-1.5.433-13.191-15.982-2.864 20.636L149 54z"/>
        <path fill="#282F39" d="M156.265 43.904c4.519-1.2 8.093-2.925 8.652-4.228a.732.732 0 0 0 0-.676h-1.906l.064.211c.21.668-2.695 2.224-7.268 3.433-4.574 1.21-7.928 1.32-8.139.652l-.064-.212-1.604.846.046.152c.275.846 1.998.98 3.363.896a24.017 24.017 0 0 0 6.865-1.04"/>
        <path fill="#FFF" stroke="#272F38" stroke-linejoin="round" stroke-width="3" d="M263.391 187.125l-14.8-25.818a4.539 4.539 0 0 0-4.1-2.288H131.763a4.537 4.537 0 0 0-4.345 2.27l-14.81 25.836c-1.255 2.194-.506 4.998 1.673 6.262a4.536 4.536 0 0 0 6.219-1.684l13.481-23.52H242.02l13.481 23.52a4.536 4.536 0 0 0 6.219 1.684c2.179-1.264 2.928-4.068 1.672-6.262z"/>
        <path fill="#FFF" stroke="#272F38" stroke-linejoin="round" stroke-width="3" d="M285.876 114.123c-2.881-2.83-7.533-2.83-10.414 0l-31.67 31.319H120.362c-4.06.014-7.346 3.265-7.361 7.279.015 4.014 3.302 7.264 7.36 7.279H245.23a12.821 12.821 0 0 0 6.77-2.12l33.831-33.458a7.249 7.249 0 0 0 .046-10.299z"/>
    </g>
</svg>
