<svg xmlns="http://www.w3.org/2000/svg" width="140" height="122" viewBox="0 0 140 122">
    <g fill="none" fill-rule="evenodd">
        <path fill="#F9CE0B" d="M82.228 98.983H54.801a7.899 7.899 0 0 1-7.899-7.899v-3.68h43.226v3.68a7.9 7.9 0 0 1-7.9 7.9"/>
        <path fill="#262F38" fill-rule="nonzero" d="M88.066 81.638v10.795c0 2.804-2.147 5.05-4.76 5.05H52.76c-2.612 0-4.759-2.246-4.759-5.05V30.052C48 27.246 50.146 25 52.76 25h30.546c2.613 0 4.76 2.246 4.76 5.052v11.527h3V30.052c0-4.433-3.458-8.052-7.76-8.052H52.76C48.46 22 45 25.62 45 30.052v62.38c0 4.432 3.458 8.052 7.76 8.052h30.546c4.301 0 7.76-3.62 7.76-8.051V81.638h-3z"/>
        <path fill="#262F38" fill-rule="nonzero" d="M89.566 34.153H54.16v3h35.406zM89.566 85.904H46.902v3h42.664z"/>
        <path fill="#F8CE0B" d="M92.042 77.77H72.695a2.949 2.949 0 0 1-2.95-2.95V62.061a2.95 2.95 0 0 1 2.95-2.95h19.347a2.95 2.95 0 0 1 2.949 2.95V74.82c0 1.63-1.32 2.95-2.95 2.95"/>
        <path fill="#262F38" fill-rule="nonzero" d="M92.042 79.02H72.695a4.199 4.199 0 0 1-4.2-4.2V62.061a4.2 4.2 0 0 1 4.2-4.2h19.347a4.2 4.2 0 0 1 4.199 4.2V74.82c0 2.32-1.88 4.2-4.2 4.2zm0-2.5c.939 0 1.699-.76 1.699-1.7V62.061a1.7 1.7 0 0 0-1.7-1.7H72.696a1.7 1.7 0 0 0-1.7 1.7V74.82c0 .94.761 1.7 1.7 1.7h19.347zM74.426 56.645v-2.792a7.899 7.899 0 1 1 15.798 0v2.942h3v-2.942c0-6.018-4.88-10.898-10.9-10.898-6.019 0-10.898 4.88-10.898 10.899v2.79h3z"/>
        <path fill="#262F38" d="M80.934 68.441a1.39 1.39 0 1 1 2.78 0 1.39 1.39 0 0 1-2.78 0M85.996 68.441a1.39 1.39 0 1 1 2.781 0 1.39 1.39 0 0 1-2.781 0M75.79 68.441a1.39 1.39 0 1 1 2.782 0 1.39 1.39 0 0 1-2.781 0"/>
    </g>
</svg>
