<svg xmlns="http://www.w3.org/2000/svg" width="26" height="19" viewBox="0 0 26 19">
    <path fill="#FEFEFE" fill-rule="evenodd" d="M25.903 8.341c-.911.157-2.232-.007-2.933-.302 1.456-.122 2.441-.792 2.822-1.7-.525.326-2.155.682-3.055.343a9.124 9.124 0 0 0-.143-.602c-.683-2.551-3.031-4.606-5.488-4.357a8.83 8.83 0 0 1 .601-.226c.269-.098 1.858-.361 1.608-.927-.212-.501-2.152.375-2.517.49.483-.182 1.28-.498 1.366-1.06a3.832 3.832 0 0 0-2.025.97c.202-.219.357-.488.388-.778-1.972 1.276-3.123 3.848-4.054 6.345-.732-.72-1.381-1.285-1.964-1.601-1.629-.885-3.582-1.811-6.644-2.963-.094 1.027.501 2.392 2.214 3.3-.371-.051-1.05.063-1.592.193.221 1.178.942 2.147 2.9 2.615-.894.06-1.356.267-1.776.711.409.818 1.404 1.781 3.19 1.583-1.988.869-.811 2.477.807 2.237-2.759 2.889-7.111 2.676-9.608.261 6.523 9.007 20.702 5.326 22.813-3.349 1.585.013 2.514-.556 3.09-1.183" opacity=".8"/>
</svg>
