<svg xmlns="http://www.w3.org/2000/svg" width="23" height="19" viewBox="0 0 23 19">
    <path fill="#FEFEFE" fill-rule="evenodd" d="M5.337 5.812c-.68 0-1.229-.559-1.229-1.247 0-.688.549-1.246 1.229-1.246s1.23.558 1.23 1.246-.55 1.247-1.23 1.247m5.237-2.493c.68 0 1.232.558 1.232 1.246a1.24 1.24 0 0 1-1.232 1.247 1.238 1.238 0 0 1-1.229-1.247c0-.688.55-1.246 1.229-1.246m4.622 1.652c.189 0 .375.008.561.018C14.845 2.117 11.723 0 8.014 0 3.588 0 0 3.01 0 6.725c0 2.196 1.255 4.146 3.195 5.375l-.59 2.293 2.84-1.298c.63.177 1.293.293 1.982.336a5.848 5.848 0 0 1-.215-1.579c0-3.794 3.582-6.881 7.984-6.881m2.406 6.042a1.18 1.18 0 0 1-1.172-1.187c0-.655.524-1.185 1.172-1.185.646 0 1.17.53 1.17 1.185a1.18 1.18 0 0 1-1.17 1.187m-4.519 0a1.18 1.18 0 0 1-1.172-1.187c0-.655.526-1.185 1.172-1.185.647 0 1.172.53 1.172 1.185a1.18 1.18 0 0 1-1.172 1.187m9.024.882c0-3.224-3.113-5.837-6.956-5.837-3.839 0-6.952 2.613-6.952 5.837 0 3.223 3.113 5.835 6.952 5.835.961 0 1.876-.163 2.708-.458l2.345 1.207-.514-2.163c1.479-1.071 2.417-2.653 2.417-4.421" opacity=".8"/>
</svg>
