<svg xmlns="http://www.w3.org/2000/svg" width="24" height="24" viewBox="0 0 24 24">
    <path fill="#272F38" fill-rule="evenodd" d="M19.602 14.824c.308-.08.674-.221.674-.442v-.001c0-.252-.5-.439-1.157-.536l-1.096-2.72-1.095 2.718a4.263 4.263 0 0 0-.478.096c-.302.08-.668.22-.68.44a.216.216 0 0 0 .058.154c.105.125.353.233.696.313l-.756 1.874h.346l.781-1.804c.333.05.719.078 1.129.078.402 0 .789-.028 1.126-.079l.782 1.805h.344l-.755-1.876.08-.02zm.258-.543c0 .083-.172.169-.47.236l-.208-.513c.424.072.678.178.678.277zm-1.837-1.97l.642 1.484a7.927 7.927 0 0 0-.641-.026h-.031c-.21 0-.416.008-.611.023l.64-1.481zm-1.836 1.97c0-.1.253-.204.675-.275l-.206.511c-.297-.067-.469-.154-.469-.235zm5.578-4.6H3.605V8.42h18.16V5.65a.384.384 0 0 0-.38-.388H2.616a.383.383 0 0 0-.38.387v12.217c0 .213.17.386.38.386h18.77c.21 0 .38-.173.38-.386V9.682zm-3.741 4.962a7.67 7.67 0 0 1-.986-.058l.274-.636a8.33 8.33 0 0 1 1.42 0l.275.636c-.278.036-.61.058-.983.058zm3.362 4.871H2.614c-.89 0-1.614-.74-1.614-1.648V5.649C1 4.74 1.724 4 2.614 4h18.772C22.276 4 23 4.74 23 5.65v12.216c0 .909-.724 1.648-1.614 1.648z"/>
</svg>
