<svg width="32px" height="32px" viewBox="0 0 32 32" version="1.1" xmlns="http://www.w3.org/2000/svg" xmlns:xlink="http://www.w3.org/1999/xlink">
    <g stroke="none" stroke-width="1" fill-rule="evenodd">
        <g transform="translate(1.000000, 1.000000)">    
            <path d="M25.6289619,4.39613269 C28.4493054,7.22930643 30.001365,10.9953879 29.9999991,15.0005666 C29.9965842,23.2654469 23.2950671,29.9899925 15.0626625,29.9899925 C15.0621502,29.9899925 15.0631747,29.9899925 15.0626625,29.9899925 L15.0565157,29.9899925 C12.5564873,29.9889641 10.1001693,29.3595985 7.91840707,28.1654834 L0,30.25 L2.11909932,22.4823391 C0.81188601,20.2092871 0.124130627,17.6306362 0.125155088,14.9887403 C0.128569961,6.72386 6.82940413,0 15.0624917,0 C19.0585759,0.00171395871 22.8087892,1.56278755 25.6289619,4.39613269 Z M14.8751702,27.5 C21.6958602,27.5 27.2474461,21.8945364 27.2499989,15.0044694 C27.2513604,11.6658416 25.9652374,8.52627309 23.6288741,6.16454887 C21.2923406,3.80282465 18.1851884,2.50137519 14.8801057,2.5 C8.05396971,2.5 2.50272423,8.10511985 2.50000119,14.9944992 C2.49898006,17.3555358 3.15318901,19.6550325 4.39199936,21.6444229 L4.68625723,22.1171459 L3.43604418,26.7280003 L8.11966291,25.4874032 L8.57168658,25.7583165 C10.4716837,26.8968054 12.6496004,27.4991405 14.8702347,27.5 L14.8751702,27.5 Z M21.7263734,18.1448269 C22.1015984,18.3340671 22.3516912,18.4286007 22.4454116,18.5860416 C22.539132,18.7434825 22.539132,19.4995789 22.226559,20.3816627 C21.9138142,21.2639192 20.4148023,22.0690971 19.6938759,22.1776294 C19.0474453,22.2747554 18.2295371,22.3153685 17.3307822,22.0279655 C16.7857962,21.8539337 16.0868409,21.621488 15.1916907,21.2322928 C11.4277684,19.5965321 8.96958107,15.7820039 8.78196856,15.5298565 C8.59435605,15.277882 7.25,13.4820881 7.25,11.6232142 C7.25,9.76451309 8.21930268,8.85080293 8.56311591,8.4726683 C8.90692913,8.09470648 9.31356594,8 9.56365873,8 C9.81375153,8 10.0641876,8.00241951 10.2828686,8.0133073 C10.5130501,8.02488637 10.8225335,7.92534088 11.1270391,8.66173561 C11.4396122,9.41783206 12.1900622,11.276706 12.2837826,11.4657733 C12.3776747,11.6546678 12.440155,11.8753616 12.3151944,12.1273361 C12.1900622,12.3793106 12.1275819,12.5369244 11.9399694,12.7574453 C11.7523569,12.9779662 11.545863,13.2499881 11.3771319,13.4190081 C11.1893477,13.6073841 10.9936677,13.8116598 11.2125204,14.1897944 C11.431373,14.567929 12.1845694,15.8048164 13.2999455,16.8061474 C14.7330442,18.0926347 15.9419691,18.4915079 16.3171941,18.6805753 C16.6924191,18.8694698 16.9112717,18.8380161 17.1301244,18.5860416 C17.3491487,18.3338942 18.0681869,17.4832641 18.3182797,17.1051295 C18.5685442,16.7271677 18.818637,16.7900749 19.1624502,16.916235 C19.5062634,17.0422223 21.3509767,17.9557596 21.7263734,18.1448269 Z"></path>
            <g>
                <mask>
                    <path d="M25.6289619,4.39613269 C28.4493054,7.22930643 30.001365,10.9953879 29.9999991,15.0005666 C29.9965842,23.2654469 23.2950671,29.9899925 15.0626625,29.9899925 C15.0621502,29.9899925 15.0631747,29.9899925 15.0626625,29.9899925 L15.0565157,29.9899925 C12.5564873,29.9889641 10.1001693,29.3595985 7.91840707,28.1654834 L0,30.25 L2.11909932,22.4823391 C0.81188601,20.2092871 0.124130627,17.6306362 0.125155088,14.9887403 C0.128569961,6.72386 6.82940413,0 15.0624917,0 C19.0585759,0.00171395871 22.8087892,1.56278755 25.6289619,4.39613269 Z M14.8751702,27.5 C21.6958602,27.5 27.2474461,21.8945364 27.2499989,15.0044694 C27.2513604,11.6658416 25.9652374,8.52627309 23.6288741,6.16454887 C21.2923406,3.80282465 18.1851884,2.50137519 14.8801057,2.5 C8.05396971,2.5 2.50272423,8.10511985 2.50000119,14.9944992 C2.49898006,17.3555358 3.15318901,19.6550325 4.39199936,21.6444229 L4.68625723,22.1171459 L3.43604418,26.7280003 L8.11966291,25.4874032 L8.57168658,25.7583165 C10.4716837,26.8968054 12.6496004,27.4991405 14.8702347,27.5 L14.8751702,27.5 Z M21.7263734,18.1448269 C22.1015984,18.3340671 22.3516912,18.4286007 22.4454116,18.5860416 C22.539132,18.7434825 22.539132,19.4995789 22.226559,20.3816627 C21.9138142,21.2639192 20.4148023,22.0690971 19.6938759,22.1776294 C19.0474453,22.2747554 18.2295371,22.3153685 17.3307822,22.0279655 C16.7857962,21.8539337 16.0868409,21.621488 15.1916907,21.2322928 C11.4277684,19.5965321 8.96958107,15.7820039 8.78196856,15.5298565 C8.59435605,15.277882 7.25,13.4820881 7.25,11.6232142 C7.25,9.76451309 8.21930268,8.85080293 8.56311591,8.4726683 C8.90692913,8.09470648 9.31356594,8 9.56365873,8 C9.81375153,8 10.0641876,8.00241951 10.2828686,8.0133073 C10.5130501,8.02488637 10.8225335,7.92534088 11.1270391,8.66173561 C11.4396122,9.41783206 12.1900622,11.276706 12.2837826,11.4657733 C12.3776747,11.6546678 12.440155,11.8753616 12.3151944,12.1273361 C12.1900622,12.3793106 12.1275819,12.5369244 11.9399694,12.7574453 C11.7523569,12.9779662 11.545863,13.2499881 11.3771319,13.4190081 C11.1893477,13.6073841 10.9936677,13.8116598 11.2125204,14.1897944 C11.431373,14.567929 12.1845694,15.8048164 13.2999455,16.8061474 C14.7330442,18.0926347 15.9419691,18.4915079 16.3171941,18.6805753 C16.6924191,18.8694698 16.9112717,18.8380161 17.1301244,18.5860416 C17.3491487,18.3338942 18.0681869,17.4832641 18.3182797,17.1051295 C18.5685442,16.7271677 18.818637,16.7900749 19.1624502,16.916235 C19.5062634,17.0422223 21.3509767,17.9557596 21.7263734,18.1448269 Z"></path>
                </mask>
            </g>
        </g>
    </g>
</svg>