<svg xmlns="http://www.w3.org/2000/svg" width="24" height="24" viewBox="0 0 24 24">
    <g fill="none" fill-rule="evenodd">
        <g fill="#FFF">
            <path d="M11 16.875a.875.875 0 1 0 1.75 0 .875.875 0 0 0-1.75 0z"/>
            <path fill-rule="nonzero" d="M11.103 8.882v5.696h1.5V8.882z"/>
        </g>
        <g fill="#FFF">
            <path d="M11.5 16.375a.875.875 0 1 0 1.75 0 .875.875 0 0 0-1.75 0z"/>
            <path fill-rule="nonzero" d="M11.603 8.382v5.696h1.5V8.382z"/>
        </g>
        <path fill="#272F38" stroke="#262F38" stroke-linejoin="round" stroke-width="1.5" d="M21.5 12c0 5.246-4.253 9.5-9.5 9.5S2.5 17.246 2.5 12A9.5 9.5 0 0 1 12 2.5a9.5 9.5 0 0 1 9.5 9.5z"/>
        <path fill="#FFF" fill-rule="nonzero" d="M15.5 14.086c0 .705-.263 1.286-.789 1.745-.526.458-1.26.747-2.204.866V18.5h-.998v-1.733a10.15 10.15 0 0 1-1.679-.136c-.541-.09-.985-.216-1.33-.377v-1.212c.428.192.922.349 1.481.47a7.24 7.24 0 0 0 1.528.183v-3.42c-1.057-.336-1.799-.727-2.224-1.172-.425-.446-.638-1.021-.638-1.726 0-.678.262-1.235.785-1.67.523-.435 1.216-.7 2.077-.793V5.5h.998v1.399a7.82 7.82 0 0 1 2.745.575l-.402 1.018a7.825 7.825 0 0 0-2.343-.544v3.372c.81.26 1.415.512 1.817.758.403.246.699.528.89.847.19.318.286.706.286 1.161zm-1.315.101c0-.373-.115-.674-.344-.905-.23-.23-.674-.46-1.334-.688v3.023c1.119-.155 1.678-.632 1.678-1.43zm-4.23-4.825c0 .394.115.71.347.948.232.238.634.464 1.207.676V7.979c-.51.083-.897.245-1.16.485-.263.241-.395.54-.395.898z"/>
    </g>
</svg>
