<svg xmlns="http://www.w3.org/2000/svg" width="101" height="18" viewBox="0 0 101 18">
    <g fill="#FFF" fill-rule="evenodd">
        <path d="M43.491 14.892l-.003-5.056c0-.814.463-.873.463-.873l.048-.045H41.52l.045.045s.464.06.464.873.004 1.984.004 1.984h-3.409V9.836c0-.814.466-.87.466-.87l.045-.047H36.66l.048.047s.462.056.462.87v5.056c0 .814-.462.884-.462.884l-.048.046h2.476l-.045-.046s-.466-.07-.466-.884v-2.395h3.409v2.395c0 .814-.462.884-.462.884l-.048.046h2.479l-.048-.046s-.464-.07-.464-.884zM30.488 8.919c-.818 0-.932-.078-.932-.078l-.004 1.374.048-.035s.373-.595 1.187-.595h1.163v5.307c0 .814-.46.884-.46.884l-.048.046h2.477l-.047-.046s-.464-.07-.464-.884l.006-5.307h1.136c.817 0 1.21.595 1.21.595l.047.035.003-1.374s-.115.078-.933.078h-4.39zm16.394 4.268l1.07-2.24.976 2.24h-2.046zm4.435 1.701L48.27 8.572l-3.027 6.316c-.453.864-.953.883-.953.883l-.047.048h2.071l-.045-.048s-.58-.114-.213-.883l.543-1.114h2.597l.526 1.114c.369.769-.21.883-.21.883l-.048.048h2.854l-.048-.048s-.526-.004-.952-.883zm4.89-5.969l.048.047s.613.171.152.887c-.227.348-.908 1.32-1.53 2.26-.624-.94-1.296-1.918-1.52-2.266-.462-.716.152-.88.152-.88l.046-.048h-2.853l.046.047s.413.068.954.881c.227.344 1.386 1.957 2.01 2.898v2.147c0 .814-.463.884-.463.884l-.046.046h2.476l-.048-.046s-.46-.07-.46-.884c0-.344-.005-1.207-.005-2.147.624-.941 1.785-2.548 2.014-2.892.537-.813 1.153-.887 1.153-.887l.048-.047h-2.174zm-36.415 6.247c-1.49 0-2.519-.973-2.519-2.75 0-1.774 1-2.935 2.573-2.935 1.633 0 2.22 1.266 2.22 1.266l.039.033V9.286s-.978-.476-2.37-.476c-2.515 0-4.093 1.543-4.093 3.616 0 1.667 1.303 3.508 3.99 3.508 1.014 0 2.196-.4 2.196-.4l.544-1.85-.06.038s-.881 1.444-2.52 1.444zm5.268-1.979l1.07-2.24.975 2.24H25.06zm4.435 1.701l-3.048-6.316-3.028 6.316c-.453.864-.954.883-.954.883l-.045.048h2.073l-.05-.048s-.579-.114-.21-.883l.543-1.114h2.595l.527 1.114c.367.769-.212.883-.212.883l-.045.048h2.854l-.049-.048s-.527-.004-.951-.883zM68.032 13.187l1.068-2.24.977 2.24h-2.045zm4.432 1.701l-3.046-6.316-3.027 6.316c-.454.864-.952.883-.952.883l-.048.048h2.07l-.044-.048s-.581-.114-.214-.883l.546-1.114h2.593l.528 1.114c.367.769-.212.883-.212.883l-.046.048h2.853l-.048-.048s-.526-.004-.953-.883zM92.706 8.963l.046-.045h-2.476l.046.045s.463.07.463.883V14.9c0 .813-.463.881-.463.881l-.046.048h2.476l-.046-.048s-.463-.068-.463-.881V9.846c0-.814.463-.883.463-.883M77.267 15.166c-1.49 0-2.518-.973-2.518-2.75 0-1.774.999-2.935 2.575-2.935 1.63 0 2.218 1.266 2.218 1.266l.039.033V9.286s-.978-.476-2.37-.476c-2.515 0-4.093 1.543-4.093 3.616 0 1.667 1.303 3.508 3.99 3.508 1.015 0 2.196-.4 2.196-.4l.543-1.85-.06.038s-.881 1.444-2.52 1.444M84.507 8.918l.044.048s.463.068.463.881v5.054c0 .813-.463.88-.463.88l-.044.049h2.474l-.048-.048s-.46-.068-.46-.881V12.455h1.46c.816 0 .885.357.885.357l.048.048v-1.484l-.048.048s-.069.354-.884.354h-1.462V9.57h1.757c.818 0 1.157.467 1.157.467l.048.037V8.84s-.118.078-.935.078h-3.992zM83.174 8.963l.046-.045h-2.478l.048.045s.463.07.463.883V14.9c0 .813-.463.881-.463.881l-.048.048h2.478l-.046-.048s-.465-.068-.465-.881V9.846c0-.814.465-.883.465-.883M100.123 13.722s-.878 1.444-2.52 1.444c-1.488 0-2.52-.973-2.52-2.75 0-1.774 1-2.934 2.575-2.934 1.633 0 2.22 1.265 2.22 1.265l.04.033V9.286s-.981-.478-2.371-.478c-2.513 0-4.093 1.545-4.093 3.618 0 1.667 1.302 3.508 3.992 3.508 1.013 0 2.194-.4 2.194-.4l.544-1.85-.06.038zM62.772 9.846v-.267h.325c.398 0 .812 0 1.059.081.653.193.984.69.984 1.47 0 .64-.408 1.588-1.534 1.588-.325 0-.664-.129-.834-.206V9.846zm1.318 3.534c1.528 0 2.44-1.153 2.44-2.266 0-.616-.23-1.712-1.774-2.1-.345-.088-.73-.093-1.233-.093l-2.718-.003.046.045s.463.07.463.883V14.9c0 .813-.463.881-.463.881l-.046.048h2.474l-.046-.048s-.461-.068-.461-.881v-1.762c.216.096.651.241 1.318.241zM4.264 8.702c-.045.006-.096-.06-.118-.09-.007-.01-.032-.062-.025-.07.01-.008.061.01.075.02a.221.221 0 0 1 .078.13c.001.006-.006.01-.01.01m-1.102-.61c-.031.012-.108-.074-.129-.106-.04-.06-.078-.124-.12-.181-.039-.052-.081-.089-.091-.178-.001-.01-.008-.038-.001-.037.042.003.083.077.103.105.016.02.033.041.047.063.02.031.03.07.05.099.027.036.06.07.088.105.015.02.035.037.044.063.005.013.018.064.009.068m-.316-.012c-.023-.002-.033-.017-.048-.028a.172.172 0 0 1-.072-.14c0-.008.002-.01.006-.01.046 0 .094.071.112.104.005.01.016.036.015.055 0 .013-.006.018-.013.019m-1.05.211c0 .005-.005.012-.013.012-.05 0-.064-.076-.087-.11-.017-.028-.033-.059-.052-.087-.013-.02-.03-.04-.04-.063-.014-.029-.02-.06-.037-.085-.008-.013-.023-.025-.032-.038a.5.5 0 0 1-.07-.121l-.012-.05c-.01-.027-.023-.057-.032-.086a.15.15 0 0 1-.005-.056c.002-.005.004-.008.007-.007.039.006.075.099.094.132.02.037.053.066.071.104.016.033.021.076.04.11.014.024.038.045.053.069.021.031.035.072.051.107.018.04.044.07.06.108.006.016.01.044.005.061m-.195-1.426a.46.46 0 0 1-.027-.056c-.008-.02-.01-.04-.018-.06l-.092-.201c-.013-.027-.03-.078-.018-.112.002-.005.012-.001.016.003.01.008.017.014.026.024.006.01.008.02.014.029.015.022.034.045.045.07.025.052.03.112.055.163.016.034.043.063.06.098.008.019.014.039.02.059.003.014.003.035.003.046.001.018 0 .03-.008.03-.046-.003-.059-.06-.076-.093m9.975 4.404c-.058-.213-.685-.122-1.2-.169a7.341 7.341 0 0 1-1.793-.376 13.07 13.07 0 0 1-1.9-.809s-.232-.121-.256-.135l-.132-.078a1.027 1.027 0 0 0-.102-.056c-.04-.016-.066-.038-.1-.06-.036-.02-.084-.043-.12-.065-.052-.032-.085-.058-.134-.093-.03-.022-.046-.029-.087-.054-.024-.015-.07-.039-.091-.053-.046-.03-.075-.055-.121-.087-.028-.02-.049-.032-.083-.052-.033-.02-.064-.047-.093-.068-.016-.012-.04-.026-.055-.04a1.56 1.56 0 0 0-.101-.09c-.033-.024-.063-.053-.095-.077-.02-.015-.054-.044-.074-.058-.052-.037-.084-.065-.135-.102-.034-.025-.061-.057-.094-.08-.037-.029-.07-.06-.11-.087a.552.552 0 0 1-.07-.058c-.026-.03-.049-.05-.074-.079-.019-.02-.056-.043-.076-.065a.68.68 0 0 0-.12-.114c-.024-.023-.032-.034-.041-.046a.775.775 0 0 0-.073-.079 1.41 1.41 0 0 1-.048-.045c-.01-.01-.024-.03-.038-.049l-.033-.043-.06-.064a3.579 3.579 0 0 1-.042-.045A.272.272 0 0 1 4 7.86a.27.27 0 0 0-.025-.033c-.015-.017-.026-.01-.03-.009-.009.006-.012.024-.002.045a.635.635 0 0 0 .044.069l.006.009.014.023c.007.012.014.024.023.036.019.026.04.047.06.067a.523.523 0 0 1 .054.066c.011.016.022.032.037.048a.167.167 0 0 1 .019.023c.006.009.013.018.02.025l.035.035c.018.02.038.04.057.055l.044.042c.04.046.08.091.115.134.02.025.055.044.077.06.025.019.045.05.064.076.015.017.047.046.063.065.039.049.065.075.115.112.03.023.054.043.078.073.014.018.058.06.074.08.041.053.06.102.054.103-.028.008-.098-.053-.138-.08-.034-.022-.04-.031-.071-.055-.007-.006-.058-.042-.075-.063a.92.92 0 0 1-.064-.068c-.057-.073-.077-.077-.143-.141-.048-.047-.107-.09-.155-.131l-.04-.045c-.017-.015-.036-.03-.05-.045-.022-.028-.051-.081-.077-.1-.028-.021-.048-.04-.075-.062-.01-.006-.02-.02-.03-.027-.012-.01-.028-.02-.039-.033l-.096-.124c-.015-.02-.036-.036-.05-.056-.033-.043-.058-.088-.09-.13-.045-.058-.108-.099-.151-.157-.044-.06-.07-.13-.112-.193-.018-.027-.046-.046-.065-.072-.012-.016-.018-.033-.029-.05-.022-.033-.048-.065-.07-.098-.03-.043-.05-.09-.08-.135-.004-.006-.014-.036-.032-.059-.018-.022-.033-.048-.053-.08-.02-.031-.03-.053-.045-.074-.015-.022-.024-.043-.034-.059l-.038-.055c-.027-.042-.034-.06-.063-.099-.017-.023-.035-.042-.05-.037-.013.009-.009.023-.006.034.013.034.013.028.026.052.022.04.03.06.054.096.011.018.03.059.046.08l.042.068c.01.02.027.071.044.093a.55.55 0 0 1 .04.07c.024.045.053.082.077.118l.048.09c.032.047.07.092.101.14l.058.104c.018.028.044.052.063.08.022.035.035.072.057.106.018.027.041.052.059.078.03.046.058.09.09.133.017.023.04.043.058.067.024.033.043.071.069.099.03.028.038.044.061.072.035.041.122.164.108.165-.051.007-.15-.104-.191-.145-.032-.031-.068-.054-.09-.084-.033-.044-.057-.094-.09-.137-.012-.015-.03-.028-.042-.043-.023-.029-.044-.06-.07-.085-.01-.01-.023-.02-.033-.031-.04-.052-.073-.106-.113-.16-.016-.022-.037-.04-.053-.063-.013-.017-.02-.035-.031-.053-.016-.025-.036-.048-.052-.072-.012-.018-.02-.036-.031-.054-.021-.032-.05-.06-.07-.092-.017-.026-.022-.061-.04-.087-.043-.067-.091-.135-.134-.202-.011-.017-.015-.036-.026-.054-.035-.054-.068-.114-.102-.168-.013-.02-.019-.043-.032-.062-.016-.025-.04-.044-.056-.068-.012-.019-.017-.039-.027-.06-.013-.028-.03-.057-.045-.083-.01-.017-.014-.034-.024-.05a1.806 1.806 0 0 1-.11-.205c-.018-.038-.045-.073-.062-.11l-.058-.126-.03-.082c-.02-.044-.051-.081-.072-.126-.013-.03-.02-.06-.033-.085-.008-.015-.023-.028-.034-.021-.01.006-.013.02-.006.044.014.046.04.098.05.124.025.052.036.106.06.16.013.028.032.056.046.084l.067.148c.014.028.024.055.04.08.007.015.019.03.025.045.015.034.02.07.035.101.016.033.042.061.057.094.08.169.16.33.256.48.027.041.04.092.068.134.027.043.066.076.093.119.023.035.029.083.05.12.03.057.072.105.106.158.01.014.012.032.021.047.013.02.03.04.043.06.017.028.026.06.045.085.02.028.05.051.07.079.026.035.043.075.07.11.017.024.046.04.064.065l.16.208c.045.057.124.14.161.215.012.023.052.078.043.088-.021.015-.121-.094-.138-.11-.042-.04-.079-.095-.115-.141-.008-.01-.105-.105-.113-.115a.726.726 0 0 1-.028-.038c-.026-.04-.043-.088-.071-.126-.012-.015-.03-.027-.042-.042-.022-.03-.038-.063-.06-.092-.034-.047-.077-.088-.112-.135-.037-.05-.064-.11-.101-.161-.02-.025-.043-.048-.061-.074-.008-.012-.011-.024-.02-.036-.013-.021-.031-.045-.042-.067-.01-.022-.017-.042-.029-.061l-.119-.188c-.017-.028-.027-.058-.045-.085-.03-.046-.067-.087-.096-.133-.036-.054-.054-.12-.09-.174-.022-.036-.05-.07-.072-.106-.026-.039-.038-.084-.06-.125-.02-.036-.048-.07-.065-.106-.019-.039-.032-.078-.05-.118-.011-.022-.027-.043-.037-.065-.012-.028-.015-.056-.027-.083-.035-.075-.087-.147-.122-.222a2.02 2.02 0 0 1-.069-.165c-.011-.031-.016-.06-.03-.09-.032-.069-.07-.141-.101-.21a8.243 8.243 0 0 0-.04-.11c-.002-.01-.003-.02-.007-.031-.015-.032-.034-.064-.046-.096a12.468 12.468 0 0 0-.036-.112c-.049-.121-.093-.258-.138-.385-.007-.023-.008-.051-.017-.076l-.071-.195c-.013-.032-.045-.021-.038.012.01.045.016.056.023.09l.011.055c.005.02.016.044.023.064.012.039.013.077.026.114.019.053.038.103.055.157l.016.08c.008.026.018.051.027.074.027.066.053.13.076.195l.029.112c.01.02.024.042.033.062.008.018.01.035.018.054.017.042.032.085.051.127.016.036.035.07.05.108.005.018.005.034.012.051.04.111.085.228.133.332.011.026.015.053.027.08l.033.067.015.043c.015.031.04.057.055.087.041.087.078.168.13.242.047.068.067.158.104.24.017.038.04.071.062.105.01.018.017.037.026.056.024.042.037.08.064.117.023.03.02.037.04.08a.5.5 0 0 1 .022.094c-.007.005-.047-.02-.06-.034-.02-.02-.048-.047-.067-.092l-.04-.08c-.026-.054-.069-.1-.1-.148-.018-.03-.028-.06-.043-.092l-.085-.173c-.011-.024-.029-.048-.042-.07-.015-.022-.022-.046-.037-.069a1.491 1.491 0 0 1-.092-.159c-.019-.04-.029-.08-.047-.118-.006-.013-.016-.025-.024-.036-.013-.02-.018-.043-.029-.065-.014-.03-.035-.059-.05-.09-.028-.061-.044-.125-.073-.185-.014-.029-.037-.053-.05-.081-.02-.044-.023-.098-.043-.143-.054-.12-.115-.244-.16-.37-.008-.02-.01-.044-.017-.067-.02-.054-.046-.105-.066-.159-.009-.024-.011-.047-.02-.071-.013-.037-.03-.075-.044-.112-.004-.012-.005-.025-.01-.038-.016-.034-.026-.076-.042-.112-.009-.019-.022-.038-.03-.058-.012-.036-.009-.081-.021-.116l-.06-.157c-.01-.029-.012-.058-.023-.087l-.037-.105c-.013-.036-.012-.072-.024-.11l-.03-.082c-.017-.05-.024-.102-.043-.148l-.009-.025c-.005-.013-.013-.025-.026-.022-.014.004-.014.023-.013.035.002.036.016.07.026.099.012.03.018.064.026.094.005.018.004.04.009.06.007.029.017.057.025.085.007.029.004.056.01.078.018.062.039.131.06.19.009.03.01.066.019.092l.034.094c.01.026.013.051.023.076.012.026.025.054.035.083.012.038.01.076.024.111.021.059.048.114.068.17.007.02.009.042.016.063.018.049.03.101.048.15.025.07.058.137.083.206.025.067.028.149.056.212.015.032.045.05.06.08.008.02.006.043.013.066.008.026.02.051.03.076l.017.065c.009.025.027.05.039.076.018.04.028.083.05.118.018.027.04.053.055.083.016.034.022.07.037.106.024.05.051.1.07.154.019.048.025.1.048.143.023.042.053.08.076.123l.044.094c.012.026.035.048.05.074.017.032.035.066.05.099.011.024.015.048.03.07l.057.092c.02.03.04.067.054.102.01.026.021.054.036.076.016.023.038.043.052.067.014.025.033.105.025.109-.017.006-.066-.041-.08-.058-.038-.046-.057-.109-.092-.159-.037-.053-.061-.083-.09-.144-.017-.036-.047-.1-.067-.131-.02-.03-.046-.056-.062-.09-.012-.027-.018-.06-.03-.087-.018-.04-.056-.065-.075-.106-.022-.045-.031-.092-.054-.134-.01-.02-.026-.044-.036-.065-.013-.027-.019-.053-.032-.08-.025-.055-.065-.102-.09-.157-.027-.057-.042-.118-.07-.175-.014-.03-.039-.056-.053-.087-.02-.041-.03-.084-.05-.125-.011-.025-.029-.05-.04-.074-.017-.036-.023-.075-.04-.112l-.114-.255c-.014-.032-.018-.066-.033-.099a23.282 23.282 0 0 1-.043-.085c-.033-.074-.044-.16-.078-.235-.016-.037-.038-.073-.053-.114-.023-.064-.032-.13-.056-.194-.035-.1-.064-.204-.1-.302-.01-.03-.012-.06-.023-.09l-.032-.087c-.008-.023-.012-.057-.019-.087l-.08-.253c-.006-.02-.008-.056-.014-.082l-.018-.045c-.007-.02-.006-.036-.013-.056-.02-.062-.036-.133-.056-.194-.005-.02-.007-.048-.013-.07-.028-.088-.042-.195-.077-.277-.006-.015-.016-.032-.032-.028-.015.004-.012.022-.01.036.004.04.02.075.026.108.003.015.002.036.004.053.002.015.003.034.008.05.017.052.035.113.05.165.006.025.002.063.008.091.023.084.04.183.07.258.027.068.033.15.052.223.007.032.009.064.013.096.004.031.022.052.031.079.008.019.007.035.014.055.016.053.028.106.048.159.013.037.033.071.046.108.006.016.004.03.008.049.01.036.016.073.026.109l.078.224c.014.04.019.08.033.118l.173.468.028.103c.013.035.034.064.048.096.019.04.025.083.04.125.019.05.042.089.061.141.01.025.018.052.03.076.009.018.024.036.033.054.015.03.018.07.032.1.016.032.042.057.06.086.016.027.018.061.032.092.021.047.05.09.07.14.008.022.012.04.022.06.01.024.028.046.04.07V7.1a.061.061 0 0 1 .004.012c.003.01.006.023.01.031a.27.27 0 0 0 .025.047l.024.028a.094.094 0 0 1 .012.015c.02.032.023.078.04.114.016.035.046.063.063.099.014.027.02.095.004.098-.071 0-.076-.099-.1-.15-.018-.04-.047-.074-.068-.112a.204.204 0 0 1-.016-.04.366.366 0 0 0-.016-.039l-.015-.03-.033-.049v-.002c-.028-.044-.046-.106-.065-.135-.01-.016-.025-.033-.035-.05-.018-.027-.027-.06-.042-.091-.013-.028-.034-.056-.047-.085-.016-.035-.017-.079-.034-.114-.008-.019-.024-.038-.033-.056-.02-.04-.031-.084-.051-.123-.01-.02-.026-.037-.036-.056-.015-.034-.024-.07-.041-.101a2.547 2.547 0 0 1-.108-.21c-.018-.042-.024-.083-.042-.124-.016-.035-.038-.07-.053-.102-.01-.023-.014-.045-.023-.07-.014-.039-.032-.08-.047-.118-.008-.027-.015-.086-.023-.11-.011-.03-.027-.061-.04-.09-.019-.043-.025-.088-.044-.131-.015-.034-.032-.069-.044-.103-.01-.03-.014-.056-.026-.083l-.029-.065c-.009-.025-.015-.067-.023-.1-.013-.038-.029-.073-.04-.11-.007-.027-.008-.09-.015-.107-.038-.114-.074-.235-.11-.35-.017-.052-.025-.104-.04-.156-.005-.02-.005-.046-.01-.067-.011-.033-.025-.066-.036-.1l-.013-.07c-.006-.023-.018-.047-.027-.071-.022-.069-.034-.141-.055-.208-.007-.028-.006-.064-.014-.09-.026-.082-.032-.178-.057-.265l-.015-.074c-.043-.162-.062-.344-.11-.5-.008-.03.003-.069-.005-.1a1.454 1.454 0 0 0-.03-.102C.525 2.62.525 2.605.52 2.591c-.008-.027-.02-.047-.034-.044-.017.005-.013.02-.013.043a.452.452 0 0 0 .013.096c.006.025.002.045.009.067.015.051.02.122.028.168.003.019 0 .045.005.067.004.023.022.053.027.078.005.034.004.078.01.114l.024.09c.007.024.001.048.009.07.008.025.02.048.025.075.004.028 0 .07.005.096.037.142.048.312.09.449.005.02.006.04.011.06.035.12.062.248.098.367.004.018.003.037.008.058.012.042.023.087.032.13.004.018.004.036.009.055.012.044.028.087.042.13.005.02.008.042.011.062.004.017.013.036.018.052.007.025.005.049.013.071.005.014.016.029.02.043.005.025.009.05.016.076.01.03.026.06.039.09.009.024.008.05.018.073a4.3 4.3 0 0 1 .052.137c.013.036.015.074.028.111l.03.074c.005.02.008.038.015.058.006.018.026.047.038.07.011.026.006.061.015.089.008.029.024.052.034.078.01.027.009.055.016.083.008.02.022.041.031.06l.025.07c.007.015.02.03.026.045.013.026.023.055.035.082.015.04.017.088.029.132.003.013.003.044-.005.047-.018.003-.039-.025-.051-.043a.554.554 0 0 1-.057-.098l-.013-.04c-.012-.03-.02-.064-.035-.094-.008-.019-.02-.039-.026-.059-.01-.028-.005-.062-.017-.087-.01-.02-.026-.037-.036-.058-.007-.019-.01-.04-.018-.058-.01-.023-.024-.044-.037-.065-.01-.021-.009-.042-.016-.067a.55.55 0 0 0-.03-.085c-.012-.027-.028-.055-.04-.083-.006-.015-.009-.031-.013-.047l-.027-.065C1.002 5.4.998 5.382.992 5.367.982 5.344.969 5.32.96 5.293c-.007-.02-.008-.042-.016-.062l-.037-.112c-.008-.027-.011-.055-.019-.083-.01-.032-.024-.064-.036-.096-.01-.026-.011-.054-.019-.08-.012-.035-.03-.067-.041-.103-.007-.029-.009-.058-.015-.085l-.063-.21C.69 4.385.688 4.298.665 4.22.65 4.165.63 4.111.613 4.057c-.007-.028-.008-.055-.015-.083A3.648 3.648 0 0 0 .54 3.77C.53 3.735.533 3.7.523 3.664c-.01-.036-.01-.08-.023-.119-.007-.024-.016-.04-.022-.071-.006-.03-.005-.067-.01-.09-.004-.022-.044-.158-.049-.183-.004-.025-.004-.07-.007-.087-.002-.011-.023-.07-.025-.085-.003-.015-.003-.032-.01-.062-.005-.03-.023-.097-.026-.116-.003-.02-.003-.06-.007-.079-.004-.02-.017-.064-.026-.096-.01-.038-.002-.08-.013-.116a1.115 1.115 0 0 0-.027-.079.573.573 0 0 1-.015-.066l-.004-.08c0-.021-.01-.058-.013-.09a.664.664 0 0 0-.018-.116c-.004-.016-.003-.035-.006-.05C.21 2.038.2 1.998.178 2c-.015.003-.021.015-.014.044.007.033.011.059.02.091.004.018.004.062.005.076.001.024.002.029.005.051l.008.04a.22.22 0 0 1 .008.048v.053c0 .011 0 .015.004.034.005.019.007.023.008.039v.038c.001.015.003.03.007.043.009.029.027.068.02.11-.009.044.005.086.015.125.005.025 0 .052.005.076l.026.103c.007.028.002.053.01.08.01.038.036.088.04.105.002.017.001.062.007.092.005.028.012.061.014.08.002.018-.001.027 0 .04.003.014.022.08.024.096.004.017.003.026.006.044.004.017.019.088.022.11.004.023.002.036.007.059.006.035.02.064.028.098.005.024.003.04.006.06.007.031.018.06.023.09.005.022.005.046.01.069.01.05.018.101.032.152.008.03.026.056.034.085.008.026.01.054.017.08.006.023.022.043.028.067.004.021.004.042.007.063.005.023.016.047.02.071.004.019.003.037.007.056.007.021.017.04.022.06.006.026.005.052.012.079.008.03.02.059.03.087.008.026.004.054.012.082.017.062.037.129.058.186.009.031.007.063.018.096.009.022.018.038.027.056.007.02 0 .042.007.065.01.037.016.086.029.123.014.04.038.074.053.114.014.042.015.084.03.127.013.037.031.071.045.105.012.03.008.07.02.101.012.035.037.06.05.096.015.04.025.08.037.121l.011.051c.015.053.043.096.061.146.007.023.01.043.016.065.013.035.027.073.044.107.014.03.034.06.048.092.013.028.016.058.028.087l.036.09c.007.018.008.034.016.051.035.08.079.16.116.237.02.043.029.09.049.133.016.033.035.066.05.103.01.023.013.045.023.067.02.042.047.085.067.127.005.011.02.056.014.074l-.004.007c-.014.003-.04-.02-.055-.034-.051-.05-.06-.144-.095-.208l-.031-.059c-.005-.013-.008-.026-.015-.04-.022-.041-.05-.08-.07-.123-.013-.032-.015-.068-.03-.099-.057-.124-.124-.244-.18-.369-.026-.057-.031-.122-.053-.183-.014-.037-.036-.067-.051-.101-.013-.027-.016-.055-.028-.083-.016-.035-.039-.069-.053-.107C.993 6.072.99 6.046.98 6.02c-.012-.027-.03-.05-.042-.076-.018-.04-.02-.079-.033-.123-.007-.025-.017-.05-.025-.072-.007-.021-.01-.042-.016-.063C.847 5.641.818 5.6.8 5.551c-.012-.033-.01-.074-.024-.105-.011-.026-.032-.047-.043-.074-.011-.028 0-.063-.01-.096-.008-.032-.021-.062-.032-.092-.006-.019-.008-.037-.013-.056a18.578 18.578 0 0 0-.042-.116C.63 4.992.629 4.974.62 4.956c-.01-.023-.027-.044-.036-.07-.01-.037-.013-.077-.022-.113-.015-.05-.033-.09-.048-.137-.003-.015-.003-.03-.007-.047-.012-.042-.018-.09-.03-.131C.475 4.437.476 4.42.47 4.4l-.038-.12C.426 4.257.425 4.232.42 4.208c-.02-.062-.038-.136-.057-.196-.004-.018-.003-.034-.008-.054-.015-.048-.035-.105-.046-.154-.005-.029-.006-.056-.012-.083C.29 3.687.277 3.655.27 3.622c-.002-.016 0-.027-.001-.04C.266 3.56.264 3.538.26 3.517.24 3.43.205 3.324.186 3.237c-.006-.03-.007-.062-.01-.093-.004-.022-.005-.047-.012-.07-.006-.022-.017-.046-.02-.07-.005-.037-.005-.073-.01-.109l-.002-.008c-.008-.044-.03-.135-.036-.17a9.745 9.745 0 0 1-.016-.13c0-.027-.006-.056-.01-.085-.006-.045-.016-.084-.021-.13-.004-.03-.002-.058-.006-.084C.041 2.27.04 2.243.02 2.243s-.018.024-.02.043c-.002.046.007.107.01.135.007.054.002.105.008.16.003.03.013.06.016.09l.019.151v.003a.608.608 0 0 0 .009.067l.001.006.001.004v.003a.3.3 0 0 0 .008.03c.006.02.003.036.009.056.016.06.012.124.028.18.024.087.037.182.061.267.007.025 0 .05.007.076l.02.08c.007.033.002.065.011.098l.026.09c.008.035.01.071.019.11.011.037.024.08.03.118.009.044.013.095.021.14.008.04.029.086.038.128.003.014.002.028.004.043.006.03.015.06.021.089.003.013.002.025.006.04.015.056.032.126.05.18l.01.048c.01.04.023.068.027.09.004.018.006.04.011.06.008.03.017.056.023.083.005.02.008.039.014.06.007.024.017.047.027.071.017.05.019.104.036.152.011.03.025.057.035.088.007.028.01.062.019.093.016.049.034.104.052.152.02.058.034.12.053.175.008.022.007.043.014.067l.052.17c.01.03.01.057.021.085.019.046.046.085.063.132.015.04.018.08.034.118.02.05.044.102.063.155.013.036.017.073.033.107.013.03.03.06.043.09l.027.078c.008.02.029.054.044.08.016.037.019.076.033.115.021.059.05.119.075.174.01.022.012.042.02.065.015.04.041.069.058.105.015.035.02.072.035.105.022.05.04.075.04.146-.001.006-.003.01-.01.013-.013.006-.028-.017-.037-.025-.037-.036-.043-.072-.067-.123-.036-.077-.082-.15-.117-.226-.019-.04-.026-.082-.045-.123-.01-.025-.027-.05-.038-.074-.017-.036-.026-.072-.044-.105-.026-.047-.047-.102-.068-.155-.008-.02-.01-.039-.018-.058-.01-.02-.024-.039-.033-.058-.014-.033-.022-.072-.035-.105-.029-.063-.061-.129-.086-.195-.022-.06-.033-.12-.055-.181l-.03-.078c-.007-.023-.008-.043-.015-.065C.667 5.88.64 5.82.616 5.768.604 5.742.6 5.716.59 5.688l-.04-.106C.535 5.538.534 5.486.517 5.44c-.036-.1-.083-.205-.114-.31-.005-.025-.004-.05-.011-.074a6.939 6.939 0 0 1-.05-.168c-.02-.063-.017-.129-.036-.19l-.078-.24C.22 4.435.224 4.41.216 4.385a2.722 2.722 0 0 0-.058-.188c-.01-.028-.01-.058-.02-.085-.013-.031-.046-.02-.043.016.002.033.014.075.017.092.004.022.004.045.009.069.01.042.024.077.035.116.013.04.013.077.025.118l.02.063c.013.04.013.085.026.123.011.028.02.064.028.096.006.02.005.038.012.058l.035.112c.006.021.003.04.008.06.008.03.015.06.024.087.007.027.007.064.016.092.016.051.035.106.053.154.02.054.022.11.041.165.035.097.068.209.103.307.009.025.006.05.014.078.011.042.02.084.035.125.008.02.02.04.03.058.01.024.013.05.024.074.009.02.022.04.03.06.01.032.006.07.018.099.01.024.023.05.032.074.01.027.01.055.02.08.01.023.026.044.037.065.01.021.011.042.02.065.008.024.021.048.031.07.011.024.012.053.023.078.01.022.025.043.034.067.008.025.01.052.018.078.015.038.039.072.055.108.012.027.014.057.026.085.014.032.033.063.048.094.019.041.033.086.051.125.032.07.042.148.075.217.024.051.056.1.079.15.013.028.017.058.03.085.014.03.04.056.054.087.011.031.02.062.033.092.018.04.044.074.062.112.01.022.014.044.024.065.02.042.052.077.072.119l.03.083c.02.044.054.082.076.127.015.034.026.069.046.099l.08.127c.019.03.044.077.06.11.015.034.041.062.057.094.015.033.035.068.052.098.02.035.04.06.062.093.035.053.058.11.092.164l.079.112c.07.096.172.27.215.328.036.047.066.103.099.152.025.038.057.076.085.112.023.03.041.061.063.092l.018.023c.905 1.147 1.836 1.907 2.624 2.405.415.258.639.334.639.334.053.022.016.06-.01.077l-4.673 2.977c-.015.01-.051.036-.037.066.011.022.06.01.072.005 3.75-1.311 6.47-2.39 8.134-3.176 1.687-.798 2.254-1.254 2.192-1.481"/>
    </g>
</svg>
