<?xml version="1.0" encoding="UTF-8"?>
<svg width="24px" height="24px" viewBox="0 0 24 24" version="1.1" xmlns="http://www.w3.org/2000/svg" xmlns:xlink="http://www.w3.org/1999/xlink">
    <!-- Generator: sketchtool 54.1 (76490) - https://sketchapp.com -->
    <title>1BD18260-A8EC-4E6C-B16E-34AFF719D08B</title>
    <desc>Created with sketchtool.</desc>
    <g id="Symbols" stroke="none" stroke-width="1" fill="none" fill-rule="evenodd">
        <g id="icon-/-discount">
            <path d="M2.72838485,18.4347826 L17.6261009,18.4347826 C18.1489176,18.4347826 18.643621,18.1994237 18.9717174,17.7945524 L22.6173126,13.2962537 C23.1275625,12.6665253 23.1275625,11.7682573 22.6173126,11.1385289 L18.9717174,6.64023023 C18.643621,6.23535886 18.1489176,6 17.6261009,6 L2.72838485,6 C1.77382825,6 1,6.76966794 1,7.71909259 L1,16.71569 C1,17.6651147 1.77382825,18.4347826 2.72838485,18.4347826" id="Fill-1" fill="#D0021B"></path>
            <path d="M15.46,14.053 C15.46,14.3390014 15.4050006,14.6084987 15.295,14.8615 C15.1849995,15.1145013 15.0365009,15.3344991 14.8495,15.5215 C14.6624991,15.7085009 14.440668,15.8569994 14.184,15.967 C13.9273321,16.0770005 13.6560014,16.132 13.37,16.132 C13.0839986,16.132 12.812668,16.0770005 12.556,15.967 C12.2993321,15.8569994 12.0775009,15.7085009 11.8905,15.5215 C11.7034991,15.3344991 11.5550006,15.1145013 11.445,14.8615 C11.3349995,14.6084987 11.28,14.3390014 11.28,14.053 C11.28,13.7669986 11.3349995,13.4975013 11.445,13.2445 C11.5550006,12.9914987 11.7034991,12.7715009 11.8905,12.5845 C12.0775009,12.3974991 12.2993321,12.2490005 12.556,12.139 C12.812668,12.0289994 13.0839986,11.974 13.37,11.974 C13.6560014,11.974 13.9273321,12.0289994 14.184,12.139 C14.440668,12.2490005 14.6624991,12.3974991 14.8495,12.5845 C15.0365009,12.7715009 15.1849995,12.9914987 15.295,13.2445 C15.4050006,13.4975013 15.46,13.7669986 15.46,14.053 Z M14.228,14.053 C14.228,13.9356661 14.2041669,13.8238339 14.1565,13.7175 C14.1088331,13.6111661 14.0465004,13.5195004 13.9695,13.4425 C13.8924996,13.3654996 13.8026672,13.3050002 13.7,13.261 C13.5973328,13.2169998 13.4873339,13.195 13.37,13.195 C13.1353322,13.195 12.9336675,13.2793325 12.765,13.448 C12.5963325,13.6166675 12.512,13.8183322 12.512,14.053 C12.512,14.2876678 12.5963325,14.4874992 12.765,14.6525 C12.9336675,14.8175008 13.1353322,14.9 13.37,14.9 C13.4873339,14.9 13.5973328,14.8780002 13.7,14.834 C13.8026672,14.7899998 13.8924996,14.7295004 13.9695,14.6525 C14.0465004,14.5754996 14.1088331,14.4856672 14.1565,14.383 C14.2041669,14.2803328 14.228,14.1703339 14.228,14.053 Z M10.18,10.159 C10.18,10.4450014 10.1250006,10.7144987 10.015,10.9675 C9.90499945,11.2205013 9.75650094,11.4404991 9.5695,11.6275 C9.38249907,11.8145009 9.16066795,11.9629994 8.904,12.073 C8.64733205,12.1830005 8.37600143,12.238 8.09,12.238 C7.80399857,12.238 7.53266795,12.1830005 7.276,12.073 C7.01933205,11.9629994 6.79750094,11.8145009 6.6105,11.6275 C6.42349907,11.4404991 6.27500055,11.2205013 6.165,10.9675 C6.05499945,10.7144987 6,10.4450014 6,10.159 C6,9.8656652 6.05499945,9.59250126 6.165,9.3395 C6.27500055,9.08649873 6.42349907,8.86650093 6.6105,8.6795 C6.79750094,8.49249906 7.01933205,8.34583386 7.276,8.2395 C7.53266795,8.13316613 7.80399857,8.08 8.09,8.08 C8.37600143,8.08 8.64733205,8.13316613 8.904,8.2395 C9.16066795,8.34583386 9.38249907,8.49249906 9.5695,8.6795 C9.75650094,8.86650093 9.90499945,9.08649873 10.015,9.3395 C10.1250006,9.59250126 10.18,9.8656652 10.18,10.159 Z M8.948,10.159 C8.948,9.92433216 8.86366751,9.72266751 8.695,9.554 C8.52633249,9.38533249 8.32466784,9.301 8.09,9.301 C7.85533216,9.301 7.65366751,9.38533249 7.485,9.554 C7.31633249,9.72266751 7.232,9.92433216 7.232,10.159 C7.232,10.3936678 7.31633249,10.5934992 7.485,10.7585 C7.65366751,10.9235008 7.85533216,11.006 8.09,11.006 C8.32466784,11.006 8.52633249,10.9235008 8.695,10.7585 C8.86366751,10.5934992 8.948,10.3936678 8.948,10.159 Z M8.937,16.374 L7.958,15.89 L12.501,7.86 L13.524,8.355 L8.937,16.374 Z" id="%" fill="#FFFFFF" fill-rule="nonzero"></path>
        </g>
    </g>
</svg>