<svg xmlns="http://www.w3.org/2000/svg" width="24" height="24" viewBox="0 0 24 24">
    <g fill="none" fill-rule="evenodd">
        <path fill="#272F38" fill-rule="nonzero" d="M21.772 13.499L10.137 1.864l-7.91.362-.363 7.91 11.635 11.635 8.273-8.272zm1.958.652L14.15 23.73a.923.923 0 0 1-1.305 0L.27 11.154a.923.923 0 0 1-.269-.695L.421 1.3a.923.923 0 0 1 .88-.88L10.46.002a.923.923 0 0 1 .695.27L23.73 12.845c.36.36.36.945 0 1.305zM7.1 5.841a.89.89 0 1 0-1.256 1.26.89.89 0 0 0 1.257-1.26zm1.306-1.305a2.736 2.736 0 1 1-3.87 3.868 2.736 2.736 0 0 1 3.87-3.868z"/>
        <circle cx="6.462" cy="6.462" r="1" fill="#FACF04"/>
    </g>
</svg>
