<svg xmlns="http://www.w3.org/2000/svg" xmlns:xlink="http://www.w3.org/1999/xlink" width="24" height="24" viewBox="0 0 24 24">
    <defs>
        <path id="a" d="M0 2h23.761v21.41H0z"/>
        <path id="c" d="M22.198 7.847a5.825 5.825 0 0 0-.108-1.19c-.42-2.067-2.266-3.678-4.375-3.8-1.489-.087-2.771.387-3.831 1.446-.492.492-.986.98-1.473 1.479-.093.096-.14.086-.228-.005-.487-.495-.978-.989-1.474-1.476-1.186-1.166-2.607-1.633-4.25-1.389-2.19.328-3.907 2.19-4.048 4.393-.095 1.487.371 2.777 1.43 3.837 2.78 2.784 5.564 5.565 8.344 8.35.093.093.137.088.226-.002 2.783-2.79 5.572-5.574 8.357-8.36.946-.95 1.407-2.103 1.43-3.283M.421 7.722C.428 4.398 2.748 1.57 5.963.995c2.372-.425 4.438.237 6.164 1.93.17.169.17.17.339.002.623-.621 1.323-1.13 2.134-1.48 3.958-1.71 8.483.527 9.402 4.757.522 2.4-.087 4.54-1.817 6.291-3.213 3.254-6.462 6.472-9.695 9.706a.271.271 0 0 1-.38.005c-3.24-3.241-6.484-6.477-9.72-9.724C1.279 11.364.646 10.004.467 8.435.438 8.183.436 7.93.42 7.722"/>
    </defs>
    <g fill="none" fill-rule="evenodd">
        <mask id="b" fill="#fff">
            <path id="a" d="M0 2h23.761v21.41H0z"/>
        </mask>
        <g mask="url(#b)">
            <g transform="translate(-.421 1.13)">
                <mask id="d" fill="#fff">
                    <path id="c" d="M22.198 7.847a5.825 5.825 0 0 0-.108-1.19c-.42-2.067-2.266-3.678-4.375-3.8-1.489-.087-2.771.387-3.831 1.446-.492.492-.986.98-1.473 1.479-.093.096-.14.086-.228-.005-.487-.495-.978-.989-1.474-1.476-1.186-1.166-2.607-1.633-4.25-1.389-2.19.328-3.907 2.19-4.048 4.393-.095 1.487.371 2.777 1.43 3.837 2.78 2.784 5.564 5.565 8.344 8.35.093.093.137.088.226-.002 2.783-2.79 5.572-5.574 8.357-8.36.946-.95 1.407-2.103 1.43-3.283M.421 7.722C.428 4.398 2.748 1.57 5.963.995c2.372-.425 4.438.237 6.164 1.93.17.169.17.17.339.002.623-.621 1.323-1.13 2.134-1.48 3.958-1.71 8.483.527 9.402 4.757.522 2.4-.087 4.54-1.817 6.291-3.213 3.254-6.462 6.472-9.695 9.706a.271.271 0 0 1-.38.005c-3.24-3.241-6.484-6.477-9.72-9.724C1.279 11.364.646 10.004.467 8.435.438 8.183.436 7.93.42 7.722"/>
                </mask>
                <path fill="#273039" d="M22.198 7.847a5.825 5.825 0 0 0-.108-1.19c-.42-2.067-2.266-3.678-4.375-3.8-1.489-.087-2.771.387-3.831 1.446-.492.492-.986.98-1.473 1.479-.093.096-.14.086-.228-.005-.487-.495-.978-.989-1.474-1.476-1.186-1.166-2.607-1.633-4.25-1.389-2.19.328-3.907 2.19-4.048 4.393-.095 1.487.371 2.777 1.43 3.837 2.78 2.784 5.564 5.565 8.344 8.35.093.093.137.088.226-.002 2.783-2.79 5.572-5.574 8.357-8.36.946-.95 1.407-2.103 1.43-3.283M.421 7.722C.428 4.398 2.748 1.57 5.963.995c2.372-.425 4.438.237 6.164 1.93.17.169.17.17.339.002.623-.621 1.323-1.13 2.134-1.48 3.958-1.71 8.483.527 9.402 4.757.522 2.4-.087 4.54-1.817 6.291-3.213 3.254-6.462 6.472-9.695 9.706a.271.271 0 0 1-.38.005c-3.24-3.241-6.484-6.477-9.72-9.724C1.279 11.364.646 10.004.467 8.435.438 8.183.436 7.93.42 7.722"/>
            </g>
        </g>
    </g>
</svg>
