<svg width="24px" height="24px" viewBox="0 0 24 24" version="1.1" xmlns="http://www.w3.org/2000/svg" xmlns:xlink="http://www.w3.org/1999/xlink">
    <g id="Symbols" stroke="none" stroke-width="1" fill="none" fill-rule="evenodd">
        <g id="icon-/-Delivery">
            <g id="Group" transform="translate(0.000000, 3.000000)">
                <g id="Group-3" transform="translate(0.000000, 0.000000)">
                    <mask id="mask-2" fill="white">
                        <polygon id="path-1" points="0 0.0949565217 16.7244625 0.0949565217 16.7244625 14.9758387 0 14.9758387"></polygon>
                    </mask>
                    <g id="Clip-2"></g>
                    <path d="M1.15873164,13.8310482 C1.15806255,13.8310482 1.15337891,1.24034466 1.15337891,1.24034466 L13.8400116,1.23968063 L13.8400116,13.8310482 L7.49702982,13.8310482 L7.49702982,14.9758387 L16.7244625,14.9758387 L16.7244625,13.8310482 L14.9941935,13.8310482 L14.9941935,1.24034466 C14.9941935,0.612170751 14.4763171,0.0948901186 13.8400116,0.0948901186 L1.154048,0.0948901186 C0.521088,0.0948901186 -0.000133818182,0.608186561 -0.000133818182,1.24034466 L-0.000133818182,13.8303842 C-0.000133818182,14.4592221 0.521088,14.9758387 1.15873164,14.9758387 L2.883648,14.9758387 L2.883648,13.8310482 L1.15873164,13.8310482 Z" id="Fill-1" stroke="#272F38" stroke-width="0.2" fill="#272F38" mask="url(#mask-2)"></path>
                </g>
                <path d="M23.9797354,9.01872185 L24,9.01872185 L24,9.75071674 L24,14.085971 C24,14.7459704 23.5089805,15.2727273 22.8824628,15.2727273 L21.2197068,15.2727273 L21.2197068,14.0832095 C21.2197068,14.0832095 22.8876246,14.0887325 22.8876246,14.085971 L22.8876246,10.1818182 L18.6425572,10.1818182 C17.9805565,10.1818182 17.4545455,9.66946176 17.4545455,9.02952251 L17.4545455,5.51660707 C17.4545455,4.87396766 17.9853886,4.36363636 18.6391057,4.36363636 L20.3487762,4.36363636 L19.9150531,3.59018515 C19.8582729,3.48869989 19.6647041,3.37202635 19.5537246,3.37202635 L14.5454545,3.37202635 L14.5454545,2.18181818 L19.5537246,2.18181818 C20.0544226,2.18181818 20.6106103,2.51803128 20.868702,2.97851205 L23.6360907,7.91400984 C23.80129,8.20896857 23.9314667,8.63550961 23.9797354,9.01872185 Z M22.8507188,9.01872185 C22.8126013,8.83676266 22.749475,8.64519251 22.6830869,8.52637332 L21.0006003,5.52602318 C20.1289492,5.52395488 18.6453184,5.51994428 18.6453184,5.51660707 C18.6453184,5.51660707 18.6370348,9.01872185 18.6425572,9.01872185 L22.8507188,9.01872185 Z" id="Combined-Shape" stroke="#272F38" stroke-width="0.2" fill="#272F38"></path>
                <g id="Group-10" transform="translate(2.181818, 11.636364)">
                    <mask id="mask-4" fill="white">
                        <polygon id="path-3" points="0.292712727 0.246432323 5.93489455 0.246432323 5.93489455 5.81818182 0.292712727 5.81818182"></polygon>
                    </mask>
                    <g id="Clip-9"></g>
                    <path d="M3.11380364,4.70380606 C4.04849455,4.70380606 4.80645818,3.95584646 4.80645818,3.03204848 C4.80645818,2.10889697 4.04849455,1.36029091 3.11380364,1.36029091 C2.17911273,1.36029091 1.42114909,2.10889697 1.42114909,3.03204848 C1.42114909,3.95584646 2.17911273,4.70380606 3.11380364,4.70380606 M3.11380364,5.81831111 C4.67162182,5.81831111 5.93489455,4.57063434 5.93489455,3.03204848 C5.93489455,1.49346263 4.67162182,0.246432323 3.11380364,0.246432323 C1.55598545,0.246432323 0.292712727,1.49346263 0.292712727,3.03204848 C0.292712727,4.57063434 1.55598545,5.81831111 3.11380364,5.81831111" id="Fill-8" stroke="#272F38" stroke-width="0.2" fill="#272F38" mask="url(#mask-4)"></path>
                </g>
                <g id="Group-13" transform="translate(16.000000, 11.636364)">
                    <mask id="mask-6" fill="white">
                        <polygon id="path-5" points="0.0857858586 0.246432323 5.65831111 0.246432323 5.65831111 5.81818182 0.0857858586 5.81818182"></polygon>
                    </mask>
                    <g id="Clip-12"></g>
                    <path d="M2.87204848,4.70380606 C3.7952,4.70380606 4.54380606,3.95584646 4.54380606,3.03204848 C4.54380606,2.10889697 3.7952,1.36029091 2.87204848,1.36029091 C1.94889697,1.36029091 1.20029091,2.10889697 1.20029091,3.03204848 C1.20029091,3.95584646 1.94889697,4.70380606 2.87204848,4.70380606 M2.87204848,5.81831111 C4.41063434,5.81831111 5.65831111,4.57063434 5.65831111,3.03204848 C5.65831111,1.49346263 4.41063434,0.246432323 2.87204848,0.246432323 C1.33346263,0.246432323 0.0857858586,1.49346263 0.0857858586,3.03204848 C0.0857858586,4.57063434 1.33346263,5.81831111 2.87204848,5.81831111" id="Fill-11" stroke="#272F38" stroke-width="0.2" fill="#272F38" mask="url(#mask-6)"></path>
                </g>
            </g>
        </g>
    </g>
</svg>