<svg width="32px" height="32px" viewBox="0 0 32 32" version="1.1" xmlns="http://www.w3.org/2000/svg" xmlns:xlink="http://www.w3.org/1999/xlink">
    <g id="Symbols" stroke="none" stroke-width="1" fill-rule="evenodd">
        <g>
            <g transform="translate(0.000000, 7.000000)">
                <g>
                    <path d="M9.05755102,11.1615006 C9.62135955,13.4853516 11.3062887,15.4721822 13.4056075,16.7922847 C12.1147266,17.4968481 10.6328921,17.8983051 9.05669902,17.8983051 C7.48082542,17.8983051 5.99931042,17.4970601 4.70864257,16.7928146 C6.80838737,15.4727121 8.49374249,13.4856696 9.05755102,11.1615006 Z M15.968785,3.06470234 C14.6313638,4.63470865 13.8243104,6.66605136 13.8243104,8.88604071 C13.8243104,11.1047583 14.6316833,13.1351472 15.9680395,14.7054714 C12.7872179,13.1718167 10.5670222,9.69912889 10.5670222,5.65986533 L10.5665962,5.65986533 L10.5665962,0.000254355012 C12.7203362,0.360060715 14.6159214,1.47657324 15.968785,3.06470234 Z M15.968785,3.06470234 C17.3219681,1.47625529 19.280388,0.359954734 21.4344475,4.23925019e-05 L21.4344475,5.70268175 C21.4188986,9.72445841 19.1398086,13.1792354 15.9691045,14.7067432 C15.968785,14.7063193 15.9684655,14.7058953 15.9680395,14.7054714 C15.9684655,14.7055774 15.968785,14.7057894 15.9691045,14.7060013 C17.3057801,13.1354651 18.1758813,11.1050762 18.1758813,8.88604071 C18.1758813,6.66605136 17.3062061,4.63470865 15.968785,3.06470234 Z M24.4533366,5.65989712 L24.4533366,0.000392130643 C28.7361088,0.716083545 32,4.42065831 32,8.88586054 C32,11.105108 31.192414,13.1354969 29.8559514,14.7059271 C26.6743843,13.1726963 24.4538691,9.69947863 24.4538691,5.65989712 L24.4533366,5.65989712 Z M22.9442382,11.1615006 C23.5081532,13.4853516 25.1929758,15.4721822 27.2922946,16.7922847 C26.0014138,17.4968481 24.5195793,17.8983051 22.9432797,17.8983051 C21.3674061,17.8983051 19.8861041,17.4970601 18.5954362,16.7928146 C20.6950745,15.4727121 22.3804296,13.4856696 22.9442382,11.1615006 Z M7.54772843,5.70263936 C7.532073,9.72441602 5.31560471,13.179193 2.1449006,14.7067008 C0.80790546,13.1362706 0,11.1054578 0,8.88589233 C0,4.4201602 3.2645302,0.715267489 7.54772843,-1.13686838e-13 L7.54772843,5.70263936 Z"></path>
                    <g>
                        <mask>
                            <path d="M9.05755102,11.1615006 C9.62135955,13.4853516 11.3062887,15.4721822 13.4056075,16.7922847 C12.1147266,17.4968481 10.6328921,17.8983051 9.05669902,17.8983051 C7.48082542,17.8983051 5.99931042,17.4970601 4.70864257,16.7928146 C6.80838737,15.4727121 8.49374249,13.4856696 9.05755102,11.1615006 Z M15.968785,3.06470234 C14.6313638,4.63470865 13.8243104,6.66605136 13.8243104,8.88604071 C13.8243104,11.1047583 14.6316833,13.1351472 15.9680395,14.7054714 C12.7872179,13.1718167 10.5670222,9.69912889 10.5670222,5.65986533 L10.5665962,5.65986533 L10.5665962,0.000254355012 C12.7203362,0.360060715 14.6159214,1.47657324 15.968785,3.06470234 Z M15.968785,3.06470234 C17.3219681,1.47625529 19.280388,0.359954734 21.4344475,4.23925019e-05 L21.4344475,5.70268175 C21.4188986,9.72445841 19.1398086,13.1792354 15.9691045,14.7067432 C15.968785,14.7063193 15.9684655,14.7058953 15.9680395,14.7054714 C15.9684655,14.7055774 15.968785,14.7057894 15.9691045,14.7060013 C17.3057801,13.1354651 18.1758813,11.1050762 18.1758813,8.88604071 C18.1758813,6.66605136 17.3062061,4.63470865 15.968785,3.06470234 Z M24.4533366,5.65989712 L24.4533366,0.000392130643 C28.7361088,0.716083545 32,4.42065831 32,8.88586054 C32,11.105108 31.192414,13.1354969 29.8559514,14.7059271 C26.6743843,13.1726963 24.4538691,9.69947863 24.4538691,5.65989712 L24.4533366,5.65989712 Z M22.9442382,11.1615006 C23.5081532,13.4853516 25.1929758,15.4721822 27.2922946,16.7922847 C26.0014138,17.4968481 24.5195793,17.8983051 22.9432797,17.8983051 C21.3674061,17.8983051 19.8861041,17.4970601 18.5954362,16.7928146 C20.6950745,15.4727121 22.3804296,13.4856696 22.9442382,11.1615006 Z M7.54772843,5.70263936 C7.532073,9.72441602 5.31560471,13.179193 2.1449006,14.7067008 C0.80790546,13.1362706 0,11.1054578 0,8.88589233 C0,4.4201602 3.2645302,0.715267489 7.54772843,-1.13686838e-13 L7.54772843,5.70263936 Z"></path>
                        </mask>
                    </g>
                </g>
            </g>
        </g>
    </g>
</svg>