<svg xmlns="http://www.w3.org/2000/svg" xmlns:xlink="http://www.w3.org/1999/xlink" width="40" height="48" viewBox="0 0 40 48">
    <g fill="none" fill-rule="evenodd">
        <path fill="#FACF00" d="M0 27.592c.114-1.735 3.193-2.755 5.816-3.265C9.35 23.51 14.14 23 19.158 23h.342c9.465 0 19.5 1.735 19.5 4.592l-.114.408-3.535-.918v-.306c0-1.327-6.386-2.756-15.737-2.756-9.35 0-15.737 1.429-15.737 2.756v.306l-3.763.816L0 27.592z"/>
        <path fill="#333D47" d="M19.443 1L0 47h3.088l16.355-36.222L36.026 47H39z"/>
        <path fill="#FACF00" d="M19.457 33C10.146 33 2.33 31.526.49 29.316c-.345-.421-.575-.842-.46-1.263l.115-.106L3.708 27v.421c0 1.368 6.438 2.842 15.864 2.842 9.427 0 15.864-1.474 15.864-2.842V27l3.564.842v.316c0 1.79-3.219 2.842-5.863 3.368C29.46 32.684 24.63 33 19.457 33z"/>
    </g>
</svg>

