<svg width="32px" height="32px" viewBox="0 0 32 32" version="1.1" xmlns="http://www.w3.org/2000/svg" xmlns:xlink="http://www.w3.org/1999/xlink">
    <g id="Symbols" stroke="none" stroke-width="1" fill-rule="evenodd">
        <g id="icon-/-share-/-IG">
            <g id="color-/-black-/-50%" transform="translate(1.000000, 1.000000)">
                <path opacity="0.8" d="M23.0054437,5.19324986 C22.0125204,5.19324986 21.2057703,5.9983669 21.2057703,6.99292324 C21.2057703,7.98747959 22.0125204,8.79422972 23.0054437,8.79422972 C24,8.79422972 24.805117,7.98747959 24.805117,6.99292324 C24.805117,5.9983669 24,5.19324986 23.0054437,5.19324986 M14.9983669,19.9989113 C12.2367991,19.9989113 9.99945563,17.7599347 9.99945563,15 C9.99945563,12.2384322 12.2367991,9.99945563 14.9983669,9.99945563 C17.7615678,9.99945563 19.9989113,12.2384322 19.9989113,15 C19.9989113,17.7599347 17.7615678,19.9989113 14.9983669,19.9989113 M14.9983669,7.29831247 C10.7457812,7.29831247 7.29667937,10.7457812 7.29667937,15 C7.29667937,19.2525857 10.7457812,22.7033206 14.9983669,22.7033206 C19.2525857,22.7033206 22.7016875,19.2525857 22.7016875,15 C22.7016875,10.7457812 19.2525857,7.29831247 14.9983669,7.29831247 M27.2090365,21.0604246 C27.1420795,22.5220468 26.8971149,23.3173653 26.6913446,23.8464888 C26.4202504,24.5470876 26.095264,25.0451824 25.5694066,25.5710397 C25.0451824,26.095264 24.5454545,26.4202504 23.8464888,26.6929777 C23.3173653,26.898748 22.5220468,27.1420795 21.0604246,27.2090365 C19.4779532,27.2808928 19.0043549,27.2955906 14.9983669,27.2955906 C10.994012,27.2955906 10.5187806,27.2808928 8.9379423,27.2090365 C7.47632009,27.1420795 6.68100163,26.898748 6.15187806,26.6929777 C5.45127926,26.4202504 4.95318454,26.095264 4.42896026,25.5710397 C3.90310289,25.0451824 3.57811649,24.5470876 3.30702232,23.8464888 C3.10125204,23.3173653 2.85792052,22.5220468 2.78933043,21.0604246 C2.71747414,19.4795863 2.70114317,19.0043549 2.70114317,15 C2.70114317,10.9956451 2.71747414,10.5204137 2.78933043,8.9379423 C2.85792052,7.47632009 3.10125204,6.68263473 3.30702232,6.15351116 C3.57811649,5.45454545 3.90310289,4.95481764 4.42896026,4.42896026 C4.95318454,3.90310289 5.45127926,3.57974959 6.15187806,3.30702232 C6.68100163,3.10125204 7.47632009,2.85792052 8.9379423,2.79096353 C10.5187806,2.71910724 10.994012,2.70277627 14.9983669,2.70277627 C19.0027218,2.70277627 19.4779532,2.71910724 21.0604246,2.79096353 C22.5220468,2.85792052 23.3173653,3.10125204 23.8464888,3.30702232 C24.5454545,3.57974959 25.0451824,3.90310289 25.5694066,4.42896026 C26.095264,4.95481764 26.4202504,5.45454545 26.6913446,6.15351116 C26.8971149,6.68263473 27.1420795,7.47632009 27.2090365,8.9379423 C27.2808928,10.5204137 27.2955906,10.9956451 27.2955906,15 C27.2955906,19.0043549 27.2808928,19.4795863 27.2090365,21.0604246 M29.9085465,8.81545999 C29.8350572,7.21992379 29.5819271,6.1290147 29.2112139,5.17528579 C28.827436,4.18889494 28.3146434,3.35111595 27.4817637,2.51823625 C26.6456179,1.68535656 25.809472,1.17256396 24.8247142,0.788786064 C23.8693522,0.418072945 22.7800762,0.163309744 21.1829069,0.0898203593 C19.5824714,0.0179640719 19.0713119,0 14.9983669,0 C10.927055,0 10.4158955,0.0179640719 8.81545999,0.0898203593 C7.21829069,0.163309744 6.1290147,0.418072945 5.17365269,0.788786064 C4.18889494,1.17256396 3.35111595,1.68535656 2.51823625,2.51823625 C1.68372346,3.35111595 1.17093087,4.18889494 0.787152967,5.17528579 C0.41480675,6.1290147 0.163309744,7.21992379 0.0898203593,8.81545999 C0.0163309744,10.4158955 0,10.927055 0,15 C0,19.072945 0.0163309744,19.5841045 0.0898203593,21.18454 C0.163309744,22.7817093 0.41480675,23.8726184 0.787152967,24.8247142 C1.17093087,25.8111051 1.68372346,26.6488841 2.51823625,27.4801306 C3.35111595,28.3146434 4.18889494,28.8290691 5.17365269,29.2112139 C6.1290147,29.5835602 7.21829069,29.8366903 8.81545999,29.9085465 C10.4158955,29.9820359 10.927055,29.9983669 14.9983669,29.9983669 C19.0713119,29.9983669 19.5824714,29.9820359 21.1829069,29.9085465 C22.7800762,29.8366903 23.8693522,29.5835602 24.8247142,29.2112139 C25.809472,28.8290691 26.6456179,28.3146434 27.4817637,27.4801306 C28.3146434,26.6488841 28.827436,25.8111051 29.2112139,24.8247142 C29.5819271,23.8726184 29.8350572,22.7817093 29.9085465,21.18454 C29.9804028,19.5841045 30,19.072945 30,15 C30,10.927055 29.9804028,10.4158955 29.9085465,8.81545999"></path>
                <g>
                    <mask id="mask-2">
                        <path d="M23.0054437,5.19324986 C22.0125204,5.19324986 21.2057703,5.9983669 21.2057703,6.99292324 C21.2057703,7.98747959 22.0125204,8.79422972 23.0054437,8.79422972 C24,8.79422972 24.805117,7.98747959 24.805117,6.99292324 C24.805117,5.9983669 24,5.19324986 23.0054437,5.19324986 M14.9983669,19.9989113 C12.2367991,19.9989113 9.99945563,17.7599347 9.99945563,15 C9.99945563,12.2384322 12.2367991,9.99945563 14.9983669,9.99945563 C17.7615678,9.99945563 19.9989113,12.2384322 19.9989113,15 C19.9989113,17.7599347 17.7615678,19.9989113 14.9983669,19.9989113 M14.9983669,7.29831247 C10.7457812,7.29831247 7.29667937,10.7457812 7.29667937,15 C7.29667937,19.2525857 10.7457812,22.7033206 14.9983669,22.7033206 C19.2525857,22.7033206 22.7016875,19.2525857 22.7016875,15 C22.7016875,10.7457812 19.2525857,7.29831247 14.9983669,7.29831247 M27.2090365,21.0604246 C27.1420795,22.5220468 26.8971149,23.3173653 26.6913446,23.8464888 C26.4202504,24.5470876 26.095264,25.0451824 25.5694066,25.5710397 C25.0451824,26.095264 24.5454545,26.4202504 23.8464888,26.6929777 C23.3173653,26.898748 22.5220468,27.1420795 21.0604246,27.2090365 C19.4779532,27.2808928 19.0043549,27.2955906 14.9983669,27.2955906 C10.994012,27.2955906 10.5187806,27.2808928 8.9379423,27.2090365 C7.47632009,27.1420795 6.68100163,26.898748 6.15187806,26.6929777 C5.45127926,26.4202504 4.95318454,26.095264 4.42896026,25.5710397 C3.90310289,25.0451824 3.57811649,24.5470876 3.30702232,23.8464888 C3.10125204,23.3173653 2.85792052,22.5220468 2.78933043,21.0604246 C2.71747414,19.4795863 2.70114317,19.0043549 2.70114317,15 C2.70114317,10.9956451 2.71747414,10.5204137 2.78933043,8.9379423 C2.85792052,7.47632009 3.10125204,6.68263473 3.30702232,6.15351116 C3.57811649,5.45454545 3.90310289,4.95481764 4.42896026,4.42896026 C4.95318454,3.90310289 5.45127926,3.57974959 6.15187806,3.30702232 C6.68100163,3.10125204 7.47632009,2.85792052 8.9379423,2.79096353 C10.5187806,2.71910724 10.994012,2.70277627 14.9983669,2.70277627 C19.0027218,2.70277627 19.4779532,2.71910724 21.0604246,2.79096353 C22.5220468,2.85792052 23.3173653,3.10125204 23.8464888,3.30702232 C24.5454545,3.57974959 25.0451824,3.90310289 25.5694066,4.42896026 C26.095264,4.95481764 26.4202504,5.45454545 26.6913446,6.15351116 C26.8971149,6.68263473 27.1420795,7.47632009 27.2090365,8.9379423 C27.2808928,10.5204137 27.2955906,10.9956451 27.2955906,15 C27.2955906,19.0043549 27.2808928,19.4795863 27.2090365,21.0604246 M29.9085465,8.81545999 C29.8350572,7.21992379 29.5819271,6.1290147 29.2112139,5.17528579 C28.827436,4.18889494 28.3146434,3.35111595 27.4817637,2.51823625 C26.6456179,1.68535656 25.809472,1.17256396 24.8247142,0.788786064 C23.8693522,0.418072945 22.7800762,0.163309744 21.1829069,0.0898203593 C19.5824714,0.0179640719 19.0713119,0 14.9983669,0 C10.927055,0 10.4158955,0.0179640719 8.81545999,0.0898203593 C7.21829069,0.163309744 6.1290147,0.418072945 5.17365269,0.788786064 C4.18889494,1.17256396 3.35111595,1.68535656 2.51823625,2.51823625 C1.68372346,3.35111595 1.17093087,4.18889494 0.787152967,5.17528579 C0.41480675,6.1290147 0.163309744,7.21992379 0.0898203593,8.81545999 C0.0163309744,10.4158955 0,10.927055 0,15 C0,19.072945 0.0163309744,19.5841045 0.0898203593,21.18454 C0.163309744,22.7817093 0.41480675,23.8726184 0.787152967,24.8247142 C1.17093087,25.8111051 1.68372346,26.6488841 2.51823625,27.4801306 C3.35111595,28.3146434 4.18889494,28.8290691 5.17365269,29.2112139 C6.1290147,29.5835602 7.21829069,29.8366903 8.81545999,29.9085465 C10.4158955,29.9820359 10.927055,29.9983669 14.9983669,29.9983669 C19.0713119,29.9983669 19.5824714,29.9820359 21.1829069,29.9085465 C22.7800762,29.8366903 23.8693522,29.5835602 24.8247142,29.2112139 C25.809472,28.8290691 26.6456179,28.3146434 27.4817637,27.4801306 C28.3146434,26.6488841 28.827436,25.8111051 29.2112139,24.8247142 C29.5819271,23.8726184 29.8350572,22.7817093 29.9085465,21.18454 C29.9804028,19.5841045 30,19.072945 30,15 C30,10.927055 29.9804028,10.4158955 29.9085465,8.81545999"></path>
                    </mask>
                </g>
            </g>
        </g>
    </g>
</svg>