<svg xmlns="http://www.w3.org/2000/svg" width="30" height="30" viewBox="0 0 30 30">
    <path fill="#272F38" fill-rule="nonzero" d="M21.673 14.669l-.44-1.747-3.616.871a.75.75 0 1 1-.351-1.458l3.601-.868-.71-2.826c-.126-.496-.648-.803-1.167-.672l-1.29.324a.75.75 0 0 1-.365-1.455l1.29-.324c1.316-.33 2.657.456 2.986 1.761l1.674 6.653a.755.755 0 0 1 .055.219l.67 2.667 3.14 2.23a3.174 3.174 0 0 1 1.345 2.587v.784c0 1.636-1.346 2.956-3 2.956h-5.562a7.329 7.329 0 0 1-5.159-2.113L4.442 14.014c-1.332-1.322-1.704-2.609-.548-3.796a.75.75 0 1 1 1.075 1.046c-.421.433-.296.866.53 1.685L15.83 23.193a5.829 5.829 0 0 0 4.103 1.678h5.563c.831 0 1.5-.655 1.5-1.456v-.784c0-.538-.265-1.045-.714-1.364l-3.59-2.551-.068-.268-.585-2.324-3.588.864a.75.75 0 0 1-.351-1.458l3.573-.861zm-8.138-8.77l-.472-.463a1.546 1.546 0 0 0-2.152 0L8.177 8.117a1.923 1.923 0 0 0 0 2.76l10.276 10.077c.349.342.824.536 1.32.536h2.858a.75.75 0 0 1 0 1.5h-2.859c-.887 0-1.74-.347-2.37-.965L7.127 11.948a3.423 3.423 0 0 1 0-4.901L9.86 4.365a3.046 3.046 0 0 1 4.252 0l1.46 1.431-.5.535a1.78 1.78 0 0 0 .036 2.48l.707.716a.75.75 0 1 1-1.067 1.055l-.707-.715a3.279 3.279 0 0 1-.507-3.968zm-5.22 14.386a.75.75 0 1 1 0 1.5h-6.06a.75.75 0 1 1 0-1.5h6.06zm1.933 2.526a.75.75 0 1 1 0 1.5H4.187a.75.75 0 1 1 0-1.5h6.06z"/>
</svg>
