<svg xmlns="http://www.w3.org/2000/svg" width="23" height="28" viewBox="0 0 23 28">
    <g fill="none" fill-rule="evenodd">
        <path fill="#FFF" d="M.102 16.348c.066-1.095 1.897-1.8 3.412-2.195 2.077-.542 4.823-.841 7.73-.841h.158c5.548 0 11.286 1.139 11.287 3.044l-.066.225-2.018-.587v-.136c0-.851-3.78-1.8-9.203-1.8-5.425 0-9.205.949-9.205 1.8v.136l-2.006.565-.09-.211"/>
        <path fill="#2F373C" d="M11.394.156L.099 27.995h1.728l9.567-21.939 9.566 21.939h1.729L11.394.156"/>
        <path fill="#FFF" d="M11.401 19.405c-5.346 0-9.872-.944-11.005-2.294-.203-.243-.31-.5-.294-.762l.059-.125 2.036-.586v.225c0 .85 3.78 1.8 9.205 1.8 5.423 0 9.203-.95 9.203-1.8v-.225l2.046.552.038.17c0 1.099-1.839 1.803-3.381 2.2-2.113.545-4.92.845-7.906.845"/>
    </g>
</svg>
