<svg xmlns="http://www.w3.org/2000/svg" width="24" height="24" viewBox="0 0 24 24">
    <g fill="none" fill-rule="evenodd">
        <path fill="#272F38" d="M2.614 5.262a.383.383 0 0 0-.379.387v12.217c0 .213.17.386.38.386h18.77c.21 0 .38-.173.38-.386V5.649a.384.384 0 0 0-.38-.387H2.616zm18.772 14.252H2.614c-.89 0-1.614-.74-1.614-1.648V5.649C1 4.74 1.724 4 2.614 4h18.772C22.276 4 23 4.74 23 5.65v12.216c0 .909-.724 1.648-1.614 1.648z"/>
        <path fill="#272F38" fill-rule="nonzero" d="M8.5 12.5a2 2 0 1 0 0-4 2 2 0 0 0 0 4zm0-1a1 1 0 1 1 0-2 1 1 0 0 1 0 2zM14.5 15.5a2 2 0 1 0 0-4 2 2 0 0 0 0 4zm0-1a1 1 0 1 1 0-2 1 1 0 0 1 0 2z"/>
        <path fill="#333D47" d="M14.27 8h1.43l-6.57 7.5H7.7z"/>
    </g>
</svg>
