<svg xmlns="http://www.w3.org/2000/svg" xmlns:xlink="http://www.w3.org/1999/xlink" width="24" height="24" viewBox="0 0 24 24">
    <defs>
        <path id="a" d="M9.568 23.622a.923.923 0 0 1-1.531-.03l-.295-.458a373.642 373.642 0 0 1-3.124-4.958l-.244-.394c-1.352-2.199-2.343-3.891-2.853-4.905C.868 11.58.394 9.902.422 8.487.516 3.714 4.462-.079 9.23.016h.073a8.644 8.644 0 0 1 8.47 8.814c-.027 1.415-.567 3.074-1.271 4.343-.549.991-1.604 2.64-3.038 4.778l-.252.373a339.133 339.133 0 0 1-3.644 5.298zm-.379-2.686c.85-1.226 1.7-2.466 2.492-3.643l.25-.37c1.405-2.096 2.44-3.714 2.956-4.645.57-1.028 1.02-2.409 1.041-3.484a6.797 6.797 0 0 0-6.656-6.931l-.073-.001a6.797 6.797 0 0 0-6.931 6.662c-.021 1.075.373 2.473.902 3.523.479.952 1.452 2.614 2.777 4.768l.241.391a337.72 337.72 0 0 0 2.657 4.226l.344-.496zM11 8.538a1.968 1.968 0 1 0-3.936 0 1.968 1.968 0 0 0 3.936 0zm1.846 0a3.815 3.815 0 1 1-7.63 0 3.815 3.815 0 0 1 7.63 0z"/>
    </defs>
    <g fill="none" fill-rule="evenodd" transform="translate(2.579 -.014)">
        <mask id="b" fill="#fff">
            <path id="a" d="M9.568 23.622a.923.923 0 0 1-1.531-.03l-.295-.458a373.642 373.642 0 0 1-3.124-4.958l-.244-.394c-1.352-2.199-2.343-3.891-2.853-4.905C.868 11.58.394 9.902.422 8.487.516 3.714 4.462-.079 9.23.016h.073a8.644 8.644 0 0 1 8.47 8.814c-.027 1.415-.567 3.074-1.271 4.343-.549.991-1.604 2.64-3.038 4.778l-.252.373a339.133 339.133 0 0 1-3.644 5.298zm-.379-2.686c.85-1.226 1.7-2.466 2.492-3.643l.25-.37c1.405-2.096 2.44-3.714 2.956-4.645.57-1.028 1.02-2.409 1.041-3.484a6.797 6.797 0 0 0-6.656-6.931l-.073-.001a6.797 6.797 0 0 0-6.931 6.662c-.021 1.075.373 2.473.902 3.523.479.952 1.452 2.614 2.777 4.768l.241.391a337.72 337.72 0 0 0 2.657 4.226l.344-.496zM11 8.538a1.968 1.968 0 1 0-3.936 0 1.968 1.968 0 0 0 3.936 0zm1.846 0a3.815 3.815 0 1 1-7.63 0 3.815 3.815 0 0 1 7.63 0z"/>
        </mask>
        <path fill="#000" fill-opacity=".85" fill-rule="nonzero" id="a" d="M9.568 23.622a.923.923 0 0 1-1.531-.03l-.295-.458a373.642 373.642 0 0 1-3.124-4.958l-.244-.394c-1.352-2.199-2.343-3.891-2.853-4.905C.868 11.58.394 9.902.422 8.487.516 3.714 4.462-.079 9.23.016h.073a8.644 8.644 0 0 1 8.47 8.814c-.027 1.415-.567 3.074-1.271 4.343-.549.991-1.604 2.64-3.038 4.778l-.252.373a339.133 339.133 0 0 1-3.644 5.298zm-.379-2.686c.85-1.226 1.7-2.466 2.492-3.643l.25-.37c1.405-2.096 2.44-3.714 2.956-4.645.57-1.028 1.02-2.409 1.041-3.484a6.797 6.797 0 0 0-6.656-6.931l-.073-.001a6.797 6.797 0 0 0-6.931 6.662c-.021 1.075.373 2.473.902 3.523.479.952 1.452 2.614 2.777 4.768l.241.391a337.72 337.72 0 0 0 2.657 4.226l.344-.496zM11 8.538a1.968 1.968 0 1 0-3.936 0 1.968 1.968 0 0 0 3.936 0zm1.846 0a3.815 3.815 0 1 1-7.63 0 3.815 3.815 0 0 1 7.63 0z"/>
    </g>
</svg>
