<svg xmlns="http://www.w3.org/2000/svg" width="17" height="20" viewBox="0 0 17 20">
    <g fill="none" fill-rule="evenodd">
        <path fill="#F9D420" d="M.075 11.677c.05-.782 1.403-1.285 2.522-1.568 1.536-.387 3.565-.6 5.714-.6h.117c4.1 0 8.342.813 8.342 2.174l-.049.16-1.492-.418v-.098c0-.608-2.793-1.285-6.802-1.285-4.009 0-6.803.677-6.803 1.285v.098l-1.483.403-.066-.151"/>
        <path fill="#ffffff" d="M8.421.112L.073 19.996H1.35l7.07-15.67 7.071 15.67h1.278L8.421.112"/>
        <path fill="#F9D420" d="M8.427 13.86c-3.952 0-7.297-.673-8.134-1.638-.15-.173-.23-.357-.218-.544l.044-.09 1.505-.418v.16c0 .609 2.794 1.286 6.803 1.286s6.802-.677 6.802-1.285v-.161l1.513.394.028.122c0 .784-1.359 1.287-2.5 1.572-1.56.388-3.636.602-5.843.602"/>
    </g>
</svg>
