<?xml version="1.0" encoding="UTF-8"?>
<svg width="24px" height="24px" viewBox="0 0 24 24" version="1.1" xmlns="http://www.w3.org/2000/svg" xmlns:xlink="http://www.w3.org/1999/xlink">
    <!-- Generator: Sketch 55.2 (78181) - https://sketchapp.com -->
    <title>icon / cart01 white</title>
    <desc>Created with Sketch.</desc>
    <defs>
        <path d="M7.63884463,22.1694382 C8.20225155,22.1694382 8.66126081,21.7199916 8.66126081,21.1677668 C8.66126081,20.6155419 8.20225155,20.1666509 7.63884463,20.1666509 C7.07487033,20.1666509 6.61586107,20.6155419 6.61586107,21.1677668 C6.61586107,21.7199916 7.07487033,22.1694382 7.63884463,22.1694382 Z M7.63884463,18.8360891 C8.95119126,18.8360891 10.0195651,19.8822051 10.0195651,21.1677668 C10.0195651,22.4538839 8.95119126,23.5 7.63884463,23.5 C6.32593062,23.5 5.25755677,22.4538839 5.25755677,21.1677668 C5.25755677,19.8822051 6.32593062,18.8360891 7.63884463,18.8360891 Z M16.8415548,22.1694382 C17.4049617,22.1694382 17.863971,21.7199916 17.863971,21.1677668 C17.863971,20.6155419 17.4049617,20.1666509 16.8415548,20.1666509 C16.2775805,20.1666509 15.8185712,20.6155419 15.8185712,21.1677668 C15.8185712,21.7199916 16.2775805,22.1694382 16.8415548,22.1694382 Z M16.8415548,18.8360891 C18.1539014,18.8360891 19.2222753,19.8822051 19.2222753,21.1677668 C19.2222753,22.4538839 18.1539014,23.5 16.8415548,23.5 C15.5286408,23.5 14.460267,22.4538839 14.460267,21.1677668 C14.460267,19.8822051 15.5286408,18.8360891 16.8415548,18.8360891 Z M18.8307273,12.3017248 L20.4261959,6.07225093 L5.11208091,6.07225093 L6.86074166,13.2995073 L18.8307273,12.3017248 Z M21.9144299,4.93502333 C22.0506007,5.10613525 22.0988279,5.32891408 22.0449269,5.53947064 L20.1010879,13.1322843 C20.026194,13.4239524 19.7708736,13.6367311 19.4644892,13.6622868 L6.69052809,14.7272919 L6.38754793,16.5156336 L19.0781044,16.5156336 L19.0781044,17.9239736 L5.53931697,17.9239736 C5.32825214,17.9239736 5.12796751,17.8328621 4.99066189,17.6750836 C4.85392366,17.517305 4.79548367,17.3089707 4.83009376,17.1050809 L5.36342961,13.9567327 C5.37988359,13.8572877 5.42357174,13.7700651 5.47747271,13.6895092 L2.73022567,2.33667771 L-8.34887715e-14,1.31667289 L0.512910227,-1.77635684e-15 L3.59888226,1.15389434 C3.82129466,1.23722807 3.98753658,1.4227845 4.04257231,1.64945224 L4.77165377,4.66391094 L21.3476187,4.66391094 C21.5688963,4.66391094 21.7776916,4.76391141 21.9144299,4.93502333 Z" id="path-1"></path>
    </defs>
    <g id="icon-/-cart01-white" stroke="none" stroke-width="1" fill="none" fill-rule="evenodd">
        <g id="color-/-black-/-50%" transform="translate(1.000000, 0.300000)">
            <mask id="mask-2" fill="white">
                <path d="M7.63884463,22.1694382 C8.20225155,22.1694382 8.66126081,21.7199916 8.66126081,21.1677668 C8.66126081,20.6155419 8.20225155,20.1666509 7.63884463,20.1666509 C7.07487033,20.1666509 6.61586107,20.6155419 6.61586107,21.1677668 C6.61586107,21.7199916 7.07487033,22.1694382 7.63884463,22.1694382 Z M7.63884463,18.8360891 C8.95119126,18.8360891 10.0195651,19.8822051 10.0195651,21.1677668 C10.0195651,22.4538839 8.95119126,23.5 7.63884463,23.5 C6.32593062,23.5 5.25755677,22.4538839 5.25755677,21.1677668 C5.25755677,19.8822051 6.32593062,18.8360891 7.63884463,18.8360891 Z M16.8415548,22.1694382 C17.4049617,22.1694382 17.863971,21.7199916 17.863971,21.1677668 C17.863971,20.6155419 17.4049617,20.1666509 16.8415548,20.1666509 C16.2775805,20.1666509 15.8185712,20.6155419 15.8185712,21.1677668 C15.8185712,21.7199916 16.2775805,22.1694382 16.8415548,22.1694382 Z M16.8415548,18.8360891 C18.1539014,18.8360891 19.2222753,19.8822051 19.2222753,21.1677668 C19.2222753,22.4538839 18.1539014,23.5 16.8415548,23.5 C15.5286408,23.5 14.460267,22.4538839 14.460267,21.1677668 C14.460267,19.8822051 15.5286408,18.8360891 16.8415548,18.8360891 Z M18.8307273,12.3017248 L20.4261959,6.07225093 L5.11208091,6.07225093 L6.86074166,13.2995073 L18.8307273,12.3017248 Z M21.9144299,4.93502333 C22.0506007,5.10613525 22.0988279,5.32891408 22.0449269,5.53947064 L20.1010879,13.1322843 C20.026194,13.4239524 19.7708736,13.6367311 19.4644892,13.6622868 L6.69052809,14.7272919 L6.38754793,16.5156336 L19.0781044,16.5156336 L19.0781044,17.9239736 L5.53931697,17.9239736 C5.32825214,17.9239736 5.12796751,17.8328621 4.99066189,17.6750836 C4.85392366,17.517305 4.79548367,17.3089707 4.83009376,17.1050809 L5.36342961,13.9567327 C5.37988359,13.8572877 5.42357174,13.7700651 5.47747271,13.6895092 L2.73022567,2.33667771 L-8.34887715e-14,1.31667289 L0.512910227,-1.77635684e-15 L3.59888226,1.15389434 C3.82129466,1.23722807 3.98753658,1.4227845 4.04257231,1.64945224 L4.77165377,4.66391094 L21.3476187,4.66391094 C21.5688963,4.66391094 21.7776916,4.76391141 21.9144299,4.93502333 Z" id="path-1"></path>
            </mask>
            <path stroke="#FFFFFF" stroke-width="0.5" fill="#FFFFFF" d="M7.63884463,22.1694382 C8.20225155,22.1694382 8.66126081,21.7199916 8.66126081,21.1677668 C8.66126081,20.6155419 8.20225155,20.1666509 7.63884463,20.1666509 C7.07487033,20.1666509 6.61586107,20.6155419 6.61586107,21.1677668 C6.61586107,21.7199916 7.07487033,22.1694382 7.63884463,22.1694382 Z M7.63884463,18.8360891 C8.95119126,18.8360891 10.0195651,19.8822051 10.0195651,21.1677668 C10.0195651,22.4538839 8.95119126,23.5 7.63884463,23.5 C6.32593062,23.5 5.25755677,22.4538839 5.25755677,21.1677668 C5.25755677,19.8822051 6.32593062,18.8360891 7.63884463,18.8360891 Z M16.8415548,22.1694382 C17.4049617,22.1694382 17.863971,21.7199916 17.863971,21.1677668 C17.863971,20.6155419 17.4049617,20.1666509 16.8415548,20.1666509 C16.2775805,20.1666509 15.8185712,20.6155419 15.8185712,21.1677668 C15.8185712,21.7199916 16.2775805,22.1694382 16.8415548,22.1694382 Z M16.8415548,18.8360891 C18.1539014,18.8360891 19.2222753,19.8822051 19.2222753,21.1677668 C19.2222753,22.4538839 18.1539014,23.5 16.8415548,23.5 C15.5286408,23.5 14.460267,22.4538839 14.460267,21.1677668 C14.460267,19.8822051 15.5286408,18.8360891 16.8415548,18.8360891 Z M18.8307273,12.3017248 L20.4261959,6.07225093 L5.11208091,6.07225093 L6.86074166,13.2995073 L18.8307273,12.3017248 Z M21.9144299,4.93502333 C22.0506007,5.10613525 22.0988279,5.32891408 22.0449269,5.53947064 L20.1010879,13.1322843 C20.026194,13.4239524 19.7708736,13.6367311 19.4644892,13.6622868 L6.69052809,14.7272919 L6.38754793,16.5156336 L19.0781044,16.5156336 L19.0781044,17.9239736 L5.53931697,17.9239736 C5.32825214,17.9239736 5.12796751,17.8328621 4.99066189,17.6750836 C4.85392366,17.517305 4.79548367,17.3089707 4.83009376,17.1050809 L5.36342961,13.9567327 C5.37988359,13.8572877 5.42357174,13.7700651 5.47747271,13.6895092 L2.73022567,2.33667771 L-8.34887715e-14,1.31667289 L0.512910227,-1.77635684e-15 L3.59888226,1.15389434 C3.82129466,1.23722807 3.98753658,1.4227845 4.04257231,1.64945224 L4.77165377,4.66391094 L21.3476187,4.66391094 C21.5688963,4.66391094 21.7776916,4.76391141 21.9144299,4.93502333 Z" id="path-1"></path>
        </g>
    </g>
</svg>