<svg xmlns="http://www.w3.org/2000/svg" width="21" height="22" viewBox="0 0 21 22">
    <path fill="#272F38" fill-rule="nonzero" d="M1.82 22c-.98 0-1.54-.413-1.68-1.1-.42-1.1.7-1.787 1.12-2.063.84-.55 1.26-.962 1.4-1.375 0-.274-.14-.55-.42-.962 0 0 0-.137-.14-.137C.7 14.575 0 12.375 0 10.175 0 4.537 4.76 0 10.5 0S21 4.537 21 10.175c0 5.637-4.76 10.175-10.5 10.175-.7 0-1.4-.138-2.1-.275C4.76 21.863 2.1 22 2.1 22h-.28zm2.8-7.012c.7.962.98 2.062.84 3.024 0 .138-.14.413-.14.55.7-.274 1.4-.55 2.24-.962.28-.138.56-.275.84-.138h.14c.56.138 1.26.276 1.96.276 4.2 0 7.7-3.3 7.7-7.425 0-4.126-3.5-7.563-7.7-7.563s-7.7 3.3-7.7 7.425c0 1.65.56 3.3 1.68 4.537 0 .138.14.138.14.276z"/>
</svg>
