<svg xmlns="http://www.w3.org/2000/svg" width="24" height="24" viewBox="0 0 24 24">
    <g fill-rule="nonzero">
        <path d="M14.57 4.892a2.972 2.972 0 1 0-5.943 0 2.972 2.972 0 0 0 5.944 0zm1.92 0a4.892 4.892 0 1 1-9.783 0 4.892 4.892 0 0 1 9.784 0zm3.787 11.852c0-2.309-1.398-4.118-2.963-4.118H6.78c-2.109 0-3.859 1.844-3.859 4.118v5.107h17.357v-5.107zm-2.963-6.038c2.75 0 4.883 2.761 4.883 6.038v6.067c0 .53-.43.96-.96.96H1.96a.96.96 0 0 1-.96-.96v-6.067c0-3.312 2.587-6.038 5.78-6.038h10.534z"/>
        <path d="M6.81 22.912H4.89v-4.708h1.92v4.708zm-1.92 0v-4.708h1.92v4.708H4.89zM18.465 22.912h-1.92v-4.708h1.92v4.708zm-1.92 0v-4.708h1.92v4.708h-1.92z"/>
    </g>
</svg>
