<svg width="32px" height="32px" viewBox="0 0 32 32" version="1.1" xmlns="http://www.w3.org/2000/svg" xmlns:xlink="http://www.w3.org/1999/xlink">
  <g id="Symbols" stroke="none" stroke-width="1" fill-rule="evenodd">
      <g id="icon-/-share-/-facebook">
          <g id="color-/-black-/-50%" transform="translate(8.000000, 1.000000)">
              <mask>
                  <path d="M15.4155591,0.0602516392 L15.4155591,5.6175793 L13.0763778,5.59631402 C13.0763778,5.59631402 11.0863016,5.12138933 11.0863016,6.35123161 L11.0863016,10.5475811 L15.4066986,10.5475811 L15.4244196,16.2679426 L11.0880737,16.2679426 L11.0880737,30 L4.41431862,30 L4.41431862,16.1492114 L0,16.1492114 L0.251639199,10.4979621 L4.42140705,10.4979621 L4.42140705,5.83377636 C4.42140705,5.83377636 3.84015595,0 10.4129009,0 C16.987418,0 15.4155591,0.0602516392 15.4155591,0.0602516392" id="path-1"></path>
              </mask>
              <path opacity="0.8" d="M15.4155591,0.0602516392 L15.4155591,5.6175793 L13.0763778,5.59631402 C13.0763778,5.59631402 11.0863016,5.12138933 11.0863016,6.35123161 L11.0863016,10.5475811 L15.4066986,10.5475811 L15.4244196,16.2679426 L11.0880737,16.2679426 L11.0880737,30 L4.41431862,30 L4.41431862,16.1492114 L0,16.1492114 L0.251639199,10.4979621 L4.42140705,10.4979621 L4.42140705,5.83377636 C4.42140705,5.83377636 3.84015595,0 10.4129009,0 C16.987418,0 15.4155591,0.0602516392 15.4155591,0.0602516392" id="path-1"></path>
              <g>
                  <mask id="mask-2">
                      <path d="M15.4155591,0.0602516392 L15.4155591,5.6175793 L13.0763778,5.59631402 C13.0763778,5.59631402 11.0863016,5.12138933 11.0863016,6.35123161 L11.0863016,10.5475811 L15.4066986,10.5475811 L15.4244196,16.2679426 L11.0880737,16.2679426 L11.0880737,30 L4.41431862,30 L4.41431862,16.1492114 L0,16.1492114 L0.251639199,10.4979621 L4.42140705,10.4979621 L4.42140705,5.83377636 C4.42140705,5.83377636 3.84015595,0 10.4129009,0 C16.987418,0 15.4155591,0.0602516392 15.4155591,0.0602516392" id="path-1"></path>
                  </mask>
              </g>
          </g>
      </g>
  </g>
</svg>