<svg width="32px" height="32px" viewBox="0 0 32 32" version="1.1" xmlns="http://www.w3.org/2000/svg" xmlns:xlink="http://www.w3.org/1999/xlink">
    <g id="Symbols" stroke="none" stroke-width="1" fill-rule="evenodd">
        <g>
            <g transform="translate(1.000000, 1.000000)">
                <g>
                    <path d="M15.0123219,0 C6.72156633,0 0,6.72156633 0,15.0123219 C0,21.3755694 3.95386255,26.8121304 9.5386934,28.9991106 C9.40277937,27.8129519 9.29157699,25.9842904 9.58811668,24.6869293 C9.85994473,23.5131263 11.3426432,17.2240137 11.3426432,17.2240137 C11.3426432,17.2240137 10.8978336,16.3220388 10.8978336,14.999966 C10.8978336,12.9118324 12.1087041,11.354999 13.6161141,11.354999 C14.9011195,11.354999 15.5189105,12.318753 15.5189105,13.4678443 C15.5189105,14.7528496 14.7034263,16.6803576 14.2709726,18.4719516 C13.9126538,19.9670059 15.0246777,21.1902321 16.4950203,21.1902321 C19.1638775,21.1902321 21.2149437,18.373105 21.2149437,14.3203959 C21.2149437,10.7248522 18.6325773,8.21662061 14.9381869,8.21662061 C10.6630731,8.21662061 8.1548415,11.4167781 8.1548415,14.728138 C8.1548415,16.0131433 8.64907432,17.3969952 9.26686535,18.1507003 C9.39042355,18.2989701 9.40277937,18.4348841 9.36571191,18.583154 C9.25450953,19.0526752 8.9950373,20.0782082 8.94561401,20.2882572 C8.88383491,20.5600852 8.72320925,20.6218643 8.43902537,20.4859503 C6.56094066,19.6086871 5.38713772,16.8780507 5.38713772,14.6663589 C5.38713772,9.93407965 8.82205581,5.58483085 15.3088616,5.58483085 C20.510662,5.58483085 24.5633711,9.29157699 24.5633711,14.2586168 C24.5633711,19.4357056 21.3014345,23.5996171 16.7792042,23.5996171 C15.2594383,23.5996171 13.8261631,22.8088446 13.3442861,21.8698022 C13.3442861,21.8698022 12.590581,24.7363526 12.4052437,25.4406343 C12.0716366,26.7503513 11.1573059,28.3813196 10.5395149,29.3821411 C11.9480784,29.8145948 13.4307768,30.0493554 14.9876102,30.0493554 C23.2783657,30.0493554 29.9999321,23.327789 29.9999321,15.0370335 C30.0246437,6.72156633 23.3030774,0 15.0123219,0 Z"></path>
                    <g>
                        <mask>
                            <path d="M15.0123219,0 C6.72156633,0 0,6.72156633 0,15.0123219 C0,21.3755694 3.95386255,26.8121304 9.5386934,28.9991106 C9.40277937,27.8129519 9.29157699,25.9842904 9.58811668,24.6869293 C9.85994473,23.5131263 11.3426432,17.2240137 11.3426432,17.2240137 C11.3426432,17.2240137 10.8978336,16.3220388 10.8978336,14.999966 C10.8978336,12.9118324 12.1087041,11.354999 13.6161141,11.354999 C14.9011195,11.354999 15.5189105,12.318753 15.5189105,13.4678443 C15.5189105,14.7528496 14.7034263,16.6803576 14.2709726,18.4719516 C13.9126538,19.9670059 15.0246777,21.1902321 16.4950203,21.1902321 C19.1638775,21.1902321 21.2149437,18.373105 21.2149437,14.3203959 C21.2149437,10.7248522 18.6325773,8.21662061 14.9381869,8.21662061 C10.6630731,8.21662061 8.1548415,11.4167781 8.1548415,14.728138 C8.1548415,16.0131433 8.64907432,17.3969952 9.26686535,18.1507003 C9.39042355,18.2989701 9.40277937,18.4348841 9.36571191,18.583154 C9.25450953,19.0526752 8.9950373,20.0782082 8.94561401,20.2882572 C8.88383491,20.5600852 8.72320925,20.6218643 8.43902537,20.4859503 C6.56094066,19.6086871 5.38713772,16.8780507 5.38713772,14.6663589 C5.38713772,9.93407965 8.82205581,5.58483085 15.3088616,5.58483085 C20.510662,5.58483085 24.5633711,9.29157699 24.5633711,14.2586168 C24.5633711,19.4357056 21.3014345,23.5996171 16.7792042,23.5996171 C15.2594383,23.5996171 13.8261631,22.8088446 13.3442861,21.8698022 C13.3442861,21.8698022 12.590581,24.7363526 12.4052437,25.4406343 C12.0716366,26.7503513 11.1573059,28.3813196 10.5395149,29.3821411 C11.9480784,29.8145948 13.4307768,30.0493554 14.9876102,30.0493554 C23.2783657,30.0493554 29.9999321,23.327789 29.9999321,15.0370335 C30.0246437,6.72156633 23.3030774,0 15.0123219,0 Z"></path>
                        </mask>
                    </g>
                </g>
            </g>
        </g>
    </g>
</svg>