<svg width="32px" height="32px" viewBox="0 0 32 32" version="1.1" xmlns="http://www.w3.org/2000/svg" xmlns:xlink="http://www.w3.org/1999/xlink">
    <g stroke="none" stroke-width="1" fill-rule="evenodd">
        <g transform="translate(1.000000, 4.000000)">
            <path opacity="0.8" d="M24.0388195,0.190011188 C22.2925325,-0.211698772 20.4950724,0.13372062 19.9922953,0.22839112 C19.9551947,0.232229114 19.9155354,0.268050384 19.8797141,0.277005702 C19.8656415,0.279564364 19.8541275,0.297474999 19.8541275,0.297474999 C19.357747,0.435642756 18.994417,0.884687966 18.994417,1.41561037 C18.994417,2.04759992 19.5176634,2.56700834 20.1739603,2.56700834 C20.1739603,2.56700834 20.8059498,2.48385182 21.2370844,2.32009744 C21.6656603,2.15250507 25.28105,2.19344366 27.0759515,5.14741913 C28.0546397,7.30181268 27.507086,8.74233948 27.4392815,8.97645707 C27.4392815,8.97645707 27.2064432,9.53552475 27.2064432,10.0869164 C27.2064432,10.7214647 27.730969,11.1231746 28.3783105,11.1231746 C28.9233055,11.1231746 29.3761888,11.0515321 29.5117978,10.1534417 L29.5181945,10.1534417 C31.4487051,3.85913273 27.1603873,0.902598601 24.0388195,0.190011188 M24.6260324,9.45748555 C25.0251837,9.45748555 25.3629271,9.17091539 25.4179384,8.79351272 C25.4256144,8.76664677 25.4294524,8.73850148 25.4294524,8.70907687 C26.034576,3.40113221 20.9837768,4.31585393 20.9837768,4.31585393 C20.5372903,4.31585393 20.1752396,4.67150797 20.1752396,5.11415653 C20.1752396,5.54784976 20.5372903,5.90478314 20.9837768,5.90478314 C24.6106805,5.12311184 23.8072605,8.67069694 23.8072605,8.67069694 C23.8123779,9.10694884 24.1757079,9.45748555 24.6260324,9.45748555 M12.4455212,16.4810132 C12.1320851,16.7100135 11.7508444,16.6805888 11.5858107,16.4042533 C11.4143803,16.1381525 11.4796262,15.7057386 11.7969003,15.4818556 C12.158951,15.2144754 12.545309,15.2925146 12.7090634,15.5598948 C12.8702591,15.834951 12.7525607,16.2456163 12.4455212,16.4810132 M9.53248432,18.9117423 C8.61008661,19.0166474 7.86679525,18.4959597 7.86679525,17.743713 C7.86679525,16.9914663 8.52948875,16.2033984 9.45444513,16.1100072 C10.5124519,16.0114987 11.1981734,16.607667 11.1981734,17.3663103 C11.1981734,18.1121603 10.4536027,18.8068371 9.53248432,18.9117423 M10.7772735,12.5521874 C5.83649683,13.1176518 6.40835782,17.6477631 6.40835782,17.6477631 C6.40835782,17.6477631 6.35718458,19.0818933 7.73118616,19.8123913 C10.6211951,21.3437506 13.6007572,20.4187943 15.1026919,18.5189876 C16.6110232,16.6166223 15.7282848,11.9918404 10.7772735,12.5521874 M11.7597997,21.8414104 C6.84716838,22.0665727 2.87356604,19.6550336 2.87356604,16.4464713 C2.87356604,13.2353502 6.84716838,10.6587774 11.7597997,10.4374532 C16.6749898,10.2148496 20.6562681,12.1990921 20.6562681,15.4012578 C20.6537094,18.6110995 16.6749898,21.6213655 11.7597997,21.8414104 M22.2196107,11.4174208 C21.0528607,11.1960965 21.6196044,10.5807382 21.6196044,10.5807382 C21.6196044,10.5807382 22.7633264,8.73850148 21.3944421,7.40032117 C19.6942111,5.74102876 15.5773237,7.61013147 15.5773237,7.61013147 C14.0037465,8.08860129 14.4233671,7.39136585 14.6446913,6.2079846 C14.6446913,4.81223439 14.1534282,2.45186854 9.9636189,3.84761875 C5.77892693,5.25232428 2.18528591,10.1611176 2.18528591,10.1611176 C-0.314527022,13.4272499 0.0142610664,15.9488115 0.0142610664,15.9488115 C0.638574635,21.5177397 6.68469333,23.0478196 11.3900731,23.4098703 C16.339805,23.791111 23.0153546,21.7429019 25.0430944,17.531344 C27.0721135,13.3159481 23.3889193,11.6477004 22.2196107,11.4174208"></path>
            <g>
                <mask id="mask-2">
                    <path d="M24.0388195,0.190011188 C22.2925325,-0.211698772 20.4950724,0.13372062 19.9922953,0.22839112 C19.9551947,0.232229114 19.9155354,0.268050384 19.8797141,0.277005702 C19.8656415,0.279564364 19.8541275,0.297474999 19.8541275,0.297474999 C19.357747,0.435642756 18.994417,0.884687966 18.994417,1.41561037 C18.994417,2.04759992 19.5176634,2.56700834 20.1739603,2.56700834 C20.1739603,2.56700834 20.8059498,2.48385182 21.2370844,2.32009744 C21.6656603,2.15250507 25.28105,2.19344366 27.0759515,5.14741913 C28.0546397,7.30181268 27.507086,8.74233948 27.4392815,8.97645707 C27.4392815,8.97645707 27.2064432,9.53552475 27.2064432,10.0869164 C27.2064432,10.7214647 27.730969,11.1231746 28.3783105,11.1231746 C28.9233055,11.1231746 29.3761888,11.0515321 29.5117978,10.1534417 L29.5181945,10.1534417 C31.4487051,3.85913273 27.1603873,0.902598601 24.0388195,0.190011188 M24.6260324,9.45748555 C25.0251837,9.45748555 25.3629271,9.17091539 25.4179384,8.79351272 C25.4256144,8.76664677 25.4294524,8.73850148 25.4294524,8.70907687 C26.034576,3.40113221 20.9837768,4.31585393 20.9837768,4.31585393 C20.5372903,4.31585393 20.1752396,4.67150797 20.1752396,5.11415653 C20.1752396,5.54784976 20.5372903,5.90478314 20.9837768,5.90478314 C24.6106805,5.12311184 23.8072605,8.67069694 23.8072605,8.67069694 C23.8123779,9.10694884 24.1757079,9.45748555 24.6260324,9.45748555 M12.4455212,16.4810132 C12.1320851,16.7100135 11.7508444,16.6805888 11.5858107,16.4042533 C11.4143803,16.1381525 11.4796262,15.7057386 11.7969003,15.4818556 C12.158951,15.2144754 12.545309,15.2925146 12.7090634,15.5598948 C12.8702591,15.834951 12.7525607,16.2456163 12.4455212,16.4810132 M9.53248432,18.9117423 C8.61008661,19.0166474 7.86679525,18.4959597 7.86679525,17.743713 C7.86679525,16.9914663 8.52948875,16.2033984 9.45444513,16.1100072 C10.5124519,16.0114987 11.1981734,16.607667 11.1981734,17.3663103 C11.1981734,18.1121603 10.4536027,18.8068371 9.53248432,18.9117423 M10.7772735,12.5521874 C5.83649683,13.1176518 6.40835782,17.6477631 6.40835782,17.6477631 C6.40835782,17.6477631 6.35718458,19.0818933 7.73118616,19.8123913 C10.6211951,21.3437506 13.6007572,20.4187943 15.1026919,18.5189876 C16.6110232,16.6166223 15.7282848,11.9918404 10.7772735,12.5521874 M11.7597997,21.8414104 C6.84716838,22.0665727 2.87356604,19.6550336 2.87356604,16.4464713 C2.87356604,13.2353502 6.84716838,10.6587774 11.7597997,10.4374532 C16.6749898,10.2148496 20.6562681,12.1990921 20.6562681,15.4012578 C20.6537094,18.6110995 16.6749898,21.6213655 11.7597997,21.8414104 M22.2196107,11.4174208 C21.0528607,11.1960965 21.6196044,10.5807382 21.6196044,10.5807382 C21.6196044,10.5807382 22.7633264,8.73850148 21.3944421,7.40032117 C19.6942111,5.74102876 15.5773237,7.61013147 15.5773237,7.61013147 C14.0037465,8.08860129 14.4233671,7.39136585 14.6446913,6.2079846 C14.6446913,4.81223439 14.1534282,2.45186854 9.9636189,3.84761875 C5.77892693,5.25232428 2.18528591,10.1611176 2.18528591,10.1611176 C-0.314527022,13.4272499 0.0142610664,15.9488115 0.0142610664,15.9488115 C0.638574635,21.5177397 6.68469333,23.0478196 11.3900731,23.4098703 C16.339805,23.791111 23.0153546,21.7429019 25.0430944,17.531344 C27.0721135,13.3159481 23.3889193,11.6477004 22.2196107,11.4174208"></path>
                </mask>
            </g>
        </g>
    </g>
</svg>