<svg xmlns="http://www.w3.org/2000/svg" width="24" height="24" viewBox="0 0 24 24">
    <g fill="none" fill-rule="evenodd">
        <path fill="#FACF00" stroke="#272F38" stroke-width="1.5" d="M22.498 12l-3.757-1.845V6.182c0-.904-.746-1.637-1.667-1.637H5.222c-.92 0-1.666.733-1.666 1.637v11.636c0 .904.746 1.637 1.666 1.637h11.852c.92 0 1.667-.733 1.667-1.637v-3.973L22.498 12z"/>
        <path fill="#272F38" fill-rule="nonzero" d="M11.682 12.842h-1.059l-.221-4.163h1.501l-.221 4.163zM10.384 14.3c0-.239.065-.42.196-.541.13-.123.32-.184.568-.184.24 0 .426.063.558.188.132.125.197.304.197.537 0 .224-.066.401-.2.53-.132.13-.318.194-.555.194-.243 0-.431-.063-.564-.19-.133-.126-.2-.304-.2-.534z"/>
    </g>
</svg>
