<svg xmlns="http://www.w3.org/2000/svg" width="66" height="18" viewBox="0 0 66 18">
    <g fill="none" fill-rule="evenodd">
        <path fill="#C1C1C1" d="M0 0h66v18H0z"/>
        <path fill="#FFF" d="M45.212 17a2.83 2.83 0 0 1-2.145-1.029l-.04-.042.728-.643.04.043c.365.514.89.771 1.336.771.688 0 1.133-.343 1.133-.9 0-.557-.243-.814-.971-1.157l-.567-.257c-.93-.429-1.416-1.115-1.416-1.972 0-1.114.971-1.757 1.902-1.757.728 0 1.336.343 1.821.9l.04.043-.687.729-.04-.043c-.365-.429-.689-.6-1.175-.6-.485 0-.93.257-.93.814 0 .429.242.771.89 1.029l.607.214c1.052.514 1.498 1.114 1.498 1.971.04 1.115-.77 1.886-2.024 1.886zM8.986 17a2.83 2.83 0 0 1-2.146-1.029l-.04-.042.729-.643.04.043c.364.514.89.771 1.336.771.688 0 1.133-.343 1.133-.9 0-.557-.243-.814-.971-1.157l-.567-.257c-.931-.429-1.417-1.115-1.417-1.972 0-1.114.972-1.757 1.903-1.757.728 0 1.335.343 1.821.9l.04.043-.687.729-.041-.043c-.364-.429-.688-.6-1.174-.6-.485 0-.93.257-.93.814 0 .429.242.771.89 1.029l.566.257c1.053.514 1.498 1.114 1.498 1.971C11.09 16.23 10.24 17 8.986 17zm29.628-.086V10.1h3.805v.943h-2.874v1.928h2.348v.943h-2.348v2.015h2.874v.985h-3.805zm-4.614 0V10.1h.931v5.829h2.833v.985H34zM31.531 10.1h.93v6.814h-.93V10.1zm-2.55 6.814v-4.5l-2.186 2.615-2.185-2.615v4.5h-.972V9.886l3.157 3.685 3.117-3.685v7.028h-.931zm-8.621 0h-.972l-.769-1.757h-2.752l-.77 1.757h-1.052l3.157-6.985 3.158 6.985zM18.295 14.3l-1.052-2.357L16.15 14.3h2.145zm-6.071-4.2h.93v6.814h-.93V10.1zM.243 16.914L3.48 9.93l3.157 6.985H5.586l-.77-1.757H2.065l-.769 1.757H.243zM3.4 11.943L2.348 14.3h2.145L3.4 11.943z"/>
        <path fill="#FACF00" d="M51.364 9.998c.04-.688 1.134-1.093 2.065-1.296 1.254-.323 2.954-.526 4.735-.526h.122c3.36 0 6.921.688 6.921 1.822l-.04.162-1.255-.365v-.121c0-.526-2.267-1.093-5.586-1.093-3.319 0-5.586.567-5.586 1.093v.121l-1.335.324-.04-.121z"/>
        <path fill="#FFF" d="M58.245.243L51.365 17h1.092l5.788-13.195L64.115 17h1.052z"/>
        <path fill="#FACF00" d="M58.245 11.779c-3.278 0-6.03-.567-6.678-1.417-.122-.162-.203-.324-.162-.486l.04-.04L52.7 9.47v.162c0 .527 2.267 1.093 5.586 1.093 3.319 0 5.585-.566 5.585-1.093v-.162l1.255.324v.122c0 .688-1.133 1.093-2.064 1.295-1.295.445-2.995.567-4.817.567z"/>
    </g>
</svg>
