<svg xmlns="http://www.w3.org/2000/svg" width="30" height="30" viewBox="0 0 30 30">
    <g fill="#000000" fill-rule="nonzero">
        <path d="M8.714 21.233H23.33c1.569 0 2.69-.901 2.69-2.248V7.249C26.02 6.009 25.01 5 23.772 5H5.25C4.01 5 3 6.01 3 7.249v17.284c0 .89 1.077 1.337 1.707.707l4.007-4.007zM5 22.118V7.248C5 7.115 5.114 7 5.25 7h18.522c.134 0 .249.114.249.249v11.736c0 .049-.01.07-.05.102-.102.083-.313.146-.64.146H8.3a1 1 0 0 0-.707.293L5 22.118z"/>
        <path d="M7.54 12.32v-2h13.313v2H7.54zm0-2h13.313v2H7.54v-2zM7.54 15.88v-2h13.313v2H7.54zm0-2h13.313v2H7.54v-2z"/>
    </g>
</svg>
