<svg xmlns="http://www.w3.org/2000/svg" width="24" height="24" viewBox="0 0 24 24">
    <g fill="none" fill-rule="evenodd">
        <path fill="#FACF04" d="M20.183 4.423a4.896 4.896 0 0 0-6.902 0l-.78.78-.781-.78a4.896 4.896 0 0 0-6.903 0 4.894 4.894 0 0 0 0 6.901L12.493 19l.007-.006.008.006 7.675-7.676a4.895 4.895 0 0 0 0-6.901z"/>
        <path fill="#272F38" fill-rule="nonzero" d="M12.25 3.893c-2.192-2.19-5.772-2.19-7.963 0s-2.191 5.772 0 7.962l7.676 7.675.468.468.07-.054.069.054 8.144-8.143c2.19-2.19 2.19-5.772 0-7.962-2.192-2.19-5.772-2.19-7.963 0l-.25.25-.251-.25zm7.403 6.901L12.5 17.947l-7.152-7.153a4.144 4.144 0 0 1 0-5.84 4.146 4.146 0 0 1 5.842 0l.78.78.53.53 1.311-1.31a4.146 4.146 0 0 1 5.842 0 4.145 4.145 0 0 1 0 5.84z"/>
        <path fill="#272F38" fill-rule="nonzero" d="M11.492 12.153L8.998 9.66 8 10.657l3.492 3.491 5.656-5.656-.997-.998z"/>
    </g>
</svg>
