<svg width="32px" height="32px" viewBox="0 0 32 32" version="1.1" xmlns="http://www.w3.org/2000/svg" xmlns:xlink="http://www.w3.org/1999/xlink">
    <g id="Symbols" stroke="none" stroke-width="1" fill-rule="evenodd">
        <g>
            <g transform="translate(1.000000, 5.000000)">
                <path d="M30,9.66027101 C28.9449099,9.84210323 27.4149712,9.65216384 26.6030962,9.31050457 C28.2893873,9.1692082 29.4301818,8.3932363 29.8714435,7.34162066 C29.2634058,7.71918311 27.3755936,8.13149056 26.3332433,7.73887195 C26.2834421,7.48986604 26.2255337,7.25475814 26.1676254,7.04165541 C25.3765973,4.08717137 22.6572212,1.70713817 19.8116048,1.99552175 C20.0386056,1.90055206 20.2725553,1.81253137 20.5076632,1.73377601 C20.8192101,1.62027564 22.6595375,1.31567772 22.3699958,0.660155194 C22.1244643,0.0799135235 19.8776204,1.09446782 19.4548894,1.22765703 C20.0142841,1.01687063 20.9373432,0.650889858 21.0369455,0 C20.1799019,0.118133035 19.3402309,0.529282323 18.6916573,1.123422 C18.9256071,0.869783423 19.105123,0.558236498 19.1410261,0.222368065 C16.8571208,1.70018917 15.5240706,4.67899471 14.4458171,7.57093773 C13.5980388,6.73705748 12.8463884,6.08269312 12.1711771,5.71671235 C10.284523,4.69173455 8.02262286,3.6192719 4.47631548,2.28506351 C4.36744779,3.47450102 5.05655716,5.05539899 7.04049724,6.10701463 C6.61081728,6.04794811 5.82442188,6.17997915 5.19669536,6.33054086 C5.45265027,7.6948616 6.28768868,8.81712543 8.55537969,9.35914759 C7.51997838,9.42863761 6.98490522,9.66837818 6.49847508,10.1826043 C6.97216539,11.1299849 8.12454156,12.2452998 10.1930278,12.0159827 C7.89059182,13.0224298 9.25375439,14.8847624 11.1276686,14.6068023 C7.93228584,17.9527468 2.89194302,17.7060572 0,14.9090839 C7.55472339,25.3406941 23.9763734,21.0774814 26.4212639,11.0303826 C28.2569587,11.0454388 29.3328958,10.3864417 30,9.66027101"></path>
                <g>
                     <mask>
                        <path d="M30,9.66027101 C28.9449099,9.84210323 27.4149712,9.65216384 26.6030962,9.31050457 C28.2893873,9.1692082 29.4301818,8.3932363 29.8714435,7.34162066 C29.2634058,7.71918311 27.3755936,8.13149056 26.3332433,7.73887195 C26.2834421,7.48986604 26.2255337,7.25475814 26.1676254,7.04165541 C25.3765973,4.08717137 22.6572212,1.70713817 19.8116048,1.99552175 C20.0386056,1.90055206 20.2725553,1.81253137 20.5076632,1.73377601 C20.8192101,1.62027564 22.6595375,1.31567772 22.3699958,0.660155194 C22.1244643,0.0799135235 19.8776204,1.09446782 19.4548894,1.22765703 C20.0142841,1.01687063 20.9373432,0.650889858 21.0369455,0 C20.1799019,0.118133035 19.3402309,0.529282323 18.6916573,1.123422 C18.9256071,0.869783423 19.105123,0.558236498 19.1410261,0.222368065 C16.8571208,1.70018917 15.5240706,4.67899471 14.4458171,7.57093773 C13.5980388,6.73705748 12.8463884,6.08269312 12.1711771,5.71671235 C10.284523,4.69173455 8.02262286,3.6192719 4.47631548,2.28506351 C4.36744779,3.47450102 5.05655716,5.05539899 7.04049724,6.10701463 C6.61081728,6.04794811 5.82442188,6.17997915 5.19669536,6.33054086 C5.45265027,7.6948616 6.28768868,8.81712543 8.55537969,9.35914759 C7.51997838,9.42863761 6.98490522,9.66837818 6.49847508,10.1826043 C6.97216539,11.1299849 8.12454156,12.2452998 10.1930278,12.0159827 C7.89059182,13.0224298 9.25375439,14.8847624 11.1276686,14.6068023 C7.93228584,17.9527468 2.89194302,17.7060572 0,14.9090839 C7.55472339,25.3406941 23.9763734,21.0774814 26.4212639,11.0303826 C28.2569587,11.0454388 29.3328958,10.3864417 30,9.66027101"></path>
                    </mask>
                </g>
            </g>
        </g>
    </g>
</svg>