<svg xmlns="http://www.w3.org/2000/svg" xmlns:xlink="http://www.w3.org/1999/xlink" width="24" height="24" viewBox="0 0 24 24">
    <defs>
        <path id="a" d="M17.67 16.99l5.172 5.172-1.414 1.415-5.172-5.172c-3.91 3.2-9.688 2.977-13.337-.672-3.887-3.888-3.887-10.191 0-14.08 3.888-3.887 10.191-3.887 14.08 0 3.648 3.65 3.872 9.427.671 13.338zM15.584 5.069a7.955 7.955 0 1 0-11.25 11.25 7.955 7.955 0 0 0 11.25-11.25z"/>
    </defs>
    <g fill="#272F38" fill-rule="evenodd" transform="translate(.996 .262)">
        <mask id="b" fill="#fff">
            <path id="a" d="M17.67 16.99l5.172 5.172-1.414 1.415-5.172-5.172c-3.91 3.2-9.688 2.977-13.337-.672-3.887-3.888-3.887-10.191 0-14.08 3.888-3.887 10.191-3.887 14.08 0 3.648 3.65 3.872 9.427.671 13.338zM15.584 5.069a7.955 7.955 0 1 0-11.25 11.25 7.955 7.955 0 0 0 11.25-11.25z"/>
        </mask>
        <path fill-rule="nonzero" d="M17.67 16.99l5.172 5.172-1.414 1.415-5.172-5.172c-3.91 3.2-9.688 2.977-13.337-.672-3.887-3.888-3.887-10.191 0-14.08 3.888-3.887 10.191-3.887 14.08 0 3.648 3.65 3.872 9.427.671 13.338zM15.584 5.069a7.955 7.955 0 1 0-11.25 11.25 7.955 7.955 0 0 0 11.25-11.25z"/>
    </g>
</svg>
