<svg width="32px" height="32px" viewBox="0 0 32 32" version="1.1" xmlns="http://www.w3.org/2000/svg" xmlns:xlink="http://www.w3.org/1999/xlink">
    <g id="Symbols" stroke="none" stroke-width="1" fill-rule="evenodd">
        <g transform="translate(1.000000, 3.000000)">
            <path opacity="0.8" d="M7.24250237,7.88709459 C6.31971774,7.88709459 5.57470484,7.12851133 5.57470484,6.1948704 C5.57470484,5.26122947 6.31971774,4.50400326 7.24250237,4.50400326 C8.16528701,4.50400326 8.91165694,5.26122947 8.91165694,6.1948704 C8.91165694,7.12851133 8.16528701,7.88709459 7.24250237,7.88709459 M14.3493011,4.50400326 C15.2720858,4.50400326 16.0211698,5.26122947 16.0211698,6.1948704 C16.0211698,7.12851133 15.2720858,7.88709459 14.3493011,7.88709459 C13.4278735,7.88709459 12.6815036,7.12851133 12.6815036,6.1948704 C12.6815036,5.26122947 13.4278735,4.50400326 14.3493011,4.50400326 M20.6215226,6.74582711 C20.8780024,6.74582711 21.1304112,6.7566834 21.3828199,6.77025377 C20.1452029,2.8728457 15.9085358,0 10.8752884,0 C4.869046,0 0,4.08467906 0,9.12606867 C0,12.1061202 1.70308047,14.7523409 4.33573076,16.4201384 L3.53507939,19.5318225 L7.38906229,17.7703895 C8.24399511,18.0105849 9.14371014,18.1680011 10.0787081,18.2263536 C9.88600896,17.5369792 9.78694531,16.8204641 9.78694531,16.0835934 C9.78694531,10.934998 14.6478491,6.74582711 20.6215226,6.74582711 M23.8865518,14.94504 C23.0071923,14.94504 22.2961053,14.2230968 22.2961053,13.334238 C22.2961053,12.4453793 23.0071923,11.7261501 23.8865518,11.7261501 C24.7631972,11.7261501 25.4742842,12.4453793 25.4742842,13.334238 C25.4742842,14.2230968 24.7631972,14.94504 23.8865518,14.94504 M17.754105,14.94504 C16.8774596,14.94504 16.1636586,14.2230968 16.1636586,13.334238 C16.1636586,12.4453793 16.8774596,11.7261501 17.754105,11.7261501 C18.6321075,11.7261501 19.3445515,12.4453793 19.3445515,13.334238 C19.3445515,14.2230968 18.6321075,14.94504 17.754105,14.94504 M30,16.141946 C30,11.7668612 25.7755462,8.2209255 20.560456,8.2209255 C15.3507939,8.2209255 11.1263401,11.7668612 11.1263401,16.141946 C11.1263401,20.5156738 15.3507939,24.0602524 20.560456,24.0602524 C21.8645678,24.0602524 23.1062559,23.8390555 24.2353101,23.4387298 L27.41756,25.0766725 L26.7200434,22.1414032 C28.7271,20.6880174 30,18.541186 30,16.141946"></path>
            <g>
                <mask>
                    <path d="M7.24250237,7.88709459 C6.31971774,7.88709459 5.57470484,7.12851133 5.57470484,6.1948704 C5.57470484,5.26122947 6.31971774,4.50400326 7.24250237,4.50400326 C8.16528701,4.50400326 8.91165694,5.26122947 8.91165694,6.1948704 C8.91165694,7.12851133 8.16528701,7.88709459 7.24250237,7.88709459 M14.3493011,4.50400326 C15.2720858,4.50400326 16.0211698,5.26122947 16.0211698,6.1948704 C16.0211698,7.12851133 15.2720858,7.88709459 14.3493011,7.88709459 C13.4278735,7.88709459 12.6815036,7.12851133 12.6815036,6.1948704 C12.6815036,5.26122947 13.4278735,4.50400326 14.3493011,4.50400326 M20.6215226,6.74582711 C20.8780024,6.74582711 21.1304112,6.7566834 21.3828199,6.77025377 C20.1452029,2.8728457 15.9085358,0 10.8752884,0 C4.869046,0 0,4.08467906 0,9.12606867 C0,12.1061202 1.70308047,14.7523409 4.33573076,16.4201384 L3.53507939,19.5318225 L7.38906229,17.7703895 C8.24399511,18.0105849 9.14371014,18.1680011 10.0787081,18.2263536 C9.88600896,17.5369792 9.78694531,16.8204641 9.78694531,16.0835934 C9.78694531,10.934998 14.6478491,6.74582711 20.6215226,6.74582711 M23.8865518,14.94504 C23.0071923,14.94504 22.2961053,14.2230968 22.2961053,13.334238 C22.2961053,12.4453793 23.0071923,11.7261501 23.8865518,11.7261501 C24.7631972,11.7261501 25.4742842,12.4453793 25.4742842,13.334238 C25.4742842,14.2230968 24.7631972,14.94504 23.8865518,14.94504 M17.754105,14.94504 C16.8774596,14.94504 16.1636586,14.2230968 16.1636586,13.334238 C16.1636586,12.4453793 16.8774596,11.7261501 17.754105,11.7261501 C18.6321075,11.7261501 19.3445515,12.4453793 19.3445515,13.334238 C19.3445515,14.2230968 18.6321075,14.94504 17.754105,14.94504 M30,16.141946 C30,11.7668612 25.7755462,8.2209255 20.560456,8.2209255 C15.3507939,8.2209255 11.1263401,11.7668612 11.1263401,16.141946 C11.1263401,20.5156738 15.3507939,24.0602524 20.560456,24.0602524 C21.8645678,24.0602524 23.1062559,23.8390555 24.2353101,23.4387298 L27.41756,25.0766725 L26.7200434,22.1414032 C28.7271,20.6880174 30,18.541186 30,16.141946"></path>
                </mask>
            </g>
        </g>
    </g>
</svg>