<svg xmlns="http://www.w3.org/2000/svg" xmlns:xlink="http://www.w3.org/1999/xlink" width="336" height="329" viewBox="0 0 336 329">
    <g fill="none" fill-rule="evenodd">
        <path fill="#FDE35B" d="M245.92 232.367c0 52.873-43.154 95.734-96.386 95.734-53.233 0-96.387-42.86-96.387-95.734 0-52.872 43.154-95.733 96.387-95.733 53.232 0 96.386 42.86 96.386 95.733"/>
        <path fill="#FCDE3A" d="M215.292 234.615c0 35.745-28.836 64.721-64.407 64.721s-64.408-28.976-64.408-64.721c0-35.746 28.837-64.722 64.408-64.722 35.57 0 64.407 28.976 64.407 64.722"/>
        <path fill="#282F39" d="M119.274 290.347c-21.341-11.325-34.598-33.288-34.598-57.32 0-35.803 29.295-64.931 65.302-64.931 16.173 0 31.69 5.922 43.695 16.676l-2.203 2.43c-11.398-10.21-26.134-15.835-41.492-15.835-34.193 0-62.012 27.661-62.012 61.66 0 22.82 12.59 43.679 32.857 54.434l-1.55 2.886zM104.013 318.213a87.105 87.105 0 0 1-3.123-1.838l1.487-2.656c.984.607 1.999 1.205 3.017 1.777l-1.381 2.717zM138.823 139.572l-.371-3.262a98.963 98.963 0 0 1 7.814-.575l.11 3.28c-2.519.085-5.06.272-7.553.557zm22.683.137a94.777 94.777 0 0 0-7.55-.648l.15-3.278c2.603.118 5.231.343 7.811.67l-.411 3.256zm-37.531 2.784l-.892-3.159a97.13 97.13 0 0 1 7.623-1.823l.633 3.221a93.022 93.022 0 0 0-7.364 1.76zm52.348.32a93.968 93.968 0 0 0-7.345-1.852l.672-3.213a96.97 96.97 0 0 1 7.603 1.918l-.93 3.147zm-66.526 4.96l-1.39-2.974a96.788 96.788 0 0 1 7.224-3.028l1.145 3.075a94.32 94.32 0 0 0-6.98 2.926zm80.645.498a93.89 93.89 0 0 0-6.95-3.015l1.184-3.062a97.22 97.22 0 0 1 7.193 3.122l-1.427 2.955zm-93.789 6.996l-1.85-2.711a97.393 97.393 0 0 1 6.647-4.153l1.624 2.852a94.108 94.108 0 0 0-6.42 4.012zm106.848.666a94.514 94.514 0 0 0-6.375-4.095l1.66-2.83a97.948 97.948 0 0 1 6.597 4.237l-1.882 2.688zm-118.629 8.841l-2.258-2.38a98.77 98.77 0 0 1 5.898-5.165l2.061 2.554a95.278 95.278 0 0 0-5.7 4.991zm-10.117 11.267l-2.608-1.991a98.231 98.231 0 0 1 5-6.039l2.442 2.193a95.4 95.4 0 0 0-4.834 5.837zm-8.187 12.741l-2.894-1.546a97.652 97.652 0 0 1 3.971-6.764l2.76 1.774a94.522 94.522 0 0 0-3.837 6.536zm-6.032 13.896l-3.106-1.06a97.467 97.467 0 0 1 2.83-7.318l3.01 1.306a94.443 94.443 0 0 0-2.734 7.072zm-3.707 14.676l-3.235-.544a96.72 96.72 0 0 1 1.61-7.672l3.181.803a93.58 93.58 0 0 0-1.556 7.413zm-1.301 15.084l-3.281-.022c.016-2.609.138-5.243.36-7.829l3.27.282a95.235 95.235 0 0 0-.35 7.569zm-2.138 15.605a98.038 98.038 0 0 1-.883-7.792l3.272-.238c.183 2.51.47 5.044.855 7.529l-3.244.501zm3.636 15.239a96.6 96.6 0 0 1-2.126-7.543l3.192-.762a93.651 93.651 0 0 0 2.052 7.287l-3.118 1.018zm6.046 14.45a97.442 97.442 0 0 1-3.316-7.104l3.026-1.267a94.105 94.105 0 0 0 3.204 6.863l-2.914 1.508zm8.293 13.29a97.673 97.673 0 0 1-4.414-6.48l2.784-1.737a94.907 94.907 0 0 0 4.264 6.262l-2.634 1.955zm10.31 11.796a98.075 98.075 0 0 1-5.392-5.692l2.47-2.16a94.76 94.76 0 0 0 5.211 5.5l-2.289 2.352zm12.062 10.002a98.505 98.505 0 0 1-6.232-4.76l2.094-2.526a94.931 94.931 0 0 0 6.023 4.598l-1.885 2.688zM213.36 162.702a83.76 83.76 0 0 0-2.572-2.248l1.842-2.246a86.888 86.888 0 0 1 2.662 2.327l-1.931 2.167z"/>
        <path fill="#FDF0B2" d="M35.72 214.839l-3.291-.36c.101-.48.209-.96.321-1.438l3.282.4c-.11.465-.214.93-.313 1.398M151.258 116.562a113.486 113.486 0 0 0-3.898-.002l-.053-3.282c1.339-.021 2.677-.021 4.01.002l-.06 3.282zm-11.673.392l-.276-3.27c1.325-.113 2.67-.204 3.995-.272l.166 3.278c-1.289.065-2.596.154-3.885.264zm19.458.013c-1.286-.111-2.594-.201-3.888-.269l.17-3.277c1.33.069 2.677.162 4 .277l-.282 3.269zm-27.188.91l-.5-3.243c1.311-.203 2.646-.384 3.97-.543l.387 3.258c-1.286.155-2.584.332-3.857.528zm34.926.024a111.72 111.72 0 0 0-3.86-.533l.393-3.258c1.328.16 2.664.345 3.97.549l-.503 3.242zm-42.577 1.425l-.718-3.203c1.3-.292 2.621-.565 3.923-.81l.607 3.224c-1.265.239-2.548.504-3.812.789zm50.231.034a113.189 113.189 0 0 0-3.814-.794l.612-3.224c1.31.25 2.63.523 3.924.817l-.722 3.2zm-57.768 1.929l-.93-3.147c1.277-.38 2.575-.74 3.858-1.074l.824 3.176c-1.247.324-2.51.676-3.752 1.045zm65.305.043a114.623 114.623 0 0 0-3.752-1.05l.83-3.175c1.289.338 2.586.7 3.857 1.08l-.935 3.145zm-72.695 2.42l-1.137-3.078a119.122 119.122 0 0 1 3.777-1.329l1.034 3.114a111.65 111.65 0 0 0-3.674 1.293zm80.079.057a116.186 116.186 0 0 0-3.671-1.301l1.041-3.112c1.27.426 2.54.877 3.775 1.339l-1.145 3.074zM102.07 126.7l-1.34-2.994a119.252 119.252 0 0 1 3.679-1.578l1.238 3.038a117.49 117.49 0 0 0-3.577 1.534zm94.484.076a116.542 116.542 0 0 0-3.574-1.545l1.247-3.034a117.69 117.69 0 0 1 3.676 1.59l-1.35 2.99zm-101.475 3.35l-1.54-2.896a118.259 118.259 0 0 1 3.566-1.823l1.44 2.948a113.2 113.2 0 0 0-3.466 1.772zm108.457.096c-1.14-.61-2.304-1.21-3.462-1.781l1.45-2.944c1.19.587 2.387 1.204 3.558 1.832l-1.546 2.893zm-115.2 3.799l-1.731-2.786c1.124-.701 2.28-1.395 3.433-2.061l1.637 2.843a111.738 111.738 0 0 0-3.338 2.004zm121.932.108a111.807 111.807 0 0 0-3.332-2.01l1.642-2.839c1.156.67 2.31 1.366 3.429 2.067l-1.74 2.782zm-128.38 4.225l-1.917-2.661a120.84 120.84 0 0 1 3.278-2.285l1.828 2.723a116.774 116.774 0 0 0-3.189 2.223zm134.834.126a114.461 114.461 0 0 0-3.19-2.23l1.83-2.722a117.22 117.22 0 0 1 3.28 2.294l-1.92 2.658zM75.747 143.12l-2.093-2.526a118.292 118.292 0 0 1 3.117-2.503l2.006 2.594a112.844 112.844 0 0 0-3.03 2.435zm147.118.135a113.43 113.43 0 0 0-3.03-2.439l2.009-2.593c1.048.815 2.097 1.66 3.117 2.51l-2.096 2.522zm-152.923 5.039l-2.261-2.376c.96-.916 1.948-1.829 2.941-2.713l2.179 2.452a113.52 113.52 0 0 0-2.86 2.637zm158.728.139c-.935-.894-1.896-1.78-2.858-2.638l2.18-2.45c.989.881 1.978 1.795 2.94 2.713l-2.262 2.375zm-164.172 5.42l-2.416-2.217c.898-.982 1.824-1.96 2.751-2.907l2.34 2.299c-.902.92-1.802 1.87-2.675 2.825zm169.61.137c-.867-.95-1.766-1.9-2.67-2.824l2.34-2.297c.93.951 1.856 1.93 2.747 2.906l-2.416 2.215zm-174.666 5.78l-2.56-2.048a120.905 120.905 0 0 1 2.548-3.087l2.49 2.133c-.84.984-1.674 1.994-2.478 3.002zm179.713.13a114.21 114.21 0 0 0-2.472-2.998l2.49-2.131a116.24 116.24 0 0 1 2.544 3.084l-2.562 2.045zm-184.36 6.118l-2.693-1.87a116.81 116.81 0 0 1 2.336-3.253l2.627 1.961c-.767 1.03-1.531 2.095-2.27 3.162zm188.996.13a113.82 113.82 0 0 0-2.268-3.168l2.63-1.957a119.38 119.38 0 0 1 2.334 3.257l-2.696 1.868zm-193.213 6.42l-2.812-1.684c.679-1.137 1.39-2.282 2.111-3.405l2.754 1.778a116.381 116.381 0 0 0-2.053 3.31zm197.42.137a117.158 117.158 0 0 0-2.047-3.316l2.757-1.772a119.81 119.81 0 0 1 2.106 3.408l-2.815 1.68zM46.81 179.388l-2.92-1.491a119.673 119.673 0 0 1 1.88-3.54l2.866 1.589a116.296 116.296 0 0 0-1.826 3.442zm204.94.144a116.21 116.21 0 0 0-1.817-3.446l2.87-1.581a118.89 118.89 0 0 1 1.87 3.545l-2.922 1.482zm-208.243 6.915l-3.012-1.29a119.341 119.341 0 0 1 1.637-3.659l2.967 1.392a116.276 116.276 0 0 0-1.592 3.557zm211.527.153a116.636 116.636 0 0 0-1.582-3.562l2.97-1.384a120.032 120.032 0 0 1 1.627 3.663l-3.015 1.283zm-214.348 7.115l-3.092-1.086c.44-1.257.907-2.523 1.388-3.761l3.054 1.189a115.365 115.365 0 0 0-1.35 3.658zm217.152.163l-.155-.445a118.398 118.398 0 0 0-1.188-3.22l3.058-1.181c.42 1.093.831 2.206 1.22 3.312l.158.448-3.093 1.086zm-219.478 7.28l-3.159-.875c.355-1.284.736-2.578 1.132-3.847l3.128.98a116.045 116.045 0 0 0-1.101 3.741zm221.792.164c-.342-1.244-.71-2.504-1.095-3.742l3.129-.976c.395 1.273.774 2.568 1.126 3.848l-3.16.87zm-223.612 7.42l-3.21-.66c.266-1.304.56-2.621.87-3.915l3.186.767c-.302 1.258-.587 2.539-.846 3.807zm225.422.165a118.287 118.287 0 0 0-.841-3.808l3.187-.763c.307 1.29.599 2.607.865 3.916l-3.211.655zm1.294 7.69a114.738 114.738 0 0 0-.582-3.856l3.232-.545c.22 1.309.421 2.643.598 3.965l-3.248.436zm.768 7.757c-.084-1.289-.19-2.595-.318-3.885l3.26-.324c.132 1.327.242 2.67.328 3.997l-3.27.212zm3.514 7.802l-3.277-.007.001-.411c0-1.16-.018-2.333-.054-3.49l3.276-.1c.036 1.19.055 2.397.055 3.59v.418zm-.302 8.017l-3.268-.237c.092-1.287.164-2.597.213-3.89l3.274.122c-.05 1.332-.124 2.68-.219 4.005zm-.845 7.974l-3.245-.457c.18-1.28.34-2.581.477-3.869l3.258.347c-.14 1.325-.305 2.664-.49 3.98zm-1.384 7.898l-3.206-.676c.266-1.268.514-2.556.737-3.828l3.227.567c-.229 1.308-.484 2.633-.758 3.937zm-1.915 7.787l-3.153-.893c.351-1.243.685-2.512.995-3.769l3.181.784a119.12 119.12 0 0 1-1.023 3.878zm-2.434 7.638l-3.086-1.103c.433-1.217.852-2.46 1.245-3.693l3.123.997c-.405 1.269-.837 2.547-1.282 3.799zM259.616 277.762l-2.887-1.111c.237-.527.469-1.055.696-1.585l2.907 1.066c-.233.545-.472 1.089-.716 1.63"/>
        <path fill="#FACF00" d="M222.88 323.607H80.69a3.228 3.228 0 0 1-3.222-3.216v-96.045a3.228 3.228 0 0 1 3.222-3.215H222.88a3.229 3.229 0 0 1 3.222 3.215v96.045a3.229 3.229 0 0 1-3.222 3.216"/>
        <path fill="#272F38" d="M81.416 222.597a1.57 1.57 0 0 0-1.572 1.566v95.512a1.57 1.57 0 0 0 1.572 1.566h141.64a1.57 1.57 0 0 0 1.572-1.566v-95.512a1.57 1.57 0 0 0-1.572-1.566H81.416zm141.64 101.908H81.416c-2.673 0-4.848-2.166-4.848-4.83v-95.512c0-2.663 2.175-4.83 4.848-4.83h141.64c2.673 0 4.847 2.167 4.847 4.83v95.512c0 2.664-2.174 4.83-4.847 4.83z"/>
        <path fill="#FACF00" d="M61.255 321.809c.23 2.996 3.497 5.393 7.461 5.393h164.337c3.964 0 7.232-2.397 7.462-5.393H61.255z"/>
        <path fill="#272F38" d="M64.335 323.366c.997 1.35 2.939 2.28 5.1 2.28h163.8c2.161 0 4.103-.93 5.1-2.28h-174zm168.9 5.634h-163.8c-4.794 0-8.782-3.157-9.077-7.186a1.699 1.699 0 0 1 .435-1.267 1.63 1.63 0 0 1 1.205-.536h178.674c.457 0 .894.195 1.206.536.31.342.468.8.434 1.267-.295 4.03-4.282 7.186-9.077 7.186z"/>
        <mask id="b" fill="#fff">
            <path id="a" d="M0 329h336V0H0z"/>
        </mask>
        <path fill="#FFF" d="M89.18 313.719H214.39v-82.7H89.18z" mask="url(#b)"/>
        <path fill="#272F38" d="M90.66 312.232h122.25v-78.827H90.66v78.827zm123.892 3.284H89.019a1.641 1.641 0 0 1-1.641-1.642v-82.111c0-.908.735-1.643 1.641-1.643h125.533c.906 0 1.641.735 1.641 1.643v82.111c0 .907-.735 1.642-1.641 1.642z" mask="url(#b)"/>
        <path fill="#29303A" d="M154.038 226.075a2.25 2.25 0 0 1-2.252 2.247 2.25 2.25 0 0 1-2.252-2.247 2.25 2.25 0 0 1 2.252-2.247 2.25 2.25 0 0 1 2.252 2.247" mask="url(#b)"/>
        <path fill="#FACF00" d="M101.79 237.311l-8.106 8.09" mask="url(#b)"/>
        <path fill="#272F38" d="M95.974 246.3l-2.29-2.285 7.618-7.602 2.29 2.285z" mask="url(#b)"/>
        <path fill="#FACF00" d="M110.799 240.008l-13.512 13.484" mask="url(#b)"/>
        <path fill="#272F38" d="M97.864 255.29l-2.379-2.374 13.835-13.807 2.38 2.374z" mask="url(#b)"/>
        <path fill="#282F39" d="M136.021 279.191c.088-1.556 2.439-2.478 4.436-2.93 2.692-.734 6.34-1.195 10.166-1.195h.26c7.22 0 14.865 1.56 14.865 4.125l-.09.37-2.693-.83v-.27c0-1.193-4.862-2.48-11.992-2.48-7.129 0-11.995 1.287-11.995 2.48v.27l-2.87.736-.087-.276z" mask="url(#b)"/>
        <path fill="#282F39" d="M150.846 257.986l-14.825 35.957h2.357l12.468-28.306 12.637 28.306h2.265z" mask="url(#b)"/>
        <path fill="#282F39" d="M150.856 283.156c-7.093 0-13.056-1.102-14.46-2.762-.259-.31-.44-.63-.352-.942l.093-.084 2.716-.707v.32c0 1.021 4.91 2.13 12.088 2.13 7.183 0 12.09-1.109 12.09-2.13v-.32l2.717.63v.237c0 1.35-2.455 2.135-4.467 2.526-2.805.87-6.48 1.102-10.425 1.102" mask="url(#b)"/>
        <path fill="#272F38" d="M17.711 275.864c2.377.489 4.465 1.23 6.332 2.275l2.587-1.533a17.637 17.637 0 0 0-8.919-.742zm9.246 4.3c1.542 1.307 2.924 2.903 4.202 4.83l3.73-2.21a17.25 17.25 0 0 0-4.775-4.49l-3.157 1.87zm-19.26 1.273l2.664.904c-.54 1.584-.891 3.079-1.05 4.526l4.331-2.566-2.958-4.973 2.779-1.646 2.958 4.972 4.29-2.54c-1.35-.555-2.833-.962-4.485-1.249l.484-2.792c-1.7.407-3.35 1.074-4.899 1.992a17.5 17.5 0 0 0-4.114 3.372zm-.712.847a17.529 17.529 0 0 0-3.531 8.054l2.526-1.497c-.025-2.111.313-4.27 1.005-6.557zm11.087 3.144l3.22 5.412 7.084-4.197c-1.325-1.97-2.756-3.517-4.4-4.714l-5.904 3.499zm14.734 2.341c1.078 2.043 1.818 4.02 2.227 6.001l3.139-1.859a17.298 17.298 0 0 0-1.64-6.35l-3.726 2.208zm-23.46 2.829c.266 2.013.943 4.006 2.042 6.11l7.125-4.22-3.22-5.413-5.947 3.523zm13.596 3.016l3.222 5.412 5.888-3.489c-.264-2.018-.936-4.015-2.03-6.119l-7.08 4.196zm-19.676.587a17.194 17.194 0 0 0 1.65 6.343l3.69-2.187c-1.084-2.041-1.828-4.016-2.24-5.993l-3.1 1.837zm32.15 3.094c.025 2.124-.315 4.296-1.01 6.598a17.514 17.514 0 0 0 3.577-8.119l-2.567 1.521zm-22.374 2.184c1.328 1.965 2.763 3.51 4.413 4.707l5.929-3.513-3.22-5.413-7.122 4.22zm-6.472 3.836a17.328 17.328 0 0 0 4.793 4.48l3.11-1.842c-1.548-1.307-2.934-2.902-4.215-4.824l-3.688 2.186zM20.723 306c1.385.57 2.91.988 4.613 1.278l-.464 2.712a17.558 17.558 0 0 0 4.772-1.955 17.447 17.447 0 0 0 3.972-3.22L31 303.923c.56-1.63.923-3.166 1.084-4.653l-4.27 2.53 2.958 4.973-2.779 1.647-2.959-4.973-4.311 2.555zm-5.87 3.478c.501.177 1.013.332 1.535.465a17.48 17.48 0 0 0 7.273.3c-2.35-.493-4.418-1.234-6.27-2.27l-2.538 1.505zm5.892 4.24c-1.718 0-3.447-.215-5.155-.65-5.367-1.364-9.88-4.732-12.707-9.484-5.817-9.777-2.552-22.469 7.278-28.293 4.763-2.823 10.334-3.635 15.684-2.29a20.491 20.491 0 0 1 12.691 9.458c5.836 9.808 2.588 22.526-7.24 28.35a20.645 20.645 0 0 1-10.551 2.909z" mask="url(#b)"/>
        <path fill="#FACF00" d="M247.721 251.694c0 3.476-2.823 6.292-6.305 6.292-3.483 0-6.306-2.816-6.306-6.292s2.823-6.292 6.306-6.292c3.482 0 6.305 2.816 6.305 6.292" mask="url(#b)"/>
        <path fill="#272F38" d="M241.416 245.966c-2.669 0-4.84 2.166-4.84 4.829 0 2.662 2.171 4.829 4.84 4.829 2.668 0 4.839-2.167 4.839-4.83 0-2.662-2.171-4.828-4.84-4.828m0 12.92c-4.47 0-8.107-3.63-8.107-8.091 0-4.461 3.637-8.09 8.108-8.09 4.47 0 8.107 3.629 8.107 8.09 0 4.46-3.637 8.09-8.107 8.09" mask="url(#b)"/>
        <path fill="#FDF0B2" d="M260.332 219.66c0-10.11-8.267-18.305-18.466-18.305-10.199 0-18.467 8.195-18.467 18.305 0 6.676 3.617 12.5 9.003 15.698v16.336h18.929v-16.336c5.385-3.199 9.001-9.022 9.001-15.698" mask="url(#b)"/>
        <path fill="#272F38" d="M233.967 249.336h15.798v-14.818c0-.572.304-1.102.8-1.396 5.184-3.073 8.278-8.459 8.278-14.407 0-9.263-7.616-16.8-16.977-16.8s-16.977 7.537-16.977 16.8c0 5.948 3.094 11.334 8.279 14.407.496.294.8.824.8 1.396v14.818zm17.443 3.257h-19.088a1.637 1.637 0 0 1-1.645-1.628v-15.549c-5.703-3.733-9.08-9.91-9.08-16.701 0-11.059 9.093-20.057 20.269-20.057 11.176 0 20.268 8.998 20.268 20.057 0 6.791-3.376 12.968-9.079 16.701v15.549c0 .9-.736 1.628-1.645 1.628z" mask="url(#b)"/>
        <path fill="#272F38" d="M235.11 241.806h16.214v-3.596H235.11zM235.11 246.3h16.214v-3.595H235.11zM245.208 224.727c-.537 0-1.04-.283-1.345-.758l-2.687-4.187-2.397 4.12c-.3.518-.817.814-1.398.825-.569-.005-1.094-.326-1.386-.848l-3.587-6.388 2.798-1.804 2.212 3.94 2.305-3.963c.291-.502.799-.811 1.35-.824.546-.02 1.07.271 1.38.757l2.711 4.223 2.515-4.179 2.745 1.896-3.844 6.388a1.61 1.61 0 0 1-1.348.802h-.024zM239.614 185.175h3.603v-8.99h-3.603zM268.232 195.962l-2.495-2.49 6.514-6.5 2.494 2.49zM214.785 195.962l-5.798-5.787 2.308-2.303 5.799 5.786zM208.622 207.648l-7.743-3.223 1.266-3.07 7.742 3.223zM257.069 188.77l-3.042-1.363 3.263-8.524 3.042 1.363zM226.626 187.872l-3.227-7.724 3.08-1.265 3.226 7.724zM275.186 208.546l-1.341-3.002 8.567-3.29 1.341 3.003z" mask="url(#b)"/>
        <path fill="#FEF3B3" d="M319.004 87.847l-40.737-26.444a1.722 1.722 0 0 0-2.378.501l-21.584 33.053a1.71 1.71 0 0 0 .503 2.371l40.738 26.444c.795.516 1.86.291 2.378-.502l21.583-33.053a1.71 1.71 0 0 0-.503-2.37" mask="url(#b)"/>
        <path fill="#272F38" d="M276.962 61.686a.068.068 0 0 0-.058.032l-21.397 32.758a.069.069 0 0 0 .02.095l40.385 26.207c.027.016.078.007.095-.02L317.404 88a.068.068 0 0 0-.02-.095L277 61.697a.07.07 0 0 0-.037-.01m18.981 62.362c-.64 0-1.266-.184-1.815-.54l-40.384-26.207a3.306 3.306 0 0 1-1.445-2.101 3.296 3.296 0 0 1 .468-2.504l21.397-32.758a3.35 3.35 0 0 1 4.619-.972l40.385 26.207a3.304 3.304 0 0 1 1.445 2.1c.184.87.018 1.759-.468 2.505l-21.397 32.757a3.314 3.314 0 0 1-2.108 1.44 3.383 3.383 0 0 1-.697.073" mask="url(#b)"/>
        <path fill="#272F38" d="M322.263 86.295c-3.17 0-6.747-.977-10.585-3.682l1.785-2.968c11.371 8.016 19.733-1.913 20.085-2.339L336 79.648c-.075.092-5.532 6.647-13.737 6.647M286.485 65.62c-14.04-9.32-7.548-24.121-7.48-24.27l2.949 1.39-1.475-.695 1.477.69c-.224.502-5.353 12.372 6.301 20.11l-1.772 2.775z" mask="url(#b)"/>
        <path fill="#272F38" d="M295.985 47.287a4.9 4.9 0 0 0-4.136 2.281 14.11 14.11 0 0 0-1.923 10.515c.756 3.653 2.863 6.785 5.93 8.823l4.128 2.74 2.688-4.21a14.111 14.111 0 0 0 1.923-10.515c-.757-3.652-2.863-6.785-5.931-8.822a4.828 4.828 0 0 0-2.68-.812m4.463 28.221a1.56 1.56 0 0 1-.865-.262l-5.46-3.625c-7.801-5.18-10.016-15.866-4.937-23.822 2.438-3.818 7.469-4.903 11.213-2.416 3.78 2.51 6.374 6.37 7.307 10.868.932 4.5.09 9.1-2.37 12.954l-3.555 5.567a1.58 1.58 0 0 1-1.333.736" mask="url(#b)"/>
        <path fill="#272F38" d="M302.97 74.538l3.298 2.174a10.585 10.585 0 0 0 8.103 1.531c2.815-.602 5.23-2.279 6.799-4.72l.157-.244c1.097-1.706.618-4-1.068-5.111l-.239-.157a10.594 10.594 0 0 0-8.104-1.531c-2.814.602-5.229 2.278-6.798 4.72l-2.147 3.338zm9.146 7.263c-2.691 0-5.327-.787-7.635-2.309l-4.67-3.079a1.67 1.67 0 0 1-.478-2.294l3.04-4.729c2.046-3.184 5.195-5.37 8.866-6.156a13.817 13.817 0 0 1 10.568 1.997l.239.157c3.2 2.11 4.108 6.462 2.025 9.702l-.157.243c-2.046 3.184-5.195 5.37-8.866 6.156-.976.208-1.958.312-2.932.312z" mask="url(#b)"/>
        <path fill="#272F38" d="M276.598 110.566l-2.753-1.797 23.37-35.958 2.753 1.796z" mask="url(#b)"/>
        <path fill="#272F38" d="M307.197 106.071l-42.36-26.992 1.778-2.672 42.36 26.992z" mask="url(#b)"/>
        <path fill="#FEF3B3" d="M46.905 85.604l-29.239 19.24a1.202 1.202 0 0 0-.338 1.691l16.011 23.268a1.263 1.263 0 0 0 1.73.33l29.239-19.24c.57-.375.722-1.132.338-1.69L48.634 85.934a1.263 1.263 0 0 0-1.729-.331" mask="url(#b)"/>
        <path fill="#272F38" d="M16.914 105.046l15.388 22.802 28.252-18.954-15.388-22.802-28.252 18.954zM32.2 131.24c-.92 0-1.823-.44-2.374-1.256L13.998 106.53a2.847 2.847 0 0 1 .774-3.953l28.906-19.393a2.865 2.865 0 0 1 3.965.773L63.47 107.41a2.846 2.846 0 0 1-.774 3.953L33.79 130.756a2.85 2.85 0 0 1-1.59.484z" mask="url(#b)"/>
        <path fill="#272F38" d="M40.707 88.093l-1.972-2.63c8.484-5.124 4.603-12.759 4.433-13.082l3.188-1.367c1.913 3.572 3.194 11.739-5.649 17.079M14.09 103.374c-4.791 0-8.643-2.372-10.487-4.245l2.44-2.047c.259.26 6.452 6.307 14.636 1.232l1.841 2.522c-2.972 1.844-5.84 2.538-8.43 2.538" mask="url(#b)"/>
        <path fill="#272F38" d="M19.29 85.078a9.928 9.928 0 0 0-5.522 1.677 3.229 3.229 0 0 0-.89 4.504 9.866 9.866 0 0 0 6.332 4.157 9.93 9.93 0 0 0 7.447-1.49l2.72-1.812-1.83-2.693a9.873 9.873 0 0 0-6.331-4.158 10.165 10.165 0 0 0-1.926-.185m1.852 13.802c-.852 0-1.712-.082-2.567-.247-3.47-.672-6.469-2.641-8.443-5.545a6.422 6.422 0 0 1-1-4.892 6.474 6.474 0 0 1 2.788-4.16 13.263 13.263 0 0 1 9.93-1.988c3.47.671 6.47 2.64 8.443 5.544l2.755 4.052c.51.75.309 1.77-.45 2.274l-4.093 2.726a13.241 13.241 0 0 1-7.363 2.236" mask="url(#b)"/>
        <path fill="#272F38" d="M34.957 78.759c-.434 0-.858.127-1.227.373l-.174.117c-3.376 2.255-4.275 6.816-2.002 10.168l1.347 1.987 2.003-1.337c3.377-2.256 4.277-6.818 2.004-10.17l-.116-.17a2.194 2.194 0 0 0-1.835-.968M32.46 95.284a1.639 1.639 0 0 1-1.36-.718l-2.262-3.335c-3.282-4.838-1.984-11.424 2.892-14.68l.175-.116a5.48 5.48 0 0 1 4.11-.825 5.446 5.446 0 0 1 3.494 2.302l.116.17c3.282 4.84 1.984 11.425-2.892 14.682l-3.36 2.243a1.64 1.64 0 0 1-.913.277" mask="url(#b)"/>
        <path fill="#272F38" d="M46.859 120.454l-17.132-25.18 2.686-1.788 17.131 25.18z" mask="url(#b)"/>
        <path fill="#272F38" d="M25.247 118.656l-1.826-2.721 30.603-20.65 1.826 2.72z" mask="url(#b)"/>
        <path fill="#FFF" d="M171.933 87.194c9.04-5.037 17.236-16.64 17.236-27.866 0-16.384-13.059-29.664-29.166-29.664-7.818 0-17.843 5.022-23.08 10.115" mask="url(#b)"/>
        <path fill="#272F38" d="M173.51 88.992l-1.581-2.916c8.071-4.464 16.65-15.318 16.65-26.637 0-15.577-12.55-28.248-27.978-28.248-7.646 0-17.345 4.95-22.304 9.738l-2.276-2.404c5.429-5.239 16.108-10.659 24.58-10.659 17.243 0 31.27 14.163 31.27 31.573 0 12.598-9.46 24.63-18.36 29.553" mask="url(#b)"/>
        <path fill="#272F38" d="M149.475 12.321c-2.344 0-4.25 1.938-4.25 4.32 0 6.83 5.464 12.387 12.181 12.387h4.208v-2.934c0-.358.015-.713.044-1.063v-.323c0-6.83-5.465-12.387-12.183-12.387zm15.46 16.707h2.844c4.953 0 8.981-4.096 8.981-9.132 0-1.62-1.293-2.935-2.883-2.935-4.654 0-8.491 3.613-8.941 8.224v3.843zm2.844 3.333h-10.373a15.18 15.18 0 0 1-8.135-2.358v1.547c-11.733 0-16.154-9.241-16.853-14.127l3.243-.484c.064.425 1.565 9.707 11.112 11.103a15.803 15.803 0 0 1-4.826-11.4c0-4.22 3.376-7.653 7.526-7.653 6.519 0 12.107 4.12 14.378 9.934 2.221-3.2 5.886-5.294 10.023-5.294 3.4 0 6.164 2.81 6.164 6.264 0 3.108-1.124 5.955-2.98 8.14 9.161-1.399 10.608-10.328 10.67-10.74l3.243.486c-.682 4.763-4.992 13.77-16.426 13.77v-1.263a12.044 12.044 0 0 1-6.766 2.075z" mask="url(#b)"/>
        <path fill="#282F39" d="M145.03 64.427c.077-1.246 2.143-1.984 3.898-2.345 2.364-.588 5.572-.956 8.933-.956h.229c6.345 0 13.063 1.25 13.063 3.3l-.08.295-2.366-.663v-.215c0-.955-4.272-1.986-10.538-1.986-6.265 0-10.542 1.031-10.542 1.986v.215l-2.52.59-.078-.221z" mask="url(#b)"/>
        <path fill="#282F39" d="M158.056 47.642L145.03 78.205h2.07l10.957-24.06 11.106 24.06h1.99z" mask="url(#b)"/>
        <path fill="#282F39" d="M157.616 68.317c-6.018 0-11.078-1.102-12.269-2.761-.22-.311-.373-.63-.298-.943l.079-.084 2.303-.707v.321c0 1.02 4.167 2.13 10.257 2.13 6.095 0 10.258-1.11 10.258-2.13v-.32l2.306.629v.237c0 1.351-2.083 2.136-3.79 2.526-2.38.871-5.498 1.102-8.846 1.102" mask="url(#b)"/>
        <path fill="#272F38" d="M209.328 11.618l-5.746-5.735 1.391-1.388 5.747 5.735-1.392 1.388zm11.928 0l-1.391-1.388 5.746-5.735 1.392 1.388-5.747 5.735zm-16.283 16.248l-1.391-1.388 5.746-5.735 1.392 1.388-5.747 5.735zm20.638 0l-5.746-5.735 1.391-1.388 5.747 5.735-1.392 1.388zM213.863 8.49h1.957V0h-1.957v8.49zm-14.785 8.192h8.521V14.73h-8.521v1.95zm23.006 0h8.522V14.73h-8.522v1.95zm-8.221 13.88h1.957v-7.64h-1.957v7.64zM108.596 89.977l-4.103-4.094 1.389-1.386 4.102 4.095-1.388 1.385zm8.91 0l-1.388-1.385 4.102-4.095 1.389 1.386-4.103 4.094zm-11.624 11.6l-1.389-1.386 4.103-4.094 1.388 1.386-4.102 4.094zm14.338 0l-4.102-4.094 1.388-1.386 4.103 4.094-1.389 1.386zM111.662 88.692h1.877V82.7h-1.877v5.993zm-9.871 6.057h5.843v-1.925h-5.843v1.925zm15.776 0h5.843v-1.925h-5.843v1.925zm-5.905 9.524h1.877v-5.392h-1.877v5.392zM99.089 35.27a4.29 4.29 0 0 0-4.29 4.282 4.29 4.29 0 0 0 8.58 0 4.29 4.29 0 0 0-4.29-4.281m0 10.573c-3.477 0-6.306-2.822-6.306-6.292 0-3.47 2.829-6.292 6.306-6.292s6.305 2.822 6.305 6.292c0 3.47-2.828 6.292-6.305 6.292M209.887 51.343c-.935 0-1.696.759-1.696 1.693a1.696 1.696 0 0 0 3.393 0c0-.934-.761-1.693-1.697-1.693m0 5.288a3.603 3.603 0 0 1-3.603-3.595 3.603 3.603 0 0 1 7.207 0 3.604 3.604 0 0 1-3.604 3.595" mask="url(#b)"/>
        <path fill="#FFF" d="M184.665 63.823c0 16.38-13.31 29.663-29.726 29.663-16.418 0-29.727-13.283-29.727-29.663 0-16.384 13.31-29.665 29.727-29.665s29.726 13.28 29.726 29.665" mask="url(#b)"/>
        <path fill="#272F38" d="M154.489 36.525c-15.333 0-27.807 12.448-27.807 27.748 0 15.299 12.474 27.746 27.807 27.746 15.332 0 27.805-12.447 27.805-27.746 0-15.3-12.473-27.748-27.805-27.748m0 58.76c-17.137 0-31.079-13.913-31.079-31.012 0-17.101 13.942-31.013 31.079-31.013 17.136 0 31.077 13.912 31.077 31.013 0 17.1-13.941 31.011-31.077 31.011" mask="url(#b)"/>
        <path fill="#272E38" d="M142.327 67.123c.07-1.245 1.922-1.982 3.495-2.344 2.12-.587 4.996-.957 8.009-.957h.205c5.688 0 11.712 1.25 11.712 3.301l-.071.295-2.122-.664v-.214c0-.955-3.83-1.985-9.448-1.985-5.617 0-9.451 1.03-9.451 1.985v.214l-2.26.59-.069-.221z" mask="url(#b)"/>
        <path fill="#272E38" d="M154.007 50.339l-11.68 27.866h1.856l9.824-21.936 9.956 21.936h1.785z" mask="url(#b)"/>
        <path fill="#272E38" d="M154.015 70.115c-5.588 0-10.286-.881-11.393-2.209-.203-.249-.347-.504-.277-.754l.074-.067 2.138-.566v.257c0 .816 3.87 1.703 9.525 1.703 5.659 0 9.525-.887 9.525-1.703v-.257l2.141.504v.19c0 1.08-1.934 1.708-3.519 2.02-2.21.697-5.106.882-8.214.882" mask="url(#b)"/>
        <path fill="#FACF00" d="M311.164 286.498l-18.462-4.223c-.36-.083-.723.128-.81.47l-3.616 14.277c-.087.343.135.687.496.77l18.461 4.223c.36.082.723-.129.81-.471l3.616-14.277c.087-.342-.134-.687-.495-.769" mask="url(#b)"/>
        <path fill="#272F38" d="M288.364 296.024l17.195 4.115 3.31-13.671-17.194-4.116-3.31 13.672zm17.689 6.908a2.05 2.05 0 0 1-.473-.057l-18.487-4.424a1.991 1.991 0 0 1-1.242-.898 1.97 1.97 0 0 1-.24-1.51l3.622-14.954a2.011 2.011 0 0 1 2.424-1.473l18.483 4.424a1.998 1.998 0 0 1 1.483 2.407L308 301.4a1.982 1.982 0 0 1-.904 1.236c-.32.194-.68.295-1.044.295z" mask="url(#b)"/>
        <path fill="#272F38" d="M308.59 285.852a11.25 11.25 0 0 1-2.317-.25l.654-2.369c4.808 1.012 6.593-2.62 6.667-2.774l2.588.912c-.782 1.706-3.277 4.481-7.592 4.481M295.733 283.156c-5.69-1.41-6.771-6.497-6.548-8.99l2.686.255-1.343-.127 1.344.12c-.039.495-.242 4.87 4.493 6.042l-.632 2.7z" mask="url(#b)"/>
        <path fill="#272F38" d="M296.848 274.996c-.239 0-.473.064-.682.189-.298.18-.508.461-.59.796a4.68 4.68 0 0 0 .582 3.62 4.843 4.843 0 0 0 3.02 2.155l1.274.3.307-1.248c.63-2.567-.986-5.158-3.602-5.776a1.338 1.338 0 0 0-.31-.036m4.594 9.958c-.104 0-.21-.012-.314-.037l-2.575-.608a7.504 7.504 0 0 1-4.677-3.338 7.25 7.25 0 0 1-.9-5.605 3.894 3.894 0 0 1 1.795-2.42 4.023 4.023 0 0 1 3.014-.467c4.05.957 6.551 4.968 5.576 8.942l-.62 2.527a1.334 1.334 0 0 1-1.299 1.006" mask="url(#b)"/>
        <path fill="#272F38" d="M302.922 282.657l.837.216c.924.24 1.88.077 2.691-.455.81-.532 1.38-1.371 1.602-2.363l.027-.118c.096-.43-.151-.863-.552-.967l-.106-.026c-1.914-.494-3.838.77-4.298 2.816l-.201.897zm1.682 3.195c-.49 0-.984-.062-1.473-.188l-2.137-.552a1.352 1.352 0 0 1-.83-.646 1.525 1.525 0 0 1-.159-1.085l.515-2.293c.805-3.585 4.18-5.8 7.523-4.937l.107.027c1.84.476 2.974 2.463 2.532 4.43l-.026.12c-.39 1.736-1.387 3.206-2.809 4.138a5.885 5.885 0 0 1-3.243.986z" mask="url(#b)"/>
        <path fill="#272F38" d="M298.871 299.336l-2.506-.596 3.799-15.584 2.506.596z" mask="url(#b)"/>
        <path fill="#272F38" d="M307.485 294.842l-18.327-4.626.59-2.566 18.327 4.626z" mask="url(#b)"/>
    </g>
</svg>
