<svg class="icon-mpo-v" xmlns="http://www.w3.org/2000/svg" width="24" height="24" viewBox="0 0 24 24">
    <g fill="#272F38" fill-rule="evenodd">
        <path d="M2.614 5.262a.383.383 0 0 0-.379.387v12.217c0 .213.17.386.38.386h18.77c.21 0 .38-.173.38-.386V5.649a.384.384 0 0 0-.38-.387H2.616zm18.772 14.252H2.614c-.89 0-1.614-.74-1.614-1.648V5.649C1 4.74 1.724 4 2.614 4h18.772C22.276 4 23 4.74 23 5.65v12.216c0 .909-.724 1.648-1.614 1.648z"/>
        <path d="M11.6 11.069c-.035.004-.074-.043-.09-.065-.005-.007-.024-.044-.02-.05.008-.006.047.007.058.015.026.02.047.046.059.092 0 .005-.004.008-.007.008m-.689-.386c-.019.006-.065-.046-.078-.065-.024-.036-.047-.075-.073-.11-.023-.031-.048-.053-.054-.107-.001-.006-.005-.023-.001-.022.026.002.05.046.063.063.009.013.02.025.028.038.012.02.017.042.03.06.016.022.036.042.053.064.009.011.021.022.027.038.003.008.01.038.005.04m-.168.003c-.018-.001-.026-.011-.038-.018a.11.11 0 0 1-.057-.093c0-.005.001-.006.005-.006.036 0 .074.047.088.068.004.007.014.024.013.037-.001.008-.005.012-.01.012m-.658.118c-.001.003-.004.007-.008.007-.03 0-.04-.046-.053-.066l-.031-.053c-.008-.012-.018-.024-.025-.038-.008-.017-.011-.036-.022-.051-.005-.008-.014-.016-.02-.023a.302.302 0 0 1-.041-.073l-.008-.03-.02-.053c-.002-.009-.004-.027-.002-.033 0-.003.002-.005.004-.005.023.004.046.06.057.08.012.022.032.04.043.063.01.02.013.046.024.066.008.015.023.028.032.042.013.02.021.044.031.065.011.024.027.042.036.065.004.01.006.027.003.037m-.118-.862a.278.278 0 0 1-.016-.034c-.005-.012-.006-.024-.011-.036a13.17 13.17 0 0 0-.056-.122c-.007-.016-.017-.047-.01-.067 0-.003.007-.001.01.001l.015.015.009.018c.008.013.02.027.027.042.015.031.018.067.033.098.01.021.026.039.036.06.005.011.008.023.012.035.002.009.002.021.002.028 0 .011 0 .018-.005.018-.027-.002-.035-.036-.046-.056m6.03 2.662c-.036-.129-.415-.074-.726-.102a4.437 4.437 0 0 1-1.084-.228 7.9 7.9 0 0 1-1.149-.489l-.154-.081-.08-.047a.62.62 0 0 0-.061-.034c-.024-.01-.04-.023-.061-.036-.021-.013-.05-.027-.072-.04-.032-.02-.052-.034-.081-.056-.019-.013-.028-.017-.053-.032-.015-.01-.042-.024-.055-.033-.028-.018-.045-.033-.073-.052l-.05-.032c-.02-.012-.039-.028-.056-.04-.01-.008-.024-.016-.033-.025a.943.943 0 0 0-.062-.054c-.02-.015-.038-.032-.057-.047l-.045-.035c-.031-.022-.05-.04-.082-.062-.02-.014-.036-.034-.056-.048-.023-.017-.043-.036-.066-.052a.334.334 0 0 1-.043-.036l-.045-.047c-.011-.013-.034-.026-.046-.04a.411.411 0 0 0-.072-.068c-.015-.014-.02-.02-.025-.028a.468.468 0 0 0-.044-.048.852.852 0 0 1-.03-.027l-.022-.03-.02-.026-.036-.038a2.163 2.163 0 0 1-.026-.027.164.164 0 0 1-.016-.022.163.163 0 0 0-.015-.02c-.009-.01-.015-.006-.017-.005-.006.004-.008.014-.002.027.008.015.02.032.027.042l.004.005.008.014.013.022c.012.015.024.028.037.04a.316.316 0 0 1 .033.04c.006.01.013.02.022.03a.101.101 0 0 1 .011.013l.013.015.02.021a.472.472 0 0 0 .035.034l.027.025.07.081c.011.015.033.026.046.037.015.01.027.03.039.045.009.01.028.028.038.04.023.029.039.045.07.067a.226.226 0 0 1 .046.044c.008.011.035.037.045.049.025.031.036.061.033.062-.018.005-.06-.032-.084-.048-.02-.014-.024-.02-.043-.034-.004-.003-.035-.025-.045-.038a.556.556 0 0 1-.039-.04c-.034-.045-.046-.048-.086-.086-.03-.029-.065-.054-.094-.08l-.025-.026-.029-.028c-.013-.016-.031-.049-.047-.06l-.045-.037c-.006-.004-.012-.012-.018-.017-.008-.006-.017-.012-.023-.02l-.059-.075c-.009-.011-.021-.021-.03-.034-.02-.026-.035-.053-.055-.078-.026-.035-.065-.06-.09-.095-.027-.036-.043-.079-.068-.117-.011-.016-.028-.028-.04-.043-.007-.01-.01-.02-.017-.03-.013-.02-.03-.04-.043-.06-.018-.026-.03-.054-.047-.081-.003-.004-.01-.022-.02-.036-.011-.013-.02-.029-.033-.048l-.026-.045c-.01-.014-.015-.026-.021-.035l-.023-.034c-.016-.025-.02-.037-.038-.06-.01-.014-.021-.025-.03-.022-.008.005-.005.014-.004.02.008.02.008.017.016.032.013.024.018.036.032.058.007.01.019.035.028.049.01.013.019.03.025.04.007.012.017.043.028.056.007.01.017.03.024.043.014.027.032.05.046.071l.029.054c.02.029.042.056.061.086l.035.062c.011.017.027.031.038.049.014.02.021.043.035.063.01.016.024.032.035.048.018.027.035.054.054.08.011.014.025.026.036.04.014.02.026.044.041.06.018.017.023.027.038.044.02.025.073.1.064.1-.03.004-.09-.064-.115-.088-.02-.019-.04-.033-.055-.05-.02-.028-.034-.058-.054-.084-.007-.009-.018-.016-.025-.025-.014-.018-.026-.037-.042-.052l-.02-.019c-.024-.031-.045-.064-.068-.096-.01-.014-.023-.025-.033-.038-.007-.01-.012-.022-.018-.033L11 10.39c-.007-.011-.011-.022-.019-.033-.012-.019-.03-.036-.042-.055-.01-.016-.013-.037-.024-.053-.026-.04-.055-.082-.08-.122-.008-.01-.01-.022-.017-.032-.02-.033-.04-.07-.062-.102-.007-.012-.01-.026-.018-.038-.01-.015-.025-.026-.035-.04-.007-.012-.01-.024-.016-.037-.008-.017-.018-.034-.027-.05l-.015-.03a1.092 1.092 0 0 1-.066-.125c-.01-.022-.027-.043-.038-.066l-.035-.076-.018-.05c-.012-.026-.03-.048-.043-.076l-.02-.05c-.005-.01-.014-.018-.02-.014-.007.004-.008.013-.004.027.008.028.023.06.03.075.015.031.022.064.036.096.008.018.02.035.028.052l.04.089c.009.017.015.033.024.048.005.009.012.018.016.027.009.02.012.042.02.061.01.02.026.037.035.057.048.102.097.2.155.29.016.025.025.056.041.081.017.026.04.046.057.072.014.021.017.05.03.073.018.034.043.063.063.095.006.009.008.02.014.028.007.013.017.025.025.037.01.017.016.036.028.051.012.017.03.031.042.048.015.021.026.045.042.066.01.015.028.025.039.04l.096.126c.028.034.075.084.098.13.007.013.031.046.026.053-.013.009-.073-.057-.084-.067-.025-.025-.047-.058-.069-.085-.005-.006-.063-.063-.068-.07a.439.439 0 0 1-.017-.023c-.016-.024-.026-.053-.044-.076-.007-.009-.018-.016-.025-.025-.013-.018-.023-.038-.035-.056-.021-.028-.048-.053-.068-.081-.023-.031-.039-.067-.062-.098-.011-.015-.026-.028-.037-.045-.004-.007-.006-.014-.011-.021-.008-.013-.02-.027-.026-.04-.006-.014-.01-.026-.017-.037l-.072-.114c-.01-.017-.017-.035-.028-.052-.017-.027-.04-.052-.058-.08-.021-.032-.033-.072-.054-.105l-.044-.064c-.015-.024-.023-.051-.036-.076-.012-.021-.029-.042-.039-.063l-.03-.072c-.007-.013-.017-.026-.023-.04-.007-.016-.009-.033-.016-.05-.021-.045-.052-.088-.074-.133a1.221 1.221 0 0 1-.041-.1c-.007-.02-.01-.037-.019-.055-.019-.041-.042-.085-.06-.127a4.982 4.982 0 0 0-.025-.066l-.004-.02c-.009-.019-.02-.038-.028-.057a7.536 7.536 0 0 0-.022-.068c-.03-.073-.056-.156-.083-.232-.004-.014-.005-.031-.01-.046l-.043-.118c-.008-.02-.027-.013-.023.007.006.027.01.034.014.055l.007.032c.003.013.01.027.013.04.007.023.008.046.016.069.011.031.023.062.033.094l.01.049.016.044c.017.04.032.079.046.118l.018.068c.005.012.014.025.02.038.005.01.006.02.01.032l.031.077c.01.021.022.042.03.065.004.011.004.02.008.031.024.067.051.137.08.2.007.016.01.033.016.049l.02.04.01.026c.009.02.024.035.033.053.025.052.047.102.078.146.029.041.041.096.063.145.01.023.024.043.038.064.006.01.01.022.016.034.014.025.021.048.038.07.014.019.013.023.024.049a.302.302 0 0 1 .014.056c-.005.003-.029-.011-.037-.02-.011-.012-.029-.029-.04-.055l-.025-.05c-.015-.032-.04-.06-.06-.089-.01-.017-.017-.036-.026-.055l-.05-.105-.027-.042c-.009-.013-.013-.028-.022-.042a.901.901 0 0 1-.056-.096c-.011-.024-.017-.048-.028-.071-.003-.008-.01-.015-.014-.022-.008-.012-.011-.026-.018-.04-.008-.018-.021-.035-.03-.053-.017-.037-.027-.076-.045-.113-.008-.017-.022-.031-.03-.049-.012-.026-.013-.058-.026-.086-.032-.072-.069-.147-.097-.223-.004-.013-.005-.027-.01-.04-.011-.034-.027-.064-.04-.097-.005-.015-.006-.028-.011-.043-.009-.022-.019-.045-.027-.068-.002-.007-.003-.015-.006-.022-.01-.021-.016-.046-.026-.068-.005-.011-.013-.023-.017-.035-.008-.022-.006-.05-.014-.07-.01-.032-.024-.065-.035-.095-.007-.018-.008-.035-.014-.053l-.023-.063c-.008-.022-.007-.044-.014-.067l-.018-.05c-.011-.03-.015-.061-.026-.089l-.006-.015c-.003-.008-.008-.015-.016-.013s-.008.014-.008.02c.002.023.01.043.016.06.007.02.01.04.016.057.003.012.002.025.005.037.004.017.01.034.016.051.004.017.002.034.005.047.012.038.024.08.037.115.005.019.006.04.011.056l.021.056c.006.016.007.032.014.046.007.016.015.033.02.05.008.024.007.046.015.068.013.035.03.069.042.103.004.012.005.025.01.038.01.03.017.06.028.09.015.042.035.083.05.125.015.04.017.09.034.128.01.019.028.03.036.049.006.012.004.025.008.039.005.016.013.031.018.046l.01.04c.006.015.017.03.024.045.011.025.017.05.031.072.01.016.024.032.033.05.01.02.013.042.022.064.014.03.031.06.043.093.01.03.014.06.029.086.014.026.031.049.045.075l.027.057c.007.015.021.029.03.044l.03.06c.007.015.01.03.018.042l.035.056c.012.018.025.04.033.062a.22.22 0 0 0 .021.046c.01.013.023.025.032.04.008.015.02.063.015.066-.01.003-.04-.025-.048-.035-.023-.028-.035-.066-.056-.096-.023-.032-.037-.05-.055-.088-.01-.02-.028-.06-.04-.079-.012-.018-.028-.034-.037-.054-.007-.016-.011-.036-.018-.052-.012-.024-.034-.04-.046-.064-.013-.028-.019-.056-.032-.081-.007-.013-.016-.027-.022-.04-.008-.016-.012-.032-.02-.048-.015-.034-.039-.062-.054-.095-.016-.034-.025-.071-.042-.106-.008-.018-.024-.034-.033-.053-.012-.024-.018-.05-.03-.075-.006-.015-.017-.03-.024-.045-.01-.022-.014-.045-.024-.068l-.069-.154c-.008-.02-.01-.04-.02-.06a14.072 14.072 0 0 1-.026-.05c-.02-.045-.027-.098-.047-.143-.01-.022-.023-.044-.032-.068-.014-.04-.02-.079-.034-.118-.021-.06-.039-.123-.06-.183-.007-.018-.008-.035-.014-.054a12.668 12.668 0 0 1-.02-.052c-.004-.014-.007-.035-.01-.053l-.05-.153c-.003-.012-.004-.034-.008-.05l-.01-.027c-.005-.011-.005-.021-.008-.034-.012-.037-.022-.08-.034-.117-.004-.012-.005-.029-.009-.042-.016-.053-.024-.118-.046-.167-.004-.01-.01-.02-.019-.017-.01.002-.007.013-.006.022.002.024.011.045.015.065.002.009.002.021.003.032.001.009.002.02.005.03l.03.1c.004.015.001.038.005.055.014.05.024.11.042.155.017.042.02.09.032.135.004.02.005.04.007.058.003.02.014.032.02.048.004.011.003.021.008.034.01.032.017.063.029.095.008.023.02.044.028.065.003.01.002.02.005.03l.015.066.047.135c.009.025.012.049.02.072l.105.283.017.062c.007.021.02.039.029.058.011.024.015.05.024.076.011.03.025.053.037.085.005.015.01.031.018.046.005.01.014.021.02.032.009.02.01.043.02.061.008.019.024.034.035.052.01.016.011.037.02.055.013.03.03.055.042.085l.013.037c.007.014.017.027.024.042v.001c.002.002.002.005.003.008l.005.019a.163.163 0 0 0 .016.028l.015.017a.057.057 0 0 1 .007.009c.012.02.014.047.024.069.01.021.028.038.038.06.008.016.013.057.002.059-.042 0-.045-.06-.06-.091-.01-.024-.029-.045-.041-.068a.123.123 0 0 1-.01-.023.221.221 0 0 0-.01-.024l-.009-.018c-.004-.008-.015-.023-.02-.03v-.002c-.016-.026-.027-.063-.039-.08l-.021-.03c-.011-.017-.016-.038-.025-.056-.008-.017-.021-.034-.029-.052-.01-.02-.01-.047-.02-.068-.005-.012-.015-.023-.02-.034-.012-.025-.019-.05-.031-.075-.006-.011-.016-.022-.021-.034-.01-.02-.015-.042-.026-.06a1.54 1.54 0 0 1-.065-.128c-.01-.025-.015-.05-.025-.074-.01-.021-.023-.042-.032-.062-.007-.014-.008-.027-.014-.042-.009-.024-.02-.048-.028-.072-.005-.016-.01-.052-.015-.066-.006-.018-.016-.037-.023-.054-.012-.026-.016-.054-.027-.08-.01-.02-.02-.041-.027-.062-.006-.018-.008-.034-.015-.05l-.018-.04c-.005-.015-.01-.04-.014-.06l-.024-.066c-.004-.017-.005-.055-.009-.065l-.067-.21c-.01-.033-.015-.064-.024-.096-.003-.012-.003-.028-.006-.04l-.021-.06-.009-.043c-.003-.014-.01-.029-.016-.043-.013-.041-.02-.085-.033-.126-.004-.016-.004-.038-.008-.054-.016-.05-.02-.108-.035-.16l-.01-.045c-.025-.098-.036-.208-.065-.302-.006-.018.001-.042-.004-.061a.879.879 0 0 0-.018-.061l-.005-.027c-.005-.016-.012-.028-.02-.027-.011.004-.009.013-.008.027 0 .022.003.04.007.058.004.015.001.027.006.04.009.031.012.074.017.102.002.011 0 .027.002.04.003.014.014.032.017.047.003.02.003.047.006.07l.014.053c.005.015.001.03.006.043.005.015.012.029.015.045.003.017 0 .043.003.058.023.086.03.189.055.271.003.012.003.025.006.037.021.072.037.15.06.221l.004.036c.008.025.014.052.02.078.002.011.002.022.005.034l.025.078c.004.013.005.025.007.038.002.01.008.021.01.03.005.016.004.03.009.044.003.008.01.017.012.026.003.015.005.03.01.046.005.018.015.036.023.054.005.015.005.03.011.045a2.6 2.6 0 0 1 .031.082c.009.022.01.045.017.068l.018.044c.003.012.005.023.01.035.003.011.015.028.023.042.006.016.003.037.008.054.006.018.015.032.021.048.006.016.006.033.01.05.005.012.013.025.019.036l.015.042c.004.009.011.018.016.027l.02.05c.01.024.01.053.018.08.002.007.002.026-.003.028-.011.002-.023-.015-.03-.026a.335.335 0 0 1-.035-.06l-.008-.024c-.007-.018-.013-.038-.021-.056-.005-.011-.012-.024-.016-.036-.006-.017-.003-.037-.01-.052-.006-.013-.016-.023-.022-.035l-.01-.035-.023-.04c-.006-.013-.005-.025-.01-.04a.332.332 0 0 0-.018-.052c-.007-.016-.017-.033-.024-.05-.004-.01-.006-.019-.008-.028l-.017-.04c-.002-.009-.005-.019-.009-.028L9.58 8.99c-.004-.012-.005-.025-.01-.037l-.022-.068c-.005-.016-.006-.033-.011-.05-.006-.02-.015-.039-.022-.058-.006-.016-.007-.033-.012-.049-.007-.02-.018-.04-.025-.062-.004-.017-.004-.035-.008-.051l-.038-.127c-.015-.047-.016-.1-.03-.146l-.032-.099c-.004-.017-.004-.033-.008-.05a2.205 2.205 0 0 0-.036-.124c-.006-.02-.004-.041-.01-.063s-.006-.049-.014-.072c-.004-.014-.01-.025-.013-.043-.004-.019-.003-.04-.006-.054-.003-.014-.027-.096-.03-.111-.002-.015-.002-.043-.004-.053-.001-.006-.014-.042-.015-.05-.002-.01-.002-.02-.006-.039-.003-.018-.014-.058-.016-.07l-.004-.047c-.002-.012-.01-.039-.016-.058-.006-.023-.001-.049-.008-.07a.347.347 0 0 1-.026-.088l-.002-.048c0-.013-.006-.036-.007-.055a.401.401 0 0 0-.011-.07c-.003-.01-.002-.021-.004-.03-.007-.026-.013-.05-.026-.048-.01.002-.013.01-.009.026l.012.056c.002.01.003.037.003.046 0 .014.002.017.003.03l.005.025c.002.01.005.022.005.029v.032c0 .006 0 .009.003.02.002.012.004.014.004.024v.023a.09.09 0 0 0 .004.026c.006.017.017.04.012.066-.005.027.004.052.01.076.003.015 0 .031.002.045l.016.063c.005.017.002.032.006.048.006.023.022.053.024.064.002.01.001.037.005.055l.008.049v.024l.015.058c.002.01.001.015.004.026l.013.067c.002.014.001.022.004.035.004.022.012.04.017.06.003.015.002.024.003.036l.015.054.005.042c.007.03.011.062.02.092.005.018.015.034.02.051.005.016.006.033.01.049.004.014.014.026.018.04l.004.038c.003.014.01.029.012.043.002.012.001.023.004.034l.014.037c.003.015.002.031.006.047.005.018.013.036.019.053.005.015.002.032.007.05.01.036.022.077.035.112.005.019.004.038.011.058.005.013.011.022.016.034.005.012 0 .025.004.039.006.022.01.052.018.074.009.025.023.045.032.069.009.025.01.05.018.077.008.022.02.043.028.064.007.018.004.041.011.06.008.021.023.037.03.059.01.024.016.048.023.073l.007.03c.009.032.026.058.037.089.004.014.005.026.01.039a.72.72 0 0 0 .026.065c.008.018.02.036.029.055.008.017.01.035.017.053l.022.054c.004.011.004.02.009.031.021.048.048.096.07.143.012.026.018.054.03.08.01.02.021.04.03.063.006.013.008.027.014.04.012.026.029.052.04.077.004.007.012.034.009.045l-.003.004c-.008.002-.024-.012-.033-.02-.03-.03-.035-.087-.057-.127-.006-.01-.014-.023-.019-.035l-.009-.024c-.013-.025-.03-.048-.042-.074-.008-.02-.01-.042-.018-.06-.035-.075-.075-.148-.11-.223-.015-.035-.018-.074-.031-.111-.009-.022-.022-.04-.031-.061-.008-.016-.01-.033-.017-.05-.01-.022-.023-.042-.032-.065-.005-.015-.007-.03-.013-.046-.007-.016-.018-.03-.025-.046-.01-.024-.012-.047-.02-.074l-.015-.043-.01-.038c-.01-.029-.027-.054-.038-.083-.007-.02-.006-.044-.014-.063-.007-.016-.02-.029-.026-.045-.007-.017 0-.038-.006-.058-.005-.02-.013-.038-.02-.055-.003-.012-.004-.023-.008-.034a11.229 11.229 0 0 0-.025-.07c-.004-.012-.005-.024-.01-.034-.006-.014-.016-.027-.021-.042-.006-.023-.008-.047-.013-.07l-.03-.082-.004-.028c-.007-.025-.01-.054-.018-.08-.003-.012-.002-.023-.005-.035l-.023-.071c-.004-.015-.004-.03-.008-.045-.012-.038-.023-.082-.034-.119-.003-.01-.002-.02-.005-.032-.01-.029-.021-.064-.028-.094-.003-.017-.003-.033-.007-.05-.004-.02-.011-.039-.016-.059v-.024l-.006-.04c-.013-.051-.033-.116-.045-.168l-.006-.057c-.002-.013-.003-.028-.007-.042-.004-.013-.01-.028-.012-.042-.003-.022-.003-.044-.007-.066v-.005c-.005-.027-.019-.081-.022-.103a5.89 5.89 0 0 1-.01-.078c0-.016-.003-.034-.005-.052-.004-.027-.01-.05-.014-.078-.002-.019 0-.035-.003-.051-.001-.01-.002-.027-.014-.027-.013 0-.011.014-.012.026-.001.028.004.064.006.082.004.032.001.063.005.096.002.018.007.037.01.054l.011.092v.001a.367.367 0 0 0 .005.041l.001.004v.002l.001.002a.182.182 0 0 0 .005.018c.003.012.001.022.005.034.01.036.007.075.017.11.014.051.022.109.037.16.004.015 0 .03.004.046l.013.049c.004.02 0 .039.006.059l.015.054c.006.021.006.043.012.066.007.023.014.048.019.072.004.026.007.057.012.085.004.023.017.051.023.077.001.008 0 .017.002.026l.013.054c.002.008.001.015.004.024.008.033.019.076.03.109l.005.028.017.055.007.036.014.05c.003.013.004.024.008.036.004.015.01.03.016.044.01.03.012.062.022.092.007.017.015.034.021.053.005.017.006.037.011.056l.032.092c.013.035.02.073.032.106.005.013.004.026.008.04l.032.103c.006.017.006.034.013.051.011.028.028.051.038.08.009.024.01.049.02.071.012.03.027.062.038.094.009.022.011.044.02.065l.027.054.016.047c.005.012.017.033.026.049.01.022.012.045.02.069.013.036.03.072.046.105.006.013.007.026.012.04.009.023.025.041.035.063.01.021.012.043.02.064.014.03.025.045.025.087 0 .004-.002.007-.006.009-.008.003-.017-.01-.022-.015-.023-.023-.026-.044-.04-.075-.022-.047-.05-.09-.072-.137-.011-.024-.015-.05-.027-.074-.006-.015-.016-.03-.023-.045-.01-.021-.015-.043-.026-.063-.016-.028-.029-.062-.041-.094-.005-.012-.006-.023-.011-.035-.006-.012-.015-.023-.02-.035-.008-.02-.014-.043-.022-.064-.017-.037-.036-.077-.051-.117-.013-.037-.02-.072-.034-.11l-.018-.047c-.004-.014-.004-.026-.009-.04-.012-.033-.028-.068-.043-.1-.007-.017-.009-.032-.015-.05l-.024-.063c-.01-.027-.01-.058-.02-.086-.022-.06-.05-.124-.07-.188-.003-.015-.002-.03-.006-.045a4.194 4.194 0 0 1-.03-.101c-.012-.038-.01-.078-.022-.115l-.047-.145c-.005-.014-.003-.029-.007-.044a1.645 1.645 0 0 0-.035-.113c-.007-.017-.007-.036-.013-.052-.007-.02-.027-.012-.025.01 0 .02.008.045.01.055.002.014.002.027.005.042.006.025.014.046.022.07.007.024.007.047.014.071l.012.038c.008.025.008.052.016.074.007.018.012.04.017.059.004.012.003.022.007.035l.021.067c.004.013.002.025.006.037l.014.052c.004.016.004.039.01.056.01.03.02.064.031.093.012.033.014.067.025.1.022.059.041.126.063.185.005.015.003.03.008.048.007.025.012.05.021.075.005.012.013.024.018.035.007.015.008.03.015.045.005.012.013.024.017.036.007.02.005.042.012.06l.02.045c.005.016.005.033.012.048.006.014.015.026.021.04.006.012.007.025.013.039.005.014.013.028.019.042.006.015.007.032.014.047.005.013.015.026.02.04.005.016.006.032.01.048.01.023.024.043.034.065.008.016.008.034.016.051.008.02.02.038.029.057.011.025.02.052.03.076.02.042.026.09.046.13.014.032.034.061.048.092.007.016.01.035.018.05.009.02.024.035.033.054.006.018.011.037.02.055.01.024.026.045.037.068.006.013.008.026.015.039.011.025.03.047.043.072l.018.05c.012.027.033.05.046.077.01.02.016.041.028.06l.048.076a.763.763 0 0 1 .036.067c.01.02.025.037.035.057l.032.06c.011.02.024.036.037.055.021.032.035.067.055.1l.048.067c.043.058.104.163.13.198.022.029.04.062.06.092.015.023.035.046.051.068.014.017.025.037.039.055l.01.014a6.362 6.362 0 0 0 1.586 1.454c.25.156.386.202.386.202.032.013.01.036-.006.046l-2.824 1.8c-.01.006-.03.022-.022.04.007.013.035.005.043.003 2.266-.793 3.911-1.445 4.917-1.92 1.019-.482 1.362-.758 1.324-.895"/>
    </g>
</svg>
