<svg xmlns="http://www.w3.org/2000/svg" width="24" height="24" viewBox="0 0 24 24">
    <path fill="#272F38" fill-rule="nonzero" d="M19.843 18.568a.468.468 0 0 0 0-.655l-2.202-2.202a.464.464 0 0 0-.647-.006l-1.107 1.134a1.985 1.985 0 0 1-2.804 0l-5.41-5.41a1.985 1.985 0 0 1 0-2.803L8.786 7.51a.466.466 0 0 0-.001-.655L6.585 4.654a.466.466 0 0 0-.655 0L4.526 6.059a14.03 14.03 0 0 0 4.117 9.54c2.7 2.7 6.307 4.146 10.049 4.12l1.151-1.15zm-.81 2.666a15.552 15.552 0 0 1-11.465-4.56A15.554 15.554 0 0 1 3 5.756a.76.76 0 0 1 .223-.543L4.855 3.58a1.986 1.986 0 0 1 2.805 0l2.2 2.201a1.986 1.986 0 0 1 .002 2.805L8.747 9.7a.465.465 0 0 0 0 .653l5.41 5.41a.464.464 0 0 0 .648.007l1.108-1.135a1.986 1.986 0 0 1 2.803 0l2.203 2.202a1.988 1.988 0 0 1 0 2.805l-1.37 1.369a.76.76 0 0 1-.516.222z"/>
</svg>
