<svg width="32px" height="32px" viewBox="0 0 32 32" version="1.1" xmlns="http://www.w3.org/2000/svg" xmlns:xlink="http://www.w3.org/1999/xlink">
    <g id="Symbols" stroke="none" stroke-width="1" fill-rule="evenodd">
        <g>
            <g transform="translate(1.000000, 1.000000)">
                <path d="M23.5537934,29.7520413 L6.69428926,29.7520413 C3.13395868,29.7520413 0.247760331,26.865843 0.247760331,23.3057603 L0.247760331,6.4462562 C0.247760331,2.88617355 3.13395868,-2.47933884e-05 6.69428926,-2.47933884e-05 L23.5537934,-2.47933884e-05 C27.113876,-2.47933884e-05 30.0000744,2.88617355 30.0000744,6.4462562 L30.0000744,23.3057603 C30.0000744,26.865843 27.113876,29.7520413 23.5537934,29.7520413 Z M25.9081983,13.5678099 C25.9081983,8.72070248 21.0486942,4.77706612 15.075719,4.77706612 C9.10299174,4.77706612 4.24323967,8.72070248 4.24323967,13.5678099 C4.24323967,17.9130992 8.09687603,21.5525207 13.3024959,22.2405372 C13.6553058,22.3166529 14.1355537,22.4730992 14.2567934,22.7748347 C14.3661322,23.0485537 14.3281983,23.4777273 14.2917521,23.7541736 C14.2917521,23.7541736 14.1648099,24.5185537 14.1372893,24.6814463 C14.0901818,24.9554132 13.9196033,25.7527686 15.075719,25.2655785 C16.2318347,24.7783884 21.3139835,21.5921901 23.5867934,18.9762397 L23.5862975,18.9762397 C25.1562149,17.2548347 25.9081983,15.5076446 25.9081983,13.5678099 Z M12.8747355,11.225405 C12.9912645,11.225405 13.0857273,11.3198678 13.0857273,11.4361488 L13.0857273,16.1560661 C13.0857273,16.2723471 12.9912645,16.366562 12.8747355,16.366562 L12.1148182,16.366562 C11.9982893,16.366562 11.9038264,16.2723471 11.9038264,16.1560661 L11.9038264,11.4361488 C11.9038264,11.3198678 11.9982893,11.225405 12.1148182,11.225405 L12.8747355,11.225405 Z M18.1045785,11.225405 C18.2213554,11.225405 18.3158182,11.3198678 18.3158182,11.4361488 L18.3158182,16.1560661 C18.3158182,16.2723471 18.2213554,16.366562 18.1045785,16.366562 L17.3449091,16.366562 C17.3260661,16.366562 17.3079669,16.3640826 17.2908595,16.3596198 C17.2898678,16.3593719 17.288876,16.358876 17.2876364,16.358876 C17.2831736,16.3573884 17.2784628,16.3559008 17.2732562,16.3541653 C17.2712727,16.3534215 17.2692893,16.3524298 17.2670579,16.351686 C17.2633388,16.3501983 17.2603636,16.3489587 17.2568926,16.3474711 C17.2531736,16.3459835 17.2499504,16.3442479 17.2467273,16.3425124 C17.2444959,16.3412727 17.2427603,16.340281 17.2407769,16.3390413 C17.236314,16.3368099 17.2318512,16.3340826 17.2276364,16.3313554 C17.2271405,16.3306116 17.2261488,16.3301157 17.225405,16.3296198 C17.2053223,16.3159835 17.1869752,16.2986281 17.1718512,16.2775537 L15.0063967,13.3529256 L15.0063967,16.1560661 C15.0063967,16.2723471 14.9119339,16.366562 14.795157,16.366562 L14.0354876,16.366562 C13.9189587,16.366562 13.8244959,16.2723471 13.8244959,16.1560661 L13.8244959,11.4361488 C13.8244959,11.3198678 13.9189587,11.225405 14.0354876,11.225405 L14.795157,11.225405 C14.7976364,11.225405 14.7998678,11.2256529 14.802595,11.2256529 C14.806314,11.2259008 14.8097851,11.2261488 14.8135041,11.2263967 C14.8172231,11.2268926 14.8209421,11.2271405 14.8246612,11.2278843 C14.8273884,11.2281322 14.8306116,11.2286281 14.8335868,11.229124 C14.8375537,11.2298678 14.8415207,11.2306116 14.8454876,11.2318512 C14.8482149,11.2323471 14.8504463,11.2330909 14.8529256,11.2335868 C14.8571405,11.2348264 14.8613554,11.2360661 14.8655702,11.2378017 C14.8678017,11.2385455 14.8700331,11.2392893 14.8722645,11.240281 C14.8764793,11.2417686 14.8804463,11.2435041 14.8844132,11.2452397 C14.8866446,11.2462314 14.888876,11.2474711 14.8911074,11.2484628 C14.8948264,11.2504463 14.8985455,11.2526777 14.9022645,11.2549091 C14.9044959,11.2561488 14.9067273,11.2571405 14.9087107,11.2586281 C14.9124298,11.2611074 14.9161488,11.2635868 14.9196198,11.266314 C14.9216033,11.2675537 14.9233388,11.2687934 14.9250744,11.2705289 C14.9290413,11.2732562 14.9327603,11.2767273 14.9364793,11.2799504 C14.937719,11.2809421 14.9389587,11.2821818 14.9404463,11.2834215 C14.9446612,11.2873884 14.948876,11.2918512 14.9530909,11.296562 C14.9533388,11.2968099 14.9538347,11.2973058 14.9543306,11.2978017 C14.9600331,11.3044959 14.9657355,11.311686 14.9706942,11.319124 L17.1339174,14.240281 L17.1339174,11.4361488 C17.1339174,11.3198678 17.2283802,11.225405 17.3449091,11.225405 L18.1045785,11.225405 Z M11.0431736,15.1847107 C11.1594545,15.1847107 11.2539174,15.2794215 11.2539174,15.3959504 L11.2539174,16.1556198 C11.2539174,16.2721488 11.1594545,16.3668595 11.0431736,16.3668595 L8.00771901,16.3668595 L8.00747107,16.3668595 C7.95094215,16.3668595 7.89961983,16.3442975 7.86168595,16.3078512 C7.86069421,16.3066116 7.85970248,16.3058678 7.85871074,16.305124 C7.85747107,16.3038843 7.85647934,16.3028926 7.85573554,16.3016529 C7.81928926,16.2639669 7.79672727,16.2126446 7.79672727,16.1561157 L7.79672727,16.1556198 L7.79672727,11.4361983 C7.79672727,11.3199174 7.89143802,11.2254545 8.00771901,11.2254545 L8.76763636,11.2254545 C8.88416529,11.2254545 8.97838017,11.3199174 8.97838017,11.4361983 L8.97838017,15.1847107 L11.0431736,15.1847107 Z M22.300562,12.4073306 L20.2362645,12.4073306 L20.2362645,13.2049339 L22.300562,13.2049339 C22.4170909,13.2049339 22.5113058,13.2996446 22.5113058,13.4161736 L22.5113058,14.175843 C22.5113058,14.2926198 22.4170909,14.3868347 22.300562,14.3868347 L20.2362645,14.3868347 L20.2362645,15.184686 L22.300562,15.184686 C22.4170909,15.184686 22.5113058,15.2793967 22.5113058,15.3959256 L22.5113058,16.155595 C22.5113058,16.272124 22.4170909,16.3668347 22.300562,16.3668347 L19.2653554,16.3668347 L19.2648595,16.3668347 C19.2083306,16.3668347 19.1570083,16.3442727 19.1193223,16.3075785 C19.1183306,16.3070826 19.1170909,16.305843 19.1160992,16.3050992 C19.1151074,16.3041074 19.1141157,16.3028678 19.1133719,16.3016281 C19.0769256,16.2639421 19.0541157,16.2128678 19.0541157,16.1560909 L19.0541157,16.155595 L19.0541157,11.4366694 L19.0541157,11.4361736 C19.0541157,11.3798926 19.0766777,11.3285702 19.112876,11.2908843 C19.1136198,11.2896446 19.1148595,11.288405 19.1160992,11.2871653 C19.116843,11.2864215 19.1178347,11.2859256 19.1185785,11.2849339 C19.1565124,11.2482397 19.2078347,11.2254298 19.2648595,11.2254298 L19.2653554,11.2254298 L22.300562,11.2254298 C22.4170909,11.2254298 22.5113058,11.3198926 22.5113058,11.4366694 L22.5113058,12.1963388 C22.5113058,12.3128678 22.4170909,12.4073306 22.300562,12.4073306 Z"></path>
                <g>
                   <mask>
                      <path d="M23.5537934,29.7520413 L6.69428926,29.7520413 C3.13395868,29.7520413 0.247760331,26.865843 0.247760331,23.3057603 L0.247760331,6.4462562 C0.247760331,2.88617355 3.13395868,-2.47933884e-05 6.69428926,-2.47933884e-05 L23.5537934,-2.47933884e-05 C27.113876,-2.47933884e-05 30.0000744,2.88617355 30.0000744,6.4462562 L30.0000744,23.3057603 C30.0000744,26.865843 27.113876,29.7520413 23.5537934,29.7520413 Z M25.9081983,13.5678099 C25.9081983,8.72070248 21.0486942,4.77706612 15.075719,4.77706612 C9.10299174,4.77706612 4.24323967,8.72070248 4.24323967,13.5678099 C4.24323967,17.9130992 8.09687603,21.5525207 13.3024959,22.2405372 C13.6553058,22.3166529 14.1355537,22.4730992 14.2567934,22.7748347 C14.3661322,23.0485537 14.3281983,23.4777273 14.2917521,23.7541736 C14.2917521,23.7541736 14.1648099,24.5185537 14.1372893,24.6814463 C14.0901818,24.9554132 13.9196033,25.7527686 15.075719,25.2655785 C16.2318347,24.7783884 21.3139835,21.5921901 23.5867934,18.9762397 L23.5862975,18.9762397 C25.1562149,17.2548347 25.9081983,15.5076446 25.9081983,13.5678099 Z M12.8747355,11.225405 C12.9912645,11.225405 13.0857273,11.3198678 13.0857273,11.4361488 L13.0857273,16.1560661 C13.0857273,16.2723471 12.9912645,16.366562 12.8747355,16.366562 L12.1148182,16.366562 C11.9982893,16.366562 11.9038264,16.2723471 11.9038264,16.1560661 L11.9038264,11.4361488 C11.9038264,11.3198678 11.9982893,11.225405 12.1148182,11.225405 L12.8747355,11.225405 Z M18.1045785,11.225405 C18.2213554,11.225405 18.3158182,11.3198678 18.3158182,11.4361488 L18.3158182,16.1560661 C18.3158182,16.2723471 18.2213554,16.366562 18.1045785,16.366562 L17.3449091,16.366562 C17.3260661,16.366562 17.3079669,16.3640826 17.2908595,16.3596198 C17.2898678,16.3593719 17.288876,16.358876 17.2876364,16.358876 C17.2831736,16.3573884 17.2784628,16.3559008 17.2732562,16.3541653 C17.2712727,16.3534215 17.2692893,16.3524298 17.2670579,16.351686 C17.2633388,16.3501983 17.2603636,16.3489587 17.2568926,16.3474711 C17.2531736,16.3459835 17.2499504,16.3442479 17.2467273,16.3425124 C17.2444959,16.3412727 17.2427603,16.340281 17.2407769,16.3390413 C17.236314,16.3368099 17.2318512,16.3340826 17.2276364,16.3313554 C17.2271405,16.3306116 17.2261488,16.3301157 17.225405,16.3296198 C17.2053223,16.3159835 17.1869752,16.2986281 17.1718512,16.2775537 L15.0063967,13.3529256 L15.0063967,16.1560661 C15.0063967,16.2723471 14.9119339,16.366562 14.795157,16.366562 L14.0354876,16.366562 C13.9189587,16.366562 13.8244959,16.2723471 13.8244959,16.1560661 L13.8244959,11.4361488 C13.8244959,11.3198678 13.9189587,11.225405 14.0354876,11.225405 L14.795157,11.225405 C14.7976364,11.225405 14.7998678,11.2256529 14.802595,11.2256529 C14.806314,11.2259008 14.8097851,11.2261488 14.8135041,11.2263967 C14.8172231,11.2268926 14.8209421,11.2271405 14.8246612,11.2278843 C14.8273884,11.2281322 14.8306116,11.2286281 14.8335868,11.229124 C14.8375537,11.2298678 14.8415207,11.2306116 14.8454876,11.2318512 C14.8482149,11.2323471 14.8504463,11.2330909 14.8529256,11.2335868 C14.8571405,11.2348264 14.8613554,11.2360661 14.8655702,11.2378017 C14.8678017,11.2385455 14.8700331,11.2392893 14.8722645,11.240281 C14.8764793,11.2417686 14.8804463,11.2435041 14.8844132,11.2452397 C14.8866446,11.2462314 14.888876,11.2474711 14.8911074,11.2484628 C14.8948264,11.2504463 14.8985455,11.2526777 14.9022645,11.2549091 C14.9044959,11.2561488 14.9067273,11.2571405 14.9087107,11.2586281 C14.9124298,11.2611074 14.9161488,11.2635868 14.9196198,11.266314 C14.9216033,11.2675537 14.9233388,11.2687934 14.9250744,11.2705289 C14.9290413,11.2732562 14.9327603,11.2767273 14.9364793,11.2799504 C14.937719,11.2809421 14.9389587,11.2821818 14.9404463,11.2834215 C14.9446612,11.2873884 14.948876,11.2918512 14.9530909,11.296562 C14.9533388,11.2968099 14.9538347,11.2973058 14.9543306,11.2978017 C14.9600331,11.3044959 14.9657355,11.311686 14.9706942,11.319124 L17.1339174,14.240281 L17.1339174,11.4361488 C17.1339174,11.3198678 17.2283802,11.225405 17.3449091,11.225405 L18.1045785,11.225405 Z M11.0431736,15.1847107 C11.1594545,15.1847107 11.2539174,15.2794215 11.2539174,15.3959504 L11.2539174,16.1556198 C11.2539174,16.2721488 11.1594545,16.3668595 11.0431736,16.3668595 L8.00771901,16.3668595 L8.00747107,16.3668595 C7.95094215,16.3668595 7.89961983,16.3442975 7.86168595,16.3078512 C7.86069421,16.3066116 7.85970248,16.3058678 7.85871074,16.305124 C7.85747107,16.3038843 7.85647934,16.3028926 7.85573554,16.3016529 C7.81928926,16.2639669 7.79672727,16.2126446 7.79672727,16.1561157 L7.79672727,16.1556198 L7.79672727,11.4361983 C7.79672727,11.3199174 7.89143802,11.2254545 8.00771901,11.2254545 L8.76763636,11.2254545 C8.88416529,11.2254545 8.97838017,11.3199174 8.97838017,11.4361983 L8.97838017,15.1847107 L11.0431736,15.1847107 Z M22.300562,12.4073306 L20.2362645,12.4073306 L20.2362645,13.2049339 L22.300562,13.2049339 C22.4170909,13.2049339 22.5113058,13.2996446 22.5113058,13.4161736 L22.5113058,14.175843 C22.5113058,14.2926198 22.4170909,14.3868347 22.300562,14.3868347 L20.2362645,14.3868347 L20.2362645,15.184686 L22.300562,15.184686 C22.4170909,15.184686 22.5113058,15.2793967 22.5113058,15.3959256 L22.5113058,16.155595 C22.5113058,16.272124 22.4170909,16.3668347 22.300562,16.3668347 L19.2653554,16.3668347 L19.2648595,16.3668347 C19.2083306,16.3668347 19.1570083,16.3442727 19.1193223,16.3075785 C19.1183306,16.3070826 19.1170909,16.305843 19.1160992,16.3050992 C19.1151074,16.3041074 19.1141157,16.3028678 19.1133719,16.3016281 C19.0769256,16.2639421 19.0541157,16.2128678 19.0541157,16.1560909 L19.0541157,16.155595 L19.0541157,11.4366694 L19.0541157,11.4361736 C19.0541157,11.3798926 19.0766777,11.3285702 19.112876,11.2908843 C19.1136198,11.2896446 19.1148595,11.288405 19.1160992,11.2871653 C19.116843,11.2864215 19.1178347,11.2859256 19.1185785,11.2849339 C19.1565124,11.2482397 19.2078347,11.2254298 19.2648595,11.2254298 L19.2653554,11.2254298 L22.300562,11.2254298 C22.4170909,11.2254298 22.5113058,11.3198926 22.5113058,11.4366694 L22.5113058,12.1963388 C22.5113058,12.3128678 22.4170909,12.4073306 22.300562,12.4073306 Z"></path>
                  </mask>
                </g>
            </g>
        </g>
    </g>
</svg>