<svg xmlns="http://www.w3.org/2000/svg" width="105" height="18" viewBox="0 0 105 18">
    <g fill="#FFF" fill-rule="evenodd">
        <path d="M4.259 8.733c-.045.006-.096-.06-.118-.09-.007-.01-.032-.063-.025-.07.01-.009.061.009.075.02a.223.223 0 0 1 .077.13c.001.007-.005.01-.009.01m-1.1-.612c-.031.012-.107-.075-.128-.107-.04-.06-.079-.125-.12-.182-.039-.052-.081-.089-.091-.179-.001-.01-.008-.037-.001-.037.042.003.082.077.103.106.015.02.033.041.047.063.02.032.029.07.05.099.027.036.059.07.087.106.015.02.035.037.045.063.004.014.017.064.008.068m-.315-.012c-.023-.002-.033-.016-.048-.027a.173.173 0 0 1-.072-.142c0-.007.002-.009.006-.009.046 0 .094.071.111.104a.13.13 0 0 1 .016.056c-.001.012-.006.018-.013.018m-1.047.213c-.002.005-.006.011-.013.012-.05-.001-.065-.077-.087-.11-.018-.029-.033-.06-.052-.088-.013-.02-.03-.041-.04-.064-.014-.029-.02-.06-.037-.085-.008-.014-.023-.025-.032-.038a.504.504 0 0 1-.07-.122l-.012-.05c-.01-.027-.023-.057-.032-.087-.005-.015-.007-.045-.005-.056.002-.004.004-.007.008-.007.038.006.075.1.093.133.02.037.053.066.071.104.016.034.021.077.04.11.014.025.038.046.053.07.02.032.035.073.051.108.018.04.044.07.06.108.006.016.009.044.004.062m-.195-1.433a.463.463 0 0 1-.026-.056c-.008-.021-.01-.04-.018-.06l-.092-.203c-.012-.027-.029-.078-.017-.112.001-.005.011-.002.016.002.01.01.017.015.025.025.006.01.008.02.014.029.015.022.034.045.045.07.025.053.03.112.055.164.016.034.043.064.06.099.008.018.013.038.02.058.003.015.002.036.003.048.001.017-.001.028-.008.029-.046-.003-.06-.06-.077-.093m9.952 4.424c-.058-.214-.683-.122-1.197-.169a7.28 7.28 0 0 1-1.789-.378 12.99 12.99 0 0 1-1.896-.813l-.255-.135c-.047-.03-.084-.05-.13-.08a1.022 1.022 0 0 0-.103-.055c-.04-.017-.066-.038-.1-.06-.036-.021-.084-.044-.119-.066-.052-.032-.085-.058-.134-.094-.031-.022-.046-.028-.087-.053-.024-.015-.07-.04-.091-.054-.046-.03-.075-.055-.12-.087-.029-.02-.05-.032-.083-.053-.033-.02-.064-.046-.093-.068-.016-.012-.04-.025-.055-.04a1.56 1.56 0 0 0-.1-.09c-.033-.024-.063-.054-.095-.078-.02-.015-.054-.044-.074-.058-.052-.037-.084-.065-.135-.103-.033-.024-.061-.056-.094-.08-.037-.028-.07-.06-.109-.087a.552.552 0 0 1-.071-.059c-.025-.03-.048-.049-.073-.078-.019-.022-.056-.044-.076-.066a.681.681 0 0 0-.12-.115c-.024-.023-.032-.034-.041-.046a.775.775 0 0 0-.073-.08 1.411 1.411 0 0 1-.047-.045c-.01-.009-.024-.029-.038-.049l-.033-.043-.06-.064a3.585 3.585 0 0 1-.042-.045.273.273 0 0 1-.026-.035.27.27 0 0 0-.025-.034c-.015-.016-.026-.01-.03-.009-.008.007-.012.024-.001.046a.639.639 0 0 0 .043.069l.007.008a.32.32 0 0 1 .013.024c.007.012.014.024.023.036.019.026.04.047.06.068l.019.02c.013.015.024.03.035.046.01.015.022.032.037.048a.168.168 0 0 1 .018.023c.007.009.013.018.021.025l.034.035c.019.02.039.04.058.056l.044.042c.038.046.08.091.114.135.02.025.055.043.077.06.025.018.044.05.064.076.015.017.047.047.063.065.038.05.064.076.114.113.03.023.055.043.078.073.014.018.058.06.074.08.041.053.06.103.054.104-.028.008-.098-.053-.138-.08-.034-.023-.04-.032-.07-.055-.008-.007-.058-.042-.076-.064a.92.92 0 0 1-.063-.068c-.057-.073-.077-.078-.143-.142-.048-.047-.107-.09-.154-.132l-.042-.045c-.015-.015-.035-.03-.048-.045-.022-.028-.051-.082-.077-.101-.028-.02-.048-.04-.076-.061-.01-.007-.018-.02-.028-.027-.013-.01-.03-.022-.04-.034l-.095-.124c-.015-.02-.036-.036-.051-.057-.032-.043-.058-.089-.09-.13-.044-.059-.107-.1-.15-.159-.044-.06-.07-.13-.112-.193-.018-.027-.046-.047-.065-.073-.012-.015-.018-.032-.028-.049-.022-.034-.048-.066-.07-.1-.03-.042-.05-.09-.08-.134-.004-.007-.014-.037-.032-.06-.018-.022-.033-.048-.053-.08-.02-.032-.03-.053-.045-.075-.014-.022-.024-.043-.034-.059l-.038-.055c-.027-.042-.034-.061-.062-.1-.017-.023-.036-.042-.05-.037-.013.009-.009.023-.006.034.012.034.012.028.026.052.022.041.03.06.053.097.012.018.03.059.046.081.016.023.031.049.042.068.01.02.028.071.045.093a.554.554 0 0 1 .04.07c.023.046.052.082.076.119l.048.09c.031.048.069.093.1.142l.058.103c.019.029.044.052.063.082.022.034.035.072.057.105.018.027.041.052.059.08.03.045.057.089.09.132.017.024.04.044.058.068.024.033.043.071.068.099.03.028.038.045.062.072.035.042.121.166.107.166-.051.007-.15-.105-.19-.145-.033-.032-.068-.055-.09-.085-.033-.044-.057-.094-.09-.137-.012-.016-.03-.028-.042-.043-.023-.03-.044-.06-.07-.086l-.032-.031c-.04-.052-.074-.107-.113-.16-.016-.023-.038-.042-.054-.064-.012-.017-.019-.036-.03-.054-.016-.024-.036-.048-.052-.072-.012-.018-.02-.036-.031-.054-.021-.032-.05-.06-.07-.093-.017-.026-.022-.06-.04-.087-.042-.067-.09-.136-.133-.203-.012-.017-.016-.036-.027-.054-.034-.054-.067-.114-.102-.169-.012-.02-.018-.043-.03-.063-.017-.024-.041-.043-.057-.067-.012-.02-.017-.04-.026-.061-.014-.028-.031-.057-.046-.083-.009-.017-.014-.034-.024-.05a1.819 1.819 0 0 1-.11-.207c-.017-.037-.044-.073-.062-.11l-.058-.126-.03-.083c-.02-.044-.05-.081-.07-.126-.014-.031-.021-.06-.034-.085-.008-.016-.023-.03-.034-.022-.01.007-.012.02-.006.045.014.046.04.098.051.124.024.052.035.107.06.16.012.03.031.057.044.085.024.05.046.101.068.149.013.028.024.055.039.08.008.015.02.03.026.046.015.033.02.069.034.1.016.034.042.063.057.095.08.17.16.332.256.482.027.042.04.093.067.135.028.043.066.077.094.12.023.035.028.083.049.12.03.058.072.106.106.159.009.014.012.032.021.047.013.02.03.04.043.06.017.028.026.06.045.086.02.028.05.051.07.08.025.034.042.075.068.11.019.024.047.04.065.065l.16.21c.044.056.123.14.16.215.012.023.052.078.043.089-.021.014-.12-.095-.138-.112-.042-.04-.078-.095-.114-.141-.008-.01-.105-.105-.113-.115a.729.729 0 0 1-.028-.039c-.026-.04-.042-.088-.071-.126-.012-.015-.03-.027-.042-.043-.022-.029-.037-.062-.059-.092-.034-.047-.078-.089-.112-.135-.037-.051-.063-.112-.101-.162-.02-.025-.043-.048-.061-.075-.008-.012-.011-.024-.019-.036-.014-.02-.032-.044-.043-.067-.01-.022-.016-.042-.028-.061l-.119-.19c-.017-.027-.027-.057-.045-.085-.03-.046-.067-.087-.096-.133-.035-.054-.054-.12-.089-.175-.023-.036-.05-.07-.073-.106-.025-.04-.038-.085-.06-.126-.02-.036-.047-.07-.064-.106-.019-.04-.032-.078-.051-.119-.01-.022-.026-.043-.036-.066-.012-.027-.015-.056-.027-.082-.035-.076-.086-.148-.122-.223a2.038 2.038 0 0 1-.068-.167c-.012-.031-.017-.06-.03-.09-.032-.069-.07-.142-.101-.211a8.32 8.32 0 0 0-.04-.11c-.002-.01-.003-.021-.007-.032-.015-.032-.034-.064-.046-.096a12.59 12.59 0 0 0-.036-.113c-.048-.122-.092-.26-.138-.386-.006-.023-.007-.052-.016-.077L1.68 4.66c-.013-.033-.045-.022-.038.012.01.045.016.056.023.09l.011.055c.005.021.016.044.022.065.013.039.013.077.027.114.018.053.037.104.054.158l.016.08a.997.997 0 0 0 .027.075c.027.066.053.13.076.195l.029.113c.01.02.024.042.033.062.009.018.01.035.018.054.017.043.032.086.051.128.016.036.035.071.049.109.006.018.006.033.013.051.04.112.084.229.132.333.012.027.015.054.027.08.01.023.024.047.034.068l.014.043c.015.031.04.057.055.088.041.087.078.169.129.243.047.068.068.159.104.24.017.039.04.072.062.106.01.018.018.038.027.057.023.042.036.08.064.117.022.03.02.038.039.08a.505.505 0 0 1 .022.095c-.007.005-.047-.02-.06-.034-.019-.02-.048-.048-.067-.092l-.04-.082c-.025-.054-.068-.1-.1-.148-.017-.03-.028-.06-.043-.093-.026-.056-.056-.114-.084-.173-.011-.024-.029-.048-.042-.07-.015-.022-.022-.047-.036-.07a1.501 1.501 0 0 1-.093-.16c-.019-.039-.028-.08-.047-.118-.005-.013-.016-.025-.023-.036-.013-.02-.018-.043-.029-.066-.014-.03-.036-.058-.05-.09-.028-.061-.045-.125-.074-.186-.013-.029-.036-.053-.05-.081-.02-.044-.022-.098-.042-.144-.053-.12-.115-.245-.16-.371-.008-.021-.01-.045-.016-.067-.02-.055-.047-.106-.066-.16-.009-.025-.011-.047-.02-.072l-.044-.112c-.004-.013-.005-.026-.01-.038-.016-.035-.026-.076-.042-.113-.009-.019-.022-.038-.03-.058-.012-.036-.009-.082-.021-.117l-.06-.157c-.01-.03-.012-.058-.022-.088l-.038-.106c-.012-.035-.012-.072-.024-.11-.008-.028-.02-.057-.03-.083-.017-.05-.024-.102-.042-.148l-.01-.026c-.004-.012-.012-.024-.025-.02-.015.003-.014.022-.013.034.002.036.016.07.026.1.011.03.017.064.026.094.005.018.004.04.009.06.006.029.017.057.025.086.007.028.003.056.01.078.018.062.038.132.06.191.008.03.01.066.018.092l.035.094c.01.027.012.052.023.077.011.026.024.054.034.083.012.038.01.076.024.112.02.059.048.114.068.171.007.02.009.042.016.063.017.05.03.102.047.15.026.07.058.138.083.207.025.068.028.15.057.214.014.031.045.05.058.08.01.02.007.043.014.066.008.026.02.052.03.076l.017.065c.01.026.027.052.039.077.018.04.028.083.05.12.018.026.04.052.055.083.016.034.022.07.037.105.023.052.05.101.07.155.018.049.024.101.048.144.023.043.052.08.075.124l.044.094c.012.026.035.049.05.075.017.032.035.066.05.099.01.024.015.048.03.07l.057.093c.019.03.04.067.054.102.01.027.02.055.036.077.016.023.037.042.051.067.014.025.033.105.026.109-.018.006-.066-.04-.08-.057-.038-.047-.057-.11-.092-.16-.037-.054-.062-.084-.09-.146-.017-.035-.047-.1-.067-.131-.02-.03-.046-.057-.061-.09-.012-.028-.019-.06-.03-.088-.019-.04-.057-.065-.075-.106-.022-.045-.032-.092-.054-.135-.011-.02-.026-.044-.036-.065-.013-.027-.02-.054-.032-.081-.026-.055-.065-.102-.09-.158-.027-.056-.042-.118-.069-.175-.014-.03-.04-.057-.054-.088-.02-.041-.03-.084-.05-.126-.011-.025-.028-.05-.04-.074-.017-.036-.023-.075-.04-.112l-.113-.257c-.014-.032-.018-.066-.033-.099a23.455 23.455 0 0 1-.043-.085c-.033-.074-.044-.161-.077-.236-.017-.038-.038-.074-.053-.115-.024-.064-.033-.13-.056-.195-.036-.1-.065-.204-.1-.303-.01-.03-.012-.06-.023-.09a21.15 21.15 0 0 1-.032-.088c-.008-.023-.012-.057-.019-.087l-.08-.254c-.006-.02-.007-.057-.014-.083l-.017-.045c-.008-.02-.007-.036-.014-.056-.02-.062-.036-.134-.055-.196-.006-.02-.008-.047-.014-.07C.968 3.73.955 3.624.92 3.542c-.007-.016-.017-.033-.032-.03-.016.005-.012.023-.01.038.004.04.019.075.025.108.003.015.003.035.004.053.002.015.004.034.009.05l.05.166c.005.025.001.063.008.092.022.084.039.183.069.258.028.069.033.15.052.225.007.031.009.064.013.096.005.031.022.053.031.079.008.02.007.036.014.056.016.053.028.106.048.16.013.036.033.071.046.107.006.017.003.032.008.05.009.036.015.074.026.11.026.073.051.152.077.224.015.04.02.08.033.12l.173.47.028.102c.013.036.034.066.048.097.019.04.025.083.04.126.018.05.042.09.06.142.01.025.019.052.03.076.009.018.025.036.034.054.014.031.017.07.032.101.015.032.041.057.06.086.016.027.017.062.03.092.022.048.05.091.07.142.01.021.013.04.023.06.01.024.028.046.039.07l.001.003a.062.062 0 0 1 .004.012l.009.031c.005.014.02.039.026.047l.024.029c.004.004.008.009.011.015.02.032.023.078.04.114.017.035.047.063.064.1.013.027.02.095.003.098-.07 0-.075-.1-.099-.151-.018-.04-.048-.074-.069-.113a.206.206 0 0 1-.015-.039.369.369 0 0 0-.016-.04c-.01-.019-.01-.015-.015-.029-.007-.013-.026-.038-.033-.05v-.003c-.028-.043-.046-.105-.065-.134-.01-.017-.025-.033-.035-.05-.018-.028-.027-.062-.041-.092-.014-.028-.035-.056-.048-.086-.016-.035-.017-.079-.033-.114-.008-.02-.024-.039-.033-.057-.02-.04-.031-.084-.051-.123-.01-.02-.026-.037-.036-.057-.016-.033-.024-.07-.041-.1a2.566 2.566 0 0 1-.108-.212c-.018-.042-.024-.084-.042-.124-.016-.035-.037-.07-.053-.103-.01-.023-.013-.045-.022-.07-.015-.04-.033-.08-.047-.12-.009-.026-.016-.086-.024-.11-.01-.029-.026-.06-.039-.09-.019-.043-.025-.088-.045-.132-.014-.033-.03-.069-.043-.103-.01-.03-.014-.056-.026-.083-.008-.02-.02-.044-.028-.066-.01-.025-.016-.067-.024-.1-.013-.038-.028-.074-.04-.11-.006-.028-.007-.091-.014-.108-.039-.115-.075-.236-.111-.35-.016-.054-.024-.106-.04-.158C.9 4.273.9 4.246.895 4.226c-.01-.033-.024-.067-.035-.101-.006-.023-.01-.047-.014-.07C.84 4.03.827 4.007.82 3.983c-.022-.069-.034-.142-.055-.209-.007-.028-.006-.064-.014-.09-.026-.083-.032-.18-.057-.267l-.015-.074C.635 3.18.616 2.997.569 2.84c-.01-.03.003-.068-.006-.1a1.469 1.469 0 0 0-.03-.102c-.004-.016-.005-.03-.008-.044-.008-.027-.02-.048-.034-.045-.018.006-.014.022-.013.044a.457.457 0 0 0 .012.096c.006.025.002.046.01.068.014.05.019.122.027.168.004.02.001.045.005.067.005.024.022.054.027.08.005.033.005.077.01.114l.024.09c.007.024.002.048.01.071.007.024.02.048.024.074.004.03 0 .071.006.097.036.143.047.313.09.45.004.02.005.042.01.062.035.12.061.249.098.368.004.019.003.038.008.058.012.042.023.087.031.13.005.02.004.037.01.056.012.044.028.087.042.13.005.022.007.043.01.064.004.016.013.035.018.051.008.025.005.05.014.072.005.013.015.028.02.043.005.025.008.051.015.076.01.03.026.06.039.09.009.025.009.05.018.074l.052.137c.013.037.015.075.028.113l.03.074c.005.02.008.038.015.058.006.018.025.047.038.07.01.026.006.062.014.09.009.029.025.052.035.078.009.027.008.056.016.083.007.021.022.042.03.061l.026.07c.006.015.019.03.026.045.013.027.023.056.034.083.016.04.017.088.029.133.003.012.003.043-.005.047-.018.003-.038-.026-.05-.043a.557.557 0 0 1-.058-.1c-.005-.013-.008-.026-.012-.04-.012-.03-.021-.064-.035-.094-.008-.019-.02-.039-.026-.059-.01-.029-.006-.062-.017-.087-.01-.021-.026-.038-.036-.059-.007-.019-.01-.04-.018-.058-.01-.023-.024-.044-.037-.066-.01-.02-.008-.042-.016-.067a.555.555 0 0 0-.03-.085c-.012-.027-.028-.055-.04-.084-.006-.015-.009-.031-.013-.047l-.027-.065c-.005-.015-.008-.032-.015-.047l-.032-.074c-.007-.021-.008-.043-.015-.063C.934 5.21.922 5.169.91 5.134.902 5.106.899 5.078.89 5.05c-.01-.032-.025-.064-.037-.096-.009-.026-.01-.054-.018-.081-.013-.035-.03-.067-.042-.104-.006-.028-.008-.057-.014-.085l-.063-.211c-.024-.077-.026-.164-.049-.242-.015-.056-.035-.11-.052-.164C.61 4.038.609 4.012.6 3.984a3.686 3.686 0 0 0-.058-.207c-.01-.034-.007-.069-.017-.105-.01-.037-.01-.08-.022-.12-.007-.024-.017-.04-.022-.071-.006-.03-.006-.067-.01-.09-.005-.023-.044-.16-.049-.184C.418 3.18.42 3.136.416 3.119.414 3.11.393 3.05.39 3.034.388 3.02.388 3.001.38 2.971c-.006-.03-.023-.097-.026-.117-.003-.019-.003-.058-.007-.078-.004-.02-.017-.064-.026-.096C.312 2.64.32 2.6.31 2.563a1.126 1.126 0 0 0-.027-.08.58.58 0 0 1-.015-.066l-.004-.08c0-.022-.01-.059-.012-.09a.671.671 0 0 0-.02-.117C.229 2.114.23 2.094.227 2.08.215 2.037.204 1.997.183 2c-.016.003-.022.015-.015.044.008.033.011.06.02.092.004.018.005.061.005.076.001.024.002.029.005.051.002.01.005.031.008.04a.222.222 0 0 1 .008.049v.053c0 .01 0 .015.005.034.004.02.006.023.008.04v.038c0 .015.002.03.006.043.009.028.027.068.02.11-.008.044.005.087.015.126.005.024 0 .052.005.076l.026.103c.007.028.002.054.01.08.01.039.036.09.039.106.003.017.002.063.007.092.006.03.012.063.014.081.003.018 0 .027.002.04.002.014.02.08.023.097l.006.044.022.11c.003.024.002.037.006.06.007.035.02.064.028.098.005.025.004.04.007.06.007.032.017.06.023.09.005.023.005.047.01.07.01.05.017.102.031.153.009.03.026.057.035.085.007.027.009.055.016.081.007.023.023.043.029.067l.006.063c.006.024.016.048.02.072.004.019.003.037.007.056.007.021.017.04.023.06.005.027.004.053.01.08.009.03.021.059.03.087.01.026.005.054.013.083.017.061.037.13.057.186.01.032.008.063.02.097.007.022.017.037.026.056.007.02 0 .042.007.065.01.037.015.087.029.124.014.04.038.074.053.114.014.043.015.085.029.128.013.037.032.072.046.106.012.03.007.07.019.101.012.035.037.061.05.097.015.04.025.08.037.121l.011.052c.015.052.043.096.061.146.007.024.01.043.016.065.013.036.027.073.044.108.014.03.034.06.048.092.013.029.015.058.027.088.012.028.026.06.037.09.007.018.007.034.015.051.035.08.08.16.116.239.02.043.029.089.049.133.016.033.035.066.05.103.01.023.013.045.023.067.02.043.047.086.067.129.005.01.02.056.014.073-.001.003-.002.006-.005.007-.013.004-.04-.019-.054-.034-.051-.05-.06-.144-.095-.209-.01-.018-.022-.039-.031-.058-.005-.014-.008-.027-.015-.04-.022-.043-.05-.08-.069-.124-.014-.033-.016-.069-.03-.1-.058-.125-.125-.245-.18-.37-.026-.058-.031-.123-.053-.185-.014-.037-.036-.067-.051-.101-.013-.027-.015-.056-.027-.083-.017-.036-.04-.07-.053-.108C.995 6.09.992 6.065.982 6.04c-.011-.027-.03-.05-.042-.077-.017-.04-.02-.078-.033-.124C.9 5.815.89 5.79.882 5.767c-.006-.02-.009-.042-.016-.062-.017-.047-.045-.089-.063-.138-.011-.032-.009-.073-.023-.105-.011-.026-.032-.047-.043-.074-.011-.029 0-.063-.01-.097C.72 5.26.706 5.23.695 5.2.69 5.18.687 5.161.682 5.143a18.75 18.75 0 0 0-.042-.117c-.007-.02-.007-.038-.015-.056-.01-.023-.028-.045-.036-.07-.01-.038-.013-.077-.022-.114-.015-.05-.034-.09-.048-.138-.004-.015-.004-.03-.008-.046-.011-.043-.017-.09-.029-.133-.004-.02-.003-.038-.009-.058-.011-.04-.025-.081-.037-.12-.006-.024-.008-.05-.014-.073-.02-.063-.037-.137-.056-.198-.005-.018-.003-.034-.009-.054-.014-.048-.034-.106-.045-.155C.307 3.782.306 3.755.3 3.728.293 3.694.281 3.663.274 3.63c-.002-.015 0-.027-.001-.04-.003-.022-.005-.044-.009-.065C.243 3.437.21 3.33.19 3.244.184 3.211.183 3.18.18 3.148c-.004-.022-.005-.047-.011-.07-.007-.022-.017-.046-.02-.07-.006-.037-.006-.073-.011-.11l-.002-.008c-.008-.044-.03-.135-.035-.17a9.857 9.857 0 0 1-.016-.13c-.001-.028-.006-.057-.01-.087-.006-.045-.017-.084-.022-.13-.003-.031-.001-.059-.005-.085-.002-.017-.003-.045-.024-.045-.02 0-.018.024-.019.043-.003.047.006.108.01.136.006.054.001.106.007.16.004.03.013.061.017.09l.018.153.001.002a.615.615 0 0 0 .009.068v.007a.11.11 0 0 0 .002.003v.004l.008.03c.005.02.003.035.008.056.016.06.013.124.029.181.024.087.036.182.06.268.007.025 0 .05.007.076l.021.08c.007.033.001.066.01.1l.026.09c.009.034.01.071.02.11.01.037.023.08.03.118.008.044.012.095.02.142.008.038.029.085.038.128.003.014.001.028.004.042.005.03.015.061.021.09.003.014.002.026.006.04.015.056.032.127.05.182.003.016.005.031.01.047.01.04.022.069.027.09l.01.061c.009.03.018.057.024.083.004.02.007.04.013.06.007.025.017.049.027.073.017.05.02.103.037.152.01.03.024.057.034.088.008.029.01.063.019.094l.052.153c.02.057.034.12.053.175.008.022.007.044.014.068l.052.17c.01.03.01.058.021.086.019.046.046.085.063.132.015.041.018.082.033.12.02.05.044.101.063.155.014.036.018.073.033.107.013.03.03.06.044.09l.027.079c.007.02.028.054.043.081.016.036.019.075.033.115.021.059.05.12.075.175.01.021.012.042.02.065.015.04.04.07.057.106.016.035.02.072.035.105.023.05.04.075.04.146 0 .007-.003.012-.01.014-.013.005-.028-.017-.036-.025-.038-.037-.044-.073-.067-.124-.036-.078-.082-.151-.117-.227-.019-.04-.026-.083-.045-.124-.01-.025-.027-.05-.038-.074-.017-.036-.025-.073-.044-.106-.026-.046-.047-.102-.068-.155-.008-.02-.009-.04-.017-.058C.934 6.62.919 6.6.91 6.58.897 6.55.888 6.51.875 6.476c-.028-.063-.06-.13-.085-.196-.022-.061-.033-.12-.055-.182l-.03-.079C.698 5.996.697 5.976.69 5.954.67 5.898.643 5.84.62 5.786c-.013-.027-.016-.053-.026-.081l-.04-.106c-.016-.044-.016-.097-.033-.144-.037-.1-.083-.205-.114-.312-.006-.024-.004-.05-.011-.074a7.008 7.008 0 0 1-.05-.169c-.02-.062-.017-.129-.037-.19-.024-.08-.052-.163-.077-.24-.007-.025-.004-.05-.012-.075a2.75 2.75 0 0 0-.057-.188c-.01-.028-.01-.06-.021-.086-.013-.032-.045-.02-.042.016.002.033.013.075.016.092.004.023.004.045.01.07.009.042.023.077.035.116.012.04.012.078.024.119l.02.063c.013.041.013.086.026.123.011.03.02.065.029.097.006.02.004.038.01.058l.036.113c.006.021.003.04.008.06.008.03.015.06.024.088.007.026.007.064.016.092.016.051.035.106.052.155.02.054.022.11.042.166.035.097.067.21.102.308.01.025.006.05.014.078.012.043.02.084.036.126.007.02.02.04.028.059.011.023.014.05.025.074.009.02.022.04.03.06.01.032.006.07.018.1.01.023.023.049.032.074.01.026.01.055.02.08.01.023.026.044.036.066.01.02.012.042.02.065.009.023.022.048.032.07.01.024.011.053.023.078.01.022.025.044.034.068.008.025.009.052.018.078.015.038.038.072.055.108.012.027.013.058.025.086.014.032.034.063.048.094.02.042.033.086.051.126.032.07.042.148.075.218.024.052.056.1.079.15.012.029.016.059.03.086.014.03.04.057.054.088.01.03.02.062.032.092.018.04.044.074.062.112.01.022.014.044.025.066.02.042.051.077.07.12l.03.082c.021.045.055.083.077.128.015.034.026.07.045.1l.08.127c.02.031.044.077.06.111s.041.062.057.095c.015.032.035.067.053.098.02.035.04.06.06.093.036.054.058.11.093.165.024.038.052.076.078.112.07.097.172.271.215.33.036.047.066.103.099.153.025.038.057.076.084.112.023.03.042.061.064.092l.017.024c.904 1.152 1.832 1.915 2.618 2.416.414.26.637.336.637.336.053.022.017.06-.01.076l-4.661 2.992c-.015.01-.051.036-.037.066.011.023.059.01.072.005 3.74-1.317 6.455-2.4 8.115-3.191 1.682-.801 2.248-1.26 2.186-1.488M46.444 13.14l1.058-2.253.964 2.253h-2.022zm4.383 1.71L47.815 8.5l-2.992 6.35c-.447.868-.94.887-.94.887l-.048.048h2.047l-.045-.048s-.572-.115-.21-.887l.537-1.12h2.565l.52 1.12c.365.772-.208.887-.208.887l-.046.048h2.82l-.048-.048s-.52-.003-.94-.887zM15.577 12.374c0 1.678 1.288 3.529 3.943 3.529 1.001 0 2.17-.405 2.17-.405l.536-1.86-.06.04s-.87 1.451-2.489 1.451c-1.473 0-2.488-.977-2.488-2.764 0-1.784.987-2.95 2.542-2.95 1.613 0 2.193 1.272 2.193 1.272l.039.033V9.218s-.967-.48-2.342-.48c-2.485 0-4.044 1.553-4.044 3.636M86.47 13.08s.457.069.457.886v.85c-.307.132-.66.221-1.06.221-1.472 0-2.481-.976-2.481-2.756 0-1.781.983-2.946 2.535-2.946 1.608 0 2.186 1.272 2.186 1.272l.038.03V9.14s-.962-.477-2.336-.477c-2.476 0-4.031 1.546-4.031 3.626 0 1.673 1.283 3.52 3.93 3.52.411 0 .845-.068 1.219-.148.538-.115.946-.258.946-.258l.49-.168v-1.269c0-.817.457-.886.457-.886l.047-.047h-2.441l.044.047zM95.001 14.299c-.368.48-.978.843-1.754.843-1.654 0-2.458-1.59-2.458-3.004 0-1.707.989-2.798 2.352-2.798 1.608 0 2.411 1.395 2.411 2.984 0 .699-.126 1.415-.551 1.975m-1.714-5.713c-2.043 0-3.882 1.334-3.882 3.71 0 1.944 1.297 3.582 3.718 3.582.803 0 1.935-.147 2.845-1.089.33-.344.591-.765.755-1.218.146-.422.213-.863.213-1.315 0-2.06-1.412-3.67-3.649-3.67M103.058 8.846l.046.048s.46.068.46.893v.032c-.002.022-.004.045-.004.07v3.757l-4.05-4.8h-1.88l.045.047s.456.067.456.886v5.066c0 .818-.456.883-.456.883l-.045.051h1.817l-.048-.05s-.455-.068-.455-.884v-4.64l4.781 5.63h.644V9.788c0-.825.46-.893.46-.893l.047-.048h-1.818zM63.88 14.94a4.314 4.314 0 0 1-.998.108h-.722a1.723 1.723 0 0 1-.011-.195V9.787c0-.072.004-.135.01-.195h.675c.707 0 2.15.03 2.74 1.462.164.391.222.815.222 1.238 0 1.137-.494 2.296-1.916 2.648m1.645-5.664c-.783-.39-1.732-.421-2.1-.421h-.775.001-2.441l.045.045s.456.068.456.887v5.066c0 .818-.456.883-.456.883l-.045.05h2.441l-.002-.001h.408c.91 0 2.11-.03 3.089-.944.56-.529 1.054-1.422 1.054-2.609 0-1.237-.552-2.396-1.675-2.956M30.245 8.853c-.807 0-.92-.079-.92-.079l-.004 1.382.047-.036s.368-.599 1.174-.599h1.149v5.33c0 .818-.455.89-.455.89l-.048.046h2.447l-.045-.046s-.46-.072-.46-.89l.007-5.33h1.122c.807 0 1.195.599 1.195.599l.047.036.004-1.382s-.115.08-.922.08h-4.338zM43.094 14.85l-.003-5.075c0-.819.457-.878.457-.878l.047-.046h-2.448l.045.046s.458.06.458.878c0 .817.004 1.988.004 1.988h-3.368V9.775c0-.819.46-.875.46-.875l.043-.047h-2.445l.047.047s.457.056.457.875v5.076c0 .818-.457.89-.457.89l-.047.046h2.445l-.043-.046s-.46-.072-.46-.89v-2.408h3.368v2.408c0 .818-.457.89-.457.89l-.047.046h2.45l-.048-.046s-.458-.072-.458-.89M24.882 13.142l1.057-2.253.963 2.253h-2.02zm4.383 1.71l-3.013-6.35-2.991 6.35c-.448.868-.942.887-.942.887l-.045.048h2.048l-.05-.048s-.57-.116-.208-.888l.537-1.12h2.565l.521 1.12c.361.772-.21.888-.21.888l-.044.048h2.82l-.049-.048s-.52-.004-.94-.888zM55.706 8.9s.605.172.15.893c-.226.348-.898 1.327-1.512 2.272-.617-.945-1.28-1.93-1.503-2.28-.456-.72.15-.885.15-.885l.047-.047h-2.82l.045.047s.41.068.944.886c.224.345 1.37 1.968 1.986 2.913v2.152c0 .818-.458.89-.458.89l-.045.046h2.447l-.048-.046s-.454-.072-.454-.89c0-.346-.005-1.208-.005-2.152.616-.945 1.764-2.561 1.989-2.906.531-.818 1.14-.893 1.14-.893l.047-.047h-2.148l.048.047zM71.271 12.165c-.192.089-.313.142-1.097.142l-.425-.002V9.514h.324c.393 0 .8 0 1.045.076.642.18.968.574.968 1.306 0 .449-.228.995-.815 1.269m2.012 2.588l-1.107-2.099c.066-.028.131-.06.196-.095.67-.373 1.083-1.057 1.083-1.718 0-.56-.226-1.552-1.747-1.901-.34-.077-.718-.088-1.214-.088h-.745v-.001h-1.936l.003.003h-.003l.048.046s.454.067.454.885v5.063c0 .817-.454.882-.454.882l-.048.051h.002l-.002.003h2.44l-.003-.003h.003l-.045-.05s-.459-.066-.459-.883V12.886h1.05l1.232 2.294c.225.436.505.604.867.604h1.197l-.04-.05c-.322-.123-.395-.274-.772-.981M76.849 13.149l1.053-2.248.96 2.248h-2.013zm4.369 1.706L78.213 8.52l-2.984 6.334c-.447.866-.937.884-.937.884l-.047.048h2.042l-.046-.048s-.574-.113-.21-.884l.538-1.122h2.555l.522 1.122c.362.771-.21.884-.21.884l-.046.048h2.81l-.044-.048s-.521-.006-.938-.884z"/>
    </g>
</svg>
