<svg width="32px" height="32px" viewBox="0 0 32 32" version="1.1" xmlns="http://www.w3.org/2000/svg" xmlns:xlink="http://www.w3.org/1999/xlink">
    <g id="Symbols" stroke="none" stroke-width="1" fill-rule="evenodd">
        <g>
            <g transform="translate(1.000000, 1.000000)">
                <g>               
                    <path d="M25.3878621,25.3876552 L20.9718621,25.3876552 L20.9718621,18.4731724 C20.9718621,16.8244138 20.9416552,14.7035172 18.6755172,14.7035172 C16.3762759,14.7035172 16.0233103,16.4995862 16.0233103,18.354 L16.0233103,25.3876552 L11.6081379,25.3876552 L11.6081379,11.1693103 L15.8464138,11.1693103 L15.8464138,13.112069 L15.9055862,13.112069 C16.4956552,11.9944138 17.9371034,10.815931 20.0869655,10.815931 C24.5617241,10.815931 25.3878621,13.7608966 25.3878621,17.5888966 L25.3878621,25.3876552 Z M6.62772414,9.22572414 C5.21131034,9.22572414 4.06510345,8.07765517 4.06510345,6.66310345 C4.06510345,5.2497931 5.21131034,4.10172414 6.62772414,4.10172414 C8.04062069,4.10172414 9.18868966,5.2497931 9.18868966,6.66310345 C9.18868966,8.07765517 8.04062069,9.22572414 6.62772414,9.22572414 Z M4.41724138,25.3876552 L8.83655172,25.3876552 L8.83655172,11.1693103 L4.41724138,11.1693103 L4.41724138,25.3876552 Z M27.5886207,0 L2.19910345,0 C0.985862069,0 0,0.961655172 0,2.14675862 L0,27.6434483 C0,28.83 0.985862069,29.7931034 2.19910345,29.7931034 L27.5886207,29.7931034 C28.803931,29.7931034 29.793931,28.83 29.793931,27.6434483 L29.793931,2.14675862 C29.793931,0.961655172 28.803931,0 27.5886207,0 L27.5886207,0 Z"></path>
                    <g id="color-/-black-/-70%">
                        <mask>
                            <path d="M25.3878621,25.3876552 L20.9718621,25.3876552 L20.9718621,18.4731724 C20.9718621,16.8244138 20.9416552,14.7035172 18.6755172,14.7035172 C16.3762759,14.7035172 16.0233103,16.4995862 16.0233103,18.354 L16.0233103,25.3876552 L11.6081379,25.3876552 L11.6081379,11.1693103 L15.8464138,11.1693103 L15.8464138,13.112069 L15.9055862,13.112069 C16.4956552,11.9944138 17.9371034,10.815931 20.0869655,10.815931 C24.5617241,10.815931 25.3878621,13.7608966 25.3878621,17.5888966 L25.3878621,25.3876552 Z M6.62772414,9.22572414 C5.21131034,9.22572414 4.06510345,8.07765517 4.06510345,6.66310345 C4.06510345,5.2497931 5.21131034,4.10172414 6.62772414,4.10172414 C8.04062069,4.10172414 9.18868966,5.2497931 9.18868966,6.66310345 C9.18868966,8.07765517 8.04062069,9.22572414 6.62772414,9.22572414 Z M4.41724138,25.3876552 L8.83655172,25.3876552 L8.83655172,11.1693103 L4.41724138,11.1693103 L4.41724138,25.3876552 Z M27.5886207,0 L2.19910345,0 C0.985862069,0 0,0.961655172 0,2.14675862 L0,27.6434483 C0,28.83 0.985862069,29.7931034 2.19910345,29.7931034 L27.5886207,29.7931034 C28.803931,29.7931034 29.793931,28.83 29.793931,27.6434483 L29.793931,2.14675862 C29.793931,0.961655172 28.803931,0 27.5886207,0 L27.5886207,0 Z"></path>
                        </mask>
                    </g>
                </g>
            </g>
        </g>
    </g>
</svg>