<svg xmlns="http://www.w3.org/2000/svg" width="24" height="24" viewBox="0 0 24 24">
    <g fill="none" fill-rule="evenodd">
        <path fill="#D0021B" d="M10.738 3.062l-8.422 15.32c-.777 1.412-.072 2.57 1.585 2.57h16.5c1.661 0 2.368-1.15 1.587-2.57l-8.423-15.32C13.176 2.355 12.665 2 12.15 2c-.51 0-1.023.353-1.413 1.062z"/>
        <path fill="#FFF" d="M11.022 16.828c0-.54.451-.979 1.006-.979a.993.993 0 0 1 1.004.98c0 .54-.45.978-1.004.978a.992.992 0 0 1-1.006-.979zM11 7.115h2v6.691h-2v-6.69z"/>
    </g>
</svg>
