<svg xmlns="http://www.w3.org/2000/svg" xmlns:xlink="http://www.w3.org/1999/xlink" width="30" height="30" viewBox="0 0 30 30">
    <defs>
        <path id="a" d="M4.49.968c0-.325.267-.586.6-.586.33 0 .599.261.599.586a.592.592 0 0 1-.6.587.593.593 0 0 1-.6-.587zM.72.958c0-.325.267-.587.6-.587.331 0 .599.262.599.587a.592.592 0 0 1-.6.587.592.592 0 0 1-.6-.587z"/>
        <path id="b" d="M6.9 4.456l-2.491 9.6H14.63l-2.299-9.6z"/>
        <path id="d" d="M19.522 16.796c0 .471.471.859 1.06.859.579 0 1.06-.388 1.06-.86-.006-.235-.536-.353-1.064-.353-.53 0-1.056.118-1.056.354z"/>
    </defs>
    <g fill="none" fill-rule="evenodd">
        <path fill="#262F38" fill-rule="nonzero" d="M23.067 27.14c-1.377 0-2.5-1.1-2.5-2.46 0-1.359 1.123-2.458 2.5-2.458 1.376 0 2.5 1.1 2.5 2.459 0 1.36-1.124 2.459-2.5 2.459zm0-1.2c.72 0 1.3-.568 1.3-1.26 0-.69-.58-1.258-1.3-1.258-.72 0-1.3.568-1.3 1.259 0 .69.58 1.259 1.3 1.259z"/>
        <path fill="#262F38" fill-rule="nonzero" d="M18.144 27.14c-1.377 0-2.5-1.1-2.5-2.46 0-1.359 1.123-2.458 2.5-2.458 1.375 0 2.5 1.1 2.5 2.459 0 1.36-1.124 2.459-2.5 2.459zm0-1.2c.719 0 1.3-.568 1.3-1.26 0-.69-.581-1.258-1.3-1.258-.72 0-1.3.568-1.3 1.259 0 .69.58 1.259 1.3 1.259zM25.93 23.147a.408.408 0 0 1-.386.565c.012 0-.378-.087-.509-.12l-.293 1.164c.317.08.659.156.803.156.89 0 1.616-.713 1.616-1.596 0-.33-.102-.647-.294-.917l-.046-.056a.23.23 0 0 0 .026.03c-.01-.014-.01-.014-.036-.043l-3.002-3.35-.894.8 2.999 3.347.017.02z"/>
        <path fill="#262F38" fill-rule="nonzero" d="M23.783 22.72c-.031-.958-.383-1.991-1.047-3.1l-.686.41c.599 1.001.907 1.907.933 2.716l.8-.026zM15.301 23.1l2.976-3.32-.894-.8-3.005 3.353-.032.04.049-.055-.066.077a.133.133 0 0 1 .017-.022l-.017.022-.004.005c-.192.27-.294.587-.294.916 0 .883.727 1.596 1.616 1.596.145 0 .532-.086.807-.157l-.3-1.162c-.115.03-.516.12-.507.12a.408.408 0 0 1-.416-.397.374.374 0 0 1 .07-.217z"/>
        <path fill="#262F38" fill-rule="nonzero" d="M18.532 19.527c-.667.601-1.077 1.79-1.122 3.193l.8.026c.038-1.206.378-2.193.857-2.624l-.535-.595z"/>
        <path fill="#262F38" fill-rule="nonzero" d="M15.04 15.815c0-2.854 2.493-5.156 5.537-5.156s5.538 2.302 5.538 5.156c0 2.771-2.41 4.84-5.538 4.84s-5.538-2.069-5.538-4.84zm1.2 0c0 2.065 1.835 3.64 4.337 3.64s4.338-1.575 4.338-3.64c0-2.17-1.936-3.956-4.338-3.956s-4.338 1.787-4.338 3.956z"/>
        <path fill="#272F38" transform="translate(17.378 14.721)" d="M4.49.968c0-.325.267-.586.6-.586.33 0 .599.261.599.586a.592.592 0 0 1-.6.587.593.593 0 0 1-.6-.587zM.72.958c0-.325.267-.587.6-.587.331 0 .599.262.599.587a.592.592 0 0 1-.6.587.592.592 0 0 1-.6-.587z"/>
        <path fill="#262F38" fill-rule="nonzero" d="M16.675 12.734a.719.719 0 0 1-.556-.696c0-.397.338-.726.758-.726.357 0 .658.238.735.568l1.169-.27a1.946 1.946 0 0 0-1.904-1.498c-1.077 0-1.958.86-1.958 1.926 0 .884.6 1.638 1.458 1.858l.298-1.162zM23.564 11.917a.745.745 0 0 1 .737-.575c.42 0 .756.329.756.726a.732.732 0 0 1-.569.698l.284 1.166a1.931 1.931 0 0 0 1.485-1.864c0-1.066-.88-1.926-1.956-1.926-.92 0-1.711.63-1.908 1.514l1.171.26z"/>
        <path stroke="#262F38" stroke-width=".8" d="M19.926 25.716c.324.262 1.014.262 1.339.052M20.52 19.317v-2"/>
        <path fill="#262F38" d="M8.907 25.721h1.226v-12H8.907z"/>
        <path fill="#262F38" fill-rule="nonzero" d="M12.1 25.28H7.01v1.2h5.09z"/>
        <mask id="c" fill="#fff">
            <path d="M6.9 4.456l-2.491 9.6H14.63l-2.299-9.6z"/>
        </mask>
        <path fill="#262F38" fill-rule="nonzero" d="M5.972 3.256h7.306l2.875 12H2.858l3.114-12zm-.012 9.6h7.15l-1.725-7.2H7.83l-1.869 7.2z" mask="url(#c)"/>
        <path fill="#272F38" d="M19.522 16.796c0 .471.471.859 1.06.859.579 0 1.06-.388 1.06-.86-.006-.235-.536-.353-1.064-.353-.53 0-1.056.118-1.056.354z"/>
    </g>
</svg>
