<svg xmlns="http://www.w3.org/2000/svg" width="30" height="30" viewBox="0 0 30 30">
    <path fill="#272F38" fill-rule="nonzero" d="M21.822 22.817a2.146 2.146 0 0 1-2.712 1.876l-8.39-1.98.344-1.46 8.419 1.988a.66.66 0 0 0 .666-.166.646.646 0 0 0-.34-1.083l-5.245-1.247-.297-.07-.163-.258a7.203 7.203 0 0 0-9.872-2.267l-2.623 1.524-.753-1.298 2.604-1.512c3.95-2.444 9.125-1.328 11.74 2.49l4.928 1.172c.502.099.951.387 1.262.796l4.288-2.627a2.28 2.28 0 0 1 2.394 3.882l-8.82 5.434-.265.162-11.553-2.729-4.795 2.588-.712-1.32 5.296-2.859 11.506 2.718 8.556-5.271a.78.78 0 0 0-.82-1.328l-4.643 2.845zM17.047 4.583l.08.081.081-.08a4.582 4.582 0 0 1 6.463 0 4.582 4.582 0 0 1 0 6.462l-6.487 6.487-.076-.062-.057.042-.46-.46-6.007-6.007a4.58 4.58 0 0 1 0-6.463 4.582 4.582 0 0 1 6.463 0zm5.564 5.402a3.082 3.082 0 0 0 0-4.34 3.082 3.082 0 0 0-4.342 0l-1.141 1.14-.53-.53-.611-.61a3.082 3.082 0 0 0-4.343 0 3.08 3.08 0 0 0 0 4.34l5.484 5.483 5.483-5.483z"/>
</svg>
