<svg xmlns="http://www.w3.org/2000/svg" width="30" height="30" viewBox="0 0 30 30">
    <path fill="#272F38" fill-rule="nonzero" d="M15.863 17.137a3.333 3.333 0 0 1 1.005-1.201h-3.893c.402.297.73.681.963 1.12a.75.75 0 0 1 .23-.036h1.292c.149 0 .287.043.403.117zm-.341 1.38a.76.76 0 0 1-.062.003h-1.139c.008.338-.037.684-.14 1.03l-.296.985a7.787 7.787 0 0 1-6.754 5.517l-.15-.001-.716-.08a4.487 4.487 0 0 1-3.985-4.234l-.08-1.602h-.943a.75.75 0 0 1-.7-1.02l3.94-10.218c.524-1.425 1.494-2.44 2.787-2.792l3.476-.587a.75.75 0 0 1 .25 1.479l-3.402.57c-.713.197-1.336.848-1.708 1.859L3 16.95a4.244 4.244 0 0 1 3.071-1.717c.87-.073 1.741-.1 2.611-.08a.75.75 0 0 1 .75-.718h11.627a.75.75 0 0 1 .748.702c.569.002 1.137.026 1.703.074l.262.022a4.248 4.248 0 0 1 3.293 2.05l-3.033-7.87c-.368-.999-.99-1.65-1.63-1.83l-3.475-.587a.75.75 0 1 1 .25-1.48l3.549.604c1.219.335 2.19 1.35 2.71 2.765l3.943 10.23a.75.75 0 0 1-.7 1.02h-1.036l-.08 1.6a4.487 4.487 0 0 1-3.985 4.236l-.716.079-.15.001a7.787 7.787 0 0 1-6.754-5.517l-.296-.985a3.312 3.312 0 0 1-.14-1.033zM6.43 24.481l.639.07a6.287 6.287 0 0 0 5.38-4.448l.295-.984a1.806 1.806 0 0 0-1.61-2.322L9.668 16.7a23.185 23.185 0 0 0-3.472.029 2.752 2.752 0 0 0-2.52 2.88l.102 2.053A2.986 2.986 0 0 0 6.43 24.48zm16.982 0a2.987 2.987 0 0 0 2.653-2.82l.103-2.052a2.753 2.753 0 0 0-2.522-2.88l-.261-.023c-.98-.081-1.965-.09-2.948-.024l-1.728.115a1.806 1.806 0 0 0-1.61 2.322l.295.985a6.287 6.287 0 0 0 5.38 4.448l.638-.071zM5.7 19.948a.75.75 0 0 1-1.497-.096c.097-1.52 1.325-2.73 2.792-2.761a.75.75 0 0 1 .031 1.5c-.678.014-1.278.605-1.326 1.357zm13.494-.476a.75.75 0 1 1-1.388-.57c.437-1.062 1.45-1.787 2.574-1.811a.75.75 0 0 1 .032 1.5c-.515.01-1.004.36-1.218.881z"/>
</svg>
