<svg xmlns="http://www.w3.org/2000/svg" width="30" height="30" viewBox="0 0 30 30">
    <g fill="none" fill-rule="evenodd">
        <path fill="#fff" d="M0 0h30v30H0z"/>
        <path fill="#000" fill-rule="nonzero" d="M22.72 8.264c.17.006.35.022.537.045.306.038.627.096.954.169.297.066.55.132.732.184l.1.03a11.799 11.799 0 0 1 1.477.572c.252.118.484.241.691.37.526.324.87.831.872 1.43l-.007.151-.148 1.61c-.04.44.04.88.229 1.274.623.666.885 1.641.609 2.581l-2.104 7.151a2.637 2.637 0 0 1-1.815 1.803l-.028.017a2.34 2.34 0 0 0-.85.802l-.1.173-.745 1.428c-.31.595-.922.872-1.594.847a6.32 6.32 0 0 1-.537-.046 10.257 10.257 0 0 1-.953-.168 12.48 12.48 0 0 1-.732-.185l-.1-.03a11.76 11.76 0 0 1-1.477-.572 6.949 6.949 0 0 1-.691-.368c-.526-.325-.871-.832-.873-1.431l.007-.151.148-1.61c.044-.47-.05-.942-.27-1.356l-.015-.033a2.681 2.681 0 0 1-.54-2.508l2.104-7.151a2.636 2.636 0 0 1 1.904-1.826l-.074.047a2.34 2.34 0 0 0 .851-.802l.1-.173.745-1.427c.31-.595.922-.872 1.594-.847zM17.829 23.92c.005.101.006.203.003.305l-.015.253-.148 1.61c-.003.03.034.09.16.167.154.095.337.192.541.288a10.297 10.297 0 0 0 1.277.495 10.285 10.285 0 0 0 1.532.329c.147.018.284.03.408.035.112.004.17-.012.195-.029l.013-.013.745-1.428c.088-.17.189-.332.3-.485l-5.011-1.527zm-9.3-22.907c.67 0 1.218.515 1.283 1.168l.007.132v.313l2.016.257c.813-1.371 2.764-1.964 4.7-1.431 2.235.614 3.74 2.535 3.249 4.388-.493 1.86-2.755 2.75-4.995 2.133-1.93-.53-3.316-2.034-3.342-3.627l-1.63-.209.001.808h1.546l-.001 3.174a6.81 6.81 0 0 1 .294.273c.21.204.403.406.504.518 1.91 1.901 3.107 4.72 3.107 7.722 0 3.196-1.144 6.171-3.011 7.895l-.203.18-.21.178h-7.42l-.21-.178C2.215 23.005 1 20.127 1 16.987c0-2.7.898-5.217 2.445-6.96a.75.75 0 0 1 1.122.995C3.27 12.482 2.5 14.644 2.5 16.988c0 2.495.875 4.772 2.297 6.214l.188.183h6.296c1.513-1.426 2.486-3.978 2.486-6.753 0-2.6-1.036-5.036-2.69-6.685-.108-.117-.28-.3-.465-.478l-.108-.103a4.571 4.571 0 0 0-.192-.17l-5.47.002V4.946h1.544V2.312c0-.67.506-1.226 1.159-1.293l.132-.007h.85zM19.04 13.715l-2.104 7.151c-.181.616.161 1.262.756 1.444l6.139 1.872a1.117 1.117 0 0 0 1.392-.774l2.104-7.151c.18-.616-.162-1.262-.756-1.444l-6.14-1.871a1.117 1.117 0 0 0-1.391.773zm3.715 2.3l.004.086-.128 3.21.505-.614a.5.5 0 0 1 .434-.18l.081.015.877.235a.5.5 0 0 1-.17.981l-.088-.015-.566-.152-1.246 1.513a.5.5 0 0 1-.882-.252l-.004-.086.129-3.225-.786.943a.5.5 0 0 1-.438.176l-.082-.015-.91-.257a.5.5 0 0 1 .183-.98l.088.017.598.17 1.521-1.824a.5.5 0 0 1 .88.254zm-16.4-4.698a.75.75 0 0 1 .049 1.06c-.97 1.063-1.562 2.73-1.562 4.554a.75.75 0 1 1-1.5 0c0-2.184.72-4.214 1.953-5.565a.75.75 0 0 1 1.06-.049zm16.31-1.554c-.113-.004-.171.011-.196.029l-.012.013-.745 1.427a3.89 3.89 0 0 1-.274.448l4.983 1.52a3.938 3.938 0 0 1-.002-.26l.015-.253.149-1.61c.003-.03-.035-.09-.16-.167a5.506 5.506 0 0 0-.542-.289 10.335 10.335 0 0 0-1.277-.495 10.285 10.285 0 0 0-1.531-.328 4.838 4.838 0 0 0-.409-.035zM9.862 6.446H6.342v1.252h3.52V6.446zm3.42-3.009l-.033.042a.747.747 0 0 1-.299.88c.042.863.919 1.806 2.235 2.168 1.514.417 2.897-.128 3.147-1.072.253-.95-.68-2.14-2.197-2.557-1.198-.33-2.315-.057-2.852.54zm-4.965-.924h-.431l-.001 2.432h.431V2.513z"/>
    </g>
</svg>
