<svg xmlns="http://www.w3.org/2000/svg" width="30" height="30" viewBox="0 0 30 30">
    <g fill="none" fill-rule="evenodd">
        <path fill="#fff" d="M0 0h30v30H0z"/>
        <path fill="#000" fill-rule="nonzero" d="M17.622 1C18.385 1 19 1.724 19 2.602V7.25h1.003c2.072 0 3.747 1.77 3.747 3.917v12.666c0 2.06-1.543 3.774-3.5 3.909V29h-1.5v-1.25h-8.5V29h-1.5v-1.473c-1.458-.54-2.5-2-2.5-3.694V11.167c0-2.147 1.675-3.917 3.747-3.917h7.624V2.74c0-.142-.081-.259-.182-.29l-.052-.007h-4.774c-.123 0-.235.131-.235.297v3.42H11V2.602C11 1.724 11.615 1 12.378 1zm2.38 7.75H9.998c-1.225 0-2.247 1.08-2.247 2.417v12.666c0 1.337 1.022 2.417 2.247 2.417h10.006c1.225 0 2.247-1.08 2.247-2.417V11.167c0-1.337-1.022-2.417-2.247-2.417zM19 20.75v1.5h-8v-1.5h8zm0-4v1.5h-8v-1.5h8zm0-4v1.5h-8v-1.5h8z"/>
    </g>
</svg>
