<svg xmlns="http://www.w3.org/2000/svg" width="30" height="30" viewBox="0 0 30 30">
    <g fill="none" fill-rule="evenodd">
        <path fill="#fff" d="M0 0h30v30H0z"/>
        <path fill="#000" fill-rule="nonzero" d="M21.567 8.121l.044.154 1.676 6.658a.756.756 0 0 1 .052.208l.672 2.673 3.14 2.23a3.177 3.177 0 0 1 1.337 2.383l.007.204v.784c0 1.578-1.252 2.861-2.823 2.95l-.176.006h-5.563a7.335 7.335 0 0 1-4.94-1.904l-.219-.21L4.442 14.015c-1.332-1.322-1.704-2.609-.548-3.796a.75.75 0 1 1 1.075 1.046c-.396.407-.309.815.391 1.545l.139.14L15.83 23.193a5.823 5.823 0 0 0 3.832 1.672l.271.006h5.563c.782 0 1.42-.58 1.492-1.316l.007-.14v-.784c0-.484-.214-.944-.584-1.263l-.129-.101-3.59-2.551-.068-.268-.585-2.325-3.588.865a.75.75 0 0 1-.874-.456l-.03-.097a.75.75 0 0 1 .455-.875l.098-.03 3.573-.862-.44-1.746-3.616.871a.75.75 0 0 1-.874-.456l-.03-.098a.75.75 0 0 1 .456-.874l.097-.03 3.6-.868-.71-2.826a.952.952 0 0 0-1.055-.694l-.11.022-1.29.324a.75.75 0 0 1-.463-1.424l.097-.031 1.29-.324c1.263-.318 2.55.395 2.942 1.607zm-11.32 14.69a.75.75 0 1 1 0 1.5h-6.06a.75.75 0 1 1 0-1.5zM13.97 4.23l.144.134 1.46 1.431-.5.535a1.779 1.779 0 0 0-.077 2.355l.113.126.707.715a.75.75 0 0 1-.983 1.128l-.084-.073-.707-.715a3.28 3.28 0 0 1-.602-3.794l.095-.174-.472-.463a1.548 1.548 0 0 0-2.037-.103l-.115.102-2.734 2.683a1.922 1.922 0 0 0-.117 2.635l.117.125 10.276 10.077c.31.304.72.49 1.155.528l.164.008h2.86a.75.75 0 0 1 .101 1.493l-.102.007h-2.859a3.39 3.39 0 0 1-2.208-.816l-.162-.149L7.127 11.948a3.422 3.422 0 0 1-.143-4.753l.143-.148L9.86 4.365a3.047 3.047 0 0 1 4.108-.133zM2.255 20.286h6.06a.75.75 0 0 1 .103 1.493l-.102.007H2.255a.75.75 0 0 1-.102-1.494l.102-.006h6.06z"/>
    </g>
</svg>
