<svg xmlns="http://www.w3.org/2000/svg" width="30" height="30" viewBox="0 0 30 30">
    <path fill="#272F38" fill-rule="nonzero" d="M9.818 2.626l2.015.257c.813-1.371 2.765-1.964 4.7-1.431 2.236.614 3.742 2.535 3.25 4.388-.493 1.86-2.755 2.75-4.995 2.133-1.93-.53-3.315-2.034-3.342-3.627l-1.628-.208v.808h1.545V8.12a6.818 6.818 0 0 1 .293.272c.21.204.403.406.504.518 1.91 1.901 3.107 4.72 3.107 7.722 0 3.31-1.227 6.384-3.214 8.075l-.21.178h-7.42l-.21-.178C2.215 23.005 1 20.127 1 16.987c0-2.7.898-5.217 2.445-6.96a.75.75 0 0 1 1.122.995C3.27 12.482 2.5 14.644 2.5 16.988c0 2.604.953 4.97 2.485 6.397h6.296c1.513-1.426 2.486-3.978 2.486-6.753 0-2.6-1.036-5.036-2.69-6.685-.108-.117-.28-.3-.465-.478l-.108-.103a4.596 4.596 0 0 0-.19-.168H4.842V4.946h1.545V2.313c0-.714.575-1.3 1.29-1.3h.85c.716 0 1.29.586 1.29 1.3v.313zm-4.523 8.74a.75.75 0 0 1 1.109 1.01c-.97 1.064-1.562 2.731-1.562 4.555a.75.75 0 1 1-1.5 0c0-2.184.72-4.214 1.953-5.565zm3.023-6.42V2.513h-.431v2.433h.43zm-1.976 1.5v1.252h3.52V6.446h-3.52zm6.908-2.969a.747.747 0 0 1-.3.883c.045.863.92 1.805 2.236 2.167 1.514.417 2.897-.128 3.147-1.072.253-.95-.68-2.14-2.197-2.557-1.225-.337-2.363-.045-2.886.579zm9.589 21.97l-5.011-1.527c.009.185.005.372-.012.558l-.148 1.61c-.003.03.034.09.16.167.154.095.337.192.541.288a10.297 10.297 0 0 0 1.277.495 10.285 10.285 0 0 0 1.532.329c.147.018.284.03.408.035.14.005.197-.02.208-.042l.745-1.428c.088-.17.189-.331.3-.484zm-6.805-2.499a2.681 2.681 0 0 1-.537-2.505l2.104-7.151a2.636 2.636 0 0 1 1.917-1.829c.364-.22.663-.54.864-.925l.745-1.427c.31-.595.922-.872 1.594-.847.17.006.349.022.536.045.306.038.627.096.954.169.357.079.65.159.831.214a11.799 11.799 0 0 1 1.477.572c.253.118.485.241.692.37.57.351.927.917.865 1.581l-.148 1.61c-.04.437.038.875.226 1.267a2.68 2.68 0 0 1 .612 2.588l-2.104 7.151a2.637 2.637 0 0 1-1.81 1.802 2.348 2.348 0 0 0-.983.993l-.745 1.428c-.31.595-.922.872-1.594.847a6.32 6.32 0 0 1-.537-.046 11.7 11.7 0 0 1-1.784-.383 11.76 11.76 0 0 1-1.477-.572 6.949 6.949 0 0 1-.692-.368c-.57-.352-.927-.918-.866-1.582l.148-1.61a2.426 2.426 0 0 0-.288-1.392zm5.404-11.268l4.983 1.52a3.94 3.94 0 0 1 .013-.513l.149-1.61c.003-.03-.035-.09-.16-.167a5.506 5.506 0 0 0-.542-.289 10.335 10.335 0 0 0-1.277-.495 10.285 10.285 0 0 0-1.531-.328 4.838 4.838 0 0 0-.409-.035c-.14-.005-.196.02-.207.042l-.745 1.427a3.89 3.89 0 0 1-.274.448zm2.393 12.502a1.117 1.117 0 0 0 1.392-.774l2.104-7.151c.18-.616-.162-1.262-.756-1.444l-6.14-1.871a1.117 1.117 0 0 0-1.391.773l-2.104 7.151c-.181.616.161 1.262.756 1.444l6.139 1.872zm-2.259-3.426l.129-3.225-.786.943a.5.5 0 0 1-.52.16l-.91-.256a.5.5 0 1 1 .271-.963l.598.17 1.521-1.824a.5.5 0 0 1 .884.34l-.128 3.21.505-.614a.5.5 0 0 1 .515-.165l.877.235a.5.5 0 0 1-.258.966l-.566-.152-1.246 1.513a.5.5 0 0 1-.886-.338z"/>
</svg>
