<svg xmlns="http://www.w3.org/2000/svg" width="30" height="30" viewBox="0 0 30 30">
    <path fill="#272F38" fill-rule="nonzero" d="M14.118 16.25c2.087 2.755 3.166 3.296 4.67 2.852a.75.75 0 1 1 .425 1.438c-2.295.678-3.938-.221-6.529-3.703v7.156H26.33c.637 0 1.156-.523 1.156-1.17V16.25H14.118zm-4.236 0H3.019v-1.5H7.01l-.149-.038c-1.535-.51-2.578-2.04-2.611-3.778-.025-1.3.836-2.442 2.05-2.64 1.612-.263 3.173.664 3.88 2.295l1.003 2.735V7.007H4.16c-.637 0-1.155.523-1.155 1.17v14.645c0 .648.518 1.171 1.155 1.171h7.024v-6.98c-2.515 3.336-4.142 4.194-6.397 3.527a.75.75 0 1 1 .426-1.438c1.503.444 2.582-.097 4.669-2.852zm7.114-1.5h10.49V8.178c0-.648-.52-1.171-1.156-1.171H12.684v6.678l1.152-3.137c.69-1.59 2.25-2.517 3.862-2.254 1.215.198 2.076 1.34 2.051 2.64-.033 1.737-1.076 3.269-2.66 3.792l-.093.024zm11.99 0H29v1.5h-.014v6.572a2.664 2.664 0 0 1-2.656 2.671H4.16a2.664 2.664 0 0 1-2.655-2.67V8.177A2.664 2.664 0 0 1 4.16 5.507h22.17a2.664 2.664 0 0 1 2.656 2.67v6.573zM7.284 13.273l2.521.647-1.017-2.774c-.425-.98-1.334-1.52-2.245-1.371-.445.072-.804.548-.793 1.13.022 1.123.675 2.082 1.534 2.368zm9.382.015c.91-.301 1.562-1.26 1.584-2.383.01-.582-.348-1.058-.793-1.13-.911-.149-1.82.39-2.23 1.33l-1.032 2.815 2.471-.632z"/>
</svg>
